<?xml version="1.0" encoding="UTF-8" standalone="no"?>
<!-- Generator: Adobe Illustrator 25.0.0, SVG Export Plug-In . SVG Version: 6.00 Build 0)  -->

<svg
   version="1.1"
   id="레이어_1"
   x="0px"
   y="0px"
   width="315px"
   height="209px"
   viewBox="0 0 315 209"
   style="enable-background:new 0 0 315 209;"
   xml:space="preserve"
   sodipodi:docname="ds0kdn_qsl_card_back.svg"
   inkscape:version="1.2.1 (9c6d41e410, 2022-07-14)"
   xmlns:inkscape="http://www.inkscape.org/namespaces/inkscape"
   xmlns:sodipodi="http://sodipodi.sourceforge.net/DTD/sodipodi-0.dtd"
   xmlns="http://www.w3.org/2000/svg"
   xmlns:svg="http://www.w3.org/2000/svg"><defs
   id="defs601" /><sodipodi:namedview
   id="namedview599"
   pagecolor="#ffffff"
   bordercolor="#000000"
   borderopacity="0.25"
   inkscape:showpageshadow="2"
   inkscape:pageopacity="0.0"
   inkscape:pagecheckerboard="0"
   inkscape:deskcolor="#d1d1d1"
   showgrid="false"
   inkscape:zoom="3.9746032"
   inkscape:cx="157.6258"
   inkscape:cy="104.41294"
   inkscape:window-width="1920"
   inkscape:window-height="1017"
   inkscape:window-x="-8"
   inkscape:window-y="-8"
   inkscape:window-maximized="1"
   inkscape:current-layer="레이어_1" />
<style
   type="text/css"
   id="style2">
	.st0{fill:#FFFFFF;stroke:#9FA0A0;stroke-width:0.25;stroke-miterlimit:10;}
	.st1{fill:none;stroke:#3E3A39;stroke-width:0.5;stroke-miterlimit:10;}
	.st2{fill:none;stroke:#000000;stroke-width:0.5;stroke-miterlimit:10;}
	.st3{fill:#3E3A39;}
	.st4{fill:none;stroke:#000000;stroke-width:0.25;stroke-miterlimit:10;}
	.st5{fill:none;stroke:#3E3A39;stroke-width:0.5;stroke-linejoin:round;stroke-miterlimit:10;}
	.st6{fill:none;stroke:#3E3A39;stroke-width:1.5;stroke-linejoin:round;stroke-miterlimit:10;}
	.st7{fill:none;stroke:#3E3A39;stroke-width:0.25;stroke-miterlimit:10;}
</style>

<path
   class="st1"
   d="M292.957,196.895H23.24c-4.144,0-7.503-3.359-7.503-7.503v-62.044c0-4.144,3.359-7.503,7.503-7.503h269.718  c4.144,0,7.503,3.359,7.503,7.503v62.044C300.461,193.536,297.101,196.895,292.957,196.895z"
   id="path6" />
<path
   class="st2"
   d="M135.183,73.987H23.24c-4.144,0-7.503-3.359-7.503-7.503V20.75c0-4.144,3.359-7.503,7.503-7.503h111.943  c4.144,0,7.503,3.359,7.503,7.503v45.734C142.686,70.628,139.327,73.987,135.183,73.987z"
   id="path8" />
<g
   id="g26">
	<path
   class="st3"
   d="M21.8,20.344h-1.153v-0.682h3.137v0.682H22.62v3.42H21.8V20.344z"
   id="path10" />
	<path
   class="st3"
   d="M23.727,22.218c0-1.036,0.715-1.635,1.491-1.635c0.776,0,1.491,0.599,1.491,1.635   c0,1.025-0.715,1.624-1.491,1.624C24.442,23.842,23.727,23.243,23.727,22.218z M25.877,22.218c0-0.588-0.238-0.97-0.66-0.97   c-0.421,0-0.66,0.382-0.66,0.97c0,0.582,0.238,0.959,0.66,0.959C25.639,23.176,25.877,22.799,25.877,22.218z"
   id="path12" />
	<path
   class="st3"
   d="M30.946,23.764l-0.843-1.552h-0.571v1.552h-0.82v-4.102h1.43c0.859,0,1.541,0.299,1.541,1.241   c0,0.615-0.31,0.998-0.781,1.181l0.959,1.679H30.946z M29.532,21.564h0.532c0.527,0,0.815-0.222,0.815-0.66   c0-0.443-0.288-0.593-0.815-0.593h-0.532V21.564z"
   id="path14" />
	<path
   class="st3"
   d="M32.224,22.922c0-0.666,0.538-1.015,1.784-1.148c-0.011-0.305-0.144-0.538-0.526-0.538   c-0.288,0-0.565,0.128-0.854,0.294l-0.294-0.538c0.366-0.227,0.809-0.41,1.297-0.41c0.787,0,1.192,0.471,1.192,1.369v1.813h-0.665   l-0.061-0.333H34.08c-0.271,0.233-0.582,0.41-0.937,0.41C32.589,23.842,32.224,23.448,32.224,22.922z M34.008,22.899v-0.626   c-0.754,0.1-1.009,0.305-1.009,0.582c0,0.244,0.172,0.349,0.41,0.349C33.642,23.204,33.814,23.093,34.008,22.899z"
   id="path16" />
	<path
   class="st3"
   d="M35.475,22.218c0-1.014,0.632-1.635,1.303-1.635c0.349,0,0.565,0.133,0.787,0.338l-0.033-0.488v-1.092h0.815   v4.423h-0.659l-0.067-0.321h-0.017c-0.227,0.222-0.537,0.399-0.859,0.399C35.974,23.842,35.475,23.232,35.475,22.218z    M37.531,22.85v-1.364c-0.188-0.172-0.382-0.232-0.576-0.232c-0.349,0-0.643,0.332-0.643,0.953c0,0.643,0.233,0.964,0.643,0.964   C37.171,23.171,37.354,23.082,37.531,22.85z"
   id="path18" />
	<path
   class="st3"
   d="M39.142,19.718c0-0.266,0.205-0.443,0.488-0.443c0.277,0,0.482,0.177,0.482,0.443   c0,0.255-0.205,0.443-0.482,0.443C39.347,20.161,39.142,19.973,39.142,19.718z M39.22,20.66h0.809v3.104H39.22V20.66z"
   id="path20" />
	<path
   class="st3"
   d="M40.709,22.218c0-1.036,0.715-1.635,1.491-1.635c0.776,0,1.491,0.599,1.491,1.635   c0,1.025-0.715,1.624-1.491,1.624C41.425,23.842,40.709,23.243,40.709,22.218z M42.86,22.218c0-0.588-0.238-0.97-0.66-0.97   c-0.421,0-0.66,0.382-0.66,0.97c0,0.582,0.238,0.959,0.66,0.959C42.621,23.176,42.86,22.799,42.86,22.218z"
   id="path22" />
	<path
   class="st3"
   d="M45.584,21.209c0-0.305,0.216-0.532,0.504-0.532c0.294,0,0.51,0.227,0.51,0.532   c0,0.299-0.216,0.526-0.51,0.526C45.8,21.735,45.584,21.508,45.584,21.209z M45.584,23.31c0-0.3,0.216-0.532,0.504-0.532   c0.294,0,0.51,0.233,0.51,0.532c0,0.299-0.216,0.532-0.51,0.532C45.8,23.842,45.584,23.609,45.584,23.31z"
   id="path24" />
</g>
<line
   class="st4"
   x1="146.8"
   y1="41.426"
   x2="300.461"
   y2="41.426"
   id="line28" />
<line
   class="st4"
   x1="146.8"
   y1="57.707"
   x2="300.461"
   y2="57.707"
   id="line30" />
<line
   class="st4"
   x1="146.8"
   y1="73.987"
   x2="300.461"
   y2="73.987"
   id="line32" />
<line
   class="st5"
   x1="89.74"
   y1="79.389"
   x2="89.74"
   y2="113.676"
   id="line34" />
<line
   class="st6"
   x1="149.999"
   y1="79.389"
   x2="149.999"
   y2="113.676"
   id="line36" />
<line
   class="st5"
   x1="211.852"
   y1="79.389"
   x2="211.852"
   y2="113.676"
   id="line38" />
<line
   class="st5"
   x1="260.189"
   y1="79.389"
   x2="260.189"
   y2="113.676"
   id="line40" />
<line
   class="st5"
   x1="15.736"
   y1="91.353"
   x2="89.74"
   y2="91.353"
   id="line42" />
<line
   class="st5"
   x1="149.935"
   y1="91.353"
   x2="211.852"
   y2="91.353"
   id="line44" />
<line
   class="st5"
   x1="89.74"
   y1="91.353"
   x2="149.935"
   y2="91.353"
   id="line46" />
<line
   class="st5"
   x1="260.189"
   y1="91.353"
   x2="300.461"
   y2="91.353"
   id="line48" />
<line
   class="st5"
   x1="211.852"
   y1="91.353"
   x2="260.189"
   y2="91.353"
   id="line50" />
<line
   class="st6"
   x1="16.047"
   y1="79.07"
   x2="16.047"
   y2="114.026"
   id="line52" />
<line
   class="st6"
   x1="300.461"
   y1="79.014"
   x2="300.461"
   y2="114.137"
   id="line54" />
<line
   class="st6"
   x1="15.736"
   y1="79.58"
   x2="300.461"
   y2="79.58"
   id="line56" />
<line
   class="st6"
   x1="15.736"
   y1="113.676"
   x2="300.461"
   y2="113.676"
   id="line58" />
<g
   id="g462">
	<path
   class="st3"
   d="M129.391,132.748c-0.151,0.072-0.423,0.133-0.75,0.133c-0.913,0-1.547-0.489-1.855-1.167   c-0.955-0.181-1.589-1.026-1.589-2.302c0-1.456,0.816-2.302,2-2.302c1.185,0,2,0.852,2,2.302c0,1.221-0.58,2.042-1.469,2.272   c0.206,0.338,0.61,0.477,1.015,0.477c0.193,0,0.363-0.03,0.49-0.072L129.391,132.748z M127.198,131.019   c0.665,0,1.088-0.604,1.088-1.607c0-0.961-0.423-1.535-1.088-1.535c-0.665,0-1.087,0.574-1.087,1.535   C126.11,130.415,126.533,131.019,127.198,131.019z"
   id="path60" />
	<path
   class="st3"
   d="M129.78,131.097l0.514-0.616c0.32,0.296,0.743,0.496,1.136,0.496c0.465,0,0.713-0.2,0.713-0.514   c0-0.333-0.272-0.436-0.67-0.604l-0.598-0.254c-0.454-0.188-0.907-0.55-0.907-1.202c0-0.731,0.641-1.293,1.547-1.293   c0.52,0,1.04,0.205,1.402,0.573l-0.453,0.562c-0.284-0.235-0.58-0.369-0.949-0.369c-0.393,0-0.646,0.176-0.646,0.472   c0,0.32,0.32,0.436,0.701,0.586l0.586,0.248c0.544,0.224,0.9,0.568,0.9,1.215c0,0.73-0.61,1.354-1.644,1.354   C130.813,131.751,130.215,131.514,129.78,131.097z"
   id="path62" />
	<path
   class="st3"
   d="M133.848,127.194h0.895v3.723h1.812v0.749h-2.707V127.194z"
   id="path64" />
	<path
   class="st3"
   d="M138.484,129.448c0-1.475,0.949-2.338,2.079-2.338c0.568,0,1.021,0.271,1.312,0.573l-0.472,0.568   c-0.224-0.218-0.483-0.375-0.822-0.375c-0.677,0-1.184,0.58-1.184,1.541c0,0.973,0.459,1.56,1.166,1.56   c0.381,0,0.683-0.182,0.925-0.441l0.471,0.556c-0.369,0.429-0.846,0.659-1.426,0.659   C139.402,131.751,138.484,130.94,138.484,129.448z"
   id="path66" />
	<path
   class="st3"
   d="M142.437,130.747c0-0.725,0.586-1.105,1.945-1.25c-0.012-0.333-0.156-0.586-0.573-0.586   c-0.314,0-0.617,0.139-0.931,0.319l-0.32-0.586c0.398-0.247,0.882-0.447,1.414-0.447c0.857,0,1.299,0.514,1.299,1.493v1.976h-0.726   l-0.066-0.362h-0.018c-0.296,0.254-0.635,0.447-1.021,0.447C142.836,131.751,142.437,131.321,142.437,130.747z M144.383,130.723   v-0.683c-0.821,0.108-1.1,0.332-1.1,0.634c0,0.266,0.188,0.381,0.447,0.381C143.984,131.055,144.172,130.934,144.383,130.723z"
   id="path68" />
	<path
   class="st3"
   d="M146.18,128.282h0.725l0.061,0.599h0.024c0.248-0.441,0.61-0.684,0.961-0.684c0.188,0,0.296,0.03,0.398,0.073   l-0.157,0.767c-0.114-0.036-0.211-0.054-0.351-0.054c-0.266,0-0.586,0.175-0.779,0.664v2.019h-0.882V128.282z"
   id="path70" />
	<path
   class="st3"
   d="M148.549,129.98c0-1.106,0.688-1.783,1.42-1.783c0.381,0,0.616,0.146,0.858,0.369l-0.037-0.532v-1.19h0.889   v4.822h-0.719l-0.073-0.351h-0.018c-0.248,0.242-0.586,0.436-0.937,0.436C149.093,131.751,148.549,131.086,148.549,129.98z    M150.79,130.669v-1.486c-0.205-0.188-0.417-0.254-0.628-0.254c-0.381,0-0.701,0.362-0.701,1.039c0,0.701,0.254,1.052,0.701,1.052   C150.397,131.019,150.597,130.923,150.79,130.669z"
   id="path72" />
	<path
   class="st3"
   d="M154.079,127.194h0.991l0.761,2.091c0.097,0.278,0.182,0.574,0.272,0.864h0.03   c0.097-0.29,0.175-0.586,0.271-0.864l0.743-2.091h0.991v4.472h-0.815v-1.867c0-0.423,0.066-1.045,0.108-1.468h-0.024l-0.362,1.051   l-0.688,1.879h-0.514l-0.695-1.879l-0.356-1.051h-0.024c0.043,0.423,0.115,1.045,0.115,1.468v1.867h-0.804V127.194z"
   id="path74" />
	<path
   class="st3"
   d="M159,130.747c0-0.725,0.586-1.105,1.945-1.25c-0.012-0.333-0.157-0.586-0.574-0.586   c-0.314,0-0.616,0.139-0.931,0.319l-0.32-0.586c0.399-0.247,0.883-0.447,1.414-0.447c0.858,0,1.299,0.514,1.299,1.493v1.976h-0.725   l-0.066-0.362h-0.019c-0.296,0.254-0.634,0.447-1.021,0.447C159.398,131.751,159,131.321,159,130.747z M160.945,130.723v-0.683   c-0.822,0.108-1.1,0.332-1.1,0.634c0,0.266,0.188,0.381,0.447,0.381C160.547,131.055,160.733,130.934,160.945,130.723z"
   id="path76" />
	<path
   class="st3"
   d="M162.742,128.282h0.725l0.061,0.447h0.024c0.296-0.29,0.641-0.532,1.1-0.532c0.731,0,1.045,0.508,1.045,1.36   v2.108h-0.888v-2c0-0.52-0.146-0.707-0.478-0.707c-0.277,0-0.453,0.133-0.707,0.381v2.326h-0.882V128.282z"
   id="path78" />
	<path
   class="st3"
   d="M166.447,130.747c0-0.725,0.586-1.105,1.945-1.25c-0.012-0.333-0.157-0.586-0.574-0.586   c-0.314,0-0.616,0.139-0.931,0.319l-0.32-0.586c0.399-0.247,0.883-0.447,1.414-0.447c0.858,0,1.299,0.514,1.299,1.493v1.976h-0.725   l-0.066-0.362h-0.019c-0.296,0.254-0.634,0.447-1.021,0.447C166.846,131.751,166.447,131.321,166.447,130.747z M168.392,130.723   v-0.683c-0.822,0.108-1.1,0.332-1.1,0.634c0,0.266,0.188,0.381,0.447,0.381C167.994,131.055,168.181,130.934,168.392,130.723z"
   id="path80" />
	<path
   class="st3"
   d="M169.965,132.264c0-0.284,0.175-0.526,0.483-0.701v-0.03c-0.176-0.115-0.309-0.29-0.309-0.568   c0-0.254,0.176-0.489,0.375-0.634v-0.024c-0.229-0.169-0.447-0.489-0.447-0.883c0-0.797,0.646-1.227,1.365-1.227   c0.188,0,0.369,0.036,0.508,0.085h1.221v0.652h-0.58c0.091,0.115,0.157,0.303,0.157,0.514c0,0.762-0.58,1.148-1.306,1.148   c-0.133,0-0.29-0.03-0.435-0.079c-0.097,0.079-0.146,0.157-0.146,0.29c0,0.182,0.134,0.278,0.532,0.278h0.574   c0.815,0,1.257,0.254,1.257,0.846c0,0.683-0.707,1.203-1.837,1.203C170.581,133.135,169.965,132.862,169.965,132.264z    M172.37,132.083c0-0.242-0.2-0.302-0.562-0.302h-0.411c-0.205,0-0.351-0.019-0.471-0.049c-0.151,0.121-0.224,0.254-0.224,0.393   c0,0.284,0.314,0.447,0.81,0.447C172.019,132.572,172.37,132.348,172.37,132.083z M171.959,129.424   c0-0.398-0.224-0.622-0.526-0.622c-0.302,0-0.531,0.224-0.531,0.622c0,0.399,0.235,0.623,0.531,0.623   C171.729,130.047,171.959,129.823,171.959,129.424z"
   id="path82" />
	<path
   class="st3"
   d="M173.471,129.98c0-1.1,0.768-1.783,1.577-1.783c0.931,0,1.414,0.684,1.414,1.62   c0,0.163-0.018,0.326-0.042,0.404h-2.085c0.072,0.556,0.436,0.846,0.937,0.846c0.278,0,0.52-0.084,0.762-0.235l0.302,0.544   c-0.332,0.229-0.762,0.375-1.185,0.375C174.208,131.751,173.471,131.092,173.471,129.98z M175.7,129.636   c0-0.459-0.205-0.749-0.64-0.749c-0.356,0-0.671,0.254-0.737,0.749H175.7z"
   id="path84" />
	<path
   class="st3"
   d="M177.194,128.282h0.725l0.061,0.599h0.024c0.248-0.441,0.61-0.684,0.961-0.684c0.188,0,0.296,0.03,0.398,0.073   l-0.157,0.767c-0.114-0.036-0.211-0.054-0.351-0.054c-0.266,0-0.586,0.175-0.779,0.664v2.019h-0.882V128.282z"
   id="path86" />
	<path
   class="st3"
   d="M181.661,127.986c0-0.333,0.254-0.574,0.574-0.574s0.574,0.241,0.574,0.574c0,0.32-0.254,0.562-0.574,0.562   S181.661,128.306,181.661,127.986z M181.661,130.868c0-0.332,0.254-0.574,0.574-0.574s0.574,0.242,0.574,0.574   c0,0.32-0.254,0.562-0.574,0.562S181.661,131.188,181.661,130.868z"
   id="path88" />
	<path
   d="M185.812,126.031h1.545c1.721,0,2.787,0.892,2.787,2.795c0,1.896-1.066,2.84-2.726,2.84h-1.606V126.031z M187.289,130.76   c1.051,0,1.706-0.563,1.706-1.934c0-1.378-0.655-1.896-1.706-1.896h-0.351v3.83H187.289z"
   id="path90" />
	<path
   d="M190.87,130.95l0.647-0.776c0.403,0.373,0.937,0.624,1.432,0.624c0.586,0,0.898-0.251,0.898-0.647   c0-0.418-0.343-0.548-0.845-0.761l-0.754-0.32c-0.571-0.235-1.143-0.692-1.143-1.515c0-0.922,0.808-1.63,1.949-1.63   c0.655,0,1.31,0.259,1.767,0.724l-0.571,0.708c-0.357-0.297-0.73-0.465-1.195-0.465c-0.495,0-0.814,0.221-0.814,0.595   c0,0.403,0.403,0.548,0.883,0.738l0.739,0.312c0.685,0.282,1.134,0.716,1.134,1.531c0,0.921-0.769,1.705-2.07,1.705   C192.173,131.772,191.419,131.475,190.87,130.95z"
   id="path92" />
	<path
   d="M195.922,130.76h1.211v-3.563h-1.021v-0.692c0.563-0.106,0.952-0.252,1.31-0.473h0.83v4.729h1.059v0.906h-3.389V130.76z"
   id="path94" />
	<path
   d="M201.592,126.968h-1.584v-0.937h4.31v0.937h-1.599v4.698h-1.127V126.968z"
   id="path96" />
	<path
   d="M204.458,130.988l2.627-4.021h-2.375v-0.937h3.753v0.67l-2.619,4.021h2.65v0.944h-4.036V130.988z"
   id="path98" />
	<path
   d="M209.487,126.031h3.456v0.937h-2.33v1.303h1.98v0.943h-1.98v1.508h2.414v0.944h-3.54V126.031z"
   id="path100" />
	<path
   class="st3"
   d="M129.391,144.582c-0.151,0.072-0.423,0.133-0.75,0.133c-0.913,0-1.547-0.489-1.855-1.167   c-0.955-0.181-1.589-1.026-1.589-2.302c0-1.456,0.816-2.302,2-2.302c1.185,0,2,0.852,2,2.302c0,1.221-0.58,2.042-1.469,2.272   c0.206,0.338,0.61,0.477,1.015,0.477c0.193,0,0.363-0.03,0.49-0.072L129.391,144.582z M127.198,142.853   c0.665,0,1.088-0.604,1.088-1.607c0-0.961-0.423-1.535-1.088-1.535c-0.665,0-1.087,0.574-1.087,1.535   C126.11,142.249,126.533,142.853,127.198,142.853z"
   id="path102" />
	<path
   class="st3"
   d="M129.78,142.931l0.514-0.616c0.32,0.296,0.743,0.496,1.136,0.496c0.465,0,0.713-0.2,0.713-0.514   c0-0.333-0.272-0.436-0.67-0.604l-0.598-0.254c-0.454-0.188-0.907-0.55-0.907-1.202c0-0.731,0.641-1.293,1.547-1.293   c0.52,0,1.04,0.205,1.402,0.573l-0.453,0.562c-0.284-0.235-0.58-0.369-0.949-0.369c-0.393,0-0.646,0.176-0.646,0.472   c0,0.32,0.32,0.436,0.701,0.586l0.586,0.248c0.544,0.224,0.9,0.568,0.9,1.215c0,0.73-0.61,1.354-1.644,1.354   C130.813,143.585,130.215,143.348,129.78,142.931z"
   id="path104" />
	<path
   class="st3"
   d="M133.848,139.028h0.895v3.723h1.812v0.749h-2.707V139.028z"
   id="path106" />
	<path
   class="st3"
   d="M138.587,140.715c0-0.333,0.235-0.58,0.55-0.58c0.32,0,0.556,0.247,0.556,0.58   c0,0.326-0.235,0.573-0.556,0.573C138.822,141.288,138.587,141.041,138.587,140.715z M138.587,143.005   c0-0.326,0.235-0.58,0.55-0.58c0.32,0,0.556,0.254,0.556,0.58s-0.235,0.58-0.556,0.58   C138.822,143.585,138.587,143.331,138.587,143.005z"
   id="path108" />
	<path
   d="M160.692,139.053h0.743l0.658,2.302c0.151,0.508,0.248,0.943,0.405,1.457h0.03c0.15-0.514,0.26-0.949,0.404-1.457   l0.659-2.302h0.713l-1.39,4.447h-0.828L160.692,139.053z"
   id="path110" />
	<path
   d="M164.724,139.143c0-0.248,0.188-0.411,0.441-0.411s0.447,0.163,0.447,0.411c0,0.241-0.193,0.411-0.447,0.411   S164.724,139.385,164.724,139.143z M164.82,140.177h0.689v3.323h-0.689V140.177z"
   id="path112" />
	<path
   d="M166.361,142.618c0-0.713,0.604-1.082,1.988-1.233c-0.006-0.387-0.146-0.725-0.635-0.725c-0.351,0-0.677,0.157-0.96,0.338   l-0.261-0.471c0.345-0.218,0.811-0.436,1.342-0.436c0.828,0,1.209,0.526,1.209,1.408v2h-0.568l-0.061-0.381h-0.019   c-0.302,0.26-0.658,0.459-1.057,0.459C166.766,143.578,166.361,143.204,166.361,142.618z M168.35,142.641v-0.815   c-0.985,0.121-1.317,0.368-1.317,0.743c0,0.326,0.224,0.459,0.52,0.459C167.842,143.028,168.078,142.889,168.35,142.641z"
   id="path114" />
	<path
   d="M172.019,143.155h-0.019l-0.066,0.345h-0.544v-4.815h0.689v1.274l-0.019,0.568c0.284-0.248,0.641-0.436,0.991-0.436   c0.84,0,1.317,0.671,1.317,1.692c0,1.142-0.683,1.794-1.433,1.794C172.636,143.578,172.304,143.428,172.019,143.155z    M173.65,141.796c0-0.694-0.224-1.124-0.779-1.124c-0.26,0-0.514,0.133-0.791,0.405v1.625c0.254,0.224,0.52,0.303,0.725,0.303   C173.288,143.005,173.65,142.575,173.65,141.796z"
   id="path116" />
	<path
   d="M175.15,142.267v-2.091h0.695v2.006c0,0.574,0.163,0.798,0.556,0.798c0.308,0,0.52-0.146,0.798-0.495v-2.309h0.694v3.323   h-0.568l-0.054-0.502h-0.019c-0.302,0.351-0.628,0.58-1.088,0.58C175.459,143.578,175.15,143.113,175.15,142.267z"
   id="path118" />
	<path
   d="M178.94,140.177h0.568l0.055,0.598h0.018c0.236-0.429,0.586-0.683,0.942-0.683c0.163,0,0.272,0.024,0.375,0.073   l-0.127,0.604c-0.114-0.036-0.199-0.054-0.332-0.054c-0.272,0-0.599,0.187-0.81,0.713v2.072h-0.689V140.177z"
   id="path120" />
	<path
   d="M181.111,141.845c0-1.082,0.737-1.753,1.517-1.753c0.882,0,1.354,0.635,1.354,1.577c0,0.133-0.012,0.272-0.03,0.351h-2.157   c0.055,0.635,0.453,1.016,1.027,1.016c0.296,0,0.55-0.091,0.792-0.248l0.241,0.441c-0.308,0.205-0.688,0.35-1.124,0.35   C181.83,143.578,181.111,142.938,181.111,141.845z M183.384,141.542c0-0.574-0.261-0.906-0.744-0.906   c-0.416,0-0.785,0.32-0.852,0.906H183.384z"
   id="path122" />
	<path
   d="M184.477,142.618c0-0.713,0.604-1.082,1.988-1.233c-0.006-0.387-0.145-0.725-0.635-0.725c-0.351,0-0.677,0.157-0.961,0.338   l-0.26-0.471c0.345-0.218,0.811-0.436,1.342-0.436c0.828,0,1.209,0.526,1.209,1.408v2h-0.568l-0.061-0.381h-0.018   c-0.303,0.26-0.659,0.459-1.058,0.459C184.883,143.578,184.477,143.204,184.477,142.618z M186.466,142.641v-0.815   c-0.985,0.121-1.317,0.368-1.317,0.743c0,0.326,0.224,0.459,0.52,0.459C185.958,143.028,186.194,142.889,186.466,142.641z"
   id="path124" />
	<path
   d="M188.104,142.267v-2.091h0.695v2.006c0,0.574,0.163,0.798,0.556,0.798c0.308,0,0.52-0.146,0.798-0.495v-2.309h0.694v3.323   h-0.567l-0.055-0.502h-0.019c-0.302,0.351-0.628,0.58-1.087,0.58C188.413,143.578,188.104,143.113,188.104,142.267z"
   id="path126" />
	<path
   d="M194.48,138.678h0.483l-1.68,5.91h-0.483L194.48,138.678z"
   id="path128" />
	<path
   d="M197.032,139.053h0.701v3.855h1.879v0.592h-2.58V139.053z"
   id="path130" />
	<path
   d="M200.018,141.845c0-1.112,0.743-1.753,1.565-1.753c0.821,0,1.564,0.641,1.564,1.753c0,1.1-0.743,1.733-1.564,1.733   C200.762,143.578,200.018,142.944,200.018,141.845z M202.435,141.845c0-0.707-0.326-1.179-0.852-1.179   c-0.521,0-0.847,0.472-0.847,1.179c0,0.7,0.326,1.166,0.847,1.166C202.109,143.011,202.435,142.545,202.435,141.845z"
   id="path132" />
	<path
   d="M204.54,139.638h-1.305v-0.586h3.317v0.586h-1.312v3.861h-0.701V139.638z"
   id="path134" />
	<path
   d="M206.867,139.053h0.726l0.417,2.314l0.235,1.426h0.024c0.097-0.478,0.199-0.955,0.302-1.426l0.574-2.314h0.616l0.58,2.314   c0.103,0.465,0.199,0.942,0.302,1.426h0.03c0.073-0.483,0.151-0.961,0.224-1.426l0.423-2.314h0.671l-0.876,4.447h-0.864   l-0.598-2.472c-0.079-0.351-0.146-0.683-0.206-1.021h-0.03c-0.061,0.338-0.133,0.67-0.205,1.021l-0.586,2.472h-0.847   L206.867,139.053z"
   id="path136" />
	<path
   d="M215.251,138.678h0.483l-1.68,5.91h-0.483L215.251,138.678z"
   id="path138" />
	<path
   d="M217.506,141.845c0-1.082,0.737-1.753,1.517-1.753c0.882,0,1.354,0.635,1.354,1.577c0,0.133-0.012,0.272-0.03,0.351h-2.157   c0.055,0.635,0.453,1.016,1.027,1.016c0.296,0,0.55-0.091,0.792-0.248l0.241,0.441c-0.308,0.205-0.688,0.35-1.124,0.35   C218.225,143.578,217.506,142.938,217.506,141.845z M219.778,141.542c0-0.574-0.261-0.906-0.744-0.906   c-0.416,0-0.785,0.32-0.852,0.906H219.778z"
   id="path140" />
	<path
   d="M224.988,144.539c-0.145,0.066-0.393,0.115-0.683,0.115c-0.864,0-1.456-0.466-1.729-1.1   c-0.96-0.163-1.601-1.01-1.601-2.297c0-1.432,0.791-2.29,1.934-2.29c1.142,0,1.939,0.858,1.939,2.29   c0,1.251-0.61,2.085-1.522,2.278c0.199,0.375,0.61,0.544,1.057,0.544c0.193,0,0.351-0.03,0.472-0.066L224.988,144.539z    M222.91,143.005c0.737,0,1.221-0.671,1.221-1.747c0-1.045-0.483-1.68-1.221-1.68s-1.215,0.635-1.215,1.68   C221.695,142.334,222.173,143.005,222.91,143.005z"
   id="path142" />
	<path
   d="M225.461,142.926l0.411-0.483c0.32,0.32,0.756,0.525,1.185,0.525c0.538,0,0.84-0.253,0.84-0.628   c0-0.405-0.302-0.532-0.713-0.713l-0.616-0.266c-0.43-0.182-0.906-0.521-0.906-1.167c0-0.7,0.616-1.227,1.462-1.227   c0.52,0,1.009,0.218,1.348,0.562l-0.369,0.447c-0.277-0.248-0.586-0.399-0.979-0.399c-0.453,0-0.749,0.218-0.749,0.574   c0,0.381,0.356,0.525,0.719,0.671l0.61,0.26c0.525,0.224,0.906,0.55,0.906,1.202c0,0.713-0.592,1.293-1.564,1.293   C226.434,143.578,225.866,143.337,225.461,142.926z"
   id="path144" />
	<path
   d="M229.45,139.053h0.701v3.855h1.879v0.592h-2.58V139.053z"
   id="path146" />
	<path
   d="M232.667,143.095c0-0.283,0.205-0.495,0.465-0.495s0.465,0.212,0.465,0.495c0,0.284-0.205,0.483-0.465,0.483   S232.667,143.379,232.667,143.095z"
   id="path148" />
	<path
   d="M234.244,141.845c0-1.112,0.768-1.753,1.644-1.753c0.423,0,0.731,0.169,0.973,0.381l-0.344,0.453   c-0.182-0.163-0.369-0.26-0.599-0.26c-0.556,0-0.955,0.472-0.955,1.179c0,0.7,0.381,1.166,0.937,1.166   c0.278,0,0.526-0.133,0.726-0.303l0.284,0.46c-0.303,0.271-0.695,0.41-1.076,0.41C234.933,143.578,234.244,142.944,234.244,141.845   z"
   id="path150" />
	<path
   d="M237.212,141.845c0-1.112,0.768-1.753,1.644-1.753c0.423,0,0.731,0.169,0.973,0.381l-0.345,0.453   c-0.181-0.163-0.368-0.26-0.598-0.26c-0.556,0-0.955,0.472-0.955,1.179c0,0.7,0.381,1.166,0.937,1.166   c0.278,0,0.526-0.133,0.726-0.303l0.284,0.46c-0.303,0.271-0.695,0.41-1.076,0.41C237.9,143.578,237.212,142.944,237.212,141.845z"
   id="path152" />
	<path
   d="M243.159,138.678h0.483l-1.68,5.91h-0.483L243.159,138.678z"
   id="path154" />
	<path
   d="M245.415,141.845c0-1.082,0.737-1.753,1.517-1.753c0.882,0,1.354,0.635,1.354,1.577c0,0.133-0.012,0.272-0.03,0.351h-2.157   c0.055,0.635,0.453,1.016,1.027,1.016c0.296,0,0.55-0.091,0.792-0.248l0.241,0.441c-0.308,0.205-0.688,0.35-1.124,0.35   C246.134,143.578,245.415,142.938,245.415,141.845z M247.686,141.542c0-0.574-0.26-0.906-0.743-0.906   c-0.417,0-0.785,0.32-0.852,0.906H247.686z"
   id="path156" />
	<path
   d="M248.891,141.536h1.595v0.514h-1.595V141.536z"
   id="path158" />
	<path
   d="M251.35,139.053h0.804l0.815,2.248c0.104,0.296,0.193,0.598,0.297,0.9h0.03c0.103-0.303,0.187-0.604,0.29-0.9l0.803-2.248   h0.811v4.447h-0.653v-2.199c0-0.399,0.055-0.973,0.091-1.378h-0.024l-0.356,1.027l-0.773,2.121h-0.435l-0.779-2.121l-0.351-1.027   h-0.024c0.03,0.405,0.085,0.979,0.085,1.378v2.199h-0.629V139.053z"
   id="path160" />
	<path
   d="M256.113,142.618c0-0.713,0.604-1.082,1.988-1.233c-0.006-0.387-0.146-0.725-0.635-0.725c-0.351,0-0.677,0.157-0.96,0.338   l-0.261-0.471c0.345-0.218,0.811-0.436,1.342-0.436c0.828,0,1.209,0.526,1.209,1.408v2h-0.568l-0.061-0.381h-0.019   c-0.302,0.26-0.658,0.459-1.057,0.459C256.518,143.578,256.113,143.204,256.113,142.618z M258.101,142.641v-0.815   c-0.985,0.121-1.317,0.368-1.317,0.743c0,0.326,0.224,0.459,0.52,0.459C257.594,143.028,257.83,142.889,258.101,142.641z"
   id="path162" />
	<path
   d="M259.685,139.143c0-0.248,0.188-0.411,0.441-0.411s0.447,0.163,0.447,0.411c0,0.241-0.193,0.411-0.447,0.411   S259.685,139.385,259.685,139.143z M259.782,140.177h0.689v3.323h-0.689V140.177z"
   id="path164" />
	<path
   d="M261.517,142.721v-4.036h0.689v4.072c0,0.188,0.084,0.254,0.169,0.254c0.03,0,0.055,0,0.115-0.013l0.09,0.526   c-0.084,0.03-0.205,0.054-0.374,0.054C261.705,143.578,261.517,143.259,261.517,142.721z"
   id="path166" />
	<path
   d="M265.905,138.678h0.483l-1.68,5.91h-0.483L265.905,138.678z"
   id="path168" />
	<path
   d="M268.457,139.053h1.154c1.365,0,2.146,0.755,2.146,2.205c0,1.444-0.78,2.242-2.109,2.242h-1.19V139.053z M269.563,142.926   c0.954,0,1.468-0.562,1.468-1.668c0-1.111-0.514-1.637-1.468-1.637h-0.405v3.305H269.563z"
   id="path170" />
	<path
   d="M272.524,139.143c0-0.248,0.188-0.411,0.441-0.411s0.447,0.163,0.447,0.411c0,0.241-0.193,0.411-0.447,0.411   S272.524,139.385,272.524,139.143z M272.621,140.177h0.689v3.323h-0.689V140.177z"
   id="path172" />
	<path
   d="M274.356,140.177h0.568l0.055,0.598h0.018c0.236-0.429,0.586-0.683,0.942-0.683c0.163,0,0.272,0.024,0.375,0.073   l-0.127,0.604c-0.114-0.036-0.199-0.054-0.332-0.054c-0.272,0-0.599,0.187-0.81,0.713v2.072h-0.689V140.177z"
   id="path174" />
	<path
   d="M276.526,141.845c0-1.082,0.737-1.753,1.517-1.753c0.882,0,1.354,0.635,1.354,1.577c0,0.133-0.012,0.272-0.03,0.351h-2.157   c0.055,0.635,0.453,1.016,1.027,1.016c0.296,0,0.55-0.091,0.792-0.248l0.241,0.441c-0.308,0.205-0.688,0.35-1.124,0.35   C277.245,143.578,276.526,142.938,276.526,141.845z M278.798,141.542c0-0.574-0.26-0.906-0.743-0.906   c-0.417,0-0.785,0.32-0.852,0.906H278.798z"
   id="path176" />
	<path
   d="M279.942,141.845c0-1.112,0.768-1.753,1.644-1.753c0.423,0,0.731,0.169,0.973,0.381l-0.345,0.453   c-0.181-0.163-0.368-0.26-0.598-0.26c-0.556,0-0.955,0.472-0.955,1.179c0,0.7,0.381,1.166,0.937,1.166   c0.278,0,0.526-0.133,0.726-0.303l0.284,0.46c-0.303,0.271-0.695,0.41-1.076,0.41C280.631,143.578,279.942,142.944,279.942,141.845   z"
   id="path178" />
	<path
   d="M283.346,142.412v-1.68h-0.483v-0.52l0.514-0.036l0.078-0.919h0.586v0.919h0.864v0.556h-0.864v1.686   c0,0.399,0.14,0.604,0.483,0.604c0.115,0,0.26-0.036,0.356-0.078l0.127,0.514c-0.188,0.061-0.41,0.12-0.652,0.12   C283.605,143.578,283.346,143.113,283.346,142.412z"
   id="path180" />
	<path
   class="st3"
   d="M125.421,150.863h2.743v0.743h-1.849v1.033h1.571v0.75h-1.571v1.196h1.916v0.749h-2.81V150.863z"
   id="path182" />
	<path
   class="st3"
   d="M128.885,153.286h1.65v0.635h-1.65V153.286z"
   id="path184" />
	<path
   class="st3"
   d="M131.303,151.951h0.725l0.06,0.453h0.024c0.284-0.296,0.598-0.538,1.039-0.538   c0.483,0,0.768,0.218,0.931,0.593c0.308-0.326,0.634-0.593,1.076-0.593c0.719,0,1.051,0.508,1.051,1.36v2.108h-0.888v-2   c0-0.52-0.151-0.707-0.471-0.707c-0.193,0-0.411,0.127-0.653,0.381v2.326h-0.888v-2c0-0.52-0.151-0.707-0.471-0.707   c-0.193,0-0.411,0.127-0.653,0.381v2.326h-0.882V151.951z"
   id="path186" />
	<path
   class="st3"
   d="M136.961,154.417c0-0.726,0.586-1.106,1.946-1.251c-0.012-0.333-0.157-0.587-0.574-0.587   c-0.314,0-0.616,0.14-0.93,0.32l-0.32-0.586c0.398-0.247,0.882-0.447,1.414-0.447c0.858,0,1.299,0.514,1.299,1.493v1.976h-0.725   l-0.066-0.362h-0.018c-0.296,0.254-0.635,0.447-1.021,0.447C137.36,155.42,136.961,154.99,136.961,154.417z M138.907,154.392   v-0.683c-0.822,0.108-1.1,0.332-1.1,0.634c0,0.267,0.187,0.381,0.447,0.381C138.508,154.724,138.695,154.603,138.907,154.392z"
   id="path188" />
	<path
   class="st3"
   d="M140.618,150.924c0-0.29,0.224-0.483,0.532-0.483c0.302,0,0.526,0.193,0.526,0.483   c0,0.278-0.224,0.483-0.526,0.483C140.841,151.407,140.618,151.202,140.618,150.924z M140.703,151.951h0.882v3.384h-0.882V151.951z   "
   id="path190" />
	<path
   class="st3"
   d="M142.54,154.387v-3.874h0.882v3.916c0,0.199,0.097,0.266,0.182,0.266c0.036,0,0.061,0,0.121-0.012l0.108,0.658   c-0.103,0.043-0.254,0.079-0.459,0.079C142.757,155.42,142.54,155.014,142.54,154.387z"
   id="path192" />
	<path
   class="st3"
   d="M145.767,152.55c0-0.333,0.236-0.58,0.55-0.58c0.32,0,0.557,0.247,0.557,0.58c0,0.326-0.236,0.573-0.557,0.573   C146.004,153.123,145.767,152.876,145.767,152.55z M145.767,154.84c0-0.327,0.236-0.58,0.55-0.58c0.32,0,0.557,0.253,0.557,0.58   c0,0.326-0.236,0.58-0.557,0.58C146.004,155.42,145.767,155.166,145.767,154.84z"
   id="path194" />
	<path
   d="M161.199,154.954l0.327-0.447c0.296,0.236,0.586,0.381,0.942,0.381c0.398,0,0.586-0.193,0.586-0.447   c0-0.302-0.375-0.435-0.737-0.574c-0.441-0.169-0.948-0.404-0.948-0.967c0-0.556,0.447-0.973,1.178-0.973   c0.447,0,0.81,0.182,1.082,0.393l-0.326,0.43c-0.229-0.17-0.466-0.29-0.743-0.29c-0.363,0-0.532,0.181-0.532,0.411   c0,0.283,0.345,0.393,0.707,0.525c0.466,0.175,0.979,0.381,0.979,1.009c0,0.556-0.44,1.009-1.263,1.009   C161.991,155.413,161.519,155.22,161.199,154.954z"
   id="path196" />
	<path
   d="M164.451,150.519h0.689v1.274l-0.024,0.659c0.29-0.278,0.622-0.526,1.075-0.526c0.707,0,1.021,0.472,1.021,1.317v2.091   h-0.695v-2.006c0-0.574-0.169-0.804-0.562-0.804c-0.309,0-0.52,0.157-0.815,0.453v2.356h-0.689V150.519z"
   id="path198" />
	<path
   d="M168.108,150.978c0-0.248,0.188-0.411,0.441-0.411s0.447,0.163,0.447,0.411c0,0.241-0.193,0.411-0.447,0.411   S168.108,151.22,168.108,150.978z M168.205,152.012h0.689v3.323h-0.689V152.012z"
   id="path200" />
	<path
   d="M169.939,152.012h0.568l0.055,0.459h0.018c0.309-0.296,0.646-0.544,1.1-0.544c0.707,0,1.021,0.472,1.021,1.317v2.091   h-0.695v-2.006c0-0.574-0.169-0.804-0.562-0.804c-0.309,0-0.52,0.157-0.815,0.453v2.356h-0.689V152.012z"
   id="path202" />
	<path
   d="M173.471,155.951c0-0.278,0.175-0.538,0.483-0.725v-0.03c-0.169-0.104-0.303-0.278-0.303-0.55   c0-0.26,0.188-0.483,0.369-0.616v-0.024c-0.224-0.176-0.436-0.489-0.436-0.883c0-0.755,0.599-1.196,1.287-1.196   c0.188,0,0.356,0.036,0.483,0.085h1.179v0.52h-0.635c0.127,0.133,0.218,0.356,0.218,0.61c0,0.725-0.55,1.142-1.245,1.142   c-0.15,0-0.32-0.036-0.465-0.103c-0.109,0.097-0.182,0.193-0.182,0.351c0,0.199,0.133,0.326,0.557,0.326h0.609   c0.786,0,1.197,0.242,1.197,0.81c0,0.641-0.677,1.16-1.74,1.16C174.051,156.827,173.471,156.531,173.471,155.951z M175.918,155.776   c0-0.278-0.218-0.363-0.623-0.363h-0.501c-0.157,0-0.309-0.018-0.447-0.048c-0.199,0.145-0.284,0.314-0.284,0.483   c0,0.326,0.339,0.52,0.889,0.52C175.531,156.368,175.918,156.084,175.918,155.776z M175.501,153.123   c0-0.446-0.278-0.707-0.629-0.707s-0.628,0.254-0.628,0.707c0,0.441,0.284,0.714,0.628,0.714   C175.217,153.837,175.501,153.564,175.501,153.123z"
   id="path204" />
	<path
   d="M177.108,150.978c0-0.248,0.188-0.411,0.441-0.411s0.447,0.163,0.447,0.411c0,0.241-0.193,0.411-0.447,0.411   S177.108,151.22,177.108,150.978z M177.205,152.012h0.689v3.323h-0.689V152.012z"
   id="path206" />
	<path
   d="M178.94,152.012h0.568l0.055,0.598h0.018c0.236-0.429,0.586-0.683,0.942-0.683c0.163,0,0.272,0.024,0.375,0.072   l-0.127,0.604c-0.114-0.036-0.199-0.054-0.332-0.054c-0.272,0-0.599,0.187-0.81,0.713v2.072h-0.689V152.012z"
   id="path208" />
	<path
   d="M181.37,154.102v-2.091h0.695v2.006c0,0.574,0.163,0.798,0.556,0.798c0.308,0,0.52-0.146,0.798-0.496v-2.308h0.694v3.323   h-0.567l-0.055-0.502h-0.019c-0.302,0.351-0.628,0.58-1.087,0.58C181.679,155.413,181.37,154.948,181.37,154.102z"
   id="path210" />
	<path
   d="M184.974,153.951c0-1.843,1.341-3.058,2.906-3.058c1.401,0,2.29,0.942,2.29,2.309c0,1.202-0.773,1.818-1.42,1.818   c-0.375,0-0.677-0.175-0.726-0.514h-0.018c-0.212,0.267-0.532,0.46-0.822,0.46c-0.483,0-0.846-0.356-0.846-0.979   c0-0.755,0.544-1.602,1.329-1.602c0.229,0,0.417,0.104,0.538,0.333h0.012l0.085-0.278h0.447l-0.284,1.396   c-0.121,0.501,0,0.73,0.351,0.73c0.423,0,0.882-0.508,0.882-1.341c0-1.063-0.604-1.886-1.873-1.886   c-1.196,0-2.356,1.021-2.356,2.592c0,1.33,0.882,2.043,2.012,2.043c0.394,0,0.78-0.121,1.076-0.29l0.175,0.398   c-0.404,0.229-0.834,0.339-1.305,0.339C186.085,156.423,184.974,155.583,184.974,153.951z M187.897,154.138l0.182-1.033   c-0.109-0.182-0.229-0.254-0.398-0.254c-0.49,0-0.798,0.616-0.798,1.1c0,0.393,0.188,0.562,0.44,0.562   C187.499,154.513,187.681,154.404,187.897,154.138z"
   id="path212" />
	<path
   d="M190.795,155.951c0-0.278,0.175-0.538,0.483-0.725v-0.03c-0.169-0.104-0.303-0.278-0.303-0.55   c0-0.26,0.188-0.483,0.369-0.616v-0.024c-0.224-0.176-0.436-0.489-0.436-0.883c0-0.755,0.599-1.196,1.287-1.196   c0.188,0,0.356,0.036,0.483,0.085h1.179v0.52h-0.635c0.127,0.133,0.218,0.356,0.218,0.61c0,0.725-0.55,1.142-1.245,1.142   c-0.15,0-0.32-0.036-0.465-0.103c-0.109,0.097-0.182,0.193-0.182,0.351c0,0.199,0.133,0.326,0.557,0.326h0.609   c0.786,0,1.197,0.242,1.197,0.81c0,0.641-0.677,1.16-1.74,1.16C191.375,156.827,190.795,156.531,190.795,155.951z M193.242,155.776   c0-0.278-0.218-0.363-0.623-0.363h-0.501c-0.157,0-0.309-0.018-0.447-0.048c-0.199,0.145-0.284,0.314-0.284,0.483   c0,0.326,0.339,0.52,0.889,0.52C192.855,156.368,193.242,156.084,193.242,155.776z M192.825,153.123   c0-0.446-0.278-0.707-0.629-0.707s-0.628,0.254-0.628,0.707c0,0.441,0.284,0.714,0.628,0.714   C192.541,153.837,192.825,153.564,192.825,153.123z"
   id="path214" />
	<path
   d="M194.529,152.012h0.568l0.055,0.465h0.018c0.284-0.302,0.616-0.55,1.027-0.55c0.495,0,0.773,0.229,0.919,0.61   c0.326-0.351,0.664-0.61,1.081-0.61c0.695,0,1.021,0.472,1.021,1.317v2.091h-0.695v-2.006c0-0.574-0.181-0.804-0.556-0.804   c-0.229,0-0.472,0.151-0.749,0.453v2.356h-0.695v-2.006c0-0.574-0.175-0.804-0.556-0.804c-0.224,0-0.472,0.151-0.749,0.453v2.356   h-0.689V152.012z"
   id="path216" />
	<path
   d="M200.03,154.453c0-0.714,0.604-1.082,1.988-1.233c-0.006-0.387-0.145-0.725-0.635-0.725c-0.351,0-0.677,0.157-0.961,0.338   l-0.26-0.471c0.345-0.218,0.811-0.436,1.342-0.436c0.828,0,1.209,0.526,1.209,1.408v2h-0.568l-0.061-0.381h-0.018   c-0.303,0.26-0.659,0.459-1.058,0.459C200.435,155.413,200.03,155.039,200.03,154.453z M202.018,154.476v-0.815   c-0.985,0.121-1.317,0.369-1.317,0.743c0,0.326,0.224,0.459,0.52,0.459C201.511,154.863,201.747,154.724,202.018,154.476z"
   id="path218" />
	<path
   d="M203.602,150.978c0-0.248,0.188-0.411,0.441-0.411s0.447,0.163,0.447,0.411c0,0.241-0.193,0.411-0.447,0.411   S203.602,151.22,203.602,150.978z M203.699,152.012h0.689v3.323h-0.689V152.012z"
   id="path220" />
	<path
   d="M205.434,154.555v-4.036h0.689v4.072c0,0.188,0.084,0.254,0.169,0.254c0.03,0,0.055,0,0.114-0.013l0.091,0.526   c-0.084,0.03-0.205,0.054-0.374,0.054C205.622,155.413,205.434,155.093,205.434,154.555z"
   id="path222" />
	<path
   d="M207.145,154.93c0-0.283,0.205-0.495,0.465-0.495s0.465,0.212,0.465,0.495c0,0.284-0.205,0.483-0.465,0.483   S207.145,155.214,207.145,154.93z"
   id="path224" />
	<path
   d="M208.723,153.68c0-1.112,0.768-1.753,1.644-1.753c0.423,0,0.731,0.17,0.973,0.381l-0.344,0.453   c-0.182-0.163-0.369-0.26-0.599-0.26c-0.556,0-0.955,0.472-0.955,1.179c0,0.7,0.381,1.166,0.937,1.166   c0.278,0,0.526-0.133,0.726-0.303l0.284,0.46c-0.303,0.271-0.695,0.41-1.076,0.41C209.411,155.413,208.723,154.779,208.723,153.68z   "
   id="path226" />
	<path
   d="M211.691,153.68c0-1.112,0.743-1.753,1.565-1.753c0.821,0,1.564,0.641,1.564,1.753c0,1.1-0.743,1.733-1.564,1.733   C212.434,155.413,211.691,154.779,211.691,153.68z M214.108,153.68c0-0.707-0.326-1.179-0.852-1.179   c-0.521,0-0.847,0.472-0.847,1.179c0,0.7,0.326,1.166,0.847,1.166C213.782,154.846,214.108,154.38,214.108,153.68z"
   id="path228" />
	<path
   d="M215.638,152.012h0.568l0.055,0.465h0.018c0.284-0.302,0.616-0.55,1.027-0.55c0.495,0,0.773,0.229,0.919,0.61   c0.326-0.351,0.664-0.61,1.081-0.61c0.695,0,1.021,0.472,1.021,1.317v2.091h-0.695v-2.006c0-0.574-0.181-0.804-0.556-0.804   c-0.229,0-0.472,0.151-0.749,0.453v2.356h-0.695v-2.006c0-0.574-0.175-0.804-0.556-0.804c-0.224,0-0.472,0.151-0.749,0.453v2.356   h-0.689V152.012z"
   id="path230" />
	<path
   class="st3"
   d="M127.518,166.02h-1.45l-0.314,1.148h-0.906l1.432-4.472h1.052l1.438,4.472h-0.937L127.518,166.02z    M127.325,165.326l-0.133-0.489c-0.139-0.466-0.26-0.979-0.393-1.463h-0.024c-0.115,0.489-0.248,0.997-0.38,1.463l-0.133,0.489   H127.325z"
   id="path232" />
	<path
   class="st3"
   d="M129.03,165.483c0-1.106,0.688-1.783,1.42-1.783c0.38,0,0.616,0.146,0.858,0.369l-0.036-0.532v-1.19h0.888   v4.822h-0.719l-0.072-0.351h-0.018c-0.248,0.242-0.586,0.436-0.937,0.436C129.574,167.254,129.03,166.589,129.03,165.483z    M131.272,166.172v-1.486c-0.206-0.188-0.417-0.254-0.628-0.254c-0.381,0-0.701,0.362-0.701,1.039c0,0.701,0.254,1.052,0.701,1.052   C130.879,166.522,131.079,166.426,131.272,166.172z"
   id="path234" />
	<path
   class="st3"
   d="M132.923,165.483c0-1.106,0.688-1.783,1.42-1.783c0.38,0,0.616,0.146,0.858,0.369l-0.036-0.532v-1.19h0.888   v4.822h-0.719l-0.072-0.351h-0.018c-0.248,0.242-0.586,0.436-0.937,0.436C133.467,167.254,132.923,166.589,132.923,165.483z    M135.165,166.172v-1.486c-0.206-0.188-0.417-0.254-0.628-0.254c-0.381,0-0.701,0.362-0.701,1.039c0,0.701,0.254,1.052,0.701,1.052   C134.772,166.522,134.972,166.426,135.165,166.172z"
   id="path236" />
	<path
   class="st3"
   d="M137.009,163.785h0.725l0.06,0.599h0.024c0.248-0.441,0.61-0.684,0.96-0.684c0.188,0,0.296,0.03,0.399,0.073   l-0.157,0.767c-0.115-0.036-0.212-0.054-0.351-0.054c-0.266,0-0.586,0.175-0.78,0.664v2.019h-0.882V163.785z"
   id="path238" />
	<path
   class="st3"
   d="M139.36,165.483c0-1.1,0.768-1.783,1.577-1.783c0.931,0,1.414,0.684,1.414,1.62   c0,0.163-0.018,0.326-0.042,0.404h-2.085c0.073,0.556,0.435,0.846,0.937,0.846c0.278,0,0.52-0.084,0.762-0.235l0.302,0.544   c-0.332,0.229-0.761,0.375-1.184,0.375C140.098,167.254,139.36,166.595,139.36,165.483z M141.59,165.138   c0-0.459-0.206-0.749-0.641-0.749c-0.356,0-0.67,0.254-0.737,0.749H141.59z"
   id="path240" />
	<path
   class="st3"
   d="M142.764,166.776l0.405-0.556c0.302,0.235,0.592,0.368,0.906,0.368c0.339,0,0.489-0.145,0.489-0.356   c0-0.254-0.351-0.368-0.707-0.508c-0.429-0.163-0.924-0.423-0.924-0.984c0-0.61,0.496-1.04,1.257-1.04   c0.495,0,0.87,0.206,1.153,0.417l-0.398,0.538c-0.241-0.169-0.478-0.29-0.731-0.29c-0.302,0-0.447,0.133-0.447,0.326   c0,0.248,0.333,0.339,0.689,0.472c0.447,0.169,0.942,0.393,0.942,1.021c0,0.593-0.465,1.07-1.348,1.07   C143.598,167.254,143.096,167.054,142.764,166.776z"
   id="path242" />
	<path
   class="st3"
   d="M145.756,166.776l0.404-0.556c0.303,0.235,0.593,0.368,0.907,0.368c0.338,0,0.489-0.145,0.489-0.356   c0-0.254-0.351-0.368-0.707-0.508c-0.429-0.163-0.925-0.423-0.925-0.984c0-0.61,0.496-1.04,1.257-1.04   c0.495,0,0.87,0.206,1.154,0.417l-0.398,0.538c-0.242-0.169-0.478-0.29-0.731-0.29c-0.303,0-0.447,0.133-0.447,0.326   c0,0.248,0.332,0.339,0.688,0.472c0.447,0.169,0.943,0.393,0.943,1.021c0,0.593-0.466,1.07-1.348,1.07   C146.59,167.254,146.088,167.054,145.756,166.776z"
   id="path244" />
	<path
   class="st3"
   d="M150.391,164.384c0-0.333,0.236-0.58,0.55-0.58c0.32,0,0.557,0.247,0.557,0.58   c0,0.326-0.236,0.573-0.557,0.573C150.628,164.957,150.391,164.71,150.391,164.384z M150.391,166.674c0-0.327,0.236-0.58,0.55-0.58   c0.32,0,0.557,0.253,0.557,0.58c0,0.326-0.236,0.58-0.557,0.58C150.628,167.254,150.391,167,150.391,166.674z"
   id="path246" />
	<path
   d="M162.3,165.815h-0.525v-0.465h0.58l0.114-0.925h-0.562v-0.466h0.616l0.157-1.208h0.423l-0.146,1.208h0.834l0.157-1.208   h0.429l-0.15,1.208h0.543v0.466h-0.598l-0.115,0.925h0.574v0.465h-0.628l-0.163,1.354h-0.436l0.163-1.354h-0.834l-0.169,1.354   h-0.429L162.3,165.815z M163.623,165.35l0.114-0.925h-0.84l-0.114,0.925H163.623z"
   id="path248" />
	<path
   d="M165.243,166.763c1.312-1.16,1.988-2.023,1.988-2.755c0-0.483-0.26-0.815-0.756-0.815c-0.35,0-0.64,0.224-0.876,0.495   l-0.393-0.387c0.381-0.411,0.773-0.665,1.354-0.665c0.815,0,1.342,0.532,1.342,1.336c0,0.857-0.683,1.746-1.626,2.646   c0.229-0.024,0.508-0.042,0.726-0.042h1.111v0.592h-2.87V166.763z"
   id="path250" />
	<path
   d="M168.708,164.927c0-1.54,0.562-2.29,1.438-2.29c0.87,0,1.438,0.756,1.438,2.29c0,1.547-0.568,2.32-1.438,2.32   C169.269,167.247,168.708,166.473,168.708,164.927z M170.919,164.927c0-1.274-0.32-1.74-0.773-1.74s-0.773,0.466-0.773,1.74   c0,1.287,0.32,1.771,0.773,1.771S170.919,166.214,170.919,164.927z"
   id="path252" />
	<path
   d="M172.135,166.763c1.312-1.16,1.988-2.023,1.988-2.755c0-0.483-0.26-0.815-0.755-0.815c-0.351,0-0.641,0.224-0.877,0.495   l-0.393-0.387c0.381-0.411,0.773-0.665,1.354-0.665c0.815,0,1.342,0.532,1.342,1.336c0,0.857-0.683,1.746-1.626,2.646   c0.229-0.024,0.508-0.042,0.726-0.042h1.111v0.592h-2.87V166.763z"
   id="path254" />
	<path
   d="M175.599,165.205h1.595v0.514h-1.595V165.205z"
   id="path256" />
	<path
   d="M177.738,166.763c1.312-1.16,1.988-2.023,1.988-2.755c0-0.483-0.26-0.815-0.755-0.815c-0.351,0-0.641,0.224-0.877,0.495   l-0.393-0.387c0.381-0.411,0.773-0.665,1.354-0.665c0.815,0,1.342,0.532,1.342,1.336c0,0.857-0.683,1.746-1.626,2.646   c0.229-0.024,0.508-0.042,0.726-0.042h1.111v0.592h-2.87V166.763z"
   id="path258" />
	<path
   d="M181.202,164.927c0-1.54,0.562-2.29,1.438-2.29c0.87,0,1.438,0.756,1.438,2.29c0,1.547-0.568,2.32-1.438,2.32   C181.764,167.247,181.202,166.473,181.202,164.927z M183.413,164.927c0-1.274-0.32-1.74-0.773-1.74s-0.773,0.466-0.773,1.74   c0,1.287,0.32,1.771,0.773,1.771S183.413,166.214,183.413,164.927z"
   id="path260" />
	<path
   d="M187.095,163.537c-0.163-0.193-0.436-0.332-0.695-0.332c-0.567,0-1.039,0.429-1.069,1.698   c0.26-0.32,0.646-0.514,0.967-0.514c0.749,0,1.251,0.459,1.251,1.401c0,0.883-0.604,1.456-1.329,1.456   c-0.847,0-1.535-0.707-1.535-2.217c0-1.71,0.804-2.394,1.68-2.394c0.495,0,0.858,0.212,1.112,0.478L187.095,163.537z    M186.901,165.791c0-0.574-0.254-0.894-0.731-0.894c-0.26,0-0.562,0.139-0.828,0.52c0.073,0.882,0.394,1.299,0.87,1.299   C186.599,166.716,186.901,166.365,186.901,165.791z"
   id="path262" />
	<path
   d="M188.129,167.984c0.411-0.169,0.652-0.471,0.658-0.827c-0.023,0.006-0.042,0.006-0.066,0.006   c-0.247,0-0.465-0.157-0.465-0.447c0-0.271,0.218-0.447,0.483-0.447c0.338,0,0.538,0.284,0.538,0.749   c0,0.635-0.369,1.124-0.991,1.36L188.129,167.984z"
   id="path264" />
	<path
   d="M191.49,166.595h0.973v-3.094h-0.797v-0.441c0.417-0.078,0.713-0.181,0.967-0.338h0.525v3.873h0.87v0.574h-2.538V166.595z"
   id="path266" />
	<path
   d="M194.935,166.595h0.973v-3.094h-0.797v-0.441c0.417-0.078,0.713-0.181,0.967-0.338h0.525v3.873h0.87v0.574h-2.538V166.595z   "
   id="path268" />
	<path
   d="M200.593,163.537c-0.163-0.193-0.436-0.332-0.695-0.332c-0.567,0-1.039,0.429-1.069,1.698   c0.26-0.32,0.646-0.514,0.967-0.514c0.749,0,1.251,0.459,1.251,1.401c0,0.883-0.604,1.456-1.329,1.456   c-0.847,0-1.535-0.707-1.535-2.217c0-1.71,0.804-2.394,1.68-2.394c0.495,0,0.858,0.212,1.112,0.478L200.593,163.537z    M200.399,165.791c0-0.574-0.254-0.894-0.731-0.894c-0.26,0-0.562,0.139-0.828,0.52c0.073,0.882,0.394,1.299,0.87,1.299   C200.097,166.716,200.399,166.365,200.399,165.791z"
   id="path270" />
	<path
   d="M201.627,167.984c0.411-0.169,0.652-0.471,0.658-0.827c-0.023,0.006-0.042,0.006-0.066,0.006   c-0.247,0-0.465-0.157-0.465-0.447c0-0.271,0.218-0.447,0.483-0.447c0.338,0,0.538,0.284,0.538,0.749   c0,0.635-0.369,1.124-0.991,1.36L201.627,167.984z"
   id="path272" />
	<path
   d="M204.649,166.511l0.489-0.357c0.188,0.345,0.429,0.484,0.719,0.484c0.447,0,0.671-0.242,0.671-0.895v-3.021h0.701v3.088   c0,0.798-0.387,1.438-1.293,1.438C205.338,167.247,204.927,167,204.649,166.511z"
   id="path274" />
	<path
   d="M208.276,165.936v-2.091h0.695v2.006c0,0.574,0.163,0.798,0.556,0.798c0.308,0,0.52-0.146,0.798-0.496v-2.308h0.694v3.323   h-0.567l-0.055-0.502h-0.019c-0.302,0.351-0.628,0.58-1.087,0.58C208.585,167.247,208.276,166.782,208.276,165.936z"
   id="path276" />
	<path
   d="M212.065,162.353h0.677v3.105h0.019l1.305-1.613h0.768l-1.13,1.348l1.257,1.976h-0.755l-0.9-1.505l-0.562,0.646v0.858   h-0.677V162.353z"
   id="path278" />
	<path
   d="M214.659,168.511l0.127-0.52c0.091,0.023,0.193,0.054,0.296,0.054c0.314,0,0.399-0.224,0.399-0.616v-3.583h0.694v3.571   c0,0.694-0.266,1.184-1.003,1.184C214.949,168.6,214.78,168.558,214.659,168.511z M215.384,162.812   c0-0.248,0.188-0.411,0.441-0.411s0.447,0.163,0.447,0.411c0,0.241-0.193,0.411-0.447,0.411S215.384,163.054,215.384,162.812z"
   id="path280" />
	<path
   d="M216.98,165.513c0-1.082,0.737-1.753,1.517-1.753c0.882,0,1.354,0.635,1.354,1.577c0,0.133-0.012,0.272-0.03,0.351h-2.157   c0.055,0.635,0.453,1.016,1.027,1.016c0.296,0,0.55-0.091,0.792-0.248l0.241,0.441c-0.308,0.205-0.688,0.35-1.124,0.35   C217.699,167.247,216.98,166.607,216.98,165.513z M219.253,165.211c0-0.574-0.261-0.906-0.744-0.906   c-0.416,0-0.785,0.32-0.852,0.906H219.253z"
   id="path282" />
	<path
   d="M220.395,165.513c0-1.112,0.743-1.753,1.565-1.753c0.821,0,1.564,0.641,1.564,1.753c0,1.1-0.743,1.733-1.564,1.733   C221.139,167.247,220.395,166.613,220.395,165.513z M222.812,165.513c0-0.707-0.326-1.179-0.852-1.179   c-0.521,0-0.847,0.472-0.847,1.179c0,0.7,0.326,1.166,0.847,1.166C222.486,166.68,222.812,166.214,222.812,165.513z"
   id="path284" />
	<path
   d="M224.343,163.846h0.568l0.055,0.459h0.018c0.309-0.296,0.646-0.544,1.1-0.544c0.707,0,1.021,0.472,1.021,1.317v2.091   h-0.695v-2.006c0-0.574-0.169-0.804-0.562-0.804c-0.309,0-0.52,0.157-0.815,0.453v2.356h-0.689V163.846z"
   id="path286" />
	<path
   d="M227.873,165.205h1.595v0.514h-1.595V165.205z"
   id="path288" />
	<path
   d="M230.272,163.846h0.568l0.055,0.598h0.018c0.236-0.429,0.586-0.683,0.942-0.683c0.163,0,0.272,0.024,0.375,0.072   l-0.127,0.604c-0.114-0.036-0.199-0.054-0.332-0.054c-0.272,0-0.599,0.187-0.81,0.713v2.072h-0.689V163.846z"
   id="path290" />
	<path
   d="M232.443,165.513c0-1.112,0.743-1.753,1.565-1.753c0.821,0,1.564,0.641,1.564,1.753c0,1.1-0.743,1.733-1.564,1.733   C233.186,167.247,232.443,166.613,232.443,165.513z M234.86,165.513c0-0.707-0.326-1.179-0.852-1.179   c-0.521,0-0.847,0.472-0.847,1.179c0,0.7,0.326,1.166,0.847,1.166C234.534,166.68,234.86,166.214,234.86,165.513z"
   id="path292" />
	<path
   d="M236.118,167.984c0.411-0.169,0.652-0.471,0.658-0.827c-0.023,0.006-0.042,0.006-0.066,0.006   c-0.247,0-0.465-0.157-0.465-0.447c0-0.271,0.218-0.447,0.483-0.447c0.338,0,0.538,0.284,0.538,0.749   c0,0.635-0.369,1.124-0.991,1.36L236.118,167.984z"
   id="path294" />
	<path
   d="M239.23,166.595l0.411-0.483c0.32,0.32,0.756,0.526,1.185,0.526c0.538,0,0.84-0.254,0.84-0.629   c0-0.405-0.302-0.531-0.713-0.713l-0.616-0.266c-0.43-0.182-0.906-0.52-0.906-1.167c0-0.7,0.616-1.227,1.462-1.227   c0.52,0,1.009,0.218,1.348,0.562l-0.369,0.447c-0.277-0.248-0.586-0.399-0.979-0.399c-0.453,0-0.749,0.218-0.749,0.574   c0,0.381,0.356,0.525,0.719,0.671l0.61,0.26c0.525,0.224,0.906,0.55,0.906,1.202c0,0.713-0.592,1.293-1.564,1.293   C240.204,167.247,239.636,167.006,239.23,166.595z"
   id="path296" />
	<path
   d="M243.118,165.936v-2.091h0.695v2.006c0,0.574,0.163,0.798,0.556,0.798c0.308,0,0.52-0.146,0.798-0.496v-2.308h0.694v3.323   h-0.567l-0.055-0.502h-0.019c-0.302,0.351-0.628,0.58-1.087,0.58C243.427,167.247,243.118,166.782,243.118,165.936z"
   id="path298" />
	<path
   d="M246.093,168.511l0.127-0.52c0.091,0.023,0.193,0.054,0.296,0.054c0.314,0,0.399-0.224,0.399-0.616v-3.583h0.694v3.571   c0,0.694-0.266,1.184-1.003,1.184C246.383,168.6,246.214,168.558,246.093,168.511z M246.817,162.812   c0-0.248,0.188-0.411,0.441-0.411s0.447,0.163,0.447,0.411c0,0.241-0.193,0.411-0.447,0.411S246.817,163.054,246.817,162.812z"
   id="path300" />
	<path
   d="M248.552,162.812c0-0.248,0.188-0.411,0.441-0.411s0.447,0.163,0.447,0.411c0,0.241-0.193,0.411-0.447,0.411   S248.552,163.054,248.552,162.812z M248.648,163.846h0.689v3.323h-0.689V163.846z"
   id="path302" />
	<path
   d="M250.142,165.205h1.595v0.514h-1.595V165.205z"
   id="path304" />
	<path
   d="M252.3,167.785c0-0.278,0.175-0.538,0.483-0.725v-0.03c-0.169-0.104-0.303-0.278-0.303-0.55   c0-0.26,0.188-0.483,0.369-0.616v-0.024c-0.224-0.176-0.436-0.489-0.436-0.883c0-0.755,0.599-1.196,1.287-1.196   c0.188,0,0.356,0.036,0.483,0.085h1.179v0.52h-0.635c0.127,0.133,0.218,0.356,0.218,0.61c0,0.725-0.55,1.142-1.245,1.142   c-0.15,0-0.32-0.036-0.465-0.103c-0.108,0.097-0.182,0.193-0.182,0.351c0,0.199,0.133,0.326,0.556,0.326h0.61   c0.786,0,1.197,0.242,1.197,0.81c0,0.641-0.677,1.16-1.74,1.16C252.88,168.661,252.3,168.365,252.3,167.785z M254.747,167.61   c0-0.278-0.218-0.363-0.623-0.363h-0.501c-0.157,0-0.309-0.018-0.447-0.048c-0.199,0.145-0.284,0.314-0.284,0.483   c0,0.326,0.339,0.52,0.889,0.52C254.36,168.202,254.747,167.918,254.747,167.61z M254.33,164.957c0-0.446-0.278-0.707-0.629-0.707   s-0.628,0.254-0.628,0.707c0,0.441,0.284,0.714,0.628,0.714C254.046,165.671,254.33,165.398,254.33,164.957z"
   id="path306" />
	<path
   d="M255.993,165.936v-2.091h0.695v2.006c0,0.574,0.163,0.798,0.556,0.798c0.308,0,0.52-0.146,0.798-0.496v-2.308h0.694v3.323   h-0.567l-0.055-0.502h-0.019c-0.302,0.351-0.628,0.58-1.087,0.58C256.302,167.247,255.993,166.782,255.993,165.936z"
   id="path308" />
	<path
   d="M259.578,167.984c0.411-0.169,0.652-0.471,0.658-0.827c-0.023,0.006-0.042,0.006-0.066,0.006   c-0.247,0-0.465-0.157-0.465-0.447c0-0.271,0.218-0.447,0.483-0.447c0.338,0,0.538,0.284,0.538,0.749   c0,0.635-0.369,1.124-0.991,1.36L259.578,167.984z"
   id="path310" />
	<path
   d="M263.736,165.483l-1.336-2.762h0.75l0.514,1.179c0.139,0.332,0.266,0.64,0.417,0.979h0.023   c0.146-0.339,0.29-0.646,0.423-0.979l0.521-1.179h0.73l-1.341,2.762v1.686h-0.701V165.483z"
   id="path312" />
	<path
   d="M265.743,165.513c0-1.112,0.743-1.753,1.565-1.753c0.821,0,1.564,0.641,1.564,1.753c0,1.1-0.743,1.733-1.564,1.733   C266.486,167.247,265.743,166.613,265.743,165.513z M268.16,165.513c0-0.707-0.326-1.179-0.852-1.179   c-0.521,0-0.847,0.472-0.847,1.179c0,0.7,0.326,1.166,0.847,1.166C267.834,166.68,268.16,166.214,268.16,165.513z"
   id="path314" />
	<path
   d="M269.69,163.846h0.568l0.055,0.459h0.018c0.309-0.296,0.646-0.544,1.1-0.544c0.707,0,1.021,0.472,1.021,1.317v2.091h-0.695   v-2.006c0-0.574-0.169-0.804-0.562-0.804c-0.309,0-0.52,0.157-0.815,0.453v2.356h-0.689V163.846z"
   id="path316" />
	<path
   d="M273.221,167.785c0-0.278,0.175-0.538,0.483-0.725v-0.03c-0.169-0.104-0.303-0.278-0.303-0.55   c0-0.26,0.188-0.483,0.369-0.616v-0.024c-0.224-0.176-0.436-0.489-0.436-0.883c0-0.755,0.599-1.196,1.287-1.196   c0.188,0,0.356,0.036,0.483,0.085h1.179v0.52h-0.635c0.127,0.133,0.218,0.356,0.218,0.61c0,0.725-0.55,1.142-1.245,1.142   c-0.15,0-0.32-0.036-0.465-0.103c-0.109,0.097-0.182,0.193-0.182,0.351c0,0.199,0.133,0.326,0.557,0.326h0.609   c0.786,0,1.197,0.242,1.197,0.81c0,0.641-0.677,1.16-1.74,1.16C273.801,168.661,273.221,168.365,273.221,167.785z M275.668,167.61   c0-0.278-0.218-0.363-0.623-0.363h-0.501c-0.157,0-0.309-0.018-0.447-0.048c-0.199,0.145-0.284,0.314-0.284,0.483   c0,0.326,0.339,0.52,0.889,0.52C275.281,168.202,275.668,167.918,275.668,167.61z M275.251,164.957   c0-0.446-0.278-0.707-0.629-0.707s-0.628,0.254-0.628,0.707c0,0.441,0.284,0.714,0.628,0.714   C274.967,165.671,275.251,165.398,275.251,164.957z"
   id="path318" />
	<path
   d="M276.859,162.812c0-0.248,0.188-0.411,0.441-0.411s0.447,0.163,0.447,0.411c0,0.241-0.193,0.411-0.447,0.411   S276.859,163.054,276.859,162.812z M276.956,163.846h0.689v3.323h-0.689V163.846z"
   id="path320" />
	<path
   d="M278.69,163.846h0.568l0.055,0.459h0.018c0.309-0.296,0.646-0.544,1.1-0.544c0.707,0,1.021,0.472,1.021,1.317v2.091h-0.695   v-2.006c0-0.574-0.169-0.804-0.562-0.804c-0.309,0-0.52,0.157-0.815,0.453v2.356h-0.689V163.846z"
   id="path322" />
	<path
   d="M282.222,165.205h1.595v0.514h-1.595V165.205z"
   id="path324" />
	<path
   d="M284.269,166.788l0.327-0.447c0.296,0.236,0.586,0.381,0.942,0.381c0.398,0,0.586-0.193,0.586-0.447   c0-0.302-0.375-0.435-0.737-0.574c-0.441-0.169-0.948-0.404-0.948-0.967c0-0.556,0.447-0.973,1.178-0.973   c0.447,0,0.81,0.182,1.082,0.393l-0.326,0.43c-0.229-0.17-0.466-0.29-0.743-0.29c-0.363,0-0.532,0.181-0.532,0.411   c0,0.283,0.345,0.393,0.707,0.525c0.466,0.175,0.979,0.381,0.979,1.009c0,0.556-0.44,1.009-1.263,1.009   C285.061,167.247,284.59,167.054,284.269,166.788z"
   id="path326" />
	<path
   d="M287.426,162.812c0-0.248,0.188-0.411,0.441-0.411s0.447,0.163,0.447,0.411c0,0.241-0.193,0.411-0.447,0.411   S287.426,163.054,287.426,162.812z M287.522,163.846h0.689v3.323h-0.689V163.846z"
   id="path328" />
	<path
   d="M289.052,167.984c0.411-0.169,0.652-0.471,0.658-0.827c-0.023,0.006-0.042,0.006-0.066,0.006   c-0.247,0-0.465-0.157-0.465-0.447c0-0.271,0.218-0.447,0.483-0.447c0.338,0,0.538,0.284,0.538,0.749   c0,0.635-0.369,1.124-0.991,1.36L289.052,167.984z"
   id="path330" />
	<path
   d="M161.936,176.791c0-1.45,0.894-2.32,2.072-2.32c0.629,0,1.052,0.278,1.323,0.562l-0.381,0.447   c-0.218-0.224-0.489-0.399-0.918-0.399c-0.828,0-1.378,0.641-1.378,1.687c0,1.057,0.489,1.704,1.408,1.704   c0.271,0,0.544-0.079,0.7-0.218v-1.046h-0.882v-0.574h1.517v1.928c-0.296,0.297-0.798,0.52-1.408,0.52   C162.8,179.081,161.936,178.248,161.936,176.791z"
   id="path332" />
	<path
   d="M167.817,179.202c-0.26,0.713-0.61,1.19-1.312,1.19c-0.169,0-0.302-0.024-0.417-0.066l0.133-0.544   c0.061,0.019,0.157,0.049,0.242,0.049c0.362,0,0.574-0.267,0.694-0.623l0.066-0.229l-1.317-3.299h0.714l0.616,1.71   c0.097,0.296,0.199,0.628,0.302,0.937h0.03l0.26-0.937l0.532-1.71h0.677L167.817,179.202z"
   id="path334" />
	<path
   d="M169.371,177.347c0-1.082,0.737-1.753,1.517-1.753c0.882,0,1.354,0.635,1.354,1.577c0,0.133-0.012,0.272-0.03,0.351h-2.157   c0.055,0.635,0.453,1.016,1.027,1.016c0.296,0,0.55-0.091,0.792-0.248l0.241,0.441c-0.308,0.205-0.688,0.35-1.124,0.35   C170.09,179.081,169.371,178.441,169.371,177.347z M171.643,177.045c0-0.574-0.261-0.906-0.744-0.906   c-0.416,0-0.785,0.32-0.852,0.906H171.643z"
   id="path336" />
	<path
   d="M172.787,177.347c0-1.112,0.743-1.753,1.565-1.753c0.821,0,1.564,0.641,1.564,1.753c0,1.1-0.743,1.733-1.564,1.733   C173.53,179.081,172.787,178.447,172.787,177.347z M175.204,177.347c0-0.707-0.326-1.179-0.852-1.179   c-0.521,0-0.847,0.472-0.847,1.179c0,0.7,0.326,1.166,0.847,1.166C174.878,178.513,175.204,178.048,175.204,177.347z"
   id="path338" />
	<path
   d="M176.733,175.68h0.568l0.055,0.459h0.018c0.309-0.296,0.646-0.544,1.1-0.544c0.707,0,1.021,0.472,1.021,1.317v2.091H178.8   v-2.006c0-0.574-0.169-0.804-0.562-0.804c-0.309,0-0.52,0.157-0.815,0.453v2.356h-0.689V175.68z"
   id="path340" />
	<path
   d="M180.265,179.619c0-0.278,0.175-0.538,0.483-0.725v-0.03c-0.169-0.104-0.303-0.278-0.303-0.55   c0-0.26,0.188-0.483,0.369-0.616v-0.024c-0.224-0.176-0.436-0.489-0.436-0.883c0-0.755,0.599-1.196,1.287-1.196   c0.188,0,0.356,0.036,0.483,0.085h1.179v0.52h-0.635c0.127,0.133,0.218,0.356,0.218,0.61c0,0.725-0.55,1.142-1.245,1.142   c-0.15,0-0.32-0.036-0.465-0.103c-0.108,0.097-0.182,0.193-0.182,0.351c0,0.199,0.133,0.326,0.556,0.326h0.61   c0.786,0,1.197,0.242,1.197,0.81c0,0.641-0.677,1.16-1.74,1.16C180.845,180.495,180.265,180.199,180.265,179.619z M182.712,179.444   c0-0.278-0.218-0.363-0.623-0.363h-0.501c-0.157,0-0.309-0.018-0.447-0.048c-0.199,0.145-0.284,0.314-0.284,0.483   c0,0.326,0.339,0.52,0.889,0.52C182.325,180.036,182.712,179.752,182.712,179.444z M182.295,176.791   c0-0.446-0.278-0.707-0.629-0.707s-0.628,0.254-0.628,0.707c0,0.441,0.284,0.714,0.628,0.714   C182.011,177.505,182.295,177.232,182.295,176.791z"
   id="path342" />
	<path
   d="M183.758,179.619c0-0.278,0.175-0.538,0.483-0.725v-0.03c-0.169-0.104-0.303-0.278-0.303-0.55   c0-0.26,0.188-0.483,0.369-0.616v-0.024c-0.224-0.176-0.436-0.489-0.436-0.883c0-0.755,0.599-1.196,1.287-1.196   c0.188,0,0.356,0.036,0.483,0.085h1.179v0.52h-0.635c0.127,0.133,0.218,0.356,0.218,0.61c0,0.725-0.55,1.142-1.245,1.142   c-0.15,0-0.32-0.036-0.465-0.103c-0.109,0.097-0.182,0.193-0.182,0.351c0,0.199,0.133,0.326,0.557,0.326h0.609   c0.786,0,1.197,0.242,1.197,0.81c0,0.641-0.677,1.16-1.74,1.16C184.338,180.495,183.758,180.199,183.758,179.619z M186.205,179.444   c0-0.278-0.218-0.363-0.623-0.363h-0.501c-0.157,0-0.309-0.018-0.447-0.048c-0.199,0.145-0.284,0.314-0.284,0.483   c0,0.326,0.339,0.52,0.889,0.52C185.818,180.036,186.205,179.752,186.205,179.444z M185.788,176.791   c0-0.446-0.278-0.707-0.629-0.707s-0.628,0.254-0.628,0.707c0,0.441,0.284,0.714,0.628,0.714   C185.504,177.505,185.788,177.232,185.788,176.791z"
   id="path344" />
	<path
   d="M187.396,174.646c0-0.248,0.188-0.411,0.441-0.411s0.447,0.163,0.447,0.411c0,0.241-0.193,0.411-0.447,0.411   S187.396,174.888,187.396,174.646z M187.493,175.68h0.689v3.323h-0.689V175.68z"
   id="path346" />
	<path
   d="M188.986,177.039h1.595v0.514h-1.595V177.039z"
   id="path348" />
	<path
   d="M191.162,177.347c0-1.082,0.684-1.753,1.427-1.753c0.38,0,0.622,0.146,0.894,0.375l-0.03-0.55v-1.232h0.695v4.815h-0.568   l-0.061-0.375h-0.018c-0.248,0.254-0.592,0.453-0.967,0.453C191.7,179.081,191.162,178.447,191.162,177.347z M193.452,178.102   v-1.625c-0.247-0.224-0.483-0.303-0.73-0.303c-0.466,0-0.84,0.441-0.84,1.16c0,0.756,0.296,1.173,0.815,1.173   C192.975,178.508,193.211,178.381,193.452,178.102z"
   id="path350" />
	<path
   d="M194.959,177.347c0-1.112,0.743-1.753,1.565-1.753c0.821,0,1.564,0.641,1.564,1.753c0,1.1-0.743,1.733-1.564,1.733   C195.702,179.081,194.959,178.447,194.959,177.347z M197.376,177.347c0-0.707-0.326-1.179-0.852-1.179   c-0.521,0-0.847,0.472-0.847,1.179c0,0.7,0.326,1.166,0.847,1.166C197.05,178.513,197.376,178.048,197.376,177.347z"
   id="path352" />
	<path
   d="M198.634,179.818c0.411-0.169,0.652-0.471,0.658-0.827c-0.023,0.006-0.042,0.006-0.066,0.006   c-0.247,0-0.465-0.157-0.465-0.447c0-0.271,0.218-0.447,0.483-0.447c0.338,0,0.538,0.284,0.538,0.749   c0,0.635-0.369,1.124-0.991,1.36L198.634,179.818z"
   id="path354" />
	<path
   d="M201.746,178.429l0.411-0.483c0.32,0.32,0.756,0.526,1.185,0.526c0.538,0,0.84-0.254,0.84-0.629   c0-0.405-0.302-0.531-0.713-0.713l-0.616-0.266c-0.43-0.182-0.906-0.52-0.906-1.167c0-0.7,0.616-1.227,1.462-1.227   c0.52,0,1.009,0.218,1.348,0.562l-0.369,0.447c-0.277-0.248-0.586-0.399-0.979-0.399c-0.453,0-0.749,0.218-0.749,0.574   c0,0.381,0.356,0.525,0.719,0.671l0.61,0.26c0.525,0.224,0.906,0.55,0.906,1.202c0,0.713-0.592,1.293-1.564,1.293   C202.72,179.081,202.151,178.84,201.746,178.429z"
   id="path356" />
	<path
   d="M205.44,177.347c0-1.112,0.743-1.753,1.565-1.753c0.821,0,1.564,0.641,1.564,1.753c0,1.1-0.743,1.733-1.564,1.733   C206.183,179.081,205.44,178.447,205.44,177.347z M207.857,177.347c0-0.707-0.326-1.179-0.852-1.179   c-0.521,0-0.847,0.472-0.847,1.179c0,0.7,0.326,1.166,0.847,1.166C207.531,178.513,207.857,178.048,207.857,177.347z"
   id="path358" />
	<path
   d="M209.345,177.77v-2.091h0.695v2.006c0,0.574,0.163,0.798,0.556,0.798c0.308,0,0.52-0.146,0.798-0.496v-2.308h0.694v3.323   h-0.567l-0.055-0.502h-0.019c-0.302,0.351-0.628,0.58-1.087,0.58C209.653,179.081,209.345,178.616,209.345,177.77z"
   id="path360" />
	<path
   d="M213.244,177.915v-1.68h-0.483v-0.52l0.514-0.036l0.078-0.919h0.586v0.919h0.864v0.556h-0.864v1.686   c0,0.399,0.14,0.604,0.483,0.604c0.115,0,0.26-0.036,0.356-0.078l0.127,0.514c-0.188,0.061-0.41,0.12-0.652,0.12   C213.504,179.081,213.244,178.616,213.244,177.915z"
   id="path362" />
	<path
   d="M215.528,174.187h0.689v1.274l-0.024,0.659c0.29-0.278,0.622-0.526,1.075-0.526c0.707,0,1.021,0.472,1.021,1.317v2.091   h-0.695v-2.006c0-0.574-0.169-0.804-0.562-0.804c-0.309,0-0.52,0.157-0.815,0.453v2.356h-0.689V174.187z"
   id="path364" />
	<path
   d="M220.703,174.555h0.701v2.103h0.019l1.691-2.103h0.779l-1.378,1.716l1.607,2.731h-0.779l-1.257-2.176l-0.683,0.834v1.342   h-0.701V174.555z"
   id="path366" />
	<path
   d="M224.349,177.347c0-1.112,0.743-1.753,1.565-1.753c0.821,0,1.564,0.641,1.564,1.753c0,1.1-0.743,1.733-1.564,1.733   C225.092,179.081,224.349,178.447,224.349,177.347z M226.766,177.347c0-0.707-0.326-1.179-0.852-1.179   c-0.521,0-0.847,0.472-0.847,1.179c0,0.7,0.326,1.166,0.847,1.166C226.439,178.513,226.766,178.048,226.766,177.347z"
   id="path368" />
	<path
   d="M228.295,175.68h0.568l0.055,0.598h0.018c0.235-0.429,0.586-0.683,0.942-0.683c0.164,0,0.272,0.024,0.375,0.072   l-0.127,0.604c-0.114-0.036-0.199-0.054-0.332-0.054c-0.272,0-0.599,0.187-0.81,0.713v2.072h-0.689V175.68z"
   id="path370" />
	<path
   d="M230.466,177.347c0-1.082,0.737-1.753,1.517-1.753c0.882,0,1.354,0.635,1.354,1.577c0,0.133-0.012,0.272-0.03,0.351h-2.157   c0.055,0.635,0.453,1.016,1.027,1.016c0.296,0,0.55-0.091,0.792-0.248l0.241,0.441c-0.308,0.205-0.688,0.35-1.124,0.35   C231.184,179.081,230.466,178.441,230.466,177.347z M232.737,177.045c0-0.574-0.26-0.906-0.743-0.906   c-0.417,0-0.785,0.32-0.852,0.906H232.737z"
   id="path372" />
	<path
   d="M233.832,178.121c0-0.714,0.604-1.082,1.988-1.233c-0.006-0.387-0.146-0.725-0.635-0.725c-0.351,0-0.677,0.157-0.96,0.338   l-0.261-0.471c0.345-0.218,0.811-0.436,1.342-0.436c0.828,0,1.209,0.526,1.209,1.408v2h-0.568l-0.061-0.381h-0.019   c-0.302,0.26-0.658,0.459-1.057,0.459C234.237,179.081,233.832,178.707,233.832,178.121z M235.82,178.144v-0.815   c-0.985,0.121-1.317,0.369-1.317,0.743c0,0.326,0.224,0.459,0.52,0.459C235.312,178.531,235.549,178.392,235.82,178.144z"
   id="path374" />
	<path
   d="M240.234,177.111c0-1.19,0.332-2.175,0.894-3.087l0.436,0.187c-0.52,0.87-0.762,1.892-0.762,2.9   c0,1.016,0.242,2.036,0.762,2.9l-0.436,0.193C240.566,179.287,240.234,178.314,240.234,177.111z"
   id="path376" />
	<path
   d="M243.426,178.628l1.638-2.393h-1.456v-0.556h2.332v0.368l-1.638,2.399h1.692v0.556h-2.568V178.628z"
   id="path378" />
	<path
   d="M246.593,174.646c0-0.248,0.188-0.411,0.441-0.411s0.447,0.163,0.447,0.411c0,0.241-0.193,0.411-0.447,0.411   S246.593,174.888,246.593,174.646z M246.689,175.68h0.689v3.323h-0.689V175.68z"
   id="path380" />
	<path
   d="M248.424,175.68h0.568l0.055,0.362h0.018c0.29-0.241,0.652-0.447,1.021-0.447c0.846,0,1.317,0.671,1.317,1.692   c0,1.142-0.683,1.794-1.433,1.794c-0.296,0-0.592-0.133-0.876-0.374l0.019,0.567v1.076h-0.689V175.68z M250.683,177.299   c0-0.694-0.224-1.124-0.779-1.124c-0.26,0-0.507,0.133-0.791,0.405v1.625c0.26,0.224,0.52,0.303,0.725,0.303   C250.321,178.508,250.683,178.078,250.683,177.299z"
   id="path382" />
	<path
   d="M253.356,177.347c0-1.112,0.768-1.753,1.644-1.753c0.423,0,0.731,0.17,0.973,0.381l-0.345,0.453   c-0.181-0.163-0.368-0.26-0.598-0.26c-0.556,0-0.955,0.472-0.955,1.179c0,0.7,0.381,1.166,0.937,1.166   c0.278,0,0.526-0.133,0.726-0.303l0.284,0.46c-0.303,0.271-0.695,0.41-1.076,0.41C254.045,179.081,253.356,178.447,253.356,177.347   z"
   id="path384" />
	<path
   d="M256.325,177.347c0-1.112,0.743-1.753,1.565-1.753c0.821,0,1.564,0.641,1.564,1.753c0,1.1-0.743,1.733-1.564,1.733   C257.068,179.081,256.325,178.447,256.325,177.347z M258.742,177.347c0-0.707-0.326-1.179-0.852-1.179   c-0.521,0-0.847,0.472-0.847,1.179c0,0.7,0.326,1.166,0.847,1.166C258.416,178.513,258.742,178.048,258.742,177.347z"
   id="path386" />
	<path
   d="M260.048,177.347c0-1.082,0.684-1.753,1.427-1.753c0.38,0,0.622,0.146,0.894,0.375l-0.03-0.55v-1.232h0.695v4.815h-0.568   l-0.06-0.375h-0.019c-0.248,0.254-0.592,0.453-0.967,0.453C260.586,179.081,260.048,178.447,260.048,177.347z M262.338,178.102   v-1.625c-0.247-0.224-0.483-0.303-0.73-0.303c-0.466,0-0.84,0.441-0.84,1.16c0,0.756,0.296,1.173,0.815,1.173   C261.861,178.508,262.097,178.381,262.338,178.102z"
   id="path388" />
	<path
   d="M263.845,177.347c0-1.082,0.737-1.753,1.517-1.753c0.882,0,1.354,0.635,1.354,1.577c0,0.133-0.012,0.272-0.03,0.351h-2.157   c0.055,0.635,0.453,1.016,1.027,1.016c0.296,0,0.55-0.091,0.792-0.248l0.241,0.441c-0.308,0.205-0.688,0.35-1.124,0.35   C264.563,179.081,263.845,178.441,263.845,177.347z M266.116,177.045c0-0.574-0.26-0.906-0.743-0.906   c-0.417,0-0.785,0.32-0.852,0.906H266.116z"
   id="path390" />
	<path
   d="M268.765,176.223c0-0.284,0.206-0.496,0.466-0.496s0.465,0.212,0.465,0.496c0,0.277-0.205,0.483-0.465,0.483   S268.765,176.501,268.765,176.223z M268.765,178.597c0-0.283,0.206-0.495,0.466-0.495s0.465,0.212,0.465,0.495   c0,0.284-0.205,0.483-0.465,0.483S268.765,178.882,268.765,178.597z"
   id="path392" />
	<path
   d="M272.011,178.429h0.973v-3.094h-0.797v-0.441c0.416-0.078,0.713-0.181,0.967-0.338h0.525v3.873h0.87v0.574h-2.538V178.429z   "
   id="path394" />
	<path
   d="M277.668,175.371c-0.163-0.193-0.436-0.332-0.695-0.332c-0.567,0-1.039,0.429-1.069,1.698   c0.26-0.32,0.646-0.514,0.967-0.514c0.749,0,1.251,0.459,1.251,1.401c0,0.883-0.604,1.456-1.329,1.456   c-0.847,0-1.535-0.707-1.535-2.217c0-1.71,0.804-2.394,1.68-2.394c0.495,0,0.858,0.212,1.112,0.478L277.668,175.371z    M277.474,177.625c0-0.574-0.254-0.894-0.731-0.894c-0.26,0-0.562,0.139-0.828,0.52c0.073,0.882,0.394,1.299,0.87,1.299   C277.172,178.55,277.474,178.199,277.474,177.625z"
   id="path396" />
	<path
   d="M278.66,177.897c0-0.586,0.387-0.979,0.797-1.196v-0.03c-0.332-0.236-0.598-0.568-0.598-1.04   c0-0.694,0.538-1.147,1.269-1.147c0.773,0,1.257,0.483,1.257,1.178c0,0.453-0.308,0.84-0.586,1.046v0.03   c0.398,0.229,0.749,0.574,0.749,1.178c0,0.659-0.58,1.166-1.438,1.166C279.276,179.081,278.66,178.586,278.66,177.897z    M280.89,177.897c0-0.544-0.489-0.75-1.094-0.997c-0.309,0.211-0.52,0.544-0.52,0.931c0,0.44,0.368,0.749,0.846,0.749   C280.575,178.58,280.89,178.314,280.89,177.897z M280.799,175.704c0-0.411-0.248-0.72-0.683-0.72c-0.362,0-0.635,0.248-0.635,0.646   c0,0.483,0.423,0.707,0.919,0.9C280.666,176.284,280.799,176,280.799,175.704z"
   id="path398" />
	<path
   d="M282.534,178.18c0.175,0.2,0.447,0.333,0.731,0.333c0.537,0,1.003-0.436,1.045-1.704c-0.26,0.32-0.641,0.52-0.979,0.52   c-0.743,0-1.245-0.465-1.245-1.396c0-0.883,0.604-1.463,1.323-1.463c0.853,0,1.541,0.689,1.541,2.157   c0,1.753-0.798,2.453-1.655,2.453c-0.514,0-0.877-0.205-1.137-0.471L282.534,178.18z M284.299,176.284   c-0.066-0.877-0.399-1.275-0.883-1.275c-0.38,0-0.683,0.345-0.683,0.925c0,0.567,0.254,0.894,0.719,0.894   C283.724,176.827,284.032,176.671,284.299,176.284z"
   id="path400" />
	<path
   d="M285.979,178.18c0.175,0.2,0.447,0.333,0.731,0.333c0.537,0,1.003-0.436,1.045-1.704c-0.26,0.32-0.641,0.52-0.979,0.52   c-0.743,0-1.245-0.465-1.245-1.396c0-0.883,0.604-1.463,1.323-1.463c0.853,0,1.541,0.689,1.541,2.157   c0,1.753-0.798,2.453-1.655,2.453c-0.514,0-0.877-0.205-1.137-0.471L285.979,178.18z M287.744,176.284   c-0.066-0.877-0.399-1.275-0.883-1.275c-0.38,0-0.683,0.345-0.683,0.925c0,0.567,0.254,0.894,0.719,0.894   C287.17,176.827,287.477,176.671,287.744,176.284z"
   id="path402" />
	<path
   d="M290.356,180.012c0.52-0.864,0.761-1.885,0.761-2.9c0-1.009-0.241-2.03-0.761-2.9l0.435-0.187   c0.568,0.912,0.9,1.896,0.9,3.087c0,1.203-0.332,2.176-0.9,3.094L290.356,180.012z"
   id="path404" />
	<path
   d="M164.528,187.29c-0.338,0.87-1.142,1.48-2.32,1.825l-0.248-0.496c1.281-0.356,1.988-1.027,2.098-1.879h-1.813v-0.502h2.478   c0,0.193-0.018,0.375-0.048,0.544h1.124v-0.937h0.622v3.209h-0.622v-0.629h-1.324v-0.508h1.324v-0.628H164.528z M166.456,190.196   c0,0.671-0.719,1.082-1.825,1.082c-1.105,0-1.818-0.411-1.818-1.082c0-0.664,0.713-1.075,1.818-1.075   C165.737,189.121,166.456,189.532,166.456,190.196z M165.84,190.196c0-0.375-0.466-0.586-1.209-0.586   c-0.737,0-1.202,0.211-1.202,0.586c0,0.381,0.465,0.592,1.202,0.592C165.374,190.788,165.84,190.577,165.84,190.196z"
   id="path406" />
	<path
   d="M170.355,186.42c0,1.625-0.652,3.003-2.525,3.909l-0.332-0.495c1.432-0.688,2.108-1.649,2.218-2.906h-1.946v-0.508H170.355   z M171.963,185.846v5.456h-0.622v-5.456H171.963z"
   id="path408" />
	<path
   d="M177.966,190.136v0.514h-4.942v-0.514h2.15v-1.287h-1.547v-2.592h3.734v0.501h-3.111v1.59h3.16v0.501h-1.613v1.287H177.966   z"
   id="path410" />
	<path
   d="M185.207,188.498v0.496h-4.938v-0.496h1.173v-0.725c-0.411-0.175-0.646-0.453-0.646-0.81c0-0.641,0.749-1.027,1.945-1.027   c1.19,0,1.945,0.387,1.945,1.027c0,0.356-0.241,0.635-0.658,0.815v0.719H185.207z M184.608,190.323   c0,0.629-0.701,0.979-1.879,0.979c-1.173,0-1.88-0.35-1.88-0.979c0-0.622,0.707-0.979,1.88-0.979   C183.907,189.345,184.608,189.701,184.608,190.323z M181.436,186.964c0,0.351,0.489,0.55,1.305,0.55c0.81,0,1.299-0.199,1.299-0.55   s-0.489-0.544-1.299-0.544C181.926,186.42,181.436,186.613,181.436,186.964z M183.979,190.323c0-0.326-0.453-0.502-1.25-0.502   c-0.798,0-1.245,0.176-1.245,0.502c0,0.332,0.447,0.502,1.245,0.502C183.526,190.825,183.979,190.655,183.979,190.323z    M182.064,188.498h1.342v-0.556c-0.2,0.03-0.423,0.049-0.665,0.049c-0.241,0-0.478-0.019-0.677-0.049V188.498z"
   id="path412" />
	<path
   d="M187.391,188.939c-0.822,0-1.45-0.574-1.45-1.365c0-0.798,0.628-1.366,1.45-1.366c0.821,0,1.444,0.568,1.444,1.366   C188.835,188.365,188.212,188.939,187.391,188.939z M187.391,188.401c0.478,0,0.84-0.332,0.84-0.827   c0-0.502-0.362-0.828-0.84-0.828c-0.483,0-0.84,0.326-0.84,0.828C186.551,188.069,186.907,188.401,187.391,188.401z    M190.49,190.692v0.507h-3.723v-1.788h0.629v1.281H190.49z M190.333,189.809h-0.622v-3.964h0.622V189.809z"
   id="path414" />
	<path
   d="M193.411,187.193c0,1.003,0.556,2.006,1.414,2.393l-0.362,0.496c-0.629-0.297-1.106-0.9-1.354-1.638   c-0.248,0.791-0.731,1.438-1.39,1.758l-0.369-0.52c0.87-0.393,1.438-1.438,1.438-2.489v-0.895h0.622V187.193z M195.889,185.84   v5.475h-0.629v-5.475H195.889z"
   id="path416" />
	<path
   d="M201.427,188.885v0.641h1.553v1.783h-0.623v-1.287h-3.16v-0.496h1.607v-0.641h-2.157v-0.501h4.949v0.501H201.427z    M198.894,187.61c1.009-0.109,1.71-0.55,1.801-1.052h-1.589v-0.501h4.03v0.501h-1.602c0.091,0.502,0.792,0.949,1.801,1.052   l-0.224,0.489c-0.955-0.108-1.704-0.508-1.994-1.075c-0.296,0.567-1.045,0.967-2,1.075L198.894,187.61z"
   id="path418" />
	<path
   d="M207.15,189.066c-0.604-0.205-1.046-0.635-1.275-1.172c-0.241,0.592-0.701,1.069-1.348,1.293l-0.32-0.489   c0.847-0.297,1.342-1.016,1.342-1.753v-0.188h-1.154v-0.501h2.919v0.501h-1.137v0.188c0,0.671,0.466,1.354,1.281,1.638   L207.15,189.066z M208.872,190.692v0.507h-3.674v-1.704h0.622v1.197H208.872z M208.11,187.307v-1.456h0.623v3.988h-0.623v-2.019   h-0.99v-0.514H208.11z"
   id="path420" />
	<path
   d="M214.718,190.148v0.514h-4.942v-0.514h2.15v-0.931h-1.553v-1.759h3.143v-0.731h-3.154v-0.501h3.771v1.729h-3.148v0.761   h3.27v0.502h-1.704v0.931H214.718z"
   id="path422" />
	<path
   d="M216.907,190.263h0.973v-3.094h-0.797v-0.441c0.416-0.078,0.713-0.181,0.967-0.338h0.525v3.873h0.87v0.574h-2.538V190.263z   "
   id="path424" />
	<path
   d="M220.353,190.263h0.973v-3.094h-0.797v-0.441c0.417-0.078,0.713-0.181,0.967-0.338h0.525v3.873h0.87v0.574h-2.538V190.263z   "
   id="path426" />
	<path
   d="M226.011,187.205c-0.163-0.193-0.436-0.332-0.695-0.332c-0.567,0-1.039,0.429-1.069,1.698   c0.26-0.32,0.646-0.514,0.967-0.514c0.749,0,1.251,0.459,1.251,1.401c0,0.883-0.604,1.456-1.329,1.456   c-0.847,0-1.535-0.707-1.535-2.217c0-1.71,0.804-2.394,1.68-2.394c0.495,0,0.858,0.212,1.112,0.478L226.011,187.205z    M225.817,189.459c0-0.574-0.254-0.894-0.731-0.894c-0.26,0-0.562,0.139-0.828,0.52c0.073,0.882,0.394,1.299,0.87,1.299   C225.515,190.384,225.817,190.033,225.817,189.459z"
   id="path428" />
	<path
   d="M227.045,191.652c0.411-0.169,0.652-0.471,0.658-0.827c-0.023,0.006-0.042,0.006-0.066,0.006   c-0.247,0-0.465-0.157-0.465-0.447c0-0.271,0.218-0.447,0.483-0.447c0.338,0,0.538,0.284,0.538,0.749   c0,0.635-0.369,1.124-0.991,1.36L227.045,191.652z"
   id="path430" />
	<path
   d="M230.151,190.431c1.312-1.16,1.988-2.023,1.988-2.755c0-0.483-0.26-0.815-0.756-0.815c-0.35,0-0.64,0.224-0.876,0.495   l-0.393-0.387c0.381-0.411,0.773-0.665,1.354-0.665c0.815,0,1.342,0.532,1.342,1.336c0,0.857-0.683,1.746-1.626,2.646   c0.229-0.024,0.508-0.042,0.726-0.042h1.111v0.592h-2.87V190.431z"
   id="path432" />
	<path
   d="M233.615,188.595c0-1.54,0.562-2.29,1.438-2.29c0.87,0,1.438,0.756,1.438,2.29c0,1.547-0.568,2.32-1.438,2.32   C234.177,190.915,233.615,190.141,233.615,188.595z M235.826,188.595c0-1.274-0.319-1.74-0.773-1.74   c-0.453,0-0.773,0.466-0.773,1.74c0,1.287,0.32,1.771,0.773,1.771C235.507,190.365,235.826,189.882,235.826,188.595z"
   id="path434" />
	<path
   d="M237.042,190.431c1.312-1.16,1.988-2.023,1.988-2.755c0-0.483-0.26-0.815-0.756-0.815c-0.35,0-0.64,0.224-0.876,0.495   l-0.393-0.387c0.381-0.411,0.773-0.665,1.354-0.665c0.815,0,1.342,0.532,1.342,1.336c0,0.857-0.683,1.746-1.626,2.646   c0.229-0.024,0.508-0.042,0.726-0.042h1.111v0.592h-2.87V190.431z"
   id="path436" />
	<path
   d="M245.468,188.48v0.508h-4.931v-0.508h2.151v-0.544h-1.541v-1.849h3.716v0.495h-3.1v0.852h3.136v0.502h-1.589v0.544H245.468   z M244.863,190.311c0,0.634-0.707,0.997-1.879,0.997c-1.167,0-1.88-0.363-1.88-0.997c0-0.629,0.713-0.991,1.88-0.991   C244.156,189.32,244.863,189.682,244.863,190.311z M244.235,190.311c0-0.333-0.454-0.514-1.251-0.514   c-0.798,0-1.245,0.181-1.245,0.514c0,0.338,0.447,0.514,1.245,0.514C243.781,190.825,244.235,190.649,244.235,190.311z"
   id="path438" />
	<path
   d="M247.409,190.431c1.312-1.16,1.988-2.023,1.988-2.755c0-0.483-0.26-0.815-0.756-0.815c-0.35,0-0.64,0.224-0.876,0.495   l-0.393-0.387c0.381-0.411,0.773-0.665,1.354-0.665c0.815,0,1.342,0.532,1.342,1.336c0,0.857-0.683,1.746-1.626,2.646   c0.229-0.024,0.508-0.042,0.726-0.042h1.111v0.592h-2.87V190.431z"
   id="path440" />
	<path
   d="M250.873,188.595c0-1.54,0.562-2.29,1.438-2.29c0.87,0,1.438,0.756,1.438,2.29c0,1.547-0.568,2.32-1.438,2.32   C251.434,190.915,250.873,190.141,250.873,188.595z M253.084,188.595c0-1.274-0.319-1.74-0.773-1.74   c-0.453,0-0.773,0.466-0.773,1.74c0,1.287,0.32,1.771,0.773,1.771C252.765,190.365,253.084,189.882,253.084,188.595z"
   id="path442" />
	<path
   d="M256.766,187.205c-0.163-0.193-0.436-0.332-0.695-0.332c-0.567,0-1.039,0.429-1.069,1.698   c0.26-0.32,0.646-0.514,0.967-0.514c0.749,0,1.251,0.459,1.251,1.401c0,0.883-0.604,1.456-1.329,1.456   c-0.847,0-1.535-0.707-1.535-2.217c0-1.71,0.804-2.394,1.68-2.394c0.495,0,0.858,0.212,1.112,0.478L256.766,187.205z    M256.572,189.459c0-0.574-0.254-0.894-0.731-0.894c-0.26,0-0.562,0.139-0.828,0.52c0.073,0.882,0.394,1.299,0.87,1.299   C256.269,190.384,256.572,190.033,256.572,189.459z"
   id="path444" />
	<path
   d="M262.731,190.196v0.514h-4.949v-0.514h2.157v-0.701c-0.937-0.066-1.511-0.44-1.511-1.045c0-0.658,0.701-1.045,1.813-1.045   c1.117,0,1.818,0.387,1.818,1.045c0,0.604-0.562,0.973-1.498,1.045v0.701H262.731z M262.477,187.091h-4.465v-0.502h1.927v-0.671   h0.623v0.671h1.915V187.091z M260.242,189.018c0.749,0,1.184-0.206,1.184-0.568c0-0.356-0.435-0.562-1.184-0.562   c-0.743,0-1.179,0.206-1.179,0.562C259.063,188.812,259.499,189.018,260.242,189.018z"
   id="path446" />
	<path
   d="M266.3,188.945c0-1.19,0.332-2.175,0.894-3.087l0.436,0.187c-0.52,0.87-0.762,1.892-0.762,2.9   c0,1.016,0.242,2.036,0.762,2.9l-0.436,0.193C266.632,191.121,266.3,190.148,266.3,188.945z"
   id="path448" />
	<path
   d="M269.787,190.263h0.973v-3.094h-0.797v-0.441c0.417-0.078,0.713-0.181,0.967-0.338h0.525v3.873h0.87v0.574h-2.538V190.263z   "
   id="path450" />
	<path
   d="M275.444,187.205c-0.163-0.193-0.436-0.332-0.695-0.332c-0.567,0-1.039,0.429-1.069,1.698   c0.26-0.32,0.646-0.514,0.967-0.514c0.749,0,1.251,0.459,1.251,1.401c0,0.883-0.604,1.456-1.329,1.456   c-0.847,0-1.535-0.707-1.535-2.217c0-1.71,0.804-2.394,1.68-2.394c0.495,0,0.858,0.212,1.112,0.478L275.444,187.205z    M275.251,189.459c0-0.574-0.254-0.894-0.731-0.894c-0.26,0-0.562,0.139-0.828,0.52c0.073,0.882,0.394,1.299,0.87,1.299   C274.948,190.384,275.251,190.033,275.251,189.459z"
   id="path452" />
	<path
   d="M276.436,189.731c0-0.586,0.387-0.979,0.797-1.196v-0.03c-0.332-0.236-0.598-0.568-0.598-1.04   c0-0.694,0.537-1.147,1.269-1.147c0.773,0,1.257,0.483,1.257,1.178c0,0.453-0.308,0.84-0.586,1.046v0.03   c0.398,0.229,0.749,0.574,0.749,1.178c0,0.659-0.58,1.166-1.438,1.166C277.053,190.915,276.436,190.42,276.436,189.731z    M278.666,189.731c0-0.544-0.489-0.75-1.094-0.997c-0.309,0.211-0.52,0.544-0.52,0.931c0,0.44,0.368,0.749,0.846,0.749   C278.351,190.414,278.666,190.148,278.666,189.731z M278.575,187.538c0-0.411-0.248-0.72-0.683-0.72   c-0.362,0-0.635,0.248-0.635,0.646c0,0.483,0.423,0.707,0.919,0.9C278.442,188.118,278.575,187.834,278.575,187.538z"
   id="path454" />
	<path
   d="M280.31,190.014c0.175,0.2,0.447,0.333,0.731,0.333c0.537,0,1.003-0.436,1.045-1.704c-0.26,0.32-0.641,0.52-0.979,0.52   c-0.743,0-1.245-0.465-1.245-1.396c0-0.883,0.604-1.463,1.323-1.463c0.853,0,1.541,0.689,1.541,2.157   c0,1.753-0.798,2.453-1.655,2.453c-0.514,0-0.877-0.205-1.137-0.471L280.31,190.014z M282.075,188.118   c-0.066-0.877-0.399-1.275-0.883-1.275c-0.381,0-0.683,0.345-0.683,0.925c0,0.567,0.254,0.894,0.719,0.894   C281.501,188.661,281.808,188.505,282.075,188.118z"
   id="path456" />
	<path
   d="M283.756,190.014c0.175,0.2,0.447,0.333,0.731,0.333c0.537,0,1.003-0.436,1.045-1.704c-0.26,0.32-0.641,0.52-0.979,0.52   c-0.743,0-1.245-0.465-1.245-1.396c0-0.883,0.604-1.463,1.323-1.463c0.853,0,1.541,0.689,1.541,2.157   c0,1.753-0.798,2.453-1.655,2.453c-0.514,0-0.877-0.205-1.137-0.471L283.756,190.014z M285.52,188.118   c-0.066-0.877-0.399-1.275-0.883-1.275c-0.381,0-0.683,0.345-0.683,0.925c0,0.567,0.254,0.894,0.719,0.894   C284.946,188.661,285.254,188.505,285.52,188.118z"
   id="path458" />
	<path
   d="M288.133,191.846c0.52-0.864,0.761-1.885,0.761-2.9c0-1.009-0.241-2.03-0.761-2.9l0.435-0.187   c0.568,0.912,0.9,1.896,0.9,3.087c0,1.203-0.332,2.176-0.9,3.094L288.133,191.846z"
   id="path460" />
</g>
<g
   id="g482">
	<path
   class="st3"
   d="M19.859,127.071c0-1.294,0.725-2.046,1.778-2.046s1.778,0.757,1.778,2.046c0,1.289-0.725,2.079-1.778,2.079   S19.859,128.36,19.859,127.071z M22.604,127.071c0-0.854-0.376-1.363-0.967-1.363s-0.967,0.51-0.967,1.363   c0,0.85,0.376,1.392,0.967,1.392S22.604,127.921,22.604,127.071z"
   id="path464" />
	<path
   class="st3"
   d="M24.128,126.067h0.645l0.054,0.312h0.021c0.252-0.215,0.564-0.387,0.886-0.387c0.741,0,1.182,0.606,1.182,1.53   c0,1.031-0.618,1.628-1.278,1.628c-0.263,0-0.516-0.118-0.747-0.327l0.021,0.494v0.912h-0.784V126.067z M26.105,127.534   c0-0.575-0.183-0.893-0.596-0.893c-0.204,0-0.387,0.103-0.596,0.312v1.32c0.193,0.167,0.387,0.227,0.548,0.227   C25.826,128.501,26.105,128.188,26.105,127.534z"
   id="path466" />
	<path
   class="st3"
   d="M27.399,127.577c0-0.979,0.682-1.585,1.402-1.585c0.827,0,1.257,0.606,1.257,1.439   c0,0.146-0.016,0.29-0.038,0.36h-1.853c0.064,0.494,0.387,0.752,0.833,0.752c0.247,0,0.462-0.076,0.677-0.21l0.269,0.483   c-0.295,0.204-0.677,0.333-1.053,0.333C28.054,129.15,27.399,128.565,27.399,127.577z M29.381,127.27   c0-0.408-0.183-0.666-0.569-0.666c-0.317,0-0.596,0.226-0.655,0.666H29.381z"
   id="path468" />
	<path
   class="st3"
   d="M30.706,126.067h0.645l0.054,0.531h0.021c0.22-0.392,0.542-0.606,0.854-0.606c0.167,0,0.263,0.026,0.354,0.064   l-0.14,0.683c-0.102-0.033-0.188-0.049-0.312-0.049c-0.236,0-0.521,0.156-0.693,0.591v1.794h-0.784V126.067z"
   id="path470" />
	<path
   class="st3"
   d="M32.731,128.259c0-0.645,0.521-0.982,1.729-1.111c-0.011-0.296-0.14-0.521-0.51-0.521   c-0.279,0-0.548,0.123-0.827,0.285l-0.285-0.521c0.354-0.221,0.784-0.397,1.257-0.397c0.763,0,1.155,0.456,1.155,1.327v1.756   h-0.645l-0.059-0.322h-0.016c-0.263,0.226-0.564,0.397-0.908,0.397C33.086,129.15,32.731,128.768,32.731,128.259z M34.461,128.237   v-0.607c-0.73,0.098-0.978,0.296-0.978,0.564c0,0.236,0.167,0.338,0.397,0.338C34.106,128.532,34.273,128.425,34.461,128.237z"
   id="path472" />
	<path
   class="st3"
   d="M36.066,128.022v-1.332h-0.424v-0.586l0.462-0.037l0.091-0.806h0.661v0.806h0.741v0.623h-0.741v1.332   c0,0.344,0.14,0.505,0.408,0.505c0.097,0,0.215-0.032,0.295-0.064l0.129,0.575c-0.161,0.053-0.371,0.112-0.634,0.112   C36.34,129.15,36.066,128.699,36.066,128.022z"
   id="path474" />
	<path
   class="st3"
   d="M37.918,127.577c0-1.005,0.693-1.585,1.445-1.585s1.445,0.58,1.445,1.585c0,0.993-0.693,1.573-1.445,1.573   S37.918,128.57,37.918,127.577z M40.002,127.577c0-0.57-0.231-0.94-0.639-0.94s-0.639,0.37-0.639,0.94   c0,0.563,0.231,0.929,0.639,0.929S40.002,128.14,40.002,127.577z"
   id="path476" />
	<path
   class="st3"
   d="M41.468,126.067h0.645l0.054,0.531h0.021c0.22-0.392,0.542-0.606,0.854-0.606c0.167,0,0.263,0.026,0.354,0.064   l-0.14,0.683c-0.102-0.033-0.188-0.049-0.312-0.049c-0.236,0-0.521,0.156-0.693,0.591v1.794h-0.784V126.067z"
   id="path478" />
	<path
   class="st3"
   d="M44.985,126.598c0-0.295,0.209-0.516,0.489-0.516c0.285,0,0.494,0.221,0.494,0.516   c0,0.291-0.209,0.511-0.494,0.511C45.195,127.109,44.985,126.889,44.985,126.598z M44.985,128.635c0-0.29,0.209-0.516,0.489-0.516   c0.285,0,0.494,0.226,0.494,0.516s-0.209,0.516-0.494,0.516C45.195,129.15,44.985,128.925,44.985,128.635z"
   id="path480" />
</g>
<g
   id="g500">
	<path
   class="st3"
   d="M149.962,16.653h0.881l0.678,1.858c0.086,0.247,0.16,0.51,0.241,0.768h0.026   c0.086-0.258,0.156-0.521,0.242-0.768l0.66-1.858h0.881v3.975h-0.725v-1.66c0-0.376,0.059-0.929,0.097-1.305h-0.021l-0.322,0.935   l-0.612,1.67h-0.457l-0.617-1.67l-0.316-0.935h-0.021c0.037,0.376,0.102,0.929,0.102,1.305v1.66h-0.715V16.653z"
   id="path484" />
	<path
   class="st3"
   d="M154.296,19.129c0-0.978,0.682-1.584,1.402-1.584c0.826,0,1.256,0.607,1.256,1.439   c0,0.145-0.016,0.29-0.037,0.36h-1.854c0.064,0.494,0.387,0.752,0.833,0.752c0.247,0,0.462-0.075,0.677-0.209l0.269,0.483   c-0.296,0.204-0.677,0.333-1.053,0.333C154.951,20.703,154.296,20.117,154.296,19.129z M156.278,18.823   c0-0.408-0.184-0.666-0.57-0.666c-0.316,0-0.596,0.226-0.654,0.666H156.278z"
   id="path486" />
	<path
   class="st3"
   d="M157.319,20.279l0.359-0.494c0.27,0.209,0.527,0.328,0.807,0.328c0.301,0,0.435-0.129,0.435-0.317   c0-0.226-0.312-0.328-0.628-0.451c-0.382-0.145-0.822-0.376-0.822-0.875c0-0.542,0.44-0.924,1.117-0.924   c0.44,0,0.773,0.183,1.025,0.371l-0.354,0.478c-0.215-0.15-0.425-0.258-0.65-0.258c-0.269,0-0.397,0.118-0.397,0.29   c0,0.22,0.296,0.301,0.612,0.419c0.397,0.15,0.838,0.349,0.838,0.908c0,0.526-0.414,0.951-1.197,0.951   C158.06,20.703,157.614,20.526,157.319,20.279z"
   id="path488" />
	<path
   class="st3"
   d="M159.977,20.279l0.359-0.494c0.27,0.209,0.527,0.328,0.807,0.328c0.301,0,0.435-0.129,0.435-0.317   c0-0.226-0.312-0.328-0.628-0.451c-0.382-0.145-0.822-0.376-0.822-0.875c0-0.542,0.44-0.924,1.117-0.924   c0.44,0,0.773,0.183,1.025,0.371l-0.354,0.478c-0.215-0.15-0.425-0.258-0.65-0.258c-0.269,0-0.397,0.118-0.397,0.29   c0,0.22,0.296,0.301,0.612,0.419c0.397,0.15,0.838,0.349,0.838,0.908c0,0.526-0.414,0.951-1.197,0.951   C160.719,20.703,160.272,20.526,159.977,20.279z"
   id="path490" />
	<path
   class="st3"
   d="M162.77,19.811c0-0.645,0.521-0.983,1.729-1.112c-0.01-0.295-0.139-0.521-0.51-0.521   c-0.279,0-0.548,0.124-0.827,0.285l-0.284-0.521c0.354-0.22,0.783-0.397,1.256-0.397c0.764,0,1.155,0.457,1.155,1.327v1.756h-0.645   l-0.06-0.322h-0.016c-0.264,0.226-0.564,0.397-0.908,0.397C163.124,20.703,162.77,20.322,162.77,19.811z M164.499,19.79v-0.607   c-0.73,0.097-0.977,0.295-0.977,0.564c0,0.236,0.166,0.338,0.396,0.338C164.145,20.085,164.311,19.978,164.499,19.79z"
   id="path492" />
	<path
   class="st3"
   d="M165.895,21.159c0-0.252,0.156-0.467,0.43-0.623V20.51c-0.156-0.102-0.273-0.258-0.273-0.505   c0-0.226,0.155-0.435,0.332-0.564v-0.021c-0.203-0.15-0.396-0.435-0.396-0.784c0-0.709,0.574-1.09,1.213-1.09   c0.167,0,0.328,0.032,0.451,0.075h1.086v0.58h-0.516c0.08,0.102,0.139,0.269,0.139,0.457c0,0.677-0.516,1.021-1.16,1.021   c-0.117,0-0.258-0.027-0.387-0.07c-0.086,0.07-0.129,0.14-0.129,0.258c0,0.161,0.119,0.247,0.473,0.247h0.511   c0.726,0,1.117,0.226,1.117,0.752c0,0.607-0.628,1.069-1.633,1.069C166.443,21.933,165.895,21.691,165.895,21.159z M168.033,20.998   c0-0.215-0.177-0.269-0.499-0.269h-0.365c-0.184,0-0.312-0.016-0.42-0.043c-0.134,0.107-0.198,0.226-0.198,0.349   c0,0.252,0.279,0.397,0.72,0.397C167.722,21.433,168.033,21.235,168.033,20.998z M167.668,18.635c0-0.354-0.198-0.553-0.468-0.553   c-0.268,0-0.473,0.199-0.473,0.553s0.21,0.553,0.473,0.553C167.464,19.188,167.668,18.99,167.668,18.635z"
   id="path494" />
	<path
   class="st3"
   d="M169.01,19.129c0-0.978,0.683-1.584,1.401-1.584c0.828,0,1.258,0.607,1.258,1.439   c0,0.145-0.017,0.29-0.038,0.36h-1.853c0.064,0.494,0.387,0.752,0.832,0.752c0.247,0,0.462-0.075,0.677-0.209l0.269,0.483   c-0.295,0.204-0.677,0.333-1.053,0.333C169.665,20.703,169.01,20.117,169.01,19.129z M170.991,18.823   c0-0.408-0.182-0.666-0.568-0.666c-0.317,0-0.597,0.226-0.656,0.666H170.991z"
   id="path496" />
	<path
   class="st3"
   d="M173.493,18.152c0-0.295,0.21-0.516,0.489-0.516c0.284,0,0.494,0.22,0.494,0.516c0,0.29-0.21,0.51-0.494,0.51   C173.703,18.662,173.493,18.442,173.493,18.152z M173.493,20.187c0-0.29,0.21-0.516,0.489-0.516c0.284,0,0.494,0.226,0.494,0.516   s-0.21,0.516-0.494,0.516C173.703,20.703,173.493,20.477,173.493,20.187z"
   id="path498" />
</g>
<g
   id="g522">
	<path
   class="st3"
   d="M20.641,191.46l0.306-0.35c0.324,0.35,0.777,0.569,1.254,0.569c0.612,0,0.985-0.312,0.985-0.771   c0-0.483-0.337-0.637-0.765-0.826l-0.648-0.288c-0.416-0.177-0.912-0.483-0.912-1.138c0-0.68,0.587-1.169,1.383-1.169   c0.538,0,0.997,0.227,1.303,0.551l-0.27,0.324c-0.275-0.263-0.605-0.429-1.034-0.429c-0.52,0-0.869,0.264-0.869,0.686   c0,0.459,0.404,0.631,0.747,0.777l0.648,0.275c0.514,0.227,0.93,0.532,0.93,1.199c0,0.704-0.581,1.254-1.505,1.254   C21.559,192.126,21.027,191.869,20.641,191.46z"
   id="path502" />
	<path
   class="st3"
   d="M24.291,190.401c0-1.077,0.716-1.744,1.475-1.744c0.826,0,1.303,0.594,1.303,1.548   c0,0.11-0.006,0.221-0.024,0.3h-2.258c0.031,0.734,0.471,1.224,1.132,1.224c0.325,0,0.594-0.104,0.838-0.269l0.184,0.33   c-0.288,0.184-0.624,0.336-1.083,0.336C24.989,192.126,24.291,191.484,24.291,190.401z M26.628,190.143   c0-0.709-0.318-1.083-0.856-1.083c-0.49,0-0.924,0.398-0.991,1.083H26.628z"
   id="path504" />
	<path
   class="st3"
   d="M27.904,188.743h0.404l0.049,0.605h0.018c0.227-0.416,0.563-0.691,0.937-0.691   c0.141,0,0.238,0.019,0.349,0.073l-0.098,0.435c-0.11-0.037-0.183-0.055-0.312-0.055c-0.281,0-0.624,0.208-0.851,0.783v2.153   h-0.496V188.743z"
   id="path506" />
	<path
   class="st3"
   d="M30.11,187.696c0-0.214,0.153-0.343,0.361-0.343c0.196,0,0.361,0.129,0.361,0.343   c0,0.196-0.166,0.337-0.361,0.337C30.263,188.033,30.11,187.892,30.11,187.696z M30.22,188.743h0.496v3.304H30.22V188.743z"
   id="path508" />
	<path
   class="st3"
   d="M31.651,191.196c0-0.722,0.63-1.077,2.05-1.236c0.006-0.446-0.135-0.887-0.704-0.887   c-0.398,0-0.753,0.189-1.003,0.367l-0.202-0.349c0.288-0.19,0.752-0.435,1.285-0.435c0.801,0,1.12,0.544,1.12,1.34v2.05h-0.41   l-0.042-0.404h-0.019c-0.318,0.27-0.698,0.483-1.114,0.483C32.067,192.126,31.651,191.796,31.651,191.196z M33.701,191.263v-0.967   c-1.169,0.135-1.566,0.416-1.566,0.869c0,0.397,0.275,0.557,0.612,0.557S33.364,191.563,33.701,191.263z"
   id="path510" />
	<path
   class="st3"
   d="M35.282,191.441v-4.265h0.496v4.301c0,0.165,0.067,0.232,0.153,0.232c0.03,0,0.055,0,0.116-0.012l0.073,0.386   c-0.08,0.024-0.159,0.042-0.3,0.042C35.441,192.126,35.282,191.882,35.282,191.441z"
   id="path512" />
	<path
   class="st3"
   d="M38.393,187.568h0.52l1.695,2.899l0.483,0.918h0.031c-0.031-0.446-0.067-0.936-0.067-1.395v-2.423h0.483v4.479   h-0.526l-1.683-2.9l-0.489-0.918h-0.031c0.024,0.447,0.062,0.899,0.062,1.364v2.454h-0.478V187.568z"
   id="path514" />
	<path
   class="st3"
   d="M42.482,190.401c0-1.108,0.71-1.744,1.518-1.744s1.523,0.636,1.523,1.744c0,1.089-0.716,1.725-1.523,1.725   S42.482,191.49,42.482,190.401z M45.009,190.401c0-0.79-0.417-1.322-1.01-1.322c-0.594,0-1.003,0.532-1.003,1.322   c0,0.783,0.41,1.309,1.003,1.309C44.593,191.71,45.009,191.184,45.009,190.401z"
   id="path516" />
	<path
   class="st3"
   d="M46.217,191.734c0-0.244,0.171-0.403,0.373-0.403c0.208,0,0.379,0.159,0.379,0.403   c0,0.233-0.171,0.392-0.379,0.392C46.389,192.126,46.217,191.968,46.217,191.734z"
   id="path518" />
	<path
   class="st3"
   d="M49.231,189.238c0-0.245,0.171-0.403,0.373-0.403c0.208,0,0.379,0.158,0.379,0.403   c0,0.232-0.171,0.392-0.379,0.392C49.402,189.63,49.231,189.471,49.231,189.238z M49.231,191.734c0-0.244,0.171-0.403,0.373-0.403   c0.208,0,0.379,0.159,0.379,0.403c0,0.233-0.171,0.392-0.379,0.392C49.402,192.126,49.231,191.968,49.231,191.734z"
   id="path520" />
</g>
<line
   class="st7"
   x1="114.354"
   y1="119.844"
   x2="114.354"
   y2="196.895"
   id="line524" />
<g
   id="g534">
	<path
   d="M47.379,85.705c0,0.401-0.032,0.774-0.095,1.119s-0.183,0.607-0.358,0.788c-0.175,0.18-0.387,0.294-0.635,0.341   c-0.248,0.047-0.543,0.071-0.885,0.071h-0.054h-3.528v-4.501h3.765c0.73,0,1.211,0.169,1.443,0.507S47.379,84.926,47.379,85.705z    M46.811,85.712c0-0.631-0.078-1.078-0.233-1.341c-0.156-0.264-0.526-0.396-1.112-0.396H42.37v3.596h3.042   c0.631,0,1.021-0.138,1.172-0.413C46.735,86.884,46.811,86.402,46.811,85.712z"
   id="path526" />
	<path
   d="M48.379,88.024h-0.641l2.664-4.508h0.724l2.686,4.508h-0.627l-0.597-1.014h-3.62L48.379,88.024z M49.23,86.557h3.091   l-1.557-2.643L49.23,86.557z"
   id="path528" />
	<path
   d="M55.901,88.024v-4.048H53.63v-0.459h5.103v0.459h-2.284v4.048H55.901z"
   id="path530" />
	<path
   d="M63.646,85.469v0.453h-3.778v1.649h3.967v0.453h-4.515v-4.508h4.467v0.459h-3.92v1.494H63.646z"
   id="path532" />
</g>
<g
   id="g550">
	<path
   d="M99.37,88.025v-4.048H97.1v-0.459h5.103v0.459h-2.284v4.048H99.37z"
   id="path536" />
	<path
   d="M103.337,88.025h-0.547v-4.508h0.547V88.025z"
   id="path538" />
	<path
   d="M107.96,88.025l-2.812-4.048v4.048h-0.547v-4.508h0.891l2.692,3.865l2.703-3.865h0.878v4.508h-0.547v-4.048l-2.818,4.048   H107.96z"
   id="path540" />
	<path
   d="M117.348,85.47v0.453h-3.778v1.649h3.967v0.453h-4.515v-4.508h4.467v0.459h-3.92v1.494H117.348z"
   id="path542" />
	<path
   d="M127.256,86.623c0,0.638-0.127,1.035-0.382,1.192c-0.255,0.157-0.736,0.236-1.443,0.236l-0.906,0.021l-1.291-0.021   c-0.446,0-0.771-0.098-0.977-0.294c-0.205-0.196-0.308-0.517-0.308-0.963v-3.271h0.548v3.194c0,0.359,0.081,0.588,0.243,0.689   s0.439,0.151,0.831,0.151l0.967,0.034l1.047-0.034c0.423,0,0.716-0.052,0.878-0.155c0.163-0.104,0.244-0.346,0.244-0.728v-0.101   v-3.051h0.547V86.623z"
   id="path544" />
	<path
   d="M130.067,88.025v-4.048h-2.271v-0.459h5.103v0.459h-2.284v4.048H130.067z"
   id="path546" />
	<path
   d="M137.245,88.038l-1.163,0.041h-0.5l-1-0.041c-0.802-0.082-1.203-0.512-1.203-1.293l-0.027-0.859   c0-0.343,0.003-0.598,0.01-0.765s0.04-0.399,0.098-0.697s0.2-0.523,0.426-0.677c0.225-0.153,0.538-0.23,0.939-0.23   c0.18-0.021,0.35-0.034,0.51-0.04c0.16-0.005,0.348-0.008,0.564-0.008h0.162h0.649c0.261,0,0.473,0.006,0.635,0.017   s0.375,0.044,0.639,0.099c0.264,0.055,0.447,0.201,0.551,0.438c0.104,0.238,0.155,0.555,0.155,0.953h-0.541v-0.042   c0-0.208-0.013-0.379-0.037-0.513c-0.025-0.134-0.083-0.231-0.176-0.292c-0.092-0.061-0.263-0.106-0.51-0.139   c-0.248-0.032-0.59-0.048-1.027-0.048c-0.162,0-0.408,0.008-0.737,0.023c-0.329,0.016-0.577,0.024-0.743,0.024   c-0.388,0.032-0.635,0.101-0.744,0.207c-0.108,0.106-0.176,0.292-0.203,0.554c-0.027,0.263-0.043,0.501-0.047,0.717   s-0.007,0.42-0.007,0.615c0,0.576,0.058,0.972,0.172,1.189c0.115,0.217,0.42,0.326,0.916,0.326h1.054h1.007   c0.415,0,0.703-0.049,0.865-0.147c0.162-0.098,0.243-0.333,0.243-0.707v-0.18h0.568c0,0.572-0.09,0.96-0.271,1.166   C138.295,87.936,137.885,88.038,137.245,88.038z"
   id="path548" />
</g>
<g
   id="g566">
	<path
   d="M160.883,84.645c0,0.352-0.054,0.59-0.162,0.716c-0.108,0.126-0.336,0.219-0.683,0.277c0.383,0,0.646,0.08,0.787,0.24   c0.143,0.16,0.213,0.438,0.213,0.835c0,0.491-0.114,0.833-0.345,1.024c-0.229,0.191-0.605,0.287-1.128,0.287h-3.751v-4.508h3.812   c0.41,0,0.722,0.088,0.936,0.264C160.776,83.956,160.883,84.244,160.883,84.645z M160.315,84.693c0-0.284-0.063-0.474-0.189-0.571   c-0.126-0.097-0.338-0.146-0.635-0.146h-3.13v1.473h3.048c0.32,0,0.551-0.052,0.693-0.155   C160.244,85.191,160.315,84.99,160.315,84.693z M160.471,86.795c0-0.198-0.016-0.359-0.047-0.483   c-0.032-0.124-0.1-0.215-0.203-0.273s-0.213-0.096-0.328-0.112c-0.114-0.016-0.239-0.023-0.375-0.023h-0.074h-3.082v1.669h3.096   c0.347,0,0.603-0.053,0.767-0.159C160.389,87.307,160.471,87.101,160.471,86.795z"
   id="path552" />
	<path
   d="M161.971,88.025h-0.641l2.664-4.508h0.724l2.686,4.508h-0.627l-0.597-1.014h-3.62L161.971,88.025z M162.822,86.558h3.091   l-1.557-2.643L162.822,86.558z"
   id="path554" />
	<path
   d="M167.898,88.025v-4.508h0.908l4.16,4.075v-4.075h0.548v4.508h-0.898l-4.171-4.096v4.096H167.898z"
   id="path556" />
	<path
   d="M180.333,85.706c0,0.401-0.031,0.774-0.095,1.119c-0.062,0.345-0.182,0.607-0.357,0.788s-0.388,0.294-0.636,0.341   s-0.543,0.071-0.885,0.071h-0.055h-3.527v-4.501h3.764c0.73,0,1.211,0.169,1.443,0.507S180.333,84.927,180.333,85.706z    M179.766,85.713c0-0.631-0.078-1.078-0.233-1.341s-0.525-0.396-1.111-0.396h-3.096v3.596h3.041c0.631,0,1.022-0.138,1.173-0.413   C179.69,86.885,179.766,86.403,179.766,85.713z"
   id="path558" />
	<path
   d="M188.2,88.025l-2.812-4.048v4.048h-0.547v-4.508h0.89l2.693,3.865l2.702-3.865h0.879v4.508h-0.548v-4.048l-2.818,4.048   H188.2z"
   id="path560" />
	<path
   d="M193.81,88.025h-0.547v-4.508h0.547v1.953h4.204v-1.953h0.541v4.508h-0.541v-2.102h-4.204V88.025z"
   id="path562" />
	<path
   d="M200.102,87.619h2.899v0.405h-3.582v-0.48l2.913-2.318h-2.777v-0.406h3.446v0.473L200.102,87.619z"
   id="path564" />
</g>
<g
   id="g572">
	<path
   d="M120.6,83.375c-0.342,0-0.579,0.056-0.709,0.169c-0.131,0.113-0.196,0.336-0.196,0.671l-0.027,1.878l0.027,1.111   c0,0.289,0.053,0.487,0.159,0.593c0.106,0.106,0.283,0.159,0.531,0.159c0.126,0,0.25-0.007,0.372-0.02v0.493l-0.291,0.014   c-0.401,0-0.712-0.081-0.933-0.243c-0.221-0.163-0.342-0.359-0.365-0.592c-0.022-0.232-0.036-0.421-0.041-0.567   s-0.007-0.256-0.007-0.328v-0.101v-0.946l0.034-1.595c0-0.423,0.113-0.724,0.338-0.902c0.226-0.178,0.563-0.267,1.014-0.267h0.25   v0.486L120.6,83.375z"
   id="path568" />
	<path
   d="M139.672,87.971c0.342,0,0.579-0.057,0.71-0.169c0.13-0.113,0.196-0.337,0.196-0.671l0.027-1.878l-0.027-1.112   c0-0.289-0.053-0.487-0.159-0.593c-0.106-0.106-0.283-0.16-0.531-0.16c-0.126,0-0.25,0.007-0.372,0.021v-0.493l0.291-0.014   c0.401,0,0.712,0.081,0.933,0.243s0.342,0.363,0.365,0.602c0.022,0.239,0.036,0.441,0.041,0.608   c0.004,0.167,0.007,0.293,0.007,0.378v0.946l-0.034,1.595c0,0.424-0.112,0.724-0.338,0.902c-0.225,0.178-0.563,0.267-1.014,0.267   h-0.25v-0.487L139.672,87.971z"
   id="path570" />
</g>
<g
   id="g578">
	<path
   d="M183.556,83.375c-0.343,0-0.579,0.056-0.71,0.169c-0.131,0.113-0.195,0.336-0.195,0.671l-0.027,1.878l0.027,1.111   c0,0.289,0.053,0.487,0.158,0.593c0.106,0.106,0.283,0.159,0.531,0.159c0.126,0,0.25-0.007,0.371-0.02v0.493l-0.29,0.014   c-0.401,0-0.713-0.081-0.934-0.243c-0.221-0.163-0.342-0.359-0.364-0.592c-0.022-0.232-0.036-0.421-0.041-0.567   c-0.004-0.146-0.007-0.256-0.007-0.328v-0.101v-0.946l0.034-1.595c0-0.423,0.112-0.724,0.338-0.902   c0.226-0.178,0.563-0.267,1.014-0.267h0.25v0.486L183.556,83.375z"
   id="path574" />
	<path
   d="M204.317,87.971c0.343,0,0.579-0.057,0.71-0.169c0.131-0.113,0.196-0.337,0.196-0.671l0.026-1.878l-0.026-1.112   c0-0.289-0.054-0.487-0.159-0.593c-0.105-0.106-0.282-0.16-0.53-0.16c-0.126,0-0.25,0.007-0.372,0.021v-0.493l0.291-0.014   c0.4,0,0.712,0.081,0.933,0.243s0.342,0.363,0.365,0.602c0.022,0.239,0.035,0.441,0.04,0.608c0.005,0.167,0.007,0.293,0.007,0.378   v0.946l-0.034,1.595c0,0.424-0.112,0.724-0.338,0.902c-0.225,0.178-0.562,0.267-1.014,0.267h-0.25v-0.487L204.317,87.971z"
   id="path576" />
</g>
<g
   id="g588">
	<path
   d="M226.272,88.024l-2.812-4.048v4.048h-0.547v-4.508h0.89l2.693,3.865l2.702-3.865h0.879v4.508h-0.548v-4.048l-2.818,4.048   H226.272z"
   id="path580" />
	<path
   d="M232.801,83.469h1.994c0.938,0,1.538,0.125,1.801,0.375c0.264,0.25,0.396,0.833,0.396,1.747v0.162v0.142   c0,0.324-0.019,0.666-0.058,1.024c-0.038,0.358-0.166,0.634-0.385,0.828c-0.219,0.193-0.547,0.291-0.983,0.291   c-0.135,0.013-0.308,0.022-0.517,0.027c-0.21,0.004-0.409,0.007-0.599,0.007h-1.007h-0.122c-0.274,0-0.539-0.014-0.794-0.041   c-0.255-0.027-0.469-0.077-0.642-0.149c-0.174-0.072-0.315-0.198-0.426-0.376c-0.11-0.179-0.182-0.41-0.213-0.695   c-0.032-0.285-0.048-0.622-0.048-1.01c0-0.366,0.005-0.629,0.014-0.79c0.009-0.16,0.046-0.39,0.111-0.688s0.225-0.515,0.477-0.651   C232.053,83.536,232.387,83.469,232.801,83.469z M232.92,87.571l1.165,0.027h0.421h0.142c0.321,0,0.645-0.016,0.97-0.047   s0.541-0.139,0.647-0.322c0.106-0.183,0.159-0.457,0.159-0.823v-0.927c0-0.285-0.012-0.532-0.034-0.742s-0.072-0.37-0.148-0.481   c-0.076-0.11-0.177-0.183-0.301-0.216s-0.25-0.057-0.378-0.068c-0.129-0.011-0.266-0.017-0.409-0.017l-1.062-0.013l-1.047,0.013   c-0.514,0-0.852,0.067-1.015,0.2c-0.162,0.134-0.243,0.449-0.243,0.947l-0.02,0.678v0.332c0,0.57,0.061,0.956,0.183,1.157   C232.072,87.471,232.395,87.571,232.92,87.571z"
   id="path582" />
	<path
   d="M243.676,85.705c0,0.401-0.031,0.774-0.095,1.119c-0.062,0.345-0.182,0.607-0.357,0.788s-0.388,0.294-0.636,0.341   s-0.543,0.071-0.885,0.071h-0.055h-3.527v-4.501h3.764c0.73,0,1.211,0.169,1.443,0.507S243.676,84.926,243.676,85.705z    M243.108,85.712c0-0.631-0.078-1.078-0.233-1.341s-0.525-0.396-1.111-0.396h-3.096v3.596h3.041c0.631,0,1.022-0.138,1.173-0.413   C243.033,86.884,243.108,86.402,243.108,85.712z"
   id="path584" />
	<path
   d="M249.123,85.469v0.453h-3.778v1.649h3.968v0.453h-4.515v-4.508h4.467v0.459h-3.92v1.494H249.123z"
   id="path586" />
</g>
<g
   id="g596">
	<path
   d="M277.427,84.854c0,0.406-0.061,0.684-0.18,0.835s-0.379,0.256-0.78,0.314c0.302,0.041,0.523,0.114,0.666,0.22   c0.142,0.106,0.213,0.299,0.213,0.578v1.223h-0.541v-1c0-0.333-0.071-0.554-0.213-0.662s-0.389-0.162-0.74-0.162h-3.075v1.825   h-0.547v-4.508h3.67c0.545,0,0.936,0.091,1.172,0.273C277.308,83.972,277.427,84.327,277.427,84.854z M276.858,84.82   c0-0.352-0.083-0.58-0.25-0.686c-0.166-0.105-0.441-0.159-0.824-0.159h-3.008v1.771h3.021c0.396,0,0.672-0.062,0.828-0.186   C276.781,85.436,276.858,85.19,276.858,84.82z"
   id="path590" />
	<path
   d="M282.61,84.109c-0.095-0.048-0.267-0.088-0.514-0.12c-0.248-0.031-0.568-0.047-0.96-0.047h-0.189   c-0.298,0-0.604,0.014-0.923,0.041c-0.317,0.027-0.548,0.073-0.692,0.137c-0.145,0.064-0.236,0.151-0.277,0.26   c-0.04,0.11-0.061,0.242-0.061,0.397c0,0.278,0.075,0.468,0.227,0.568c0.15,0.101,0.37,0.15,0.659,0.15h0.493h1.061   c0.185,0,0.35,0.002,0.494,0.007c0.144,0.004,0.361,0.022,0.651,0.054c0.291,0.031,0.525,0.133,0.703,0.307   c0.178,0.173,0.267,0.468,0.267,0.886c0,0.274-0.042,0.502-0.128,0.684c-0.086,0.182-0.23,0.319-0.436,0.411   c-0.205,0.092-0.453,0.152-0.744,0.179c-0.29,0.027-0.606,0.041-0.949,0.041h-0.358c-0.338,0-0.591-0.003-0.76-0.01   c-0.169-0.007-0.429-0.034-0.777-0.081c-0.35-0.046-0.599-0.169-0.747-0.368s-0.223-0.546-0.223-1.042h0.547v0.1   c0,0.243,0.021,0.422,0.064,0.539s0.153,0.202,0.331,0.257s0.416,0.09,0.713,0.107c0.298,0.017,0.591,0.025,0.879,0.025   c0.469,0,0.864-0.021,1.186-0.062c0.322-0.041,0.542-0.118,0.659-0.231s0.176-0.3,0.176-0.559c0-0.327-0.075-0.535-0.226-0.624   c-0.151-0.088-0.406-0.133-0.767-0.133h-1.032l-1.208-0.034c-0.423,0-0.749-0.081-0.979-0.244   c-0.229-0.162-0.344-0.437-0.344-0.824c0-0.307,0.049-0.562,0.148-0.767c0.099-0.205,0.267-0.352,0.502-0.439   c0.236-0.088,0.515-0.144,0.834-0.169s0.677-0.037,1.073-0.037c0.328,0,0.565,0.003,0.712,0.01   c0.146,0.007,0.385,0.028,0.716,0.063c0.33,0.035,0.584,0.154,0.759,0.355c0.176,0.202,0.264,0.509,0.264,0.922h-0.548   c0-0.218-0.023-0.38-0.07-0.486C282.768,84.227,282.7,84.152,282.61,84.109z"
   id="path592" />
	<path
   d="M286.219,88.024v-4.048h-2.271v-0.459h5.103v0.459h-2.285v4.048H286.219z"
   id="path594" />
</g>
</svg>
