<?xml version="1.0" encoding="utf-8"?>
<!-- Generator: Adobe Illustrator 25.0.0, SVG Export Plug-In . SVG Version: 6.00 Build 0)  -->
<svg version="1.1" id="레이어_1" xmlns="http://www.w3.org/2000/svg" xmlns:xlink="http://www.w3.org/1999/xlink" x="0px"
	 y="0px" viewBox="0 0 113.4 113.4" style="enable-background:new 0 0 113.4 113.4;" xml:space="preserve">
<style type="text/css">
	.st0{fill:#FFFFFF;stroke:#DCDDDD;stroke-width:0.25;stroke-miterlimit:10;}
	.st1{fill:#88BB3A;}
	.st2{fill:#C7D338;}
	.st3{fill:#5EB994;}
	.st4{fill:#AEC382;}
	.st5{fill:#E8BE37;}
	.st6{fill:#EB9D64;}
	.st7{fill:#E79196;}
	.st8{fill:#D06C7E;}
	.st9{fill:#4774B9;}
	.st10{fill:#4495B3;}
	.st11{fill:#BE8DB8;}
	.st12{fill:#B4BD31;}
	.st13{fill:#89C394;}
	.st14{fill:#D18B51;}
	.st15{fill:#126A7A;}
	.st16{fill:#449B77;}
	.st17{fill:#31825F;}
	.st18{stroke:#FFFFFF;stroke-miterlimit:10;}
	.st19{fill:#FFFFFF;stroke:#000000;stroke-miterlimit:10;}
	.st20{fill:#FFFFFF;stroke:#FFFFFF;stroke-width:0.75;stroke-miterlimit:10;}
</style>
<g>
	<circle class="st0" cx="56.7" cy="56.7" r="37.6"/>
	<g>
		<path class="st1" d="M64.9,20.9l0.3,0.6l0.5,1l0.1,0.4l0.3,0.7l1,1.9l0.7,2l0.1,0.2l0.4,0.5l0.1,0.4l1.8,2.6l0.7,1l0.8,0.9
			l0.1,0.1l0.6,0.7l0,0.3l0,0.3l0.1,0.3l0.4,0.2l0.1,0.2l0.3,1l0.1,0.2l0.2,0.1l0.1,0.1l0.5,1l0.3,0.4l0.1,0.2l0,0.2l0.1,0.2
			l0.5,0.6l0.2,0.5l0.1,1l0.2,0.6l0.6,0.8l0,0.2l-0.1,0.2l-0.1,0.1l-0.1,0.1l0,0.1l0.1,0.4l0.1,1.2l0.1,0.6l0.4,1.1l0,0.6l-0.1,0.5
			l-0.2,0.5l-0.2,0.6l0.2-0.6l0.2-0.5l0.1-0.5l0-0.6l-0.4-1.1l-0.1-0.6l-0.1-1.2L76.3,43l0-0.1l0.1-0.1l0.1-0.1l0.1-0.2l0-0.2
			l-0.3-0.5l-1,1.1L73.8,43l-0.3-0.2L73,42.7l-0.3,0.2l-0.3,0.1l-0.4-0.2l-0.4-0.1l-0.1,0.1l-0.1,0l-0.1-0.1l-0.1-0.1l-0.3,0.2
			l-0.3,0.1l0-0.2l0-0.2l-0.2-0.1l-0.2,0L70,42l-0.3,0l-0.3,0.1l-0.2,0.2l0.1,0.3l0,0.3l-0.1,0.3l-0.3,0l-0.3-0.1l-0.3-0.1L68,42.9
			l-0.2-0.1l-0.2-0.1l-0.3,0L67,42.6l-0.3-0.2l-0.3-0.2l-0.3,0L66,42.3l-0.2,0l-0.2,0l-0.1-0.2L65.2,42l0-0.2l-0.1-0.1l-0.5,0.1
			l-0.3,0.1l-0.1,0l-0.1,0L64,41.8l-0.1-0.1l0.2-0.3l0.3-0.2l0.1-0.3l-0.2-0.1l-0.6-0.1L63,40.5l-0.3,0.2l-0.2,0.1l-0.3-0.1
			l-0.2,0.2l-0.4,0.2l-0.4,0.1L61.2,41v-0.3l-0.4-0.4l-0.6,0.2l-0.2,0.3l0.1,0.7l-0.2,0.2l-0.1,0.1l-0.1,0.1l-0.1,0l-0.1-0.1l-0.3,0
			l-0.3,0.1L59,41l-1.2,0.2l-1.1,0.3l0.6-1.1l0.5-1.2l0.7-1.4l0.1-0.3l-0.1-0.3l0.1-0.2l0.2-0.2l0.2-0.1l0.1-0.2L59,36.1L58.9,36
			l-0.3,0l-0.3-0.1l-0.4,0l-0.6-0.3l-0.3-0.1l-0.3-0.2l-0.3,0l-0.3,0.1L56,35l0-0.2l0.1-0.2l0-0.3l0-0.3l-0.3,0.1l-0.1-0.2l0.3-0.4
			L56,33.3L55.9,33l0.1-0.2l0-0.2l0-0.2l0.5-0.4l0.2-0.1l0.1-0.2l0.1-0.6l-0.3-0.4l-0.2,0l-0.2-0.1l-0.2-0.4l-0.2,0l-0.3,0l-0.3-0.2
			l-0.1-0.4l-0.1-0.6L55,28.7L55,28.7l-0.1,0l-0.1,0.1l-0.1,0l-0.2-0.1l-0.5,0.2l-0.4-0.1l-0.2-0.1l-0.2-0.2l0-0.3l0.1-0.2l0.1-0.1
			l0-0.1l-0.1-0.1l-0.1,0l-0.1,0l-0.1,0.1l-0.1,0.2l-0.2,0.2l-0.2,0L52.4,28l0-0.1l0-0.1l-0.1,0l-0.1,0.1l0,0.1l0,0.5L52,28.5
			l-0.4-0.2L51.3,28l-0.1-0.1l-0.1,0l-0.1-0.2l-0.1-0.2l-0.1-0.1l-0.1-0.1l-0.1-0.2L50.4,27L50,26.7l-0.2-0.1l0.1-0.1l0.6-0.5
			l0.7-0.4l0.7-0.3l0.7-0.1l0.3,0l1.3-0.1l1,0.3l0.3,0l0.6-0.2l2.1-0.2l0.1,0.1l0.1,0.2l0.1,0.1l0.1,0l0.7-0.2l1.1,0.1l0.7-0.1
			l0.7-0.3l0.7-0.4l0.6-0.6l0.3-0.4l0.2-0.4l0.1-0.4l0-0.5L64,21.9l0-0.2l0.1-0.2l0.3-0.2L64.9,20.9z"/>
		<path class="st2" d="M46.5,31.9l-0.1-1.2l0.1-0.3l0.1-0.1l0.2,0l0.3-0.1l0.4-0.3l0.9-1.4l0.2-0.2l0.4-0.3l0.2-0.2l0.2-0.5l0.1-0.4
			l0.1-0.2l0.2,0.1l0.4,0.2l0.2,0.1l0.1,0.2l0.1,0.1l0.1,0.1l0.1,0.2l0.1,0.2l0.1,0l0.1,0.1l0.4,0.3l0.4,0.2l0.1-0.2l0-0.5l0-0.1
			l0.1-0.1l0.1,0l0,0.1l0,0.1l0.2,0.1l0.2,0l0.2-0.2l0.1-0.2l0.1-0.1l0.1,0l0.1,0l0.1,0.1l0,0.1l-0.1,0.1l-0.1,0.2l0,0.3l0.2,0.2
			l0.2,0.1l0.4,0.1l0.5-0.2l0.2,0.1l0.1,0l0.1-0.1l0.1,0l0.1,0.1l0.1,0.3l0.1,0.6l0.1,0.4l0.3,0.2l0.3,0l0.2,0l0.2,0.4l0.2,0.1
			l0.2,0l0.3,0.4l-0.1,0.6l-0.1,0.2L56.5,32L56,32.4l0,0.2l0,0.2L55.9,33l0.1,0.2l0.1,0.2l-0.3,0.4l0.1,0.2l0.3-0.1l0,0.3l0,0.3
			L56,34.8l0,0.2l0.2,0.2l0.3-0.1l0.3,0l0.3,0.2l0.3,0.1l0.6,0.3l0.4,0l0.3,0.1l0.3,0l0.2,0.1l0.1,0.2L59,36.5l-0.2,0.1l-0.2,0.2
			l-0.1,0.2l0.1,0.3l-0.1,0.3l-0.7,1.4l-0.5,1.2l-0.6,1.1l-0.1,0.1l-0.1,0.1l-0.1,0.1l-0.1,0.1L56.3,42l-0.1,0.1l-0.5,1l-0.3,0.2
			l-0.1-0.1l-0.2,0L55,43.3l-0.1,0.2l-0.1,0.2l-0.3,0.1L54.4,44l-0.1,0.4l-0.4,0.1l-0.5,0.2L53,44.9l-0.5-0.1L52,44.4l-0.5-0.2
			l-0.9,0.4l-0.4,0l-0.5-0.1l0,0l0.1-0.1l0.2-0.1l0.1-0.1l0.1-0.3l0-0.1l-0.1-0.1l0,0l0.1-0.1l0.1,0l0.1,0l0.2-0.1l0.1,0l0.1,0
			l0-0.2l-0.6,0.2l-0.1,0.1l0,0.4l-0.1,0.1l-0.3,0.1l-0.4-0.1l-0.4-0.2l-0.4-0.4l-0.1-0.4l0.6-0.1V43l0,0l-0.1-0.1l0.1,0l0.1,0
			l0.1,0l0.1,0.1l0-0.3L49,42.5l-0.1-0.3l0.1-0.4l-0.1-0.1L48.7,42l-0.1,0.2l0,0.2l-0.1,0.2l-0.1,0.1l-0.1-0.1l-0.2,0L48,42.7
			l-0.5-0.2l0-0.2l0-0.1l0-0.2l0-0.2l0.1-0.2l0.1-0.2l0.2-0.1l0.2-0.1l0.3,0l0.3-0.1l0.1-0.1l0-0.3l-0.1,0l-0.2,0.1l-0.2,0.2l-0.1,0
			L48,41L48,40.9l0-0.2l-0.3,0.1L47.5,41l-0.4,0.4L47,41.5l-0.1,0l-0.1,0l-0.1-0.1l0-0.1l0.1-0.1L47,41l-0.3,0.1l-0.1,0l0-0.2
			l0.1-0.1l0.1-0.1l0.2-0.1l0.1-0.1l0.1-0.2l0,0l-0.3,0l-0.1-0.1l-0.1-0.1l-0.1-0.2l-0.1-0.2l0,0l0,0l0.1-0.1l0.1,0.1l0.1,0l0.2-0.1
			l0.2,0l0.1,0.1l0.1,0l0.2-0.1l0,0.2l0,0.1l0.1,0.1l0.1,0.1l0.1,0l0.1-0.1l0.1-0.3l0.2-0.3l0.1,0l0.2,0.1l0.2,0l-0.1-0.1l-0.1-0.1
			l-0.1-0.1l-0.1,0l-0.2,0l-0.1-0.1l-0.2,0l-0.1,0l-0.1,0l-0.2,0l-0.3-0.1l-0.5-0.4l0-0.2l0.2-0.3l0.1-0.1l0.3-0.1l0.1-0.1l0.1-0.1
			l0.2-0.3l0.1-0.3L47.8,37l-0.2-0.1l-0.1-0.3l0.4-0.9l-0.5-0.3l-1.1-0.5l0,0.4l-0.4,0.4l-0.1-0.1l-0.1-0.2l-0.1-0.2l-0.1-0.2
			L45.4,35l0-0.2l0-0.3l-0.1-0.4l-0.2-1.1l0-0.2l0.1,0l0.6,0.2l0.2,0l0.2-0.1l0.1,0l0.1,0.1l0.1,0.2l0,0.3l0,0.3l-0.1,0.2l0,0.3
			l0.3,0.3l0.4,0.2l0.3,0l-0.2-0.2l-0.6-0.5l0.2-0.5l0.1-0.3l0-0.2l-0.1-0.2l0-0.1l0-0.2l0-0.3l0.1-0.2l-0.1-0.1l-0.1,0L46.5,31.9z
			 M51.4,35.7l0.1-0.4l0-0.3l-0.1-0.3l-0.1-0.4l-0.2-0.3l-0.4,0L50.4,34l-0.2,0.2L50,34.6l-0.2,0.3l-0.5,0l-0.1,0.2l0,0.2L49,35.5
			l-0.3,0.1l-0.3-0.2l-0.3,0l-0.2,0.3l-0.1,0.3l0.6,0.3l0.1,0.4l0.2,0.1L49,37l0.3,0.4l0.5,0l0.2,0l0.2-0.1l0.3-0.1l0.3-0.1l0.1,0.3
			l0.3-0.2l0.3-0.1l0.3-0.2l0.1-0.2l0.2-0.3l-0.1-0.1l0-0.2l0.2-0.1l0.2-0.1l0-0.2l-0.1-0.2l-0.2,0l-0.3,0.1L51.4,35.7z"/>
		<path class="st3" d="M43.7,50.5l0.1,0.2l0.1,0.2l0.1,0.2l-0.1,0l-0.5,0l-0.2,0l0-0.2l0.1-0.1l0.1-0.1l0-0.1l-0.3,0.2L43,50.8
			l0-0.2l0.2-0.3l-0.1-0.1L43,50.4L43,50.3l-0.1,0.1l0.1-0.3l0-0.5l0-0.3l-0.1-0.4l0.1-0.1l0.2-0.2l0.2-0.1l0.1,0.2l0,0.1l0,0.1
			L43.2,49l0,0.1l0.2,0.4l0,0.1l0,0.1l0.1,0.1l0.1,0.1l0.1,0.2h-0.2v0.1l0.1,0l0.2,0.1l0,0.1l0,0.1L43.7,50.5z M48.1,56.1l-0.2,0.1
			l-0.2,0.2l-0.2,0.2l-0.2,0.1l-0.2,0l-0.2,0.1l-0.2-0.1l-0.1-0.1l0-0.1l-0.1-0.2l-0.1-0.1l-0.2-0.2l-0.1-0.2l0.2-0.1l-0.1-0.1
			l-0.1-0.1l-0.1,0L45.7,55l-0.2-0.1L45.3,55l-0.1,0l0-0.1L45,54.7l-0.2,0l-0.1,0.3l0,0.1L44.6,55l0-0.4l0.4-0.2l0.3-0.1l0.5,0.1
			l-0.2-0.3L45.6,54l-0.1-0.1l-0.1,0L45.3,54l-0.1,0l-0.1-0.1l-0.1-0.1l0.2-0.6l0.1-0.3l0.2-0.1l-0.1-0.1L45,52.5l-0.2-0.1l0.2-0.2
			l0.5-0.1l0.1-0.1l-0.1-0.2l-0.2,0l-0.4,0l-0.1-0.1l-0.1-0.2l-0.1-0.1v-0.1h0.1l-0.2-0.3l0.2-0.1l0.2-0.1l0.2-0.3l0.4-0.1l0.2-0.1
			h-0.6l-0.2,0.1L45,50.8l-0.2,0l-0.1-0.1l-0.1-0.2l-0.1-0.3l0-0.2l0.2-0.3l0.1-0.2l0-0.1l-0.2,0.1l-0.1-0.1l-0.1-0.1l-0.1,0
			l-0.1-0.1l0-0.1l0-0.1l-0.1-0.2l-0.1-0.1l0-0.1l0.1,0l0.2-0.1l0.2,0l0-0.2l0.1-0.1l-0.1-0.1l-0.1,0L44.5,48l0.1-0.2l0.2-0.1
			l-0.1-0.2l-0.3,0l-0.1-0.2l0.1-0.2l0.3,0l-0.1-0.2l-0.1-0.1l0-0.1l-0.1,0.1l-0.2,0.2L44.1,47l0,0.1l0,0.1l0.1,0.1l0,0.2l-0.1,0.3
			l0,0.4L44,48.4l-0.1,0.1l-0.2-0.2l-0.2,0l-0.2-0.1l0.1-0.7l0.1-0.3l-0.1-0.1l0-0.3l-0.1-0.1l-0.2,0l-0.1,0.2l0,0.2l-0.1,0.2
			l-0.2,0l0.1,0.2l0.2,0.3l0.1,0.2l-0.1,0.1l0,0.1l0.2,0.2l-0.2,0l-0.1,0.1l-0.1,0.1l-0.1,0.1l0-0.1l0-0.1l0-0.1l0-0.1l0.1-0.3
			l-0.3-0.5l0.1-0.3L42.3,47l-0.2,0.1l-0.3,0.4l-0.2,0.1l-0.1,0l-0.1,0l-0.1,0l-0.1-0.1l0-0.1l0-0.1l0-0.1l0.1-0.1l0.4,0l0.1-0.1
			l0-0.2l-0.1-0.2l-0.2-0.1l-0.2-0.1L41,46.5L41,46.6l0,0.3l-0.1,0.2l-0.1,0.1l0-0.1l0-0.3l0-0.3l0-0.1L41,46l0.1-0.1l0-0.2l0,0.1
			l0,0.1l0.1,0.1l0.1,0.1l0.1-0.1l0.1,0l0.1,0l0.1,0L41.5,46l-0.1-0.2l0.3,0.1l0.1,0l0.1-0.2l-0.3,0l-0.2-0.1l0-0.2l0.2-0.3L41.4,45
			l0-0.2l0.2-0.2l0.3-0.1l-0.1,0.3l0,0.1l0.1,0l0.3,0l0.1-0.1l0.1-0.1l0-0.3l0-0.4l0.1-0.3l0.3-0.1l0,0.2l0,0.3l0,0.3l0.1,0.4
			l-0.1,0.1L42.6,45l-0.1,0.1l0,0.1l0.1,0.2l0,0.1l-0.1,0.1l-0.2,0.1l0,0l0,0.1l0,0.1l0.1,0.1l0.1,0l0.2-0.2l0.1,0l0.3,0.2l-0.2-0.5
			l-0.1-0.3l0.1-0.1l0.2,0.2l0.1,0.1l0-0.1l0,0l0.1,0l0.2-0.1v-0.1l-0.1,0L43.4,45v-0.1l0.3-0.1l0.2-0.2l0-0.3l-0.1-0.2l-0.1,0
			l-0.3,0L43.2,44l-0.1-0.1l0-0.1l0.1,0l0.2,0.1l0.1-0.2l-0.1-0.1l-0.2-0.1l-0.2,0l0.1-0.1l0.1-0.1l0.1,0l0.1,0.1l0.1,0.1l0.1,0l0,0
			l0-0.1v-0.1l0.4,0l0.2,0.1l0.1,0.2l-0.1,0.1L44,43.6L44,43.7l0.1,0.2l0.1-0.1l0.1-0.1l0.1,0l0,0.1l0,0.1l0.1,0.1l0,0.1l0,0
			l-0.1,0.1l0,0.1V45l0,0.2l0.1,0.1l0.1,0l0-0.1l0-0.3l0.2-0.6l0-0.3l0.1-0.1l0.1,0.1l0.2,0.2l0.1,0.1l0.1,0.1l0.1,0.1l0.2,0v-0.1
			l-0.1-0.1l-0.1-0.3L45.4,44l-0.7-0.7l0,0l0-0.1l0.1,0l0.1,0.1l0.2,0.2l0.1,0.1l0.1,0.1l0.1,0l0.1-0.1l0-0.1l-0.1-0.1l-0.2,0
			l-0.2-0.1L44.8,43l-0.1-0.3l0-0.2l0.2,0l0.2,0.1l0.2,0.1l0.2,0.2l0.2,0.1l0.1,0.1l0.2,0.1l0.2,0.1l0.1,0.2l-0.1,0.2L46,43.8l0,0.1
			l0.1,0.2l0,0.1l0,0.2l0.1-0.1l0-0.1l0-0.1l0-0.3l0-0.1l0.1-0.1l0.1-0.2l0.2-0.1l0.2,0l0.2,0l0.2,0.1l0.3,0.1l0.2,0.1l0.2,0.2
			l0,0.3l-0.2,0.6l0.1-0.1l0.2-0.3l0.1,0l0.1,0.1l0,0.2l0,0.4l0,0.1l-0.1,0.2l0,0.1l0,0.1l0.1,0.2l0.1,0.4l0,0.1l-0.2,0.1l0,0.1
			l0,0.1l0.1,0.1l0.1,0l0.1-0.3l0.1-0.2l0.1-0.2l-0.1-0.3l0.2,0.1l0.2,0l-0.4-0.4L48.6,45l0.2-0.1l0.2,0l0.5-0.2l0.2-0.2l0,0
			l0.5,0.1l0.4,0l0.9-0.4l0.5,0.2l0.4,0.4l0.5,0.1l0.1,0.2l0.1,0.1l0.1,0.1l0.2,0.4l0.1,0.1l0,0.3l0.1,0.1l0.1,0.1l0,0.2l0,0.2
			l-0.1,0.1l0,0.1l0,0.1l-0.1,0.1l-0.1,0l-0.1,0l-0.1,0.1l-0.7-0.5l-0.4,0.2l0.2,0.6l0.4,0.5l-0.2,0.5l0,0.2l-0.1,0.4l0.3,0.3
			l0.3,0.1l0.1,0.5l0.5,0.3l0,0l-0.2,0.6l-0.4,0.7l0.2,0.4l-0.6,0.9l0.7,0.9l0.7-0.2l0.1-0.7l0.4,0l0,0.3l0.2-0.1l0.6-0.3l0.2-0.4
			l0.1-0.2l0.1-0.2l0.2-0.1l0-0.2l-0.1,0l-0.2-0.1l-0.2,0.1l-0.1,0.2l0.1-0.2l0.2-0.1l0.2,0.1l0.1,0l0,0.2l-0.2,0.1L55.6,52
			l-0.1,0.2l-0.2,0.4l-0.1,0.5l0,0.4l0,0.4l0.3-0.1l0.3,0.1l0.3,0.2l0.1,0.4l0,0.5l0.1,0.5l0.2,0.4l0.2,0.4l-0.3,0.3l-0.3,0.2
			L56,56.9l-0.3,0L55.4,57l-0.6-0.1l0-0.1l0.1-0.2l-0.1-0.1l-0.1,0l-0.4-0.2l-0.5-0.9l-0.3-0.3l-0.2,0.2l-0.1,0.2l-0.2,0l-0.2,0.1
			l-0.2,0.1L52,55.8l-0.3,0.1L51.4,56l-0.2-0.4l0.1-0.6l-0.4-0.1l-1.1,0.4l-0.6,0.1l-0.5,0.1L48.1,56.1z"/>
		<polygon class="st4" points="47.1,38.1 47.1,38 46.5,37.9 46.2,38.3 46,38.1 46.1,37.8 46.2,37.6 46.1,37.4 45.9,37.3 45.8,37.2 
			45.8,37 45.7,36.8 45.9,36.6 46.2,36.5 46.3,36.5 46.3,36.4 46.1,36.3 46.1,36.4 45.9,36.5 45.8,36.3 45.8,36.1 45.8,35.7 
			46.3,35.3 46.3,34.9 47.4,35.4 47.9,35.7 47.5,36.6 47.6,36.9 47.8,37 47.9,37.2 47.8,37.5 47.7,37.8 47.5,37.9 47.4,38 		"/>
		<polygon class="st4" points="45.4,36.2 45.4,36.3 45.5,36.3 45.5,36.4 45.6,36.5 45.6,36.6 45.6,36.6 45.5,36.6 45.4,36.7 
			45.2,36.7 45.2,36.7 45,36.8 44.8,36.9 44.6,37 44.6,37.1 44.1,37.5 44,37.5 43.9,37.5 43.9,37.5 43.8,37.3 43.7,37.3 43.7,37.3 
			43.6,37.3 43.6,37.3 43.7,37.2 43.6,37.2 43.6,37.2 43.5,37.2 43.4,37.3 43.4,37.2 43.3,37.2 43.3,37.1 43.3,37.1 43.2,37 
			43.1,36.9 43.2,36.8 43.3,36.8 43.3,36.8 43.8,36.5 44.2,36.4 44.4,36.4 44.6,36.3 44.7,36 44.9,35.9 45,36.1 45.1,36.1 
			45.1,36.1 45.2,36.2 45.2,36.2 45.3,36.2 		"/>
		<polygon class="st4" points="42.5,32.3 42.7,32.3 42.9,32.3 43,32.4 42.9,32.7 42.7,32.8 42.5,32.8 42.1,32.7 42,32.8 41.8,32.9 
			41.7,32.9 41.7,32.7 41.7,32.7 41.8,32.3 42,32.2 42.1,32.1 42.3,32.2 		"/>
		<polygon class="st4" points="43.2,33.7 43.3,33.9 43.4,34 43.4,34.1 43.3,34.3 43.1,34.3 42.4,33.7 42.4,33.6 42.5,33.5 
			42.6,33.2 42.6,33.2 42.6,33.1 42.7,33.1 42.8,33 42.8,33.1 42.8,33.1 42.8,33.2 42.9,33.4 42.9,33.5 42.9,33.5 43,33.6 		"/>
		<polygon class="st4" points="44.8,35.1 44.7,35.1 44.7,35.1 44.5,35 44.5,34.9 44.4,34.9 44.4,35 44.3,35 43.7,35 43.5,34.9 
			43.3,34.6 43.6,34.5 43.7,34.5 43.8,34.3 43.8,34.3 43.7,34.2 43.7,34.2 43.3,33.4 43.3,33.3 43.3,33.2 43.3,32.5 43.3,32.4 
			43.5,32.3 43.7,32 43.9,32 44.1,32.1 44.2,32.3 44.4,32.4 44.8,32.6 44.9,32.8 44.9,33 44.9,33.1 44.9,33.3 44.9,33.4 44.9,33.5 
			45,33.6 45,33.7 45.1,34.2 45,34.3 45.1,34.4 45.1,34.6 45.2,34.6 45,34.7 44.9,35 		"/>
		<polygon class="st4" points="44.5,39.4 44.7,39.5 44.7,39.7 44.6,39.7 44.5,39.8 44.5,39.9 44.5,39.9 44.4,40.1 44.3,40.1 
			44.2,40 44.1,40 44,40 44,39.8 44,39.6 44.1,39.5 44.3,39.4 		"/>
		<polygon class="st4" points="45.9,39.8 46,39.8 46,39.9 45.9,40.1 45.4,40.5 45.1,40.5 45.1,40.5 45.3,40.3 45.3,40.2 45.2,40.1 
			45.4,40 45.4,39.8 45.3,39.6 45.2,39.5 45.2,39.4 45.2,39.4 45.4,39.4 45.5,39.3 45.5,39.3 45.5,39.4 45.6,39.5 45.7,39.6 
			45.9,39.7 		"/>
		<path class="st5" d="M44,65.1l-0.1-0.2l-0.1-0.1l0.1-0.3l0.2-0.4l0.3-0.7l0.2-0.4l0.4-0.1l0.4-0.1l0.3,0l0.2-0.1l0.2-0.2l0.2-0.1
			l0.2,0.2l0.2,0.2l0.1,0l-0.1-0.5l-0.1-0.2l-0.2-0.1l-1.5,0.3L44.3,62l0-0.4l0-0.1l0.3-0.1l0.2-0.2l0.2-0.2l0.3-0.2l0.4-0.2
			l0.3-0.4l0-0.4l0.2-0.1l0.1-0.1l0.1-0.1l0.4,0l0.4,0l0.2,0.2l0.2,0l0.1,0.2l0-0.1l0-0.2l0-0.2l-0.1-0.1l-0.1-0.1l-0.2-0.1L47.2,59
			L47,58.9l-0.1-0.1l0-0.1l0.1-0.1l0.1-0.1l0.1,0l0.6,0l0.1,0l0.1-0.1l0.1-0.1l0-0.1l0.1-0.1l0.1,0l0,0L48.3,58l-0.1-0.1l-0.1,0l0,0
			l-0.8,0.3l-0.3,0l-0.5,0l-0.5,0l0-0.2l0-0.3l-0.1-0.1l-0.3-0.1L45,57.5l0-0.4l1-0.1l0.5-0.1l0.5,0l0.2-0.1l0.2,0.1l0.2-0.1
			l0.4-0.3l0.5-0.2l0.2-0.2l0-0.2l-0.6,0.2l0.5-0.6l0.5-0.1l0.6-0.1l1.1-0.4l0.4,0.1l-0.1,0.6l0.2,0.4l0.3-0.1l0.3-0.1l0.6-0.1
			l0.2-0.1l0.2-0.1l0.2,0l0.1-0.2l0.2-0.2l0.3,0.3l0.5,0.9l0.4,0.2l0.1,0l0.1,0.1l-0.1,0.2l0,0.1l0.6,0.1l0.2-0.1l0.3,0l0.3-0.1
			l0.3-0.2l0.3-0.3l0.1,0.1l0.1,0.1l0.1,0l0.1-0.1l0.2,0.1l0.2,0.2l0.5,0.2l0.1,0.1l0.2,0l0.3-0.2l0.4-0.2l0.2,0.2l0.2,0.1l0.1-0.1
			l0.1-0.1l0.4,0.8L60,58.2l-0.4,0.4l-0.1,0.3L59,59.2l-0.3,0.1l-0.1,0l-0.1,0.1l-0.2,0.4L58,60l-0.2,0.2l-0.1,0.3l0,0.4l-0.1,0.3
			l-0.2,0.3L57.2,62l-0.1,0.4L57,62.8l0,0.3l0.3,0.1l0,0.1l0,0.2l0.1,0.3l0,0.3l0.1,0.3l0.2,0.1l-0.1,0.4l-0.5,0.5l-0.1,0.4l0,0.3
			l-0.2,0.2l-0.6-0.5l-0.7-0.3l-0.4,0.2l-0.3,0.3l-0.3,0l-0.4,0l-0.4,0.1l-0.4,0l-0.2-0.1L53,66l-0.2,0l-0.2,0l-0.3,0.1l-0.3,0.2
			l-0.4-0.1L51.2,66l0-0.4L51,65.3L51,65l0.1-0.4l-0.2-0.3l-0.3,0l-0.1,0.1l-0.1,0.1l-0.1,0.2l0,0.2l-0.3,0l-0.5-0.7L49.1,64
			l-0.2-0.1l-0.2,0l-0.2,0.2l-0.4,0l-0.3,0.2l0,0.2l0,0.2l-0.1,0.2l-0.1,0.1l0,0.1l0,0.1l-0.1,0.2l-0.1,0.1l-0.2,0.1l-0.2,0.1
			l-0.2,0.1l-0.1,0.1l-0.4,0.1L46.1,66l-0.3,0.1L45.5,66l0-0.4l0.1-0.4l0.1-0.5l-0.3-0.1L44.3,65L44,65.1L44,65.1z M42.1,62.4
			L42.1,62.4L42,62.3l0-0.1l0.1-0.1l0,0l-0.1,0l0,0l0.1,0l0-0.1l0.1,0l0,0l0-0.1l0,0l0.1,0l0.1-0.1l0,0l0,0l0,0.1l0,0.1l-0.2,0.2
			l-0.1,0.1L42.1,62.4L42.1,62.4L42.1,62.4z"/>
		<polygon class="st6" points="58.9,70.6 58.8,70.6 58.3,70.6 58.2,70.6 58.1,70.5 58.1,70.4 58.1,70.3 57.9,70.2 57.9,70.3 
			57.9,70.4 57.9,70.5 57.9,70.7 57.8,70.8 57.7,70.9 57.3,71.3 57.1,71.4 56.9,71.2 56.7,70.8 56.5,70.7 56.4,70.9 56.4,71.2 
			56.4,71.4 56.5,71.6 56.6,71.9 56.8,72.2 57,72.3 57.1,72.5 57.2,72.5 57.4,72.4 57.7,72.1 58,72.1 58.2,72.1 58.3,72.1 58.5,72 
			58.5,72.3 58.5,72.5 58.4,72.8 58.3,73.5 58.2,73.6 57.8,73.8 57.5,73.6 57.2,73.6 57,74 57,74 57,74 57,74 56.9,74 57,74.2 
			57,74.4 57.1,75 57.1,75.1 57,75 56.8,74.8 56.5,74.8 56.3,74.7 56.2,74.5 56.2,74.2 56.2,73.9 56.4,73.6 56.5,73.4 56.4,73.2 
			56.3,73 56.2,72.7 56.1,72.6 56.1,72.6 56,72.6 55.9,72.6 55.9,72.5 56,72.4 56,72.4 55.8,72 55.8,71.9 55.8,71.8 55.8,71.7 
			55.9,71.6 55.8,71.5 55.8,71.5 55.7,71.5 55.7,71.5 55.7,71.5 55.5,72 55.4,72.1 55.4,72.1 55.3,72.2 55,72.3 54.7,72.3 
			54.3,72.3 54.1,72.3 54.2,72.5 54.5,72.6 54.7,72.7 54.7,72.7 54.3,72.9 54.1,73 54,73.2 54.1,73.3 54.3,73.2 54.4,73.2 
			54.5,73.4 54.5,73.4 54.4,73.4 54.4,73.5 54.5,74 54.8,74.3 55.2,74.5 55.4,74.8 55.3,74.8 55.1,74.8 55,74.8 55.5,75 55.6,75.1 
			55.6,75.4 55.5,75.5 55.4,75.6 55.2,75.6 55,75.6 54.5,75.3 54.4,75.3 54.2,75.3 54.1,75.4 53.9,75.5 53.9,75.6 53.9,75.6 
			54,75.9 54.2,75.9 54.3,76 54.7,75.9 54.9,76.1 54.4,76.6 54.2,76.8 54,76.7 53.7,77 53.7,77.2 53.9,77.3 53.6,77.3 53.1,76.8 
			53,76.4 52.6,76 52.4,76 52,76.3 52,76.4 52.1,76.4 51.9,76.4 51.7,76.3 51.6,76.3 51.5,76.1 51.5,75.9 51.5,75.8 51.8,75.6 
			51.9,75.6 52.1,75.3 52.2,75 52.3,74.9 52.4,74.8 52.4,75 52.4,75.3 52.2,75.6 52.5,75.6 52.8,75.5 53,75.3 53,74.9 52.9,74.8 
			52.8,74.7 52.8,74.6 52.7,74.4 52.8,74.3 53.1,73.9 53.2,74 53.3,74.1 53.3,74.2 53.3,74.3 53.3,74.5 53.4,74.6 53.5,74.6 
			53.7,74.6 53.8,74.5 53.9,74.1 54,74 53.9,73.8 53.8,73.5 53.7,73.4 53.5,73.6 53.3,73.7 53.1,73.5 52.8,73.1 52.7,73.3 
			52.5,73.9 52.3,74.1 52.1,74.2 52,74.2 51.7,74.1 51.6,74.1 51.5,74.3 51.3,74.5 51.2,74.6 50.8,74.8 50.6,75 50.5,75.1 
			50.3,75.1 50.2,75.1 50.2,75.2 50.2,75.4 50.2,75.5 50.1,75.7 50,75.8 50,75.9 50.1,76.1 49.5,76.7 49.5,77.2 49.4,77.3 
			49.1,77.2 49,77.3 49,77.4 49,77.5 49,77.7 48.9,77.7 48.6,77.4 48.2,77.3 48.1,77.3 48,77 48,76.3 48,76.1 48.1,75.9 48,75.7 
			48,75.5 47.8,75.4 47.7,75.5 47.6,75.6 47.5,75.7 47.5,75.9 47.5,76 47.6,76.2 47.6,76.3 47.3,76.4 47.3,76.6 47.5,76.9 
			47.1,77.1 47,77.3 47.1,77.3 47.2,77.4 47.2,77.4 47.2,77.5 47.1,77.5 47.1,77.5 47,77.5 46.9,77.4 46.8,77.5 46.7,77.5 
			46.7,77.6 46.7,77.7 46.6,77.8 46.3,77.9 46.2,78 46.1,78.1 45.9,79 45.8,79.1 45.8,79.2 45.6,79.2 45.1,79.3 44.9,79.3 
			44.9,79.2 45,78.9 45,78.7 44.9,78.6 44.8,78.6 44.5,78.6 44.5,78.5 44.6,78.4 44.6,78.4 44.6,78.2 44.6,78.2 44.7,78.2 
			44.7,78.2 44.9,77.9 44.9,77.8 44.9,77.6 44.8,77.6 44.7,77.5 44.6,77.5 44.5,77.5 44.4,77.4 44.5,77.4 44.5,77.3 44.5,77.2 
			44.5,77 44.5,76.9 44.3,77 44.4,76.7 44.6,76.5 44.9,76.5 45.2,76.4 45.1,76.3 45.1,76.3 45,76.2 44.9,76.2 45,76.1 45.1,75.9 
			45.1,75.8 45,75.7 45,75.7 44.9,75.9 44.8,75.9 44.7,75.9 44.6,75.8 44.5,75.8 44.4,75.9 44.4,76 44.3,76.1 44.2,76.1 44.2,76.1 
			44.1,76.1 43.8,76.1 43.7,76.1 43.5,76.2 43.5,76 43.4,75.8 43.2,75.7 43.2,75.7 43.1,75.6 43,75.5 43,75.6 43,75.6 42.9,75.7 
			42.8,75.7 42.7,75.7 42.5,75.5 42.5,75.4 42.5,75.3 42.5,75.3 42.5,75.3 42.6,75.2 42.6,75.2 42.7,75.2 42.8,75.2 42.7,75.1 
			42.5,74.9 42.2,74.7 42.2,74.4 42.3,73.9 42.4,73.6 42.4,73.5 42.4,73.4 42.4,73.3 42.5,73.3 42.6,73.3 42.7,73.3 42.8,73.4 
			42.8,73.5 43.2,74 43.1,74.1 43,74.3 43,74.4 43.1,74.6 43.3,75.2 43.4,75.3 44,75.4 44.2,75.5 44.3,75.5 44.4,75.3 44.3,75.3 
			44.2,75.3 44,75.2 43.9,75 43.8,74.9 43.8,74.6 43.7,74.6 43.6,74.8 43.5,74.8 43.4,74.6 43.4,74.3 43.5,74.1 43.4,73.8 
			43.7,73.8 44.2,73.9 44.2,74 44.2,74.2 44.2,74.2 44.2,74.3 44.2,74.4 44.3,74.4 44.4,74.5 44.5,74.6 44.7,74.7 44.8,74.8 
			45,74.9 45.1,75 45.1,74.9 44.9,74.6 45.1,74.6 45.3,74.7 45.5,74.9 45.8,75 46.1,74.9 45.8,74.9 45.6,74.8 45.3,74.5 45.4,74.4 
			45.2,74.2 44.8,73.7 44.6,73.6 44.3,73.6 44,73.6 43.8,73.5 43.5,73.5 43.3,73.5 43.2,73.3 43.4,73.1 43.5,73.1 43.9,73.1 
			44.3,72.9 44.8,73.3 44.9,73.3 45,73.3 45,73.3 45,73.4 45.1,73.4 45,73.1 45.1,72.9 45.2,72.7 45.5,72.7 46,72.8 46.2,72.8 
			46.1,72.7 46.3,72.6 46.4,72.6 46.5,72.6 46.3,72.4 46.1,72.3 45.5,72.4 45.6,72.3 45.6,72.2 45.5,72.1 45.5,71.9 45.6,71.8 
			45.6,71.8 45.7,71.7 45.7,71.6 45.6,71.4 45.4,71.3 45.3,71.4 45.2,71.6 45.2,71.7 45.2,71.9 45.2,72 45.2,72 45.1,72.3 45,72.7 
			44.9,72.9 44.6,72.9 44.6,72.9 44.6,72.8 44.6,72.8 44.7,72.6 44.7,72.6 44.6,72.5 44.5,72.5 44.4,72.6 44.2,72.7 44,72.6 
			43.9,72.6 43.8,72.8 43.7,72.8 43.5,72.8 43.3,72.8 43.3,72.6 43.4,72.5 43.6,72.3 43.7,72.2 43.7,72.1 43.8,72 43.8,71.9 
			43.7,71.7 43.8,71.6 43.9,71.5 43.8,71.4 43.6,71.1 43.6,70.9 43.6,70.7 43.8,70.5 44,70.4 44,70.3 43.8,70.2 43.6,70.2 
			43.6,70.3 43.5,70.4 43.4,70.4 43.3,70.4 43.3,70.6 43.4,70.7 43.4,70.8 43.2,71 43,71 42.8,70.9 42.7,70.8 42.8,70.8 42.9,70.8 
			42.8,70.7 42.7,70.6 42.6,70.5 42.6,70.4 42.7,70.3 42.8,70.3 43.1,70.4 43,70.1 43.4,69.8 43.3,69.5 43,69.1 42.8,68.9 
			42.6,68.8 42.6,69.1 42.6,69.3 42.4,69.3 42.3,69.1 42.4,69 42.1,68.6 42.1,68.4 42.2,68.2 42.4,68.2 42.6,68.3 42.7,68.5 
			42.8,68.4 42.9,68.2 43,67.9 43.1,68.1 43.1,68.2 43.1,68.5 43,68.6 43,68.7 43,68.7 43.1,68.7 43.1,68.7 43.2,68.8 43.2,68.9 
			43.2,69 43.3,69 43.4,69.1 43.5,69.2 43.7,69.2 43.8,69.2 43.7,69.4 43.7,69.5 43.8,69.6 43.9,69.8 44.2,69.1 44.2,68.9 
			44.2,68.7 44.1,68.6 43.9,68.6 43.9,68.5 43.8,68.4 43.7,68.1 43.3,67.7 43.2,67.5 43.3,67.5 43.3,67.4 43.4,67.3 43.4,67.2 
			43.3,67.1 43.2,67 43.2,66.9 43.1,66.9 43,66.9 42.6,66.9 42.8,66.8 43,66.7 43.2,66.7 43.4,66.7 43.3,66.7 43.3,66.6 43.2,66.6 
			43.2,66.6 43.2,66.5 43.3,66.4 43.3,66.3 43.4,66.3 43.5,66.2 43.4,66.1 43.4,66 43.4,65.9 43.4,65.7 43.5,65.5 43.8,65.1 
			43.8,65.2 44,65.4 44.2,65.4 44.3,65.4 44.2,65.3 44,65.1 44,65.1 44.3,65 45.3,64.7 45.6,64.8 45.6,65.3 45.5,65.7 45.5,66 
			45.7,66.1 46.1,66 46.4,65.9 46.8,65.9 46.9,65.8 47.1,65.7 47.3,65.6 47.4,65.5 47.6,65.4 47.7,65.2 47.7,65.1 47.6,64.9 
			47.8,64.8 47.9,64.7 47.9,64.5 47.9,64.3 48.1,64.1 48.5,64.1 48.7,63.9 48.9,63.9 49.1,64 49.4,64.3 49.9,64.9 50.3,64.9 
			50.3,64.8 50.3,64.6 50.5,64.5 50.5,64.3 50.9,64.3 51.1,64.7 51,65 51,65.3 51.3,65.5 51.2,66 51.5,66.3 51.9,66.3 52.2,66.1 
			52.5,66.1 52.8,66.1 53,66 53.1,66.2 53.3,66.3 53.7,66.3 54.1,66.2 54.5,66.2 54.8,66.2 55.1,65.8 55.5,65.6 56.2,65.9 
			56.8,66.4 56.8,66.6 57,66.9 57.1,67.2 57.1,68 57.3,68.2 57.6,68.4 57.8,68.7 57.9,68.9 58,69.2 58.7,69.9 58.8,70.3 58.8,70.5 
					"/>
		<polygon class="st6" points="52,76.8 52.3,76.8 52.5,76.8 52.7,76.9 52.8,77.1 52.8,77.3 52.6,77.5 52.4,77.6 52,77.7 51.8,77.7 
			51.7,77.6 51.4,77.4 51.4,77.3 51.5,77.3 51.5,77.2 51.4,77.1 51.3,77.1 51.5,77 51.7,76.9 		"/>
		<polygon class="st6" points="43.4,76.6 43.4,76.8 43.4,77 43.3,77.2 43.1,77.7 43,77.8 42.9,77.9 42.9,77.8 42.7,77.7 42.6,77.6 
			42.6,77.7 42.6,77.9 41.6,78.5 41.4,78.5 41,78.6 40.9,78.5 40.8,78.4 40.9,78.3 41,78.2 41,78.2 41,78.1 40.6,77.9 40.6,78.2 
			40.4,77.9 40.6,77.5 40.9,77.1 41.2,77.1 41.3,76.8 41.3,76.7 41.4,76.6 41.5,76.5 41.6,76.5 41.7,76.4 41.8,76.3 41.9,76.4 
			42.1,76.4 42.2,76.3 42.3,76.1 42.2,76 41.9,75.7 42,75.6 42.2,75.6 42.3,75.7 42.5,75.8 42.6,75.9 42.6,75.9 42.7,76 42.7,76.1 
			42.8,76.2 42.8,76.2 43.1,76 43.1,76.1 		"/>
		<polygon class="st6" points="58.6,74.2 58.7,74.2 58.8,74.4 58.9,74.6 59,74.9 59,75.1 59,75.3 58.9,75.5 58.8,75.6 58.7,75.6 
			58.5,75.5 58.2,75.1 58.1,75 58.2,74.7 58.2,74.7 58.4,74.5 58.5,74.4 58.5,74.1 58.4,73.9 58.4,73.8 58.5,73.8 58.7,73.7 
			58.8,73.8 58.8,73.9 58.7,74.1 		"/>
		<polygon class="st6" points="53.5,82.9 53.5,83 53.6,83 53.7,83 53.6,83.1 53.5,83 53.3,83 53.3,82.9 53.3,82.9 53.3,82.8 
			53.2,82.7 53.2,82.7 53.2,82.6 53.2,82.5 53.2,82.5 53.2,82.4 53.2,82.4 53.2,82.4 53.3,82.4 53.3,82.4 53.3,82.4 53.4,82.4 
			53.3,82.5 53.3,82.7 		"/>
		<polygon class="st6" points="55.9,77.3 55.9,77.4 55.9,77.5 55.9,77.6 55.7,77.7 55.5,77.7 55.4,77.7 55.4,77.6 55.4,77.5 
			55.2,77.5 55.2,77.4 55.2,77.4 55.1,77.3 55,77.2 55.1,77.1 55.1,77.1 55,77 55.1,77 55.2,77 55.3,77.1 55.4,77.1 55.4,77.1 
			55.5,77.1 55.6,77 55.7,77 		"/>
		<polygon class="st6" points="58.6,76.5 58.7,76.6 58.7,76.6 58.7,76.7 58.6,76.8 58.5,76.8 58.5,76.8 58.4,76.7 58.3,76.6 
			58.2,76.6 58.1,76.5 58,76.4 58,76.3 57.9,76.3 57.8,76.2 57.9,76.1 58,76 58.2,75.9 58.4,76.1 58.5,76.4 58.5,76.5 58.5,76.5 		
			"/>
		<polygon class="st6" points="45.8,81 45.9,81 46,81.1 45.9,81.2 45.9,81.1 45.9,81.1 45.8,81.2 45.8,81.2 45.7,81.1 45.6,81.1 
			45.5,81.2 45.5,81.2 45.4,81.3 45.3,81.4 45.1,81.5 44.9,81.5 44.8,81.4 44.8,81.2 44.9,81 45.1,80.8 45.2,80.8 45.5,81 45.5,81 
			45.6,80.9 45.7,81 		"/>
		<polygon class="st6" points="46.6,81.2 46.6,81.2 46.7,81.3 46.6,81.3 46.6,81.3 46.6,81.4 46.6,81.5 46.5,81.6 46.4,81.6 
			46.3,81.6 46.3,81.6 46.3,81.5 46.2,81.5 46.2,81.3 46.3,81 46.3,80.9 46.2,80.8 46.2,80.7 46.3,80.6 46.3,80.6 46.4,80.6 
			46.6,80.7 46.6,80.8 46.5,80.9 46.5,81 		"/>
		<polygon class="st6" points="49.2,80.6 49.3,80.7 49.3,80.8 49.3,80.9 49.3,81 49.2,81.1 49.1,81.2 48.9,81.2 48.8,81.1 48.7,81 
			48.6,81.1 48.6,81.1 48.5,81.1 48.5,80.9 48.6,80.8 48.6,80.6 48.6,80.5 48.7,80.5 48.9,80.4 49,80.4 		"/>
		<polygon class="st6" points="45.9,80.3 46,80.4 46,80.5 45.9,80.6 45.9,80.7 45.7,80.7 45.6,80.7 45.7,80.8 45.6,80.9 45.5,80.8 
			45.4,80.8 45.4,80.7 45.3,80.7 45.3,80.7 45.2,80.6 45.3,80.5 45.3,80.4 45.3,80.4 45.3,80.3 45.3,80.3 45.4,80.3 45.4,80.3 
			45.4,80.2 45.3,80.1 45.4,80.1 45.4,80.1 45.5,80.2 45.8,80.2 45.9,80.3 		"/>
		<polygon class="st6" points="48.6,79.1 48.5,79.2 48.4,79.2 48.4,79.1 48.3,79 48.3,78.9 48.2,78.9 48.1,78.9 47.9,79 47.8,79 
			47.8,79 47.8,78.9 47.5,78.8 47.5,78.8 47.6,78.8 47.7,78.7 47.8,78.7 47.8,78.7 47.9,78.7 48,78.7 48.1,78.7 48.3,78.6 
			48.4,78.5 48.4,78.6 48.5,78.6 48.6,78.6 48.6,78.6 48.7,78.6 48.9,78.6 49,78.7 49,78.8 48.9,78.9 48.9,78.9 48.9,79 48.8,79.1 
			48.7,79.1 48.6,79.1 		"/>
		<polygon class="st6" points="51.1,78.7 51.2,78.7 51.2,78.8 51.1,78.8 51,78.7 50.9,78.7 50.8,78.7 50.9,78.8 50.9,78.8 
			50.9,78.9 50.7,79 50.6,79.1 50.5,79 50.6,78.9 50.7,78.8 50.6,78.8 50.4,78.7 50.4,78.7 50.4,78.6 50.3,78.6 50.1,78.6 
			50.1,78.5 50,78.5 50.1,78.5 50.1,78.5 50.2,78.4 50.3,78.3 50.4,78.2 50.4,78.2 50.4,78.2 50.5,78.3 50.6,78.4 50.6,78.5 
			50.7,78.5 50.9,78.5 51,78.5 51,78.5 51.1,78.6 		"/>
		<polygon class="st6" points="47.6,79.1 47.6,79.2 47.7,79.4 47.6,79.4 47.6,79.4 47.5,79.4 47.4,79.3 47.3,79.3 47.3,79.3 
			47.3,79.4 47.2,79.4 47.1,79.3 47,79.3 46.8,79.2 46.8,79.1 46.9,79.1 46.8,79 46.7,78.9 46.6,79 46.5,78.9 46.4,78.9 46.3,78.8 
			46.3,78.6 46.2,78.5 46.3,78.3 46.3,78.1 46.4,78 46.5,77.9 46.6,77.9 46.7,77.9 46.9,77.9 47,78 47.1,78.2 47.2,78.4 47.3,78.6 
			47.3,78.7 47.3,78.8 47.4,78.9 		"/>
		<polygon class="st6" points="47.6,78.2 47.5,78.2 47.5,78.1 47.5,78 47.5,77.9 47.6,77.8 47.8,77.6 48,77.5 48.2,77.4 48.4,77.4 
			48.4,77.5 48.4,77.6 48.4,77.7 48.4,77.7 48.5,77.8 48.5,77.8 48.6,77.9 48.6,78 48.5,78 48.3,78 48.2,78 48.2,78.1 47.9,78.2 
			47.8,78.3 47.8,78.5 47.7,78.5 47.6,78.4 47.6,78.3 47.6,78.2 		"/>
		<polygon class="st6" points="43,71.8 43.2,71.9 43.2,72.2 43,72.4 42.9,72.3 43,72.2 43,72.2 43,72.1 42.7,72 42.6,71.9 42.3,72 
			42.2,72.1 42,72.1 41.9,72 41.8,71.9 41.9,71.9 42,71.9 42.2,71.8 42.3,71.7 42.3,71.7 42.3,71.6 42.5,71.6 42.5,71.5 42.5,71.4 
			42.4,71.3 42.4,71.2 42.5,71.1 42.7,71.2 42.9,71.3 43,71.4 43,71.5 42.9,71.5 42.8,71.6 42.7,71.7 42.7,71.7 42.8,71.8 
			42.8,71.8 		"/>
		<path class="st7" d="M70.6,67.9l0.2,0.5l0,0.3l0,0.3l0.1,0l-0.1,0l0-0.3l0-0.3l-0.1,0l-0.1,0.2l-0.1,0.3l-0.3,0l-0.7,0l0-0.2
			l-0.1-0.1l-0.1,0.4L69.2,69L69,68.9l-0.1-0.2l-0.1,0l-0.2,0.1v-0.6l0,0l-0.1,0l-0.1,0.1l0,0.2l-0.2-0.1L68,68.2L67.9,68l-0.2,0.1
			l0-0.2l-0.1-0.3l0-0.1l-0.1-0.3l-0.1,0l-0.1,0.1l-0.1,0.2l0,0.1l0.1,0.3l0.1,0.4l0,0.1l0.1,0.2l0.2,0.2l0,0.1l-0.1,0.2l0.1,0
			l0.1,0.1l0.1,0l-0.1,0.1l-0.1,0l-0.2,0l-0.1,0l0-0.1l0-0.1l0-0.1l-0.1-0.1l-0.1-0.1l-0.6-0.2l-0.2,0l-0.4,0.1l-0.1,0l0,0.1
			l0.1,0.2l-0.2,0l-0.4,0.2l-0.4,0.1l-0.1,0.2l0,0.2L65,69.8v0.1l1.1-0.6l0.2,0l0,0.2l0.1,0.2l0,0.2l-0.1,0.2l-0.1,0.1l-0.2,0
			l-0.2,0l-0.1-0.1l-0.1,0.1l0.1,0.1l0.1,0.1l0.1,0.1l0,0.1l0,0.1l0,0.3l-0.1,0.5l0.1,0.1l0.1,0l0.1-0.1l0-0.1l0.1,0.2L66,71.7
			l-0.3,0.4l-0.2,0.1l-0.3,0l0-0.2l0.2,0l0.1,0l0.1-0.1l-0.7-0.1l-0.1-0.1l-0.2-0.2l0-0.1l0.1-0.1l0.2-0.1l-0.2-0.5l-0.2,0.2
			l-0.2,0.3l-0.3,0l-0.2-0.3l-0.1-0.1l-0.2,0l-0.1,0.1l-0.1,0.2l0,0.2l0,0.2l-0.2,0l-0.5,0l-0.2-0.1l0-0.1l0-0.2l0-0.1l-0.1,0
			l-0.1,0l-0.2,0l-0.3,0l-0.1,0l-0.1-0.1l0-0.1l0-0.1l0-0.1l0-1l0-0.2l0-0.1l0.1-0.1l0-0.1l0-0.2l-0.2,0.2l-0.1,0.2l-0.2,0.2l-0.3,0
			l0.2,0.5L61,70.1l-0.3,0l-0.3,0.2L60.4,70l-0.1-0.1l-0.1-0.1l0,0.4L60,70.5l-0.2,0.2l-0.3,0l-0.1,0l-0.1,0l-0.1,0l-0.1,0.1
			L59,70.6l-0.1,0l0-0.1l0-0.2l-0.1-0.4L58,69.2l-0.1-0.2l-0.1-0.3l-0.2-0.3l-0.3-0.2L57.1,68l0-0.7L57,66.9l-0.2-0.3l0.1-0.3
			l0.2-0.2l0-0.3l0.1-0.4l0.5-0.5l0.1-0.4l-0.2-0.1l-0.1-0.3l0-0.3l-0.1-0.3l0-0.2l0-0.1L57,63.1l0-0.3l0.2-0.3l0.1-0.4l0.1-0.4
			l0.2-0.3l0.1-0.3l0-0.4l0.1-0.3L58,60l0.2-0.2l0.2-0.4l0.1-0.1l0.1,0l0.3-0.1l0.5-0.3l0.1-0.3l0.4-0.4l0.1,0.3l0.2,0.1l0.1,0.1
			l0.1,0.1l0,0.1l0,0.1l0.1,0l0.1,0l0.3,0l0.1,0.1l0.2,0.1l0.3,0l0.3,0l0.3,0.1l0.2,0.2l0.1,0.3l0.2,0.2l0.1,0.1l0,0.1l0.2,0.1
			l0.1,0.2l0,0.3l-0.1,0.3l0.2,0.6l0.7,0l0.3,0l0.3,0.1l0.3,0.1l0.3,0.2l0.3,0.1l0.6-0.3l0.3,0.1l0.3-0.4l0.2-0.2l0.1,0.7l0.3,0.3
			l0.3,0.2l0.4,0l0.4-0.1l0.4,0.1l0.3,0.2l0.4,0l0.4-0.3l0.2-0.1l0.2,0l0.1-0.1l0.1-0.2l0.4-0.2l0.4,0.1l0.3,0.2l0.3-0.1l0,0.5
			l-0.3,0.5l0.2,0.3l0.7,0.1l0.3,0.2l0.5,0.5l0.6,0.3l0.2,0.2l0.1,0.4l0.2,0.2l0.3,0.1l0,0L74.7,66l0,0.2l-0.1,0.1l-0.1,0.1l0.1,0.2
			l0,0.1L74.5,67l-0.2,0.4l-0.2,0.2L74,67.8l0,0l0,0l0,0l0,0l0.1-0.3l0.2-0.2l0.2-0.4l0.1-0.2l0-0.1l-0.1-0.2l0.1-0.1l0.1-0.1l0-0.2
			l0.1-0.2l0,0l-0.3-0.1L74.1,66l-0.2,0l-0.2,0.3l-0.3,0L73,66.6l-0.2-0.1l-0.3,0l-0.3,0.1l-0.2,0.1l-0.2,0.2l-0.3,0.6l-0.2,0.2
			l-0.6-0.1L70.6,67.9z M61.7,72.5l0.1,0.1l0,0.1l-0.1,0.1l0,0.2l0,0.3l0,0.2l-0.1,0.1l-0.1,0l0.1,0.3l0,0.1l-0.2,0l-0.2-0.1
			l-0.2-0.1L60.9,74l-0.2,0l-0.1-0.3l-0.1-0.5l-0.2-0.1l-0.1,0.1l-0.1,0.2l0,0.3L60,73.8l-0.2,0l-0.2-0.1l-0.1-0.1l-0.1-0.1l0-0.1
			l0-0.1l0-0.2l-0.3-1l0-0.2l0-0.2l0.1-0.2l0.1-0.1l0.1,0l0.1,0l0.1-0.3l0.1-0.1l0.2-0.1l0.1-0.1l0.2,0.1l0.1,0.1l0.1,0.2l0,0.2
			l-0.1,0.2l-0.2,0.3l0,0.1l0.1,0.2l0.1,0.1l0.1,0.1l0.2,0.1l0.1,0.2l0.2,0l0.3-0.1l0.3-0.1L61.7,72.5L61.7,72.5z M69.1,71.8l0,0.2
			l0,0.2l-0.1,0.1l-0.1-0.1l0.1,0.2l0.1,0.3l0,0.2l-0.1,0l-0.2-0.1l-0.2-0.1l-0.1-0.1l0,0.2l0,0.1l-0.2,0.2l-0.1,0.2l0.1,0.1
			l0.2,0.1l0.1,0.1l-0.2,0.1l-0.8,0.2l-0.2,0l0.4-0.3l-0.2-0.1l-0.1-0.1l0-0.2l0.1-0.2l-0.3,0.2l-0.1-0.1l0-0.2l0-0.2l0.1-0.1
			l0.3-0.1l0.1-0.1l0-0.2l0.1-0.2l-0.1-0.1l-0.1,0.1l-0.4,0.2l-0.2,0.1l-0.1-0.2l-0.2-0.2L66.3,72l0-0.3l0.1-0.2l0.1-0.1l0.2-0.1
			l0.1-0.1l0.4-0.1l0.1,0l0.2,0.1l0.1,0.1l0.1,0.1l0.2,0v-0.1l-0.2-0.1l-0.1-0.2l-0.1-0.2l0-0.2l0.1,0l0.8-0.4L68.4,70l0.1-0.2
			l0.2-0.1l0.2,0.1l0,0.1l0,0.1l-0.1,0.5l0,0.1l0.1,0.2l0.1,0.1l0,0.1l0,0.2l0,0.2l-0.2,0.4l0.2-0.1l0.1-0.1l0,0L69.1,71.8z
			 M61.8,72.1L61.8,72.1l0.1,0.1l-0.1,0l-0.5-0.1L61,72.2l-0.2,0l-0.2-0.1l-0.1-0.2l0.1-0.2l0.1-0.2l0.1-0.2l0.1-0.1l0.2,0l0.1,0.1
			l-0.1,0.2l0,0.1l0,0.1l0.1,0l0.1-0.1l0.1-0.2l0.1,0l0,0.1l0.1,0.1l0.1,0l0,0.2L61.8,72.1L61.8,72.1z M70.1,69.7l0,0.3L70,70.1
			l-0.1,0l0-0.1l-0.1-0.2l-0.1-0.1l0-0.1l0-0.1l0-0.1l-0.1-0.1l0-0.1l0.1-0.1l0.1,0l0.1,0l0.1,0.2L70.1,69.7z M64.2,74.8L64.2,74.8
			L64.2,74.8L64.1,75l0,0l-0.1,0l-0.1,0l-0.1,0l-0.1,0.1l-0.1,0.1l-0.1,0l0,0l0-0.1l0-0.1l0,0l0,0l0,0l0-0.1l0-0.1l0-0.1l0,0l0.1,0
			l0.3,0.2l0,0.1l0,0L64.2,74.8z M65.2,72.4l0.1,0l0.2,0l0.2,0l0.1,0.1l0,0.2l-0.1,0.1l0,0.1l0,0.1l-0.1,0l0,0l0,0l0.1,0l0.1,0.1
			l0,0.1l-0.1,0.1l-0.2,0l-0.1-0.1l0-0.1l-0.1,0l0-0.1l0-0.1l-0.1,0l0,0l0.1-0.1l0-0.1L65,72.4l-0.2-0.1l-0.1,0l-0.1,0l0-0.1
			l0.1-0.1l0.1,0l0.2,0.1L65.2,72.4L65.2,72.4z M63.6,72.2l0.2,0.2l0.1,0.1l0,0.1h-0.1l-0.1,0l0,0.1l0,0l-0.1,0l-0.1,0l-0.1-0.1
			l-0.1-0.1l0-0.1l0.1-0.1l0.1-0.1L63.6,72.2z"/>
		<path class="st8" d="M74,67.9L73.9,68l-0.2,0l-0.1,0l-0.2,0l-0.1,0L73.2,68l-0.1,0l0,0.2l0.1,0.1l0,0.2l-0.1,0.2l-0.2,0.1
			l-0.2-0.2l-0.1-0.1l-0.1-0.1l-0.3,0.3L72.1,69l0,0.3L72,69.3l-0.1-0.1L71.8,69l0,0.1l0,0.3l-0.1,0l0-0.1l0,0l-0.1,0.1l-0.1,0.1
			l-0.1-0.1l-0.1-0.3l0-0.3l0.1-0.3l0-0.2l-0.5,0.7l-0.1,0l0-0.5l-0.2-0.5l0.4-0.4l0.6,0.1l0.2-0.2l0.3-0.6l0.2-0.2l0.2-0.1l0.3-0.1
			l0.3,0l0.2,0.1l0.4-0.3l0.3,0l0.2-0.3l0.2,0l0.2-0.3l0.3,0.1l0,0L74.7,66l0,0.2l-0.1,0.1l-0.1,0.1l0.1,0.2l0,0.1l-0.3,0.6
			l-0.2,0.2L74,67.9L74,67.9z"/>
		<path class="st9" d="M76.8,61.9L76.8,61.9l0.1,0.1l0,0.3l0,0.3l-0.1,0.5l-0.1,0.2l-0.2,0.2l-0.2,0.1l-0.1-0.2l-0.1-0.3L76,63
			l-0.2,0l-0.1,0.3l0.1,0l0.1,0.1l0,0.2l0,0.2l0,0.2l-0.1,0l-0.1,0L75.7,64l0,0.1l0,0.2l0,0.3l-0.1,0.2L75.6,65l0.1,0.1l0.1,0.1
			l0,0.2l-0.2,0.1l-0.2,0.1L75,65.8l-0.3,0l0,0l0,0l-0.3-0.1l-0.2-0.2l-0.1-0.4l-0.2-0.2l-0.6-0.3l-0.5-0.5l-0.3-0.2l-0.7-0.1
			l-0.2-0.3l0.3-0.5l0-0.5l0.3-0.2l0.3-0.2l0.2,0l0.1-0.1l-0.1-0.2l-0.1-0.2l0.4-0.3l0.5-0.2l0.4-0.1l0.4,0.1l0.4,0.2l0.1,0.2l0,0.2
			l0,0.2l0.1,0.1l0.2,0l1-0.2L76.8,61.9L76.8,61.9z"/>
		<polygon class="st10" points="76.4,48.4 76.4,48.4 76.4,49 76.6,49.5 76.7,50.1 76.6,51.2 76.5,51.5 76.2,51.9 76.1,52.1 76,52.4 
			76,54 76,54.2 76.1,54.3 76.1,54.4 76.2,54.5 76.3,54.9 76.3,55.3 76.4,55.3 76.5,55.4 76.4,55.6 76.3,55.7 76.2,55.8 76.1,55.8 
			75.9,56 75.9,56.2 76.2,56.4 76.3,56.6 76.5,56.8 76.7,56.8 77,56.6 77.7,55.8 77.8,55.6 78,55.7 78,56 78.1,56.2 78.2,56.5 
			78,56.7 77.6,57.5 77.6,57.9 77.5,58.8 77.2,59.6 77.2,60.1 76.9,60.9 76.7,61.4 76.6,61.6 76.7,61.8 76.8,61.9 76.8,61.9 
			75.9,61.7 74.9,61.9 74.7,61.8 74.6,61.7 74.6,61.6 74.6,61.4 74.5,61.2 74.1,61 73.7,61 73.3,61 72.9,61.2 72.5,61.5 72.6,61.6 
			72.7,61.8 72.6,62 72.4,62 72.2,62.1 71.9,62.3 71.6,62.4 71.3,62.3 70.9,62.2 70.5,62.3 70.3,62.5 70.2,62.6 70,62.6 69.9,62.7 
			69.5,63 69.1,63 68.8,62.8 68.4,62.7 68,62.8 67.6,62.8 67.3,62.6 67,62.3 66.9,61.5 66.7,61.7 66.4,62.1 66.1,62 65.5,62.3 
			65.2,62.3 65,62.1 64.7,61.9 64.3,61.9 64,61.9 63.4,61.9 63.2,61.3 63.3,61 63.3,60.7 63.2,60.5 63,60.4 63,60.3 62.9,60.1 
			62.7,60 62.5,59.7 62.3,59.5 62,59.4 61.7,59.4 61.4,59.4 61.2,59.2 61.1,59.1 60.8,59.1 60.7,59.1 60.6,59 60.6,58.9 60.5,58.8 
			60.4,58.7 60.3,58.6 60.1,58.5 60,58.2 60.1,57.4 59.6,56.6 59.9,56.5 60.2,56.4 60.3,56.1 60.4,55.7 60.5,55.6 60.6,55.4 
			60.7,55.2 60.6,55 60.6,54.7 60.9,54.5 61.1,54.5 61.3,54.5 61.2,53.8 61,53.6 60.4,53.8 60.2,53.7 59.9,53.4 59.6,53.3 
			59.2,53.4 59.1,52.8 59.4,52.6 59.5,52.3 59.4,52.1 59.3,51.8 59.4,51.5 59.5,50.8 59.6,50.5 59.8,50.3 59.2,49.5 58.8,49.4 
			58.7,49.1 58.8,49 59,49 59.2,48.8 59.4,48.5 59.5,48.4 59.5,48.3 59.5,48.1 59.8,47.9 60.2,47.7 60.4,47.3 60.8,47.5 61.6,47.6 
			61.5,47.3 61.3,47.1 61.3,46.8 61.5,46.5 61.6,46.3 61.8,46.4 62,46.4 62.2,46.1 62.3,46 62.5,46.1 62.9,46.2 63.2,46.3 63.2,46 
			63.3,45.8 63.4,45.6 63.6,45.5 63.7,45.7 63.9,45.8 64.1,46 64.3,46.3 64.7,46.5 65.6,46.1 65.7,45.6 65.6,45.4 65.5,45.3 
			65.7,45 65.8,44.8 66,44.4 66.3,44.2 66.4,44 66.6,43.9 66.8,43.8 67,43.7 67.3,43.4 67.5,43.2 67.6,43.1 67.7,43.2 67.9,43.1 
			68,42.9 68.3,43.1 68.6,43.2 68.9,43.3 69.2,43.3 69.2,43 69.3,42.7 69.2,42.3 69.4,42.1 69.7,42 70,42 70.1,42.3 70.3,42.3 
			70.5,42.4 70.5,42.6 70.5,42.9 70.9,42.7 71.2,42.5 71.3,42.6 71.4,42.7 71.5,42.7 71.6,42.6 72.1,42.7 72.5,42.9 72.8,42.8 
			73,42.7 73.4,42.8 73.8,43 75.1,42.9 76.1,41.8 76.5,42.2 76.5,42.4 76.5,42.6 76.4,42.7 76.3,42.9 76.3,43 76.4,43.5 76.5,44.6 
			76.6,45.2 76.9,46.3 76.9,46.9 76.8,47.4 76.6,47.9 		"/>
		<path class="st11" d="M49.5,85.2l0.1,0.2l-0.1,0.1l-0.1,0l-0.1,0.1l0,0.1l0.1,0.1v0.1l0,0.1L49.3,86l0,0l-0.2,0.2l-0.4,0.3
			l-0.1,0.2l-0.2,0.3l0,0.1l-0.1,0.2l-0.3,0L48,87.4l-0.3,0l-0.4,0.3l-1.1,0.2l-0.4,0.3l-0.4,0.1l-0.5,0l-0.5,0.1l-0.5-0.1l-1,0
			l-0.3,0.2l-0.2,0.3l-0.2,0L42,88.7l-0.2-0.4l-0.3-0.1l-0.3-0.3L41,87.5l0.2-0.5l0.2-0.3l0.1-0.1l0.4-0.2l0.3-0.6l0.3-0.1l0.1-0.3
			l0.5-0.2l1.1-0.3l0.3-0.2l1.1-0.1l0.7-0.3l0.2,0l0.9-0.1l0.5,0l0.3,0.1l0.1,0.2l0.2,0.1l0.5,0.2l0.2,0.2l0.1,0.4l0.1,0.2l0.1-0.1
			L49.5,85.2L49.5,85.2z"/>
		<path class="st12" d="M51.4,35.7l0.3,0l0.3-0.1l0.2,0l0.1,0.2l0,0.2l-0.2,0.1l-0.2,0.1l0,0.2l0.1,0.1l-0.2,0.3L51.7,37l-0.3,0.2
			l-0.3,0.1l-0.3,0.2l-0.1-0.3l-0.3,0.1l-0.3,0.1l-0.2,0.1l-0.2,0l-0.5,0L49,37l-0.3-0.1l-0.2-0.1l-0.1-0.4l-0.6-0.3l0.1-0.3
			l0.2-0.3l0.3,0l0.3,0.2l0.3-0.1l0.2-0.1l0-0.2l0.1-0.2l0.5,0l0.2-0.3l0.2-0.3l0.2-0.2l0.3-0.1l0.4,0l0.2,0.3l0.1,0.4l0.1,0.3
			l0,0.3L51.4,35.7z"/>
		<path class="st13" d="M53,44.9l0.5-0.1l0.5-0.2l0.4-0.1l0.1-0.4l0.2-0.2l0.3-0.1l0.1-0.2l0.1-0.2l0.2-0.2l0.2,0l0.1,0.1l0.3-0.2
			l0.5-1l0.1-0.1l0.1-0.1l0.1-0.1l0.1-0.1l0.1-0.1l0.1-0.1l1.1-0.3L59,41l-0.1,0.7l0.3-0.1l0.3,0l0.1,0.1l0.1,0l0.1-0.1l0.1-0.1
			l0.2-0.2l-0.1-0.7l0.2-0.3l0.6-0.2l0.4,0.4V41l0.1,0.2l0.4-0.1l0.4-0.2l0.2-0.2l0.3,0.1l0.2-0.1l0.3-0.2l0.6,0.2l0.6,0.1l0.2,0.1
			l-0.1,0.3L64,41.4l-0.2,0.3l0.1,0.1l0.2,0.1l0.1,0l0.1,0l0.3-0.1l0.5-0.1l0.1,0.1l0,0.2l0.2,0.2l0.1,0.2l0.2,0l0.2,0l0.3-0.1
			l0.3,0l0.3,0.2l0.3,0.2l0.3,0.1l0.3,0l0.2,0.1l0.2,0.1l-0.1,0.2l-0.1,0.1l-0.1,0l-0.1,0.1l-0.2,0.3L67,43.7l-0.2,0.2l-0.2,0.1
			L66.4,44l-0.1,0.2L66,44.4l-0.2,0.3L65.7,45l-0.1,0.3l0.1,0.1l0.1,0.1l-0.2,0.5l-0.9,0.4l-0.4-0.1L64.1,46l-0.3-0.2l-0.2-0.1
			l-0.1-0.2l-0.1,0.1l-0.1,0.2L63.2,46l-0.1,0.2l-0.3,0l-0.3-0.1L62.3,46l-0.2,0.1L62,46.4l-0.2,0l-0.2-0.1l-0.1,0.2l-0.1,0.3
			l-0.1,0.3l0.2,0.3l0.2,0.3l-0.8-0.1l-0.4-0.2l-0.2,0.4l-0.4,0.2l-0.3,0.2l0,0.2l0,0.1l-0.1,0.1l-0.2,0.3L59,49l-0.2,0l-0.2,0.1
			l0.1,0.3l0.4,0.1l0.5,0.8l-0.2,0.2l-0.1,0.3l0,0.7l-0.1,0.3l0.1,0.2l0.1,0.2l-0.2,0.3l-0.2,0.2l0.1,0.6l0.4-0.1l0.3,0.1l0.3,0.3
			l0.2,0.1l0.6-0.1l0.2,0.2l0.1,0.7l-0.2,0l-0.3,0l-0.3,0.2l0.1,0.4l0,0.2l0,0.2l-0.1,0.1l-0.1,0.1l-0.1,0.3l-0.2,0.3l-0.3,0.1
			l-0.3,0.1l-0.1,0.1l-0.1,0.1l-0.2-0.1l-0.2-0.2l-0.4,0.2L58.3,57l-0.2,0L58,56.9l-0.5-0.2l-0.2-0.2l-0.2-0.1l-0.1,0.1l-0.1,0
			l-0.1-0.1l-0.1-0.1l-0.2-0.4l-0.2-0.4l-0.1-0.5l0-0.5l-0.1-0.4L55.9,54l-0.3-0.1L55.2,54l0-0.4l0-0.4l0.1-0.5l0.2-0.4l0.1-0.2
			l0.1-0.2l0.2-0.1l0-0.2l-0.1,0l-0.2-0.1l-0.2,0.1l-0.1,0.2l-0.1-0.4l0-0.2L55.1,51l0-0.2l-0.2,0L54.8,51l-0.3,0.1L54.2,51l0-0.2
			l-0.1-0.2l-0.1,0L54,50.5l0-0.1l0-0.1l0.1-0.3l0-0.2l0.2-1.1l-0.3-0.4l0-0.5l-0.5-0.6l0.1-0.1l0.1,0l0.1,0l0.1-0.1l0-0.1l0-0.1
			l0.1-0.1l0-0.2l0-0.2l-0.1-0.1L53.6,46l0-0.3l-0.1-0.1l-0.2-0.4l-0.1-0.1L53,45.1L53,44.9z"/>
		<path class="st14" d="M50,66.9l0.2,0.6L49.8,68l-0.7-0.1l-0.6,0.4l-0.4-0.1l0.1-0.2l-0.3-0.3L47.8,67l0.4-0.6h0.3l0.3,0.4l0.3-0.1
			l0.3-0.1L50,66.9z"/>
		<path class="st15" d="M70.1,58.7L70.1,58.7l-0.2,0l0,0.1l0,0.1l-0.1,0.3l0,0.1l0,0.1l0.1,0.9l-0.7,0.4l-0.6-1.3l-0.2,0.1l0.1,0.3
			l0.1,0.6L68,61.5h-0.7l-0.5-0.4l0-0.5l0.7-0.2l-0.6-0.5l0.6-0.1l0.1-0.2l-0.2-0.5L67.3,59l-0.1-0.2l0.2-0.2l0.2,0l0.2,0l0-0.1
			l0-0.1l-0.1,0l-0.1,0l0.1-0.3l0.2-0.2l-0.1-0.6l0.5-0.4l0.7-0.1l0.6,0l0.4,0.3l0.1,0.2l0,0.1l-0.1,0.1l0,0.3l0.1,0.1l0.1,0.1
			l0,0.2l0,0.2l-0.1,0.2L70.1,58.7z"/>
		<polygon class="st16" points="53.7,50.3 53.5,50.8 53.1,51.5 53.3,51.9 52.7,52.8 53.4,53.6 54.1,53.4 54.2,52.8 54.5,52.8 
			54.6,53.1 54.7,53 55.3,52.7 55.5,52.3 55.6,52 55.8,51.8 55.9,51.7 56,51.5 55.8,51.4 55.7,51.4 55.5,51.5 55.4,51.7 55.3,51.3 
			55.2,51.1 55.1,51 55.1,50.9 55,50.8 54.8,51 54.5,51.1 54.2,51 54.2,50.8 54.1,50.6 54,50.6 54,50.5 53.9,50.4 54,50.3 54,50.3 
			53.9,50.3 		"/>
		<polygon class="st17" points="54.1,48.7 53.8,48.3 53.8,47.8 53.3,47.2 52.6,46.7 52.2,46.9 52.4,47.5 52.8,48 52.6,48.5 
			52.6,48.7 52.5,49.1 52.8,49.4 53.1,49.5 53.2,49.9 53.7,50.2 53.9,50.3 54,49.9 54,49.8 		"/>
		<polygon class="st10" points="80,41.5 80.2,41.6 80.2,42 80.1,42.3 80,42.6 79.7,42.7 79.5,42.6 79.2,42.5 79,42.3 78.9,42 
			79,41.8 79.2,41.6 79.6,41.6 79.9,41.5 		"/>
		<polygon class="st10" points="82.8,44.7 82.9,44.8 82.9,45 82.8,45.1 82.8,45.2 82.7,45.3 82.6,45.3 82.5,45.2 82.4,45.1 82.3,45 
			82.4,44.9 82.5,44.8 82.6,44.8 82.8,44.8 		"/>
		<polygon class="st10" points="83.2,45 83.3,45 83.4,45.1 83.3,45.3 83.2,45.4 83.2,45.4 83.1,45.3 83.1,45.2 83.1,45 		"/>
	</g>
	<g>
		<path class="st18" d="M27.8,51.9h8.6c2.6,0,4.7,0.5,6.3,1.5c1.6,1,2.4,2.4,2.4,4.2c0,2-0.9,3.6-2.6,4.7s-4.1,1.6-7,1.6h-4.4
			l-1.4,7.2h-5.6L27.8,51.9z M32.8,54.9l-1.1,5.9H34c1.7,0,3-0.3,3.9-0.8c0.9-0.6,1.4-1.3,1.4-2.3c0-0.9-0.4-1.6-1.3-2.1
			c-0.9-0.5-2.2-0.8-3.8-0.8H32.8z"/>
		<path class="st18" d="M66.9,51.9l-0.6,3.2H55.4l-0.9,4.5H64l-0.6,3.2h-9.5l-1,5h13.7L66,71.1H46.7l3.7-19.2H66.9z"/>
		<path class="st18" d="M89.6,51.9l-0.6,3.2H78.1l-0.9,4.5h9.5l-0.6,3.2h-9.5l-1,5h13.7l-0.6,3.2H69.4l3.7-19.2H89.6z"/>
	</g>
	<g>
		<path class="st19" d="M39.4,42.1c0,1.3-0.4,2.5-1.1,3.6c-0.7,1.1-1.7,1.9-2.9,2.5c-0.7,0.3-1.4,0.6-2.2,0.7
			c-0.8,0.1-1.7,0.2-2.7,0.2H26l2.9-11.4h4c1.2,0,2.1,0.1,2.9,0.3c0.7,0.2,1.3,0.4,1.8,0.7c0.6,0.4,1.1,0.9,1.4,1.4
			S39.4,41.3,39.4,42.1z M36,42.3c0-0.5-0.1-1-0.3-1.3c-0.2-0.4-0.5-0.7-1-0.9c-0.2-0.1-0.4-0.2-0.6-0.2c-0.2-0.1-0.4-0.1-0.7-0.1
			c-0.3,0-0.5,0-0.9,0s-0.6,0-0.9,0h-0.1l-1.8,7.2H30c0.3,0,0.7,0,1,0s0.7,0,0.9,0c0.3,0,0.6-0.1,0.8-0.1c0.2-0.1,0.5-0.1,0.8-0.3
			c0.8-0.4,1.4-0.9,1.9-1.7C35.8,44,36,43.2,36,42.3z"/>
		<path class="st19" d="M44.8,49.2c-1.1,0-2-0.1-2.9-0.3c-0.8-0.2-1.6-0.4-2.2-0.6l0.6-2.7h0.4c0.6,0.5,1.3,0.8,2,1.1
			c0.8,0.3,1.6,0.4,2.5,0.4c0.9,0,1.6-0.1,2-0.3c0.4-0.2,0.6-0.6,0.6-1c0-0.2,0-0.3-0.1-0.4c-0.1-0.1-0.2-0.2-0.4-0.3
			s-0.5-0.2-0.8-0.3s-0.8-0.2-1.4-0.4c-0.6-0.2-1.2-0.3-1.6-0.5c-0.5-0.2-0.9-0.4-1.2-0.6c-0.3-0.2-0.6-0.5-0.8-0.9
			c-0.2-0.3-0.3-0.7-0.3-1.2c0-1.1,0.6-2,1.7-2.7s2.6-1,4.5-1c0.9,0,1.8,0.1,2.6,0.2s1.5,0.3,2.1,0.6l-0.6,2.6h-0.3
			c-0.4-0.4-1-0.7-1.7-0.9c-0.7-0.2-1.5-0.4-2.3-0.4c-0.8,0-1.5,0.1-1.9,0.3c-0.5,0.2-0.7,0.5-0.7,0.9c0,0.2,0,0.3,0.1,0.4
			c0.1,0.1,0.2,0.2,0.4,0.3c0.2,0.1,0.5,0.2,0.8,0.3c0.4,0.1,0.8,0.2,1.4,0.4c1.4,0.3,2.4,0.7,3,1.2c0.6,0.5,0.9,1.1,0.9,1.9
			c0,0.7-0.2,1.2-0.5,1.7c-0.3,0.5-0.8,0.9-1.3,1.2c-0.6,0.3-1.3,0.6-2,0.7C46.6,49.1,45.7,49.2,44.8,49.2z"/>
		<path class="st19" d="M63.3,49h-10l0.6-2.4H57l1.8-7.2h-3.2l0.6-2.2c0.5,0,0.9,0,1.4-0.1s0.9-0.1,1.2-0.3c0.4-0.1,0.7-0.3,0.9-0.6
			c0.3-0.2,0.4-0.6,0.6-0.9h3.3l-2.9,11.3h3.1L63.3,49z"/>
	</g>
	<g>
		<path class="st20" d="M33.1,75.7v-0.7h1.9v0.9h-0.2L33.1,75.7z M34.9,83v0.9h-1.9v-0.7l1.7-0.2H34.9z M34,79.2c0-1.4,0-2.8,0-4.2
			h2c0,1.4,0,2.8,0,4.2v0.5c0,1.5,0,2.9,0,4.3h-2c0-1.4,0-2.8,0-4.3V79.2z M34.9,83.1h1.4c1.3,0,2.2-1.3,2.2-3.7
			c0-2.4-0.8-3.7-2.2-3.7h-1.4v-0.8h1.6c2.5,0,4,1.7,4,4.5c0,2.9-1.6,4.5-4.2,4.5h-1.4V83.1z"/>
		<path class="st20" d="M45.2,82.1c0-0.7-0.3-1-1-1.4l-0.5-0.3c-1.4-0.7-2.2-1.5-2.2-3.1c0-1.6,1.1-2.6,2.9-2.6
			c0.8,0,1.6,0.3,2.2,0.7l-0.1,1.9h-1.1l-0.3-2.1l0.9,0.4v0.7c-0.6-0.5-1.1-0.8-1.7-0.8c-0.7,0-1.2,0.5-1.2,1.2
			c0,0.7,0.4,1.1,1.1,1.5l0.6,0.3c1.5,0.8,2.1,1.5,2.1,2.9c0,1.6-1.1,2.8-3.1,2.8c-0.9,0-1.9-0.2-2.5-0.7l0.1-2h1.1l0.3,2.2L42,83.3
			v-0.7c0.7,0.5,1.2,0.7,2,0.7C44.8,83.4,45.2,82.8,45.2,82.1z"/>
		<path class="st20" d="M55.5,79.4c0,3.1-1.8,4.7-3.7,4.7c-1.9,0-3.7-1.6-3.7-4.7c0-3.1,1.8-4.7,3.7-4.7
			C53.7,74.7,55.5,76.2,55.5,79.4z M48.9,84.4l-0.7-0.6l6.4-9.3l0.7,0.6L48.9,84.4z M51.8,83.4c1.2,0,1.6-1.7,1.6-3.9
			c0-2.3-0.5-4-1.6-4c-1.2,0-1.6,1.7-1.6,4C50.1,81.7,50.6,83.4,51.8,83.4z"/>
		<path class="st20" d="M56.2,75.7v-0.7h3.7v0.7l-1.7,0.2h-0.3L56.2,75.7z M58.2,83l1.5,0.2v0.7h-3.6v-0.7l1.7-0.2H58.2z M57.1,79.2
			c0-1.4,0-2.8,0-4.2h2c0,1.4,0,2.8,0,4.2v0.6c0,1.3,0,2.7,0,4.1h-2c0-1.4,0-2.8,0-4.2V79.2z M58,80.9l4.1-6H63l-5,6.9V80.9z
			 M60.7,77.7l2.9,6.3h-2.1l-1.9-4.5L60.7,77.7z M60.5,83.2l1.6-0.2h0.3l1.5,0.2v0.7h-3.4V83.2z M60.8,75.7v-0.7h2.7v0.7l-1.4,0.2
			l-0.3,0L60.8,75.7z"/>
		<path class="st20" d="M64.4,75.7v-0.7h1.9v0.9h-0.2L64.4,75.7z M66.3,83v0.9h-1.9v-0.7l1.7-0.2H66.3z M65.3,79.2
			c0-1.4,0-2.8,0-4.2h2c0,1.4,0,2.8,0,4.2v0.5c0,1.5,0,2.9,0,4.3h-2c0-1.4,0-2.8,0-4.3V79.2z M66.3,83.1h1.4c1.3,0,2.2-1.3,2.2-3.7
			c0-2.4-0.8-3.7-2.2-3.7h-1.4v-0.8h1.6c2.5,0,4,1.7,4,4.5c0,2.9-1.6,4.5-4.2,4.5h-1.4V83.1z"/>
		<path class="st20" d="M72.5,83.2l1.2-0.2H74l1.5,0.2v0.7h-3.1V83.2z M73.1,75.4l0.7,0.4l-1.3-0.1v-0.7h2.6l4.2,6.7v2.3h-1
			L73.1,75.4z M73.5,74.9l0.8,0.7v8.2h-0.8V74.9z M77.2,74.9h3.1v0.7l-1.2,0.2h-0.3l-1.6-0.2V74.9z M78.6,74.9h0.8v9l-0.8-0.9V74.9z
			"/>
	</g>
	<g>
		<path d="M33.1,75.7v-0.7h1.9v0.9h-0.2L33.1,75.7z M34.9,83v0.9h-1.9v-0.7l1.7-0.2H34.9z M34,79.2c0-1.4,0-2.8,0-4.2h2
			c0,1.4,0,2.8,0,4.2v0.5c0,1.5,0,2.9,0,4.3h-2c0-1.4,0-2.8,0-4.3V79.2z M34.9,83.1h1.4c1.3,0,2.2-1.3,2.2-3.7
			c0-2.4-0.8-3.7-2.2-3.7h-1.4v-0.8h1.6c2.5,0,4,1.7,4,4.5c0,2.9-1.6,4.5-4.2,4.5h-1.4V83.1z"/>
		<path d="M45.2,82.1c0-0.7-0.3-1-1-1.4l-0.5-0.3c-1.4-0.7-2.2-1.5-2.2-3.1c0-1.6,1.1-2.6,2.9-2.6c0.8,0,1.6,0.3,2.2,0.7l-0.1,1.9
			h-1.1l-0.3-2.1l0.9,0.4v0.7c-0.6-0.5-1.1-0.8-1.7-0.8c-0.7,0-1.2,0.5-1.2,1.2c0,0.7,0.4,1.1,1.1,1.5l0.6,0.3
			c1.5,0.8,2.1,1.5,2.1,2.9c0,1.6-1.1,2.8-3.1,2.8c-0.9,0-1.9-0.2-2.5-0.7l0.1-2h1.1l0.3,2.2L42,83.3v-0.7c0.7,0.5,1.2,0.7,2,0.7
			C44.8,83.4,45.2,82.8,45.2,82.1z"/>
		<path d="M55.5,79.4c0,3.1-1.8,4.7-3.7,4.7c-1.9,0-3.7-1.6-3.7-4.7c0-3.1,1.8-4.7,3.7-4.7C53.7,74.7,55.5,76.2,55.5,79.4z
			 M48.9,84.4l-0.7-0.6l6.4-9.3l0.7,0.6L48.9,84.4z M51.8,83.4c1.2,0,1.6-1.7,1.6-3.9c0-2.3-0.5-4-1.6-4c-1.2,0-1.6,1.7-1.6,4
			C50.1,81.7,50.6,83.4,51.8,83.4z"/>
		<path d="M56.2,75.7v-0.7h3.7v0.7l-1.7,0.2h-0.3L56.2,75.7z M58.2,83l1.5,0.2v0.7h-3.6v-0.7l1.7-0.2H58.2z M57.1,79.2
			c0-1.4,0-2.8,0-4.2h2c0,1.4,0,2.8,0,4.2v0.6c0,1.3,0,2.7,0,4.1h-2c0-1.4,0-2.8,0-4.2V79.2z M58,80.9l4.1-6H63l-5,6.9V80.9z
			 M60.7,77.7l2.9,6.3h-2.1l-1.9-4.5L60.7,77.7z M60.5,83.2l1.6-0.2h0.3l1.5,0.2v0.7h-3.4V83.2z M60.8,75.7v-0.7h2.7v0.7l-1.4,0.2
			l-0.3,0L60.8,75.7z"/>
		<path d="M64.4,75.7v-0.7h1.9v0.9h-0.2L64.4,75.7z M66.3,83v0.9h-1.9v-0.7l1.7-0.2H66.3z M65.3,79.2c0-1.4,0-2.8,0-4.2h2
			c0,1.4,0,2.8,0,4.2v0.5c0,1.5,0,2.9,0,4.3h-2c0-1.4,0-2.8,0-4.3V79.2z M66.3,83.1h1.4c1.3,0,2.2-1.3,2.2-3.7
			c0-2.4-0.8-3.7-2.2-3.7h-1.4v-0.8h1.6c2.5,0,4,1.7,4,4.5c0,2.9-1.6,4.5-4.2,4.5h-1.4V83.1z"/>
		<path d="M72.5,83.2l1.2-0.2H74l1.5,0.2v0.7h-3.1V83.2z M73.1,75.4l0.7,0.4l-1.3-0.1v-0.7h2.6l4.2,6.7v2.3h-1L73.1,75.4z
			 M73.5,74.9l0.8,0.7v8.2h-0.8V74.9z M77.2,74.9h3.1v0.7l-1.2,0.2h-0.3l-1.6-0.2V74.9z M78.6,74.9h0.8v9l-0.8-0.9V74.9z"/>
	</g>
</g>
</svg>
