<?xml version="1.0" encoding="utf-8"?>
<!-- Generator: Adobe Illustrator 25.0.0, SVG Export Plug-In . SVG Version: 6.00 Build 0)  -->
<svg version="1.1" id="레이어_1" xmlns="http://www.w3.org/2000/svg" xmlns:xlink="http://www.w3.org/1999/xlink" x="0px"
	 y="0px" width="71px" height="71px" viewBox="0 0 71 71" style="enable-background:new 0 0 71 71;" xml:space="preserve">
<style type="text/css">
	.st0{fill:#88BB3A;}
	.st1{fill:#C7D338;}
	.st2{fill:#5EB994;}
	.st3{fill:#AEC382;}
	.st4{fill:#E8BE37;}
	.st5{fill:#EB9D64;}
	.st6{fill:#E79196;}
	.st7{fill:#D06C7E;}
	.st8{fill:#4774B9;}
	.st9{fill:#4495B3;}
	.st10{fill:#BE8DB8;}
	.st11{fill:#B4BD31;}
	.st12{fill:#89C394;}
	.st13{fill:#D18B51;}
	.st14{fill:#126A7A;}
	.st15{fill:#449B77;}
	.st16{fill:#31825F;}
	.st17{stroke:#FFFFFF;stroke-width:0.75;stroke-miterlimit:10;}
	.st18{fill:#FFFFFF;stroke:#000000;stroke-width:0.75;stroke-miterlimit:10;}
	.st19{fill:#FFFFFF;stroke:#FFFFFF;stroke-width:0.75;stroke-miterlimit:10;}
</style>
<g>
	<path class="st0" d="M43.268,1.782l0.305,0.605l0.477,0.945l0.095,0.414l0.243,0.627l0.903,1.788l0.704,1.874l0.115,0.204
		l0.367,0.455l0.141,0.382l1.704,2.44l0.661,0.964l0.792,0.879l0.112,0.092l0.531,0.625l0.027,0.264l0.002,0.317l0.063,0.269
		l0.362,0.202l0.105,0.216l0.299,0.974l0.133,0.225l0.16,0.096l0.134,0.139l0.465,0.916l0.28,0.352l0.097,0.194l0.037,0.205
		l0.071,0.199l0.493,0.543l0.157,0.445l0.14,0.972l0.192,0.534l0.524,0.731l0.04,0.153l-0.06,0.148l-0.095,0.141l-0.06,0.138
		l-0.004,0.124l0.074,0.401l0.09,1.143l0.095,0.527l0.339,1.076l0.027,0.526L54.5,26.732l-0.23,0.442l-0.187,0.524l0.187-0.524
		l0.23-0.442l0.106-0.487l-0.027-0.526l-0.339-1.076l-0.095-0.527l-0.09-1.143l-0.074-0.401l0.004-0.124l0.06-0.138l0.095-0.141
		l0.06-0.148l-0.04-0.153l-0.323-0.45l-0.954,1.069l-1.284,0.063l-0.319-0.193l-0.35-0.082l-0.278,0.147l-0.267,0.068l-0.377-0.173
		l-0.401-0.068l-0.135,0.055L49.36,22.29l-0.087-0.116l-0.125-0.052l-0.291,0.227l-0.306,0.12l-0.023-0.224l0.025-0.223
		l-0.178-0.088l-0.198-0.045l-0.144-0.253l-0.279-0.022l-0.278,0.13l-0.186,0.227l0.068,0.315l-0.033,0.294l-0.06,0.274
		l-0.261-0.024L46.7,22.763l-0.253-0.106l-0.262-0.139l-0.205-0.133l-0.207-0.09l-0.26-0.03l-0.266-0.053l-0.269-0.175l-0.243-0.184
		l-0.244,0.002l-0.246,0.079l-0.22,0.039l-0.186,0.014l-0.074-0.168l-0.203-0.211l0.018-0.183l-0.101-0.112l-0.487,0.056
		l-0.311,0.104l-0.093,0.044l-0.091-0.002l-0.145-0.08l-0.112-0.127l0.175-0.272l0.295-0.21l0.118-0.27l-0.184-0.055l-0.583-0.092
		l-0.571-0.204l-0.237,0.183l-0.202,0.106l-0.244-0.051L40.603,20.6l-0.338,0.189l-0.339,0.082l-0.127-0.178v-0.275l-0.389-0.412
		l-0.521,0.176l-0.193,0.237l0.056,0.623l-0.207,0.142l-0.069,0.084l-0.079,0.069l-0.088-0.041l-0.087-0.054l-0.313-0.022
		l-0.311,0.074l0.088-0.619l-1.087,0.149l-1.08,0.296l0.555-1.028l0.454-1.118l0.63-1.345l0.078-0.289l-0.059-0.289l0.134-0.234
		l0.189-0.231l0.203-0.084l0.107-0.229l-0.116-0.198l-0.152-0.13l-0.243-0.027l-0.249-0.095l-0.344-0.046l-0.575-0.319l-0.259-0.106
		l-0.257-0.169l-0.282-0.044l-0.274,0.087l-0.227-0.192l0.018-0.209l0.108-0.219l0.042-0.254l0.003-0.262l-0.271,0.087l-0.122-0.158
		l0.298-0.351l-0.05-0.234l-0.082-0.232l0.059-0.176l-0.003-0.211l-0.02-0.199l0.519-0.383l0.21-0.069l0.117-0.181l0.053-0.525
		l-0.242-0.372l-0.199-0.041l-0.189-0.087l-0.143-0.383l-0.226-0.011l-0.242,0.016l-0.264-0.193l-0.126-0.343l-0.052-0.611
		l-0.098-0.308l-0.069-0.059l-0.08,0.013l-0.054,0.052l-0.068,0.01l-0.174-0.123L33.059,9.17l-0.392-0.095l-0.159-0.097
		l-0.162-0.146l-0.005-0.245l0.079-0.231l0.058-0.088l0.041-0.084l-0.068-0.057l-0.087-0.021l-0.082,0.017l-0.072,0.056
		l-0.135,0.176l-0.151,0.153l-0.232,0.04l-0.205-0.14L31.45,8.281l-0.016-0.129L31.36,8.108L31.282,8.19l-0.026,0.132L31.253,8.75
		L31.12,8.959l-0.375-0.178L30.401,8.47l-0.12-0.127l-0.127,0.016l-0.113-0.165L29.97,7.981l-0.093-0.113l-0.111-0.089l-0.086-0.204
		l-0.152-0.097l-0.36-0.229l-0.203-0.099l0.06-0.076l0.561-0.463l0.651-0.409l0.685-0.278l0.659-0.071l0.325,0.035l1.261-0.11
		l0.97,0.295l0.308-0.028l0.601-0.182l1.972-0.173l0.084,0.057l0.131,0.189l0.126,0.127L37.5,6.096l0.676-0.142l1.073,0.063
		l0.696-0.055l0.702-0.25l0.653-0.423l0.544-0.571l0.237-0.339l0.198-0.362l0.133-0.403l0.044-0.463l-0.087-0.447l-0.022-0.228
		l0.064-0.169l0.279-0.221L43.268,1.782z"/>
	<path class="st1" d="M25.913,12.148l-0.071-1.114l0.054-0.309l0.123-0.09l0.189-0.021l0.264-0.101l0.407-0.325l0.873-1.337
		L27.93,8.67l0.394-0.306l0.169-0.195l0.208-0.514L28.84,7.31l0.126-0.161l0.203,0.099l0.36,0.229l0.152,0.097l0.086,0.204
		l0.111,0.089l0.093,0.113l0.071,0.214l0.113,0.165l0.127-0.016l0.12,0.127l0.343,0.311l0.375,0.178l0.133-0.209l0.002-0.428
		l0.026-0.132l0.078-0.083l0.074,0.045l0.016,0.129l0.038,0.127l0.205,0.14l0.232-0.04l0.151-0.153l0.135-0.176l0.072-0.056
		l0.082-0.017l0.087,0.021l0.068,0.057l-0.041,0.084l-0.058,0.088l-0.079,0.231l0.005,0.245l0.162,0.146l0.159,0.097l0.392,0.095
		l0.427-0.151l0.174,0.123l0.068-0.01l0.054-0.052l0.08-0.013l0.069,0.059l0.098,0.308l0.052,0.611l0.126,0.343l0.264,0.193
		l0.242-0.016l0.226,0.011l0.143,0.383l0.189,0.087l0.199,0.041l0.242,0.372l-0.053,0.525l-0.117,0.181l-0.21,0.069l-0.519,0.383
		l0.02,0.199l0.003,0.211l-0.059,0.176l0.082,0.232l0.05,0.234l-0.298,0.351l0.122,0.158l0.271-0.087l-0.003,0.262l-0.042,0.254
		l-0.108,0.219l-0.018,0.209l0.227,0.192l0.274-0.087l0.282,0.044l0.257,0.169l0.259,0.106l0.575,0.319l0.344,0.046l0.249,0.095
		l0.243,0.027l0.152,0.13l0.116,0.198l-0.107,0.229l-0.203,0.084l-0.189,0.231l-0.134,0.234l0.059,0.289l-0.078,0.289l-0.63,1.345
		l-0.454,1.118l-0.555,1.028l-0.072,0.137l-0.082,0.124l-0.082,0.058l-0.079,0.064l-0.059,0.1l-0.05,0.109l-0.488,0.909L34.349,22.8
		l-0.058-0.077l-0.2-0.042l-0.158,0.169l-0.085,0.213l-0.124,0.16l-0.262,0.113l-0.167,0.181l-0.092,0.376l-0.34,0.114l-0.434,0.209
		l-0.459,0.135l-0.483-0.065l-0.395-0.332l-0.442-0.202l-0.85,0.364l-0.4,0l-0.477-0.098l-0.003-0.001l0.131-0.1l0.154-0.073
		l0.111-0.125l0.07-0.31l-0.02-0.055l-0.095-0.1l-0.018-0.027l0.055-0.052l0.055-0.007l0.052,0.002l0.142-0.079l0.091-0.014
		l0.067-0.045l0.027-0.148l-0.612,0.172l-0.092,0.131l0.032,0.396l-0.074,0.09l-0.238,0.078l-0.339-0.047l-0.402-0.235l-0.363-0.357
		l-0.138-0.342l0.612-0.067v-0.08l-0.042-0.02l-0.097-0.074l0.115-0.015l0.109,0.006l0.1,0.034l0.088,0.069l-0.043-0.244
		l-0.14-0.217l-0.102-0.249l0.075-0.338l-0.116-0.052l-0.089,0.118l-0.055,0.204l-0.018,0.206l-0.047,0.224l-0.097,0.052
		l-0.097-0.097l-0.196,0.041l-0.197,0.051l-0.471-0.142l0.003-0.145l-0.044-0.127l0.037-0.173l-0.02-0.22l0.119-0.218l0.141-0.194
		l0.163-0.078l0.174-0.067l0.259-0.004l0.276-0.075l0.057-0.086l0.016-0.238l-0.063-0.046l-0.142,0.078l-0.212,0.184l-0.132-0.027
		l-0.097-0.057l-0.052-0.101l0.001-0.157l-0.243,0.124l-0.197,0.141l-0.364,0.396l-0.094,0.075l-0.118,0.042l-0.11-0.004
		l-0.067-0.066l0.004-0.118l0.062-0.115l0.151-0.213l-0.298,0.069l-0.095-0.03l-0.032-0.175l0.055-0.13l0.125-0.074l0.142-0.049
		l0.103-0.058l0.124-0.17l-0.032-0.044l-0.274,0.038l-0.091-0.056l-0.072-0.138l-0.068-0.172l-0.082-0.16l0.046-0.013l0.029-0.02
		l0.065-0.062l0.075,0.057l0.113-0.006l0.199-0.051l0.162,0.045l0.136,0.084l0.134,0.043l0.157-0.077l-0.012,0.143l0.012,0.139
		l0.05,0.108l0.097,0.049l0.107-0.042l0.05-0.121l0.051-0.275l0.172-0.258l0.141,0.02l0.16,0.097l0.225-0.033l-0.048-0.105
		l-0.062-0.078l-0.079-0.052l-0.096-0.028l-0.142,0.005l-0.065-0.098l-0.153-0.028l-0.123,0.039L27.1,19.016l-0.194-0.039
		l-0.32-0.102l-0.445-0.338l-0.024-0.148l0.198-0.289l0.135-0.136l0.322-0.094l0.076-0.056l0.134-0.099l0.146-0.282l0.096-0.317
		l-0.097-0.16l-0.165-0.108l-0.11-0.253l0.351-0.879l-0.429-0.289l-1.079-0.497l-0.032,0.402l-0.403,0.414l-0.05-0.113l-0.08-0.191
		l-0.091-0.15l-0.105-0.181l-0.117-0.114l-0.002-0.174l-0.042-0.26l-0.11-0.407l-0.147-1.062l0.04-0.175l0.136-0.025l0.563,0.202
		l0.18-0.039l0.15-0.071l0.133-0.026l0.136,0.092l0.051,0.153l0.02,0.238l-0.015,0.245l-0.056,0.167l-0.004,0.303l0.314,0.263
		l0.398,0.168l0.247,0.015l-0.192-0.199l-0.589-0.426L26.2,13.52l0.051-0.275l-0.043-0.194l-0.097-0.203l-0.008-0.111l-0.012-0.148
		l0.047-0.26l0.107-0.207l-0.077-0.096l-0.101,0.014L25.913,12.148z M30.498,15.73l0.094-0.365l-0.006-0.315l-0.107-0.287
		l-0.068-0.411l-0.175-0.302l-0.368-0.03l-0.319,0.076l-0.204,0.219l-0.144,0.305l-0.236,0.3l-0.459,0.044l-0.059,0.205
		l-0.017,0.222l-0.217,0.132l-0.243,0.083l-0.328-0.2l-0.286-0.018l-0.153,0.33l-0.13,0.326l0.575,0.26l0.054,0.37l0.204,0.134
		l0.296,0.089l0.3,0.395l0.439,0.015l0.187-0.031l0.18-0.103l0.254-0.079l0.256-0.059l0.117,0.269l0.3-0.151l0.292-0.068
		l0.265-0.158l0.097-0.168l0.175-0.24l-0.082-0.093l-0.003-0.233l0.155-0.103l0.143-0.072l0.027-0.192l-0.078-0.188l-0.208,0.003
		l-0.24,0.087L30.498,15.73z"/>
	<path class="st2" d="M23.233,29.706l0.077,0.235l0.138,0.213l0.058,0.199l-0.097-0.045l-0.454,0.026l-0.147-0.024l-0.028-0.19
		l0.049-0.068l0.079-0.072l0.042-0.113l-0.244,0.154l-0.114-0.055l0.032-0.19l0.185-0.256l-0.07-0.079l-0.14,0.166l-0.047-0.114
		l-0.107,0.057l0.056-0.305l-0.039-0.466l-0.047-0.282l-0.106-0.355l0.088-0.116l0.181-0.169l0.195-0.067l0.136,0.218l0.018,0.078
		l-0.044,0.093l-0.078,0.063l0.009,0.087l0.172,0.391l0.027,0.124l-0.045,0.104l0.053,0.091l0.116,0.069l0.091,0.159h-0.215v0.079
		l0.07,0.014l0.145,0.081l-0.011,0.08l-0.01,0.063L23.233,29.706z M27.391,34.923l-0.21,0.065l-0.206,0.142l-0.173,0.167
		l-0.191,0.092l-0.228,0.039l-0.214,0.095l-0.156-0.076l-0.052-0.088l-0.017-0.116l-0.053-0.159l-0.085-0.137l-0.172-0.227
		l-0.092-0.154l0.142-0.115l-0.067-0.079l-0.14-0.059l-0.128-0.043l-0.234-0.403l-0.18-0.078l-0.136,0.079l-0.064-0.001
		l-0.005-0.139l-0.231-0.148l-0.2,0.032l-0.062,0.238l-0.034,0.082l-0.07-0.064l0.041-0.37l0.347-0.176l0.307-0.097l0.429,0.124
		l-0.151-0.25l-0.086-0.098l-0.114-0.084l-0.068-0.016l-0.082,0.048l-0.058-0.032l-0.077-0.084l-0.063-0.09l0.215-0.591l0.123-0.261
		l0.15-0.1l-0.113-0.139l-0.434-0.133l-0.156-0.083l0.154-0.143l0.455-0.111l0.095-0.132l-0.066-0.168l-0.161-0.042l-0.337-0.002
		l-0.07-0.049l-0.121-0.147l-0.082-0.073v-0.086h0.133l-0.153-0.285l0.185-0.103l0.211-0.064l0.197-0.287l0.421-0.117l0.199-0.107
		h-0.597l-0.144,0.082l-0.22,0.329l-0.162,0.031l-0.102-0.124l-0.093-0.235l-0.059-0.241l0.007-0.142l0.213-0.25l0.099-0.154
		l-0.032-0.069l-0.196,0.071l-0.089-0.083l-0.08-0.053l-0.048-0.01l-0.047-0.117l0.045-0.107l-0.009-0.117l-0.051-0.219
		l-0.062-0.093l-0.004-0.053l0.141-0.009l0.204-0.095l0.213,0.007l0.016-0.155l0.061-0.137l-0.083-0.111l-0.121-0.025l-0.164-0.163
		l0.104-0.149l0.144-0.116l-0.097-0.177L23.94,26.79l-0.05-0.213l0.078-0.157l0.239-0.038l-0.137-0.157l-0.047-0.079l-0.032-0.112
		l-0.086,0.073l-0.145,0.158l-0.162,0.07l-0.032,0.09l0.006,0.09l0.072,0.111l0.013,0.216l-0.075,0.249l0.045,0.334l-0.109,0.285
		l-0.093,0.116l-0.189-0.148l-0.198-0.009l-0.197-0.13l0.049-0.688l0.061-0.249l-0.117-0.056l0.035-0.323l-0.11-0.132l-0.165,0.029
		l-0.092,0.166l-0.025,0.204l-0.074,0.149l-0.233,0.004l0.096,0.196l0.186,0.298l0.067,0.21l-0.112,0.095l0.015,0.105l0.172,0.234
		l-0.156,0.031l-0.132,0.076l-0.111,0.109l-0.089,0.132l0.002-0.093l-0.012-0.095l-0.023-0.086l-0.035-0.074l0.141-0.311l-0.3-0.494
		l0.09-0.247l-0.077-0.348l-0.189,0.106l-0.27,0.342l-0.2,0.074l-0.117,0.023L21.01,26.97l-0.105,0.007l-0.124-0.072l-0.03-0.059
		l-0.042-0.119l-0.016-0.117l0.05-0.053l0.422,0.004l0.107-0.073l-0.003-0.193l-0.11-0.2l-0.157-0.077l-0.165-0.048l-0.132-0.109
		l-0.052,0.153l-0.03,0.318l-0.057,0.147l-0.12,0.109l-0.04-0.103l0.012-0.32l-0.02-0.31l0.028-0.086l0.262-0.333l0.052-0.116
		l0.041-0.163l0.032,0.124l0.044,0.111l0.055,0.105l0.071,0.104l0.054-0.051l0.067,0.005l0.077,0.027l0.087,0.019l-0.107-0.152
		l-0.109-0.196l0.291,0.087l0.12-0.031l0.077-0.152l-0.261-0.019l-0.161-0.073l-0.019-0.159l0.169-0.272l-0.231-0.192l0.015-0.178
		l0.176-0.144l0.25-0.09l-0.065,0.312l0.025,0.086l0.141,0.03l0.254-0.005l0.068-0.047l0.067-0.115l0.018-0.288l-0.026-0.387
		l0.047-0.315l0.238-0.073l-0.031,0.176l0.007,0.276l0.045,0.28l0.127,0.337l-0.062,0.119l-0.1,0.106l-0.062,0.111l0.003,0.117
		l0.064,0.188l0.008,0.051l-0.056,0.06l-0.184,0.121l-0.038,0.033l0.01,0.11l0.033,0.116l0.054,0.068l0.073-0.034l0.172-0.159
		l0.129-0.004l0.295,0.203l-0.211-0.458l-0.075-0.285l0.109-0.128l0.165,0.211l0.101,0.065l0.047-0.138l0.043-0.043l0.107-0.043
		l0.205-0.052v-0.08l-0.082-0.012l-0.197-0.083v-0.08l0.246-0.058l0.145-0.236l0.037-0.287l-0.08-0.212l-0.089-0.03l-0.268-0.005
		l-0.132-0.054l-0.099-0.121l-0.032-0.119l0.049-0.042l0.147,0.107l0.067-0.198l-0.072-0.118l-0.157-0.048l-0.187,0.014l0.076-0.098
		l0.102-0.071l0.11-0.019l0.1,0.057l0.097,0.075l0.086,0.017l0.039-0.04l-0.045-0.096v-0.095l0.377-0.006l0.181,0.064l0.077,0.169
		l-0.052,0.105l-0.098,0.111l-0.06,0.145l0.065,0.207l0.09-0.09l0.116-0.063l0.1,0.002l0.042,0.107l0.012,0.09l0.047,0.081
		l0.011,0.087l-0.018,0.033l-0.092,0.11l-0.029,0.079v0.571l0.034,0.165l0.075,0.116l0.075,0.044l0.033-0.06l0.042-0.318
		l0.187-0.611l0.043-0.301l0.055-0.071l0.124,0.084l0.177,0.197l0.072,0.138l0.052,0.128l0.077,0.084l0.146,0.006v-0.079
		l-0.073-0.097l-0.089-0.261l-0.078-0.13l-0.627-0.663l-0.045-0.036l0.035-0.138l0.087,0.016l0.105,0.099l0.163,0.204l0.087,0.077
		l0.105,0.048l0.127,0.001l0.096-0.056l0.009-0.088l-0.07-0.082l-0.145-0.036l-0.195-0.094l-0.212-0.199l-0.095-0.296l-0.022-0.198
		l0.187-0.005l0.163,0.079l0.146,0.129l0.205,0.146l0.195,0.135l0.08,0.082l0.155,0.106l0.15,0.083l0.102,0.175l-0.048,0.173
		l-0.099,0.117l0.02,0.092l0.102,0.195l0.012,0.12l-0.037,0.21l0.112-0.078l0.045-0.095l0.027-0.106l-0.039-0.314l0.042-0.104
		l0.065-0.109l0.095-0.178l0.169-0.079l0.158-0.001l0.177,0.023l0.196,0.072l0.248,0.067l0.178,0.117l0.215,0.222l0.015,0.273
		l-0.161,0.553l0.122-0.081l0.192-0.248l0.105-0.019l0.073,0.105l0.042,0.188l0.022,0.365l-0.011,0.078l-0.047,0.174l-0.01,0.101
		l0.02,0.105l0.091,0.153l0.087,0.397l-0.029,0.114l-0.168,0.051l0.031,0.107l0.04,0.073l0.059,0.05l0.085,0.039l0.06-0.287
		l0.101-0.17L28,25.308l-0.085-0.32l0.207,0.06l0.217,0.027l-0.351-0.39l-0.105-0.215l0.209-0.094l0.188-0.031l0.444-0.179
		l0.196-0.15l0.003,0.001l0.477,0.098l0.4,0l0.85-0.364l0.442,0.202l0.395,0.332l0.483,0.065l0.08,0.19l0.12,0.127l0.137,0.08
		l0.175,0.354l0.134,0.094l-0.011,0.263l0.085,0.078l0.068,0.128l0.022,0.145l-0.025,0.144l-0.05,0.134l-0.032,0.139l-0.014,0.11
		l-0.052,0.098l-0.095,0.027l-0.097-0.015l-0.086,0.092l-0.684-0.471l-0.37,0.234l0.206,0.574l0.35,0.449l-0.2,0.435l0.019,0.214
		l-0.135,0.423l0.314,0.262l0.315,0.06l0.053,0.429l0.484,0.282l0,0l-0.199,0.533L32.1,30.598l0.185,0.362l-0.59,0.821l0.671,0.836
		l0.686-0.179l0.053-0.657l0.367,0.028l0.025,0.296l0.147-0.05l0.543-0.312l0.231-0.417l0.093-0.212l0.104-0.189l0.168-0.127
		l0.039-0.22l-0.131-0.044l-0.142-0.064l-0.172,0.126l-0.134,0.181l0.134-0.181l0.172-0.126l0.142,0.064l0.131,0.044l-0.039,0.22
		l-0.168,0.127l-0.104,0.189l-0.093,0.212l-0.231,0.417l-0.123,0.49l-0.018,0.35l0.027,0.36l0.33-0.068l0.303,0.099l0.314,0.192
		l0.106,0.377l-0.014,0.438l0.088,0.434l0.208,0.371l0.232,0.362L35.4,35.391l-0.248,0.218l-0.303,0.084l-0.301,0.014l-0.221,0.054
		l-0.592-0.078l-0.042-0.102l0.072-0.144l-0.061-0.126l-0.131-0.033l-0.339-0.171l-0.46-0.829l-0.327-0.29l-0.171,0.176
		l-0.137,0.214l-0.215,0.044l-0.145,0.065l-0.148,0.052l-0.563,0.11l-0.286,0.111l-0.302,0.057l-0.218-0.339l0.091-0.558
		l-0.377-0.076l-1.059,0.334l-0.575,0.124l-0.489,0.054L27.391,34.923z"/>
	<polygon class="st3" points="26.45,17.964 26.421,17.877 25.885,17.809 25.635,18.127 25.377,17.93 25.482,17.696 25.618,17.492 
		25.533,17.347 25.35,17.248 25.182,17.159 25.205,16.923 25.172,16.739 25.272,16.566 25.565,16.477 25.653,16.432 25.674,16.325 
		25.537,16.287 25.499,16.4 25.289,16.423 25.234,16.294 25.212,16.058 25.262,15.746 25.664,15.332 25.696,14.93 26.775,15.427 
		27.204,15.716 26.853,16.595 26.963,16.847 27.128,16.956 27.225,17.115 27.129,17.433 26.983,17.715 26.849,17.814 26.773,17.87 	
		"/>
	<polygon class="st3" points="24.848,16.195 24.888,16.237 24.928,16.3 24.982,16.351 25.024,16.438 25.05,16.505 24.994,16.529 
		24.908,16.593 24.873,16.64 24.694,16.682 24.615,16.669 24.507,16.721 24.268,16.825 24.139,16.941 24.068,17.067 23.622,17.404 
		23.522,17.381 23.428,17.392 23.387,17.381 23.344,17.224 23.264,17.173 23.226,17.214 23.193,17.226 23.181,17.199 23.198,17.154 
		23.173,17.091 23.111,17.083 23.07,17.137 23.006,17.187 22.93,17.153 22.82,17.125 22.885,17.06 22.862,16.99 22.75,16.884 
		22.723,16.817 22.762,16.721 22.823,16.703 22.908,16.747 23.371,16.422 23.703,16.386 23.928,16.391 24.136,16.281 24.207,15.992 
		24.352,15.939 24.47,16.058 24.528,16.081 24.587,16.114 24.645,16.138 24.702,16.141 24.764,16.154 	"/>
	<polygon class="st3" points="22.107,12.476 22.308,12.473 22.496,12.502 22.591,12.61 22.523,12.839 22.342,12.996 22.117,13.011 
		21.691,12.919 21.597,12.956 21.482,13.017 21.383,13.02 21.342,12.879 21.365,12.835 21.482,12.478 21.608,12.356 21.752,12.317 
		21.916,12.359 	"/>
	<polygon class="st3" points="22.735,13.864 22.863,13.965 22.961,14.076 22.981,14.199 22.873,14.339 22.665,14.351 21.972,13.81 
		22.061,13.728 22.104,13.625 22.162,13.383 22.194,13.32 22.244,13.254 22.301,13.205 22.36,13.191 22.398,13.212 22.423,13.252 
		22.438,13.306 22.47,13.543 22.482,13.588 22.531,13.673 22.596,13.745 	"/>
	<polygon class="st3" points="24.28,15.132 24.202,15.141 24.141,15.113 24.033,14.996 23.956,14.949 23.901,14.969 23.859,15.012 
		23.82,15.036 23.282,15.066 23.082,14.972 22.873,14.691 23.187,14.609 23.262,14.559 23.349,14.423 23.337,14.36 23.28,14.321 
		23.227,14.251 22.863,13.554 22.84,13.449 22.878,13.31 22.868,12.697 22.91,12.558 23.009,12.521 23.25,12.24 23.437,12.192 
		23.6,12.309 23.754,12.492 23.909,12.634 24.237,12.8 24.368,12.932 24.42,13.14 24.409,13.244 24.355,13.419 24.344,13.497 
		24.367,13.584 24.462,13.759 24.484,13.854 24.517,14.319 24.484,14.427 24.54,14.496 24.598,14.635 24.63,14.691 24.498,14.771 
		24.383,15.043 	"/>
	<polygon class="st3" points="24.038,19.225 24.143,19.296 24.183,19.451 24.138,19.504 24.028,19.542 23.986,19.627 23.978,19.705 
		23.889,19.81 23.773,19.838 23.694,19.78 23.61,19.788 23.543,19.746 23.52,19.584 23.539,19.418 23.623,19.301 23.804,19.205 	"/>
	<polygon class="st3" points="25.366,19.531 25.39,19.59 25.415,19.7 25.361,19.818 24.84,20.235 24.603,20.264 24.605,20.2 
		24.716,20.048 24.731,19.961 24.685,19.887 24.818,19.735 24.822,19.581 24.767,19.391 24.692,19.26 24.617,19.174 24.64,19.148 
		24.808,19.23 24.952,19.103 24.984,19.114 24.954,19.225 24.997,19.326 25.117,19.395 25.311,19.477 	"/>
	<path class="st4" d="M23.555,43.443l-0.141-0.161l-0.05-0.134l0.075-0.297l0.176-0.367l0.277-0.648l0.234-0.337l0.334-0.12
		l0.38-0.078l0.325-0.018l0.15-0.12l0.144-0.208l0.204-0.052l0.182,0.205l0.187,0.232l0.137,0.046l-0.133-0.469l-0.095-0.213
		l-0.155-0.089l-1.451,0.237l-0.505-0.315L23.86,40.2l0.008-0.135l0.239-0.119l0.209-0.207l0.193-0.222l0.307-0.179l0.376-0.208
		l0.286-0.4l0.044-0.376l0.157-0.094l0.116-0.074l0.062-0.054l0.367-0.037l0.359,0.044l0.228,0.176l0.163,0.041l0.109,0.189
		l0.042-0.103l0.035-0.143l0.015-0.148l-0.137-0.109l-0.094-0.069l-0.196-0.097l-0.222-0.152l-0.18-0.135l-0.095-0.048l0.027-0.109
		l0.085-0.117l0.085-0.07l0.093-0.022l0.571,0.037l0.125-0.01l0.092-0.048l0.062-0.113l0.023-0.093l0.049-0.064l0.141-0.024
		l0.045-0.041l-0.053-0.092l-0.109-0.095l-0.121-0.045l-0.032,0.026l-0.751,0.304l-0.252,0.012l-0.495-0.032l-0.489-0.039
		l-0.005-0.217l-0.031-0.299l-0.094-0.082l-0.305-0.105l-0.45,0.071l-0.044-0.381l0.927-0.1l0.504-0.063l0.51-0.03l0.165-0.099
		l0.176,0.051l0.215-0.11l0.377-0.286l0.478-0.191l0.202-0.145l0.018-0.183l-0.599,0.185l0.46-0.568l0.489-0.054l0.575-0.124
		l1.059-0.334l0.377,0.076l-0.091,0.558l0.218,0.339l0.302-0.057l0.286-0.111l0.563-0.11l0.148-0.052l0.145-0.065l0.215-0.044
		l0.137-0.214l0.171-0.176l0.327,0.29l0.46,0.829l0.339,0.171l0.131,0.033l0.061,0.126l-0.072,0.144l0.042,0.102l0.592,0.078
		l0.221-0.054l0.301-0.014l0.303-0.084l0.248-0.218l0.242-0.243l0.088,0.105l0.097,0.089l0.082-0.02l0.067-0.089l0.173,0.102
		l0.153,0.182l0.458,0.151l0.095,0.119l0.164,0.047l0.329-0.201l0.377-0.17l0.149,0.142l0.15,0.081l0.131-0.12l0.131-0.138
		l0.418,0.715l-0.048,0.804l-0.374,0.402l-0.099,0.265l-0.508,0.27l-0.251,0.077l-0.139-0.015l-0.1,0.065l-0.192,0.416l-0.221,0.231
		l-0.234,0.207l-0.114,0.33l-0.03,0.387l-0.129,0.282l-0.159,0.297l-0.119,0.379l-0.088,0.392l-0.143,0.292l-0.011,0.316
		l0.262,0.111l0.038,0.139l0.019,0.159l0.113,0.296l-0.018,0.321l0.105,0.237l0.147,0.098l-0.061,0.344l-0.427,0.511l-0.068,0.335
		l-0.015,0.309l-0.215,0.219l-0.583-0.471l-0.654-0.237l-0.371,0.207l-0.298,0.321l-0.32,0.045l-0.339,0.003l-0.371,0.05
		l-0.376-0.007l-0.174-0.102l-0.155-0.12l-0.18,0.046l-0.212-0.003l-0.309,0.051l-0.294,0.176l-0.38-0.057l-0.246-0.262l0.014-0.414
		l-0.208-0.235l-0.062-0.233l0.091-0.362l-0.206-0.314l-0.301,0.017l-0.074,0.129l-0.1,0.097l-0.066,0.166l-0.024,0.179
		l-0.316,0.004l-0.48-0.651l-0.313-0.256l-0.179-0.076l-0.186-0.013l-0.17,0.202l-0.347-0.034l-0.257,0.231l-0.001,0.17l0.01,0.17
		l-0.094,0.143l-0.129,0.095l0.007,0.134l0.02,0.128l-0.086,0.177l-0.135,0.118l-0.167,0.081l-0.175,0.051l-0.148,0.09l-0.137,0.102
		L25.8,44.204l-0.324,0.118l-0.304,0.076l-0.255-0.086l0.015-0.34l0.066-0.337l0.059-0.459l-0.295-0.079l-0.993,0.278l-0.211,0.068
		L23.555,43.443z M21.727,40.932l-0.045-0.047l-0.032-0.083l0.02-0.08l0.107-0.056l-0.015-0.02l-0.051-0.033l0.025-0.03l0.057-0.032
		l0.038-0.054l0.062-0.01l0.037-0.017l-0.017-0.069l0.044,0.002l0.116,0.021l0.077-0.063l0.037-0.041l0.044,0.034l0.022,0.075
		l-0.038,0.094l-0.188,0.163l-0.126,0.141l-0.08,0.062l-0.033,0.031L21.727,40.932z"/>
	<polygon class="st5" points="37.543,48.613 37.476,48.595 37.062,48.599 36.924,48.575 36.869,48.512 36.844,48.417 36.784,48.296 
		36.667,48.203 36.639,48.299 36.657,48.448 36.679,48.513 36.605,48.743 36.564,48.822 36.469,48.932 36.083,49.241 35.868,49.337 
		35.714,49.204 35.521,48.811 35.361,48.747 35.25,48.906 35.195,49.156 35.206,49.364 35.301,49.585 35.459,49.87 35.641,50.118 
		35.803,50.223 35.918,50.372 36.025,50.423 36.152,50.343 36.469,50.045 36.689,50.016 36.876,50.052 37.051,50.063 37.243,49.961 
		37.232,50.206 37.198,50.381 37.097,50.733 36.979,51.354 36.895,51.498 36.535,51.618 36.251,51.476 36.023,51.427 35.835,51.838 
		35.775,51.798 35.76,51.802 35.746,51.825 35.696,51.838 35.775,52.002 35.835,52.177 35.91,52.732 35.864,52.835 35.758,52.776 
		35.591,52.601 35.346,52.57 35.164,52.47 35.047,52.286 34.997,52.008 35.059,51.745 35.192,51.486 35.289,51.241 35.241,51.031 
		35.159,50.914 34.997,50.563 34.954,50.535 34.897,50.534 34.837,50.525 34.787,50.471 34.782,50.407 34.799,50.332 34.829,50.284 
		34.675,49.958 34.648,49.836 34.657,49.763 34.702,49.641 34.712,49.577 34.69,49.507 34.642,49.453 34.595,49.437 34.572,49.489 
		34.537,49.516 34.363,49.961 34.295,50.055 34.26,50.079 34.208,50.085 33.859,50.208 33.656,50.234 33.214,50.223 33.048,50.272 
		33.183,50.383 33.447,50.499 33.664,50.563 33.664,50.641 33.229,50.78 33.01,50.903 32.972,51.073 33.06,51.144 33.252,51.067 
		33.354,51.111 33.427,51.229 33.405,51.273 33.35,51.287 33.322,51.321 33.464,51.816 33.759,52.081 34.079,52.286 34.298,52.601 
		34.193,52.584 34.013,52.583 33.937,52.601 34.376,52.77 34.433,52.907 34.462,53.166 34.368,53.26 34.263,53.35 34.063,53.34 
		33.937,53.372 33.471,53.082 33.322,53.033 33.189,53.059 33.025,53.134 32.885,53.234 32.826,53.329 32.85,53.369 32.972,53.626 
		33.116,53.658 33.202,53.715 33.591,53.614 33.803,53.795 33.319,54.24 33.146,54.485 32.959,54.399 32.664,54.623 32.695,54.839 
		32.826,54.982 32.543,54.983 32.125,54.431 31.981,54.134 31.598,53.719 31.48,53.746 31.075,53.958 31.116,54.085 31.145,54.134 
		30.979,54.077 30.818,54.046 30.681,53.973 30.586,53.795 30.573,53.613 30.638,53.507 30.865,53.372 30.939,53.307 31.145,53.033 
		31.272,52.765 31.346,52.673 31.494,52.601 31.485,52.808 31.435,53.009 31.285,53.372 31.584,53.352 31.835,53.261 31.985,53.053 
		31.981,52.686 31.921,52.543 31.842,52.461 31.782,52.365 31.772,52.177 31.827,52.078 32.122,51.752 32.228,51.808 32.298,51.884 
		32.316,51.981 32.262,52.099 32.323,52.262 32.411,52.375 32.528,52.413 32.686,52.354 32.753,52.268 32.892,51.967 32.972,51.838 
		32.83,51.626 32.775,51.404 32.703,51.304 32.509,51.455 32.286,51.55 32.101,51.396 31.849,50.988 31.704,51.216 31.498,51.747 
		31.355,51.922 31.207,51.982 31.083,51.975 30.826,51.922 30.706,51.964 30.593,52.068 30.409,52.312 30.326,52.382 29.952,52.601 
		29.75,52.755 29.62,52.831 29.495,52.863 29.418,52.903 29.4,53.006 29.405,53.143 29.386,53.288 29.319,53.39 29.224,53.501 
		29.176,53.633 29.253,53.795 28.689,54.35 28.707,54.863 28.611,54.948 28.339,54.812 28.249,54.921 28.207,55.042 28.212,55.175 
		28.269,55.32 28.137,55.278 27.851,55.074 27.458,54.959 27.368,54.904 27.288,54.667 27.331,54.038 27.292,53.795 27.348,53.64 
		27.336,53.449 27.268,53.282 27.152,53.194 27.041,53.226 26.93,53.331 26.844,53.466 26.81,53.584 26.852,53.756 26.916,53.905 
		26.92,54.01 26.604,54.115 26.645,54.267 26.874,54.558 26.482,54.785 26.335,54.921 26.487,54.982 26.522,55.009 26.532,55.07 
		26.52,55.13 26.487,55.158 26.425,55.145 26.33,55.088 26.28,55.074 26.145,55.094 26.118,55.151 26.116,55.243 26.064,55.366 
		25.984,55.42 25.681,55.497 25.567,55.593 25.526,55.673 25.277,56.509 25.257,56.629 25.257,56.772 25.007,56.719 24.536,56.874 
		24.418,56.85 24.404,56.704 24.5,56.406 24.481,56.266 24.388,56.185 24.259,56.16 23.992,56.173 23.992,56.096 24.046,56.025 
		24.063,55.975 24.083,55.78 24.118,55.774 24.164,55.789 24.208,55.759 24.353,55.495 24.38,55.369 24.341,55.242 24.29,55.202 
		24.216,55.176 24.063,55.158 23.953,55.127 23.939,55.06 23.968,54.999 23.992,54.982 23.996,54.823 24.034,54.67 24.016,54.588 
		23.852,54.643 23.897,54.343 24.101,54.193 24.373,54.14 24.627,54.134 24.581,54.038 24.518,53.965 24.438,53.913 24.341,53.88 
		24.503,53.767 24.603,53.634 24.606,53.518 24.481,53.449 24.435,53.467 24.343,53.582 24.278,53.626 24.193,53.625 24.061,53.544 
		23.992,53.542 23.929,53.598 23.887,53.683 23.852,53.795 23.761,53.815 23.674,53.812 23.574,53.795 23.355,53.799 23.235,53.82 
		23.085,53.88 23.066,53.683 22.978,53.569 22.735,53.449 22.739,53.41 22.688,53.31 22.626,53.25 22.596,53.329 22.566,53.377 
		22.493,53.419 22.411,53.435 22.346,53.41 22.134,53.207 22.107,53.194 22.072,53.07 22.09,53.034 22.131,53.017 22.171,52.948 
		22.212,53.006 22.314,53.008 22.388,52.948 22.346,52.821 22.072,52.686 21.86,52.531 21.843,52.173 21.932,51.775 22.039,51.498 
		22.05,51.404 22.041,51.288 22.056,51.191 22.14,51.151 22.216,51.158 22.296,51.181 22.356,51.222 22.423,51.37 22.735,51.838 
		22.638,51.966 22.608,52.091 22.626,52.218 22.659,52.354 22.87,52.948 22.997,53.025 23.504,53.11 23.721,53.26 23.839,53.249 
		23.922,53.033 23.807,53.05 23.746,53.02 23.536,52.974 23.437,52.819 23.307,52.689 23.343,52.403 23.208,52.428 23.142,52.604 
		23.036,52.613 22.972,52.381 22.941,52.071 23.018,51.894 22.959,51.677 23.239,51.649 23.668,51.743 23.723,51.842 23.696,52.004 
		23.699,52.054 23.695,52.102 23.719,52.177 23.825,52.246 23.887,52.33 24.021,52.417 24.204,52.489 24.315,52.597 24.457,52.7 
		24.566,52.771 24.61,52.716 24.396,52.433 24.523,52.405 24.712,52.514 24.956,52.647 25.251,52.741 25.465,52.686 25.249,52.65 
		25.074,52.539 24.767,52.269 24.842,52.177 24.621,52.015 24.286,51.586 24.101,51.498 23.846,51.447 23.544,51.466 23.335,51.331 
		23.078,51.4 22.841,51.322 22.81,51.204 22.956,51.021 23.1,50.962 23.404,51.01 23.793,50.836 24.261,51.181 24.418,51.151 
		24.458,51.178 24.483,51.203 24.51,51.225 24.558,51.243 24.513,51.004 24.533,50.785 24.655,50.625 24.905,50.563 25.374,50.703 
		25.613,50.721 25.541,50.563 25.699,50.483 25.784,50.465 25.891,50.471 25.738,50.296 25.506,50.253 24.975,50.301 25.015,50.18 
		25.002,50.098 24.975,50.013 24.975,49.883 25.013,49.801 25.067,49.74 25.112,49.664 25.115,49.535 25.033,49.351 24.892,49.308 
		24.74,49.379 24.627,49.535 24.615,49.638 24.682,49.848 24.697,49.961 24.68,49.977 24.558,50.223 24.443,50.647 24.336,50.792 
		24.133,50.81 24.133,50.781 24.069,50.733 24.111,50.666 24.166,50.537 24.208,50.471 24.069,50.4 23.976,50.441 23.886,50.521 
		23.751,50.563 23.479,50.502 23.393,50.543 23.376,50.671 23.235,50.669 23.015,50.742 22.908,50.687 22.873,50.555 22.946,50.431 
		23.155,50.223 23.23,50.108 23.273,50.018 23.29,49.933 23.295,49.836 23.267,49.65 23.302,49.559 23.434,49.442 23.307,49.341 
		23.195,49.133 23.135,48.889 23.155,48.684 23.297,48.553 23.49,48.42 23.55,48.311 23.295,48.25 23.178,48.271 23.11,48.331 
		23.055,48.393 22.977,48.42 22.878,48.472 22.893,48.594 22.943,48.737 22.946,48.853 22.803,48.984 22.618,48.996 22.439,48.938 
		22.311,48.853 22.408,48.786 22.451,48.768 22.361,48.704 22.284,48.626 22.221,48.533 22.171,48.42 22.289,48.36 22.403,48.366 
		22.659,48.42 22.628,48.152 22.913,47.869 22.838,47.607 22.546,47.203 22.367,47.038 22.171,46.971 22.252,47.252 22.181,47.412 
		22.036,47.417 21.892,47.227 21.987,47.094 21.724,46.744 21.688,46.537 21.835,46.365 22.044,46.338 22.229,46.433 22.311,46.63 
		22.441,46.547 22.513,46.404 22.596,46.118 22.668,46.26 22.681,46.38 22.654,46.611 22.608,46.728 22.596,46.8 22.616,46.875 
		22.656,46.875 22.704,46.857 22.735,46.878 22.776,47.043 22.786,47.113 22.824,47.154 22.946,47.227 23.045,47.262 23.217,47.269 
		23.295,47.313 23.235,47.455 23.252,47.592 23.325,47.72 23.434,47.832 23.692,47.247 23.719,47.049 23.714,46.826 23.664,46.746 
		23.472,46.698 23.39,46.652 23.323,46.584 23.218,46.303 22.883,45.911 22.805,45.73 22.828,45.669 22.875,45.617 22.923,45.55 
		22.946,45.434 22.838,45.358 22.785,45.259 22.805,45.085 22.674,45.137 22.538,45.159 22.247,45.163 22.361,45.022 22.548,44.978 
		22.76,44.967 22.946,44.921 22.885,44.898 22.853,44.869 22.815,44.844 22.735,44.829 22.785,44.716 22.845,44.649 22.911,44.598 
		22.977,44.526 23.012,44.431 22.996,44.349 22.963,44.27 22.946,44.183 22.981,43.988 23.07,43.795 23.295,43.452 23.354,43.514 
		23.504,43.709 23.685,43.764 23.776,43.758 23.751,43.666 23.555,43.443 23.557,43.443 23.768,43.375 24.762,43.097 25.057,43.177 
		24.997,43.635 24.932,43.973 24.917,44.312 25.172,44.398 25.476,44.322 25.8,44.204 26.143,44.153 26.28,44.051 26.428,43.961 
		26.604,43.91 26.771,43.829 26.906,43.712 26.991,43.534 26.971,43.406 26.964,43.272 27.093,43.177 27.187,43.035 27.177,42.865 
		27.178,42.695 27.435,42.464 27.782,42.498 27.952,42.296 28.138,42.309 28.317,42.385 28.629,42.642 29.109,43.293 29.425,43.289 
		29.449,43.11 29.515,42.944 29.615,42.847 29.689,42.718 29.99,42.702 30.196,43.016 30.106,43.378 30.168,43.61 30.376,43.846 
		30.362,44.26 30.609,44.523 30.989,44.579 31.283,44.403 31.591,44.352 31.804,44.355 31.983,44.309 32.139,44.429 32.313,44.531 
		32.689,44.538 33.06,44.488 33.399,44.485 33.72,44.441 34.018,44.12 34.388,43.913 35.043,44.149 35.626,44.62 35.571,44.893 
		35.781,45.141 35.884,45.462 35.927,46.127 36.065,46.375 36.317,46.559 36.545,46.798 36.634,47.063 36.744,47.293 37.381,47.988 
		37.518,48.326 37.517,48.558 	"/>
	<polygon class="st5" points="31.082,54.502 31.401,54.464 31.568,54.477 31.708,54.544 31.819,54.746 31.786,54.976 31.651,55.165 
		31.462,55.242 31.04,55.32 30.877,55.297 30.757,55.238 30.513,55.074 30.513,54.982 30.568,54.913 30.578,54.855 30.538,54.8 
		30.443,54.735 30.584,54.63 30.747,54.564 	"/>
	<polygon class="st5" points="22.974,54.319 22.99,54.49 22.963,54.68 22.908,54.865 22.706,55.297 22.625,55.428 22.523,55.497 
		22.506,55.458 22.331,55.293 22.25,55.242 22.25,55.32 22.209,55.519 21.235,56.05 21.118,56.09 20.688,56.127 20.569,56.096 
		20.546,55.988 20.604,55.898 20.679,55.822 20.708,55.759 20.654,55.682 20.359,55.497 20.359,55.759 20.144,55.505 20.272,55.091 
		20.563,54.756 20.848,54.735 20.941,54.467 21,54.372 21.095,54.266 21.205,54.205 21.303,54.188 21.377,54.133 21.405,53.958 
		21.525,54.105 21.687,54.122 21.832,54.026 21.894,53.837 21.816,53.682 21.553,53.475 21.621,53.372 21.787,53.36 21.956,53.452 
		22.102,53.569 22.211,53.626 22.236,53.661 22.266,53.74 22.315,53.825 22.383,53.88 22.43,53.865 22.661,53.719 22.67,53.826 	"/>
	<polygon class="st5" points="37.309,52.008 37.415,52.035 37.509,52.183 37.582,52.365 37.668,52.676 37.678,52.858 37.647,53.034 
		37.573,53.205 37.47,53.31 37.356,53.319 37.241,53.258 36.879,52.889 36.836,52.745 36.898,52.517 36.943,52.457 37.134,52.312 
		37.168,52.237 37.246,51.922 37.091,51.757 37.109,51.656 37.221,51.605 37.348,51.59 37.458,51.639 37.485,51.756 37.433,51.893 	
		"/>
	<polygon class="st5" points="32.473,60.236 32.533,60.289 32.606,60.31 32.633,60.352 32.62,60.413 32.476,60.342 32.336,60.31 
		32.311,60.271 32.276,60.187 32.253,60.084 32.215,60.057 32.183,60.018 32.158,59.933 32.173,59.884 32.168,59.826 32.176,59.775 
		32.208,59.765 32.246,59.777 32.293,59.762 32.321,59.73 32.336,59.725 32.361,59.778 32.326,59.893 32.343,60.02 	"/>
	<polygon class="st5" points="34.751,54.913 34.797,55.036 34.797,55.109 34.72,55.192 34.533,55.313 34.37,55.363 34.312,55.33 
		34.308,55.224 34.239,55.151 34.135,55.118 34.088,55.054 34.115,55.004 34.004,54.933 33.936,54.882 33.972,54.789 33.966,54.72 
		33.948,54.664 33.998,54.636 34.071,54.667 34.147,54.712 34.29,54.748 34.293,54.78 34.34,54.768 34.433,54.676 34.527,54.671 	
		"/>
	<polygon class="st5" points="37.318,54.213 37.386,54.25 37.43,54.322 37.408,54.399 37.281,54.443 37.197,54.446 37.176,54.425 
		37.143,54.375 37.048,54.322 36.899,54.272 36.799,54.194 36.753,54.089 36.703,54.012 36.619,53.967 36.547,53.879 36.602,53.773 
		36.774,53.691 36.961,53.666 37.094,53.765 37.249,54.067 37.231,54.154 37.236,54.198 	"/>
	<polygon class="st5" points="25.212,58.402 25.301,58.44 25.386,58.546 25.361,58.601 25.319,58.562 25.282,58.556 25.264,58.605 
		25.226,58.59 25.133,58.538 25.037,58.541 24.982,58.595 24.947,58.661 24.833,58.738 24.731,58.83 24.578,58.923 24.382,58.915 
		24.273,58.77 24.266,58.583 24.355,58.399 24.537,58.273 24.692,58.273 24.895,58.402 24.954,58.41 25.039,58.383 25.154,58.385 	
		"/>
	<polygon class="st5" points="25.96,58.592 26,58.615 26.035,58.675 26.003,58.712 25.958,58.719 25.943,58.793 25.943,58.917 
		25.891,59.014 25.791,59.042 25.738,59.011 25.72,58.953 25.671,58.914 25.618,58.903 25.596,58.737 25.661,58.452 25.683,58.293 
		25.616,58.23 25.596,58.173 25.681,58.092 25.686,58.05 25.773,58.051 25.946,58.14 25.97,58.26 25.873,58.344 25.856,58.438 	"/>
	<polygon class="st5" points="28.386,58.043 28.484,58.132 28.546,58.201 28.519,58.356 28.494,58.423 28.429,58.538 28.309,58.603 
		28.157,58.616 28.045,58.557 27.952,58.474 27.885,58.482 27.85,58.544 27.812,58.521 27.77,58.331 27.833,58.203 27.85,58.085 
		27.89,57.992 27.962,57.922 28.108,57.85 28.283,57.895 	"/>
	<polygon class="st5" points="25.347,57.79 25.389,57.85 25.397,57.958 25.326,58.018 25.291,58.159 25.142,58.167 25.059,58.184 
		25.109,58.273 25.058,58.316 24.902,58.274 24.821,58.198 24.801,58.149 24.758,58.133 24.71,58.123 24.7,58.082 24.752,57.934 
		24.782,57.878 24.786,57.841 24.766,57.811 24.775,57.784 24.812,57.765 24.836,57.739 24.83,57.703 24.777,57.617 24.811,57.588 
		24.892,57.614 24.971,57.657 25.184,57.693 25.294,57.75 	"/>
	<polygon class="st5" points="27.818,56.672 27.775,56.717 27.683,56.736 27.633,56.665 27.612,56.569 27.557,56.494 27.478,56.461 
		27.373,56.476 27.251,56.519 27.153,56.518 27.114,56.498 27.075,56.473 26.848,56.372 26.834,56.331 26.939,56.317 27.041,56.287 
		27.086,56.261 27.124,56.242 27.204,56.255 27.298,56.299 27.411,56.251 27.549,56.139 27.653,56.112 27.713,56.158 27.787,56.178 
		27.83,56.175 27.873,56.167 27.987,56.179 28.132,56.214 28.222,56.267 28.202,56.358 28.143,56.427 28.127,56.47 28.117,56.556 
		28.053,56.626 27.965,56.609 27.87,56.627 	"/>
	<polygon class="st5" points="30.249,56.222 30.284,56.252 30.304,56.31 30.241,56.323 30.155,56.279 30.053,56.257 29.98,56.285 
		30.007,56.319 30.069,56.355 29.995,56.429 29.815,56.571 29.71,56.618 29.7,56.509 29.75,56.432 29.815,56.389 29.779,56.339 
		29.555,56.293 29.585,56.243 29.561,56.181 29.493,56.14 29.321,56.124 29.255,56.101 29.225,56.081 29.25,56.058 29.325,56.043 
		29.384,56.003 29.479,55.888 29.581,55.803 29.572,55.771 29.605,55.782 29.677,55.852 29.744,55.952 29.782,56.064 29.862,56.099 
		30.002,56.055 30.104,56.043 30.152,56.085 30.186,56.142 	"/>
	<polygon class="st5" points="26.899,56.664 26.919,56.74 26.976,56.878 26.941,56.911 26.892,56.904 26.842,56.89 26.75,56.85 
		26.672,56.799 26.629,56.808 26.619,56.881 26.57,56.909 26.48,56.868 26.325,56.832 26.133,56.764 26.131,56.684 26.226,56.612 
		26.201,56.52 26.113,56.497 26.006,56.525 25.873,56.488 25.753,56.409 25.682,56.318 25.652,56.184 25.642,56.031 25.65,55.875 
		25.691,55.718 25.772,55.599 25.881,55.546 25.94,55.532 26.12,55.514 26.238,55.553 26.347,55.628 26.469,55.771 26.564,56.01 
		26.592,56.206 26.624,56.297 26.68,56.372 26.712,56.478 	"/>
	<polygon class="st5" points="26.884,55.751 26.834,55.747 26.789,55.701 26.827,55.628 26.874,55.555 26.945,55.399 27.089,55.208 
		27.291,55.096 27.503,55.046 27.63,55.068 27.679,55.142 27.687,55.224 27.634,55.279 27.642,55.308 27.737,55.366 27.815,55.454 
		27.883,55.553 27.892,55.629 27.818,55.642 27.608,55.577 27.521,55.599 27.469,55.675 27.199,55.801 27.105,55.928 27.075,56.062 
		27.02,56.1 26.953,56.023 26.955,55.895 26.933,55.787 	"/>
	<polygon class="st5" points="22.571,49.773 22.765,49.842 22.786,50.106 22.586,50.291 22.476,50.25 22.541,50.176 22.573,50.105 
		22.546,50.055 22.261,49.898 22.219,49.875 21.917,49.925 21.783,49.99 21.631,50.015 21.51,49.973 21.447,49.892 21.502,49.827 
		21.664,49.816 21.873,49.74 21.909,49.693 21.942,49.659 21.952,49.606 22.081,49.567 22.126,49.489 22.131,49.398 22.051,49.288 
		22.017,49.165 22.129,49.107 22.306,49.15 22.488,49.242 22.618,49.373 22.605,49.446 22.516,49.458 22.36,49.562 22.341,49.619 
		22.347,49.693 22.361,49.751 22.427,49.772 	"/>
	<path class="st6" d="M48.588,46.119l0.198,0.454l-0.01,0.239l0.01,0.254l0.141-0.01l-0.141,0.01l-0.01-0.254l0.01-0.239
		l-0.068-0.01l-0.089,0.198l-0.072,0.299l-0.253-0.029l-0.673,0.011l-0.039-0.229l-0.068-0.122l-0.093,0.347l-0.102,0.049
		L47.09,46.98l-0.111-0.209l-0.122-0.014l-0.157,0.122v-0.547l-0.042-0.045l-0.087,0.036l-0.074,0.115l-0.006,0.193l-0.162-0.127
		L46.2,46.32l-0.14-0.113l-0.206,0.082l0.045-0.177l-0.085-0.251l0.04-0.093l-0.102-0.329l-0.06-0.035l-0.117,0.107l-0.127,0.201
		l-0.003,0.134l0.13,0.271l0.072,0.331l0.042,0.116l0.087,0.151l0.171,0.23l0.025,0.116l-0.048,0.166l0.081,0.011l0.126,0.055
		l0.072,0.019l-0.09,0.06l-0.09,0.024l-0.207,0.001l-0.109-0.025l-0.031-0.066l-0.005-0.083l-0.034-0.08l-0.098-0.104l-0.07-0.057
		l-0.552-0.195l-0.155-0.01l-0.339,0.065l-0.092,0.046l0.007,0.088l0.118,0.167l-0.19,0.038l-0.35,0.177l-0.402,0.11l-0.052,0.158
		l-0.02,0.172l-0.109,0.113v0.085l1.02-0.543l0.173-0.012l0.035,0.219l0.062,0.161l0.021,0.143l-0.082,0.166l-0.131,0.073
		l-0.2,0.034l-0.2-0.009l-0.132-0.055l-0.069,0.122l0.047,0.059l0.092,0.054l0.069,0.107l0.01,0.065l0.003,0.093l-0.013,0.26
		l-0.077,0.51l0.094,0.09l0.09-0.03l0.071-0.099l0.032-0.123l0.138,0.162l-0.142,0.256l-0.258,0.337l-0.229,0.069l-0.307-0.021
		l0.005-0.191l0.197-0.003l0.084-0.015l0.051-0.084l-0.635-0.071l-0.132-0.053l-0.146-0.204l-0.021-0.102l0.105-0.066l0.235-0.091
		l-0.232-0.467l-0.167,0.165l-0.168,0.325l-0.237,0.015l-0.216-0.291l-0.113-0.073l-0.232-0.024l-0.102,0.062l-0.057,0.151
		l-0.021,0.191l0.005,0.185l-0.216-0.037l-0.475,0.021l-0.187-0.104l-0.022-0.067l-0.002-0.183l-0.011-0.048l-0.047-0.012
		l-0.114,0.021l-0.147-0.034l-0.24-0.021l-0.085-0.046l-0.047-0.1l0.005-0.098l0.026-0.094l0.017-0.084l-0.017-0.925l0.017-0.149
		l0.03-0.069l0.052-0.091l0.045-0.12l0.012-0.153l-0.16,0.192l-0.131,0.224l-0.162,0.168l-0.245,0.021l0.187,0.442l-0.127,0.086
		l-0.277-0.006l-0.265,0.168l-0.107-0.3l-0.065-0.122l-0.115-0.089l-0.03,0.402l-0.11,0.318l-0.214,0.192l-0.273,0.024l-0.109-0.043
		L37.945,48.7l-0.081,0.009l-0.062,0.059l-0.152-0.126l-0.107-0.029l-0.026-0.055l0.001-0.232l-0.137-0.339l-0.637-0.695l-0.11-0.23
		l-0.089-0.264l-0.228-0.24l-0.251-0.183l-0.138-0.249l-0.043-0.665l-0.103-0.32l-0.21-0.248l0.055-0.273l0.215-0.219l0.015-0.309
		l0.068-0.335l0.427-0.511l0.061-0.344l-0.147-0.098l-0.105-0.237l0.018-0.321l-0.113-0.296l-0.019-0.159l-0.038-0.139l-0.262-0.111
		l0.011-0.316l0.143-0.292l0.088-0.392l0.119-0.379l0.159-0.297l0.129-0.282l0.03-0.387l0.114-0.33l0.234-0.207l0.221-0.231
		l0.192-0.416l0.1-0.065l0.139,0.015l0.251-0.077l0.508-0.27l0.099-0.265l0.374-0.402l0.082,0.28l0.207,0.121l0.095,0.072
		l0.094,0.08l0.008,0.1l0.041,0.102l0.082,0.037l0.083,0.028l0.31,0.024l0.134,0.113l0.166,0.112l0.294,0.023l0.29-0.003
		l0.264,0.089l0.194,0.212l0.136,0.259l0.226,0.16l0.057,0.118l0.035,0.108l0.157,0.098l0.136,0.16l-0.006,0.297l-0.123,0.284
		l0.161,0.581l0.631,0.027l0.309-0.044l0.295,0.049l0.277,0.133l0.262,0.197l0.291,0.058l0.547-0.281l0.28,0.057l0.253-0.36
		l0.236-0.183l0.085,0.695l0.258,0.315l0.32,0.203l0.371-0.042l0.383-0.069l0.334,0.102l0.319,0.168l0.381,0.011l0.333-0.264
		l0.147-0.055l0.148-0.019l0.141-0.122l0.117-0.152l0.37-0.152l0.393,0.098l0.301,0.142l0.286-0.096l0.043,0.5l-0.256,0.516
		l0.153,0.31l0.63,0.097l0.265,0.202l0.442,0.506l0.526,0.29l0.235,0.183l0.069,0.348l0.223,0.221l0.291,0.103l0.041,0.036
		l-0.048,0.167l-0.018,0.231l-0.06,0.12l-0.069,0.103l0.058,0.171l0.003,0.07l-0.116,0.235l-0.163,0.346l-0.182,0.219l-0.098,0.205
		l0,0l-0.019,0.037l-0.02-0.045l0.02,0.045l0.117-0.242l0.182-0.219l0.163-0.346l0.116-0.235l-0.003-0.07l-0.058-0.171l0.069-0.103
		l0.06-0.12l0.018-0.231l0.048-0.167l-0.041-0.036l-0.291-0.103l-0.228,0.299l-0.188-0.025l-0.172,0.295l-0.316,0.025l-0.36,0.236
		l-0.201-0.128l-0.259-0.01l-0.241,0.097l-0.194,0.141l-0.146,0.181l-0.238,0.53l-0.181,0.212l-0.522-0.081L48.588,46.119z
		 M40.249,50.385l0.052,0.141l-0.03,0.125l-0.057,0.132l-0.03,0.163l0.028,0.257l-0.008,0.147l-0.058,0.064l-0.082,0.046
		l0.087,0.253l-0.042,0.126l-0.157,0.029l-0.15-0.09l-0.161-0.071l-0.19,0.088l-0.166,0.022l-0.102-0.241l-0.115-0.503L38.9,50.982
		l-0.134,0.093l-0.091,0.21l-0.034,0.26l-0.062,0.109l-0.145,0.005l-0.153-0.053l-0.093-0.061l-0.063-0.112l-0.015-0.092
		l-0.002-0.109l-0.022-0.158l-0.282-0.919l-0.037-0.222l0.027-0.219l0.117-0.224l0.078-0.057l0.08-0.015l0.062-0.042l0.048-0.275
		l0.06-0.079l0.164-0.128l0.135-0.065l0.155,0.048l0.136,0.121l0.079,0.156l-0.014,0.164l-0.09,0.157l-0.23,0.24l0.042,0.086
		l0.047,0.218l0.057,0.114l0.087,0.061l0.219,0.073l0.123,0.22l0.198-0.035l0.251-0.099l0.237-0.051l0.344,0.058L40.249,50.385z
		 M47.191,49.713l-0.012,0.148l-0.046,0.157l-0.09,0.087l-0.139-0.059l0.057,0.167l0.132,0.282l0.027,0.193l-0.078,0.031
		l-0.179-0.062l-0.192-0.101l-0.116-0.084l-0.032,0.174l-0.032,0.094l-0.177,0.207l-0.057,0.162l0.121,0.093l0.168,0.07l0.085,0.096
		l-0.16,0.141l-0.741,0.23l-0.223,0.015l0.349-0.254l-0.145-0.069l-0.055-0.11l0.008-0.148l0.052-0.182l-0.317,0.163l-0.094-0.065
		l-0.046-0.143l0.006-0.144l0.064-0.065l0.255-0.052l0.072-0.137l0.005-0.194l0.055-0.219l-0.14-0.085l-0.105,0.13l-0.367,0.163
		l-0.162,0.133l-0.116-0.181l-0.146-0.16l-0.119-0.179l-0.032-0.237l0.066-0.143l0.135-0.132l0.156-0.101l0.133-0.057l0.383-0.079
		l0.105,0.002l0.168,0.071l0.134,0.088l0.137,0.067l0.19,0.013v-0.078l-0.19-0.125l-0.108-0.186l-0.048-0.213l-0.011-0.199
		l0.135,0.017l0.716-0.408l-0.122-0.229l0.057-0.228l0.157-0.126l0.181,0.071l0.045,0.104l0.003,0.121l-0.067,0.463l0.005,0.073
		l0.047,0.147l0.062,0.117l0.045,0.121l-0.003,0.164l-0.041,0.149l-0.161,0.423l0.207-0.073l0.099-0.068l0.033,0.024L47.191,49.713z
		 M40.281,50.01l0.042,0.033l0.057,0.086l-0.108,0.027l-0.463-0.122l-0.253,0.082l-0.148-0.018l-0.152-0.093l-0.09-0.177l0.07-0.192
		l0.14-0.181l0.089-0.17l0.093-0.12l0.162-0.044l0.052,0.138L39.7,49.459l-0.036,0.137l0.01,0.115l0.054,0.037l0.06-0.135l0.12-0.19
		l0.098-0.017l0.03,0.087l0.052,0.05l0.051,0.028l0.023,0.15l0.058,0.207L40.281,50.01z M48.154,47.806l-0.045,0.258l-0.067,0.092
		l-0.052,0.018l-0.025-0.054l-0.05-0.218l-0.077-0.081l-0.027-0.064l0.012-0.088l-0.035-0.104l-0.054-0.099l0.028-0.09l0.108-0.061
		l0.117-0.012l0.102,0.03l0.07,0.158L48.154,47.806z M42.549,52.567l0.026,0.028l-0.015,0.066l-0.098,0.121l-0.044,0.029
		l-0.066,0.01L42.256,52.8l-0.08,0.012l-0.109,0.054l-0.053,0.05l-0.061,0.013l-0.01-0.046l0.036-0.079l-0.01-0.064l-0.045-0.045
		l-0.038-0.009l-0.045-0.034l0.004-0.062l0.027-0.057l0.004-0.068l0.041-0.039l0.069-0.017l0.324,0.173l0.001,0.077l0.047,0.005
		L42.549,52.567z M43.482,50.321l0.098-0.04l0.157-0.04l0.179-0.012l0.1,0.098l0.027,0.16l-0.054,0.1l0.037,0.06l-0.044,0.075
		l-0.103-0.042l-0.041,0.025l0.003,0.031l0.084,0.016l0.084,0.07l-0.041,0.075l-0.104,0.131l-0.169,0.002l-0.074-0.095l-0.04-0.097
		l-0.086-0.003l0.02-0.082l-0.028-0.082l-0.132-0.02l-0.047-0.038l0.098-0.078l0.019-0.095l-0.099-0.078L43.14,50.3l-0.117,0.037
		l-0.069-0.004l-0.022-0.082l0.082-0.091l0.12-0.03l0.158,0.064l0.12,0.092L43.482,50.321z M41.99,50.121l0.153,0.171l0.057,0.097
		l-0.041,0.067h-0.11l-0.052,0.027l0.007,0.088l-0.031,0.038l-0.097-0.027l-0.06-0.029l-0.112-0.079l-0.065-0.097l0.012-0.067
		l0.07-0.115l0.137-0.104L41.99,50.121z"/>
	<path class="st7" d="M51.799,46.034l-0.05,0.102l-0.158-0.003l-0.117-0.005l-0.144,0.024l-0.106-0.006l-0.111,0.05l-0.122,0.014
		l-0.01,0.176l0.082,0.122l0.014,0.146l-0.052,0.166l-0.229,0.107l-0.185-0.161l-0.112-0.093l-0.083-0.103l-0.268,0.288
		l-0.122,0.229l-0.039,0.244l-0.083,0.058l-0.049-0.123l-0.122-0.132l0.01,0.118l0.024,0.254l-0.078,0l-0.034-0.084l-0.044-0.02
		l-0.105,0.07l-0.1,0.062l-0.068-0.084l-0.083-0.281l0.034-0.253l0.078-0.322l0.015-0.18l-0.454,0.644l-0.141,0.01l0-0.492
		l-0.198-0.454l0.346-0.356l0.522,0.081l0.181-0.212l0.238-0.53l0.146-0.181l0.194-0.141l0.241-0.097l0.259,0.01l0.201,0.128
		l0.36-0.236l0.316-0.025l0.172-0.295l0.188,0.025l0.228-0.299l0.291,0.103l0.041,0.036l-0.048,0.167l-0.018,0.231l-0.06,0.12
		l-0.069,0.103l0.058,0.171l0.003,0.07l-0.278,0.581l-0.182,0.219L51.799,46.034L51.799,46.034z"/>
	<path class="st8" d="M54.455,40.427l0.016,0.019l0.068,0.121L54.5,40.841l-0.022,0.325l-0.069,0.488l-0.104,0.206l-0.168,0.227
		l-0.155,0.084l-0.067-0.221l-0.06-0.288l-0.132-0.216l-0.142-0.037l-0.085,0.245l0.14,0.032l0.083,0.106l0.04,0.155l0.009,0.178
		l-0.045,0.169l-0.105,0.039l-0.117,0.011l-0.082,0.082l0.015,0.09l0.013,0.233l0.042,0.241l-0.095,0.154l-0.087,0.154l0.085,0.12
		l0.068,0.069l-0.014,0.17l-0.21,0.069l-0.198,0.119l-0.284,0.282l-0.24-0.009l-0.004,0.013l-0.041-0.036l-0.291-0.103l-0.223-0.221
		l-0.069-0.348l-0.235-0.183l-0.526-0.29l-0.442-0.506l-0.265-0.202l-0.63-0.097l-0.153-0.31l0.256-0.516l-0.043-0.5l0.246-0.199
		l0.263-0.154l0.157-0.004l0.064-0.123l-0.098-0.162l-0.056-0.176l0.344-0.268l0.432-0.151l0.354-0.054l0.347,0.073l0.36,0.155
		l0.094,0.155l0.005,0.188l0.025,0.168l0.127,0.091l0.171,0.045l0.951-0.172l0.809,0.198L54.455,40.427z"/>
	<polygon class="st9" points="54.083,27.698 54.085,27.719 54.137,28.22 54.277,28.742 54.333,29.268 54.27,30.353 54.207,30.586 
		53.891,30.968 53.768,31.184 53.714,31.435 53.671,32.967 53.706,33.175 53.768,33.29 53.836,33.337 53.891,33.4 53.95,33.831 
		54.026,34.161 54.108,34.218 54.163,34.289 54.125,34.487 54.043,34.598 53.936,34.65 53.835,34.683 53.665,34.824 53.656,34.997 
		53.871,35.197 54.026,35.37 54.189,35.57 54.397,35.606 54.659,35.4 55.309,34.688 55.434,34.478 55.603,34.613 55.64,34.83 
		55.713,35.056 55.766,35.307 55.606,35.557 55.238,36.291 55.209,36.62 55.1,37.483 54.835,38.233 54.85,38.702 54.579,39.516 
		54.379,39.911 54.291,40.109 54.377,40.333 54.455,40.427 54.446,40.43 53.637,40.231 52.686,40.403 52.514,40.359 52.388,40.267 
		52.362,40.1 52.357,39.912 52.263,39.757 51.903,39.602 51.556,39.529 51.202,39.583 50.77,39.734 50.425,40.001 50.481,40.177 
		50.58,40.34 50.515,40.463 50.358,40.467 50.095,40.621 49.848,40.82 49.562,40.916 49.261,40.774 48.868,40.677 48.498,40.829 
		48.381,40.98 48.24,41.102 48.092,41.121 47.945,41.176 47.612,41.44 47.231,41.429 46.912,41.261 46.578,41.159 46.195,41.227 
		45.824,41.269 45.504,41.066 45.246,40.751 45.162,40.056 44.926,40.239 44.674,40.599 44.394,40.542 43.846,40.823 43.556,40.765 
		43.293,40.568 43.017,40.435 42.722,40.385 42.413,40.429 41.782,40.402 41.622,39.821 41.744,39.537 41.751,39.24 41.614,39.08 
		41.457,38.982 41.422,38.874 41.365,38.756 41.139,38.596 41.002,38.337 40.808,38.125 40.544,38.036 40.254,38.039 39.961,38.016 
		39.795,37.904 39.66,37.791 39.351,37.767 39.267,37.739 39.185,37.702 39.144,37.6 39.135,37.5 39.041,37.42 38.946,37.348 
		38.739,37.227 38.657,36.947 38.704,36.143 38.286,35.428 38.534,35.306 38.791,35.22 38.949,34.91 39.035,34.586 39.114,34.445 
		39.212,34.325 39.235,34.117 39.232,33.944 39.175,33.604 39.423,33.392 39.668,33.437 39.886,33.45 39.769,32.79 39.538,32.619 
		39.016,32.744 38.817,32.65 38.528,32.408 38.28,32.327 37.869,32.424 37.808,31.821 38.034,31.626 38.181,31.333 38.068,31.133 
		38.004,30.914 38.065,30.609 38.106,29.917 38.207,29.626 38.393,29.444 37.893,28.717 37.492,28.648 37.377,28.357 37.528,28.287 
		37.678,28.26 37.826,28.101 38.056,27.792 38.113,27.662 38.107,27.543 38.133,27.391 38.452,27.175 38.809,27.006 39.031,26.674 
		39.421,26.843 40.145,26.959 39.997,26.672 39.801,26.42 39.87,26.158 39.998,25.879 40.121,25.67 40.285,25.778 40.489,25.761 
		40.657,25.534 40.831,25.422 40.996,25.528 41.312,25.639 41.607,25.662 41.679,25.452 41.73,25.253 41.836,25.084 41.969,24.953 
		42.103,25.102 42.273,25.224 42.514,25.432 42.666,25.741 43.03,25.861 43.886,25.501 44.037,25 43.902,24.875 43.83,24.75 
		43.96,24.511 44.067,24.271 44.292,23.949 44.608,23.725 44.698,23.562 44.825,23.456 45.036,23.389 45.206,23.224 45.466,23.007 
		45.702,22.757 45.801,22.693 45.923,22.74 46.061,22.66 46.186,22.518 46.448,22.657 46.7,22.763 47.006,22.829 47.267,22.854 
		47.327,22.58 47.36,22.286 47.292,21.971 47.478,21.744 47.756,21.613 48.035,21.635 48.179,21.888 48.376,21.933 48.554,22.022 
		48.528,22.244 48.552,22.469 48.858,22.348 49.149,22.122 49.273,22.174 49.36,22.29 49.472,22.304 49.607,22.248 50.008,22.316 
		50.385,22.489 50.652,22.421 50.93,22.274 51.28,22.356 51.599,22.549 52.883,22.486 53.837,21.417 54.16,21.867 54.2,22.021 
		54.14,22.169 54.045,22.31 53.985,22.448 53.981,22.572 54.063,23.076 54.145,24.115 54.24,24.643 54.579,25.719 54.607,26.245 
		54.5,26.732 54.27,27.174 	"/>
	<path class="st10" d="M28.761,62.356l0.077,0.159l-0.047,0.054l-0.099,0.029l-0.071,0.085l0.005,0.071l0.065,0.113v0.066L28.656,63
		l-0.087,0.115l-0.017,0.036l-0.184,0.213l-0.347,0.278l-0.108,0.231l-0.154,0.27l-0.007,0.108l-0.068,0.159l-0.252,0.029
		l-0.097,0.051l-0.269-0.024l-0.392,0.31l-1.033,0.19l-0.346,0.294l-0.423,0.094l-0.453-0.045L23.9,65.408l-0.43-0.13l-0.972,0.014
		l-0.303,0.142l-0.18,0.32l-0.165,0.034l-0.165-0.079l-0.233-0.377l-0.31-0.105l-0.301-0.315l-0.105-0.384l0.182-0.498l0.172-0.309
		l0.107-0.109l0.355-0.211l0.303-0.528l0.279-0.072l0.129-0.279l0.478-0.165l1.043-0.299l0.261-0.225l0.997-0.105l0.679-0.296
		l0.163,0.046l0.826-0.133l0.479-0.04l0.317,0.053l0.121,0.182l0.151,0.118l0.493,0.196l0.15,0.152l0.101,0.367l0.099,0.144
		l0.047-0.056l0.065-0.053L28.761,62.356z"/>
	<path class="st11" d="M30.498,15.73l0.28-0.003l0.24-0.087l0.208-0.003l0.078,0.188l-0.027,0.192l-0.143,0.072l-0.155,0.103
		l0.003,0.233l0.082,0.093l-0.175,0.24l-0.097,0.168l-0.265,0.158l-0.292,0.068l-0.3,0.151l-0.117-0.269l-0.256,0.059l-0.254,0.079
		l-0.18,0.103l-0.187,0.031l-0.439-0.015l-0.3-0.395l-0.296-0.089l-0.204-0.134l-0.054-0.37l-0.575-0.26l0.13-0.326l0.153-0.33
		l0.286,0.018l0.328,0.2l0.243-0.083l0.217-0.132l0.017-0.222l0.059-0.205l0.459-0.044l0.236-0.3l0.144-0.305l0.204-0.219
		l0.319-0.076l0.368,0.03l0.175,0.302l0.068,0.411l0.107,0.287l0.006,0.315L30.498,15.73z"/>
	<path class="st12" d="M31.971,24.352l0.459-0.135l0.434-0.209l0.34-0.114l0.092-0.376l0.167-0.181l0.262-0.113l0.124-0.16
		l0.085-0.213l0.158-0.169l0.2,0.042l0.058,0.077l0.257-0.179l0.488-0.909l0.05-0.109l0.059-0.1l0.079-0.064l0.082-0.058
		l0.082-0.124l0.072-0.137l1.08-0.296l1.087-0.149l-0.088,0.619l0.311-0.074l0.313,0.022l0.087,0.054l0.088,0.041l0.079-0.069
		l0.069-0.084l0.207-0.142l-0.056-0.623l0.193-0.237l0.521-0.176l0.389,0.412v0.275l0.127,0.178l0.339-0.082l0.338-0.189
		l0.205-0.158l0.244,0.051l0.202-0.106l0.237-0.183l0.571,0.204l0.583,0.092l0.184,0.055l-0.118,0.27l-0.295,0.21l-0.175,0.272
		l0.112,0.127l0.145,0.08l0.091,0.002l0.093-0.044l0.311-0.104l0.487-0.056l0.101,0.112l-0.018,0.183l0.203,0.211l0.074,0.168
		l0.186-0.014l0.22-0.039l0.246-0.079l0.244-0.002l0.243,0.184l0.269,0.175l0.266,0.053l0.26,0.03l0.207,0.09l0.205,0.133
		l-0.125,0.142l-0.138,0.08l-0.122-0.047l-0.099,0.064l-0.236,0.25l-0.26,0.218l-0.17,0.165l-0.211,0.066l-0.127,0.106l-0.09,0.163
		l-0.316,0.224l-0.225,0.322l-0.107,0.24l-0.13,0.238l0.072,0.125L44.037,25l-0.151,0.501l-0.856,0.36l-0.365-0.12l-0.152-0.308
		l-0.241-0.209l-0.17-0.121l-0.133-0.149l-0.133,0.132l-0.107,0.169l-0.051,0.199l-0.072,0.21l-0.295-0.023l-0.316-0.111
		l-0.165-0.107l-0.174,0.112l-0.168,0.227l-0.204,0.017l-0.164-0.108l-0.124,0.21l-0.128,0.279l-0.069,0.262l0.195,0.252
		l0.149,0.287l-0.725-0.115l-0.39-0.169l-0.222,0.331l-0.357,0.17l-0.318,0.216l-0.026,0.151l0.006,0.119l-0.057,0.13l-0.23,0.31
		l-0.148,0.159l-0.15,0.027l-0.151,0.07l0.115,0.291l0.4,0.068l0.501,0.728l-0.186,0.182l-0.101,0.291l-0.041,0.692l-0.061,0.305
		l0.064,0.219l0.113,0.2l-0.147,0.292l-0.226,0.196l0.061,0.603l0.411-0.097l0.247,0.081l0.29,0.242l0.199,0.094l0.522-0.125
		l0.231,0.171l0.116,0.66l-0.218-0.013l-0.245-0.045l-0.247,0.212l0.057,0.34l0.002,0.173l-0.022,0.208l-0.098,0.119l-0.079,0.141
		l-0.086,0.324l-0.159,0.31l-0.257,0.086l-0.248,0.122l-0.131,0.138l-0.131,0.12l-0.15-0.081l-0.149-0.142l-0.377,0.17l-0.329,0.201
		l-0.164-0.047l-0.095-0.119l-0.458-0.151l-0.153-0.182l-0.173-0.102l-0.067,0.089l-0.082,0.02l-0.097-0.089l-0.088-0.105
		l-0.232-0.362l-0.208-0.371l-0.088-0.434l0.014-0.438l-0.106-0.377l-0.314-0.192l-0.303-0.099l-0.33,0.068l-0.027-0.36l0.018-0.35
		l0.123-0.49l0.231-0.417l0.093-0.212l0.104-0.189l0.168-0.127l0.039-0.22l-0.131-0.044l-0.142-0.064l-0.172,0.126l-0.134,0.181
		l-0.106-0.338l-0.018-0.227l-0.126-0.065l0.018-0.145l-0.143-0.035l-0.119,0.174l-0.33,0.073l-0.309-0.088l0.039-0.223
		l-0.059-0.143l-0.089-0.043l-0.073-0.08l-0.036-0.092l0.023-0.097l0.052-0.321l-0.041-0.146l0.151-1.022l-0.27-0.399L32.8,27.135
		l-0.468-0.597l0.086-0.092l0.097,0.015l0.095-0.027l0.052-0.098l0.014-0.11l0.032-0.139l0.05-0.134l0.025-0.144l-0.022-0.145
		l-0.068-0.128l-0.085-0.078l0.011-0.263l-0.134-0.094l-0.175-0.354l-0.137-0.08l-0.12-0.127L31.971,24.352z"/>
	<path class="st13" d="M29.165,45.094l0.207,0.572l-0.403,0.537l-0.631-0.101l-0.523,0.362l-0.409-0.141l0.095-0.215l-0.321-0.279
		l-0.085-0.635l0.406-0.575h0.314l0.274,0.421l0.268-0.061l0.28-0.084L29.165,45.094z"/>
	<path class="st14" d="M48.126,37.43l-0.077-0.023l-0.096,0.008l0.005,0.083l-0.014,0.107l-0.096,0.252l-0.001,0.081l-0.031,0.118
		l0.081,0.834l-0.702,0.342l-0.528-1.225l-0.146,0.115l0.05,0.322l0.124,0.544l-0.524,1.067h-0.658l-0.463-0.347l0.002-0.476
		l0.687-0.194l-0.592-0.465l0.529-0.128l0.106-0.231l-0.155-0.456l-0.159-0.062l-0.061-0.233l0.142-0.198l0.153-0.001l0.165-0.027
		l0.043-0.119l0.019-0.126l-0.09-0.033l-0.097-0.016l0.11-0.248l0.175-0.193l-0.064-0.576l0.481-0.4l0.651-0.088l0.54-0.035
		l0.41,0.301l0.13,0.227l-0.005,0.1l-0.05,0.084l0.003,0.319l0.082,0.124l0.11,0.094l0.021,0.2l0.005,0.214l-0.055,0.199
		L48.126,37.43z"/>
	<polygon class="st15" points="32.686,29.436 32.487,29.969 32.101,30.605 32.287,30.967 31.697,31.788 32.368,32.624 
		33.055,32.445 33.107,31.788 33.474,31.816 33.5,32.112 33.646,32.062 34.19,31.75 34.421,31.333 34.514,31.121 34.618,30.932 
		34.786,30.805 34.825,30.585 34.694,30.541 34.552,30.477 34.38,30.603 34.246,30.784 34.14,30.446 34.122,30.219 33.996,30.155 
		34.014,30.01 33.872,29.974 33.752,30.148 33.422,30.221 33.114,30.133 33.153,29.911 33.094,29.768 33.005,29.725 32.932,29.645 
		32.896,29.553 32.919,29.456 32.919,29.456 32.9,29.454 	"/>
	<polygon class="st16" points="33.071,27.946 32.801,27.547 32.792,27.122 32.324,26.525 31.639,26.054 31.27,26.288 31.475,26.862 
		31.825,27.311 31.625,27.745 31.644,27.96 31.51,28.382 31.824,28.645 32.139,28.705 32.192,29.134 32.676,29.416 32.909,29.436 
		32.961,29.114 32.92,28.969 	"/>
	<polygon class="st9" points="57.518,21.135 57.698,21.268 57.685,21.598 57.569,21.966 57.446,22.21 57.246,22.309 56.978,22.258 
		56.717,22.104 56.544,21.9 56.489,21.635 56.578,21.437 56.768,21.313 57.142,21.251 57.392,21.16 	"/>
	<polygon class="st9" points="60.149,24.239 60.228,24.297 60.222,24.441 60.171,24.602 60.118,24.709 60.03,24.752 59.913,24.73 
		59.799,24.663 59.723,24.573 59.699,24.457 59.738,24.371 59.821,24.317 59.985,24.289 60.094,24.25 	"/>
	<polygon class="st9" points="60.465,24.495 60.581,24.51 60.655,24.586 60.622,24.728 60.522,24.825 60.461,24.854 60.427,24.782 
		60.37,24.62 60.383,24.508 	"/>
</g>
<g>
	<path class="st17" d="M8.242,30.978h8.115c2.432,0,4.407,0.482,5.926,1.447c1.518,0.965,2.278,2.283,2.278,3.953
		c0,1.913-0.817,3.375-2.451,4.387c-1.634,1.012-3.824,1.519-6.569,1.519h-4.188l-1.299,6.827H4.772L8.242,30.978z M12.958,33.847
		l-1.064,5.594h2.234c1.597,0,2.824-0.259,3.682-0.779c0.858-0.519,1.287-1.228,1.287-2.129c0-0.83-0.42-1.486-1.258-1.967
		c-0.839-0.48-2.037-0.72-3.596-0.72H12.958z"/>
	<path class="st17" d="M45.084,30.978l-0.588,3.05H34.261l-0.824,4.257h8.995l-0.587,3.05h-8.998l-0.918,4.751h12.906l-0.587,3.025
		H26.06l3.506-18.133H45.084z"/>
	<path class="st17" d="M66.515,30.978l-0.588,3.05H55.691l-0.824,4.257h8.995l-0.587,3.05h-8.998l-0.918,4.751h12.906l-0.587,3.025
		H47.491l3.506-18.133H66.515z"/>
</g>
<g>
	<path class="st18" d="M19.177,21.706c0,1.213-0.351,2.333-1.051,3.359c-0.701,1.027-1.599,1.813-2.696,2.36
		c-0.664,0.326-1.357,0.543-2.079,0.651c-0.722,0.108-1.586,0.162-2.592,0.162h-4.26l2.715-10.712h3.811
		c1.123,0,2.027,0.079,2.712,0.238c0.685,0.158,1.239,0.372,1.661,0.64c0.579,0.364,1.021,0.819,1.324,1.363
		S19.177,20.957,19.177,21.706z M15.999,21.957c0-0.489-0.1-0.91-0.3-1.262c-0.2-0.352-0.505-0.637-0.916-0.853
		c-0.189-0.096-0.383-0.169-0.58-0.219c-0.198-0.051-0.422-0.088-0.675-0.112c-0.242-0.019-0.519-0.029-0.829-0.029
		s-0.581,0-0.813,0h-0.103l-1.737,6.792h0.276c0.305,0,0.632,0,0.979,0s0.629-0.012,0.845-0.036c0.279-0.024,0.53-0.063,0.754-0.115
		c0.224-0.053,0.47-0.141,0.738-0.266c0.758-0.355,1.341-0.885,1.749-1.59C15.795,23.562,15.999,22.792,15.999,21.957z"/>
	<path class="st18" d="M24.259,28.432c-1.006,0-1.903-0.079-2.691-0.238c-0.788-0.158-1.469-0.355-2.043-0.59l0.608-2.568h0.332
		c0.543,0.451,1.18,0.8,1.913,1.047c0.732,0.247,1.52,0.37,2.363,0.37c0.864,0,1.499-0.106,1.905-0.32
		c0.405-0.213,0.608-0.519,0.608-0.917c0-0.148-0.033-0.277-0.099-0.385c-0.066-0.108-0.193-0.215-0.383-0.32
		c-0.19-0.105-0.449-0.21-0.778-0.313c-0.329-0.103-0.755-0.222-1.276-0.356c-0.574-0.144-1.09-0.3-1.545-0.467
		c-0.456-0.168-0.844-0.367-1.166-0.597c-0.322-0.235-0.565-0.506-0.731-0.813c-0.166-0.307-0.249-0.674-0.249-1.101
		c0-1.075,0.521-1.932,1.561-2.572c1.041-0.64,2.465-0.961,4.272-0.961c0.869,0,1.69,0.065,2.462,0.194s1.427,0.305,1.964,0.525
		l-0.577,2.468h-0.324c-0.411-0.343-0.953-0.631-1.624-0.862c-0.672-0.231-1.406-0.347-2.201-0.347c-0.78,0-1.383,0.103-1.81,0.308
		c-0.427,0.205-0.64,0.489-0.64,0.851c0,0.168,0.032,0.307,0.095,0.417c0.064,0.111,0.193,0.218,0.387,0.324
		c0.169,0.096,0.435,0.2,0.798,0.313c0.364,0.113,0.79,0.229,1.281,0.349c1.317,0.321,2.258,0.698,2.822,1.129
		c0.564,0.432,0.846,1.017,0.846,1.756c0,0.619-0.153,1.163-0.458,1.633c-0.306,0.47-0.727,0.851-1.265,1.144
		c-0.564,0.312-1.204,0.54-1.92,0.683C25.977,28.36,25.165,28.432,24.259,28.432z"/>
	<path class="st18" d="M41.739,28.238h-9.465l0.572-2.254h2.98l1.729-6.821h-2.986l0.535-2.106c0.439,0,0.883-0.026,1.333-0.078
		s0.823-0.136,1.123-0.251c0.331-0.133,0.618-0.314,0.86-0.542c0.242-0.228,0.42-0.525,0.535-0.888h3.157l-2.718,10.687h2.918
		L41.739,28.238z"/>
</g>
<g>
	<path class="st19" d="M13.209,53.412V52.72h1.779v0.885h-0.175L13.209,53.412z M14.988,60.299v0.885h-1.779v-0.692l1.604-0.193
		H14.988z M14.06,56.714c0-1.326,0-2.667-0.033-3.993h1.923c-0.033,1.302-0.033,2.641-0.033,3.993v0.425
		c0,1.379,0,2.719,0.033,4.046h-1.923c0.033-1.301,0.033-2.641,0.033-4.036V56.714z M14.988,60.442h1.314
		c1.265,0,2.048-1.263,2.048-3.496c0-2.268-0.783-3.485-2.029-3.485h-1.334V52.72h1.506c2.356,0,3.775,1.604,3.775,4.208
		c0,2.689-1.556,4.256-3.972,4.256h-1.309V60.442z"/>
	<path class="st19" d="M24.682,59.431c0-0.679-0.287-0.987-0.954-1.333l-0.468-0.249c-1.303-0.692-2.053-1.458-2.053-2.883
		c0-1.547,1.072-2.485,2.748-2.485c0.788,0,1.55,0.242,2.089,0.655l-0.09,1.805H24.94l-0.269-1.945l0.891,0.369v0.645
		c-0.59-0.498-1.006-0.764-1.577-0.764c-0.631,0-1.14,0.465-1.14,1.172c0,0.681,0.35,1.037,1.005,1.379l0.519,0.277
		c1.411,0.741,1.991,1.45,1.991,2.754c0,1.52-0.999,2.596-2.888,2.596c-0.829,0-1.764-0.216-2.4-0.673l0.066-1.915h1.03l0.287,2.086
		l-0.854-0.314v-0.619c0.702,0.44,1.157,0.671,1.869,0.671C24.257,60.659,24.682,60.129,24.682,59.431z"/>
	<path class="st19" d="M34.351,56.952c0,2.97-1.682,4.471-3.507,4.471c-1.825,0-3.51-1.469-3.51-4.471
		c0-2.97,1.696-4.471,3.51-4.471C32.658,52.481,34.351,53.95,34.351,56.952z M28.105,61.627l-0.616-0.602l6.063-8.748l0.616,0.602
		L28.105,61.627z M30.844,60.677c1.112,0,1.549-1.588,1.549-3.725c0-2.127-0.437-3.734-1.549-3.734
		c-1.112,0-1.552,1.607-1.552,3.734C29.292,59.089,29.731,60.677,30.844,60.677z"/>
	<path class="st19" d="M34.99,53.412V52.72h3.486v0.692l-1.557,0.193h-0.325L34.99,53.412z M36.919,60.299l1.437,0.193v0.692H34.99
		v-0.692l1.604-0.193H36.919z M35.841,56.714c0-1.326,0-2.667-0.033-3.993h1.842c-0.033,1.302-0.033,2.641-0.033,3.993v0.561
		c0,1.243,0,2.583,0.033,3.909h-1.842c0.033-1.301,0.033-2.641,0.033-3.993V56.714z M36.771,58.345l3.901-5.624h0.823l-4.724,6.527
		V58.345z M39.255,55.274l2.691,5.91h-2.02l-1.82-4.275L39.255,55.274z M39.074,60.492l1.486-0.193h0.254l1.454,0.193v0.692h-3.194
		V60.492z M39.363,53.412V52.72h2.559v0.692l-1.28,0.193l-0.325,0.018L39.363,53.412z"/>
	<path class="st19" d="M42.745,53.412V52.72h1.779v0.885h-0.175L42.745,53.412z M44.523,60.299v0.885h-1.779v-0.692l1.604-0.193
		H44.523z M43.595,56.714c0-1.326,0-2.667-0.033-3.993h1.923c-0.033,1.302-0.033,2.641-0.033,3.993v0.425
		c0,1.379,0,2.719,0.033,4.046h-1.923c0.033-1.301,0.033-2.641,0.033-4.036V56.714z M44.523,60.442h1.314
		c1.265,0,2.048-1.263,2.048-3.496c0-2.268-0.783-3.485-2.029-3.485h-1.334V52.72h1.506c2.356,0,3.775,1.604,3.775,4.208
		c0,2.689-1.556,4.256-3.972,4.256h-1.309V60.442z"/>
	<path class="st19" d="M50.374,60.492l1.177-0.193h0.316l1.423,0.193v0.692h-2.916V60.492z M50.951,53.175l0.638,0.365l-1.199-0.119
		V52.72h2.496l3.966,6.342v2.146h-0.936L50.951,53.175z M51.314,52.72l0.712,0.701v7.762h-0.712V52.72z M54.874,52.72h2.917v0.692
		l-1.122,0.193h-0.309l-1.486-0.193V52.72z M56.139,52.72h0.712v8.488l-0.712-0.83V52.72z"/>
</g>
<g>
	<path d="M13.209,53.412V52.72h1.779v0.885h-0.175L13.209,53.412z M14.988,60.299v0.885h-1.779v-0.692l1.604-0.193H14.988z
		 M14.06,56.713c0-1.326,0-2.667-0.033-3.993h1.923c-0.033,1.302-0.033,2.641-0.033,3.993v0.425c0,1.379,0,2.719,0.033,4.046h-1.923
		c0.033-1.301,0.033-2.641,0.033-4.036V56.713z M14.988,60.442h1.314c1.265,0,2.048-1.263,2.048-3.496
		c0-2.268-0.783-3.485-2.029-3.485h-1.334V52.72h1.506c2.356,0,3.775,1.604,3.775,4.208c0,2.689-1.556,4.256-3.972,4.256h-1.309
		V60.442z"/>
	<path d="M24.682,59.431c0-0.679-0.287-0.987-0.954-1.333l-0.468-0.249c-1.303-0.692-2.053-1.458-2.053-2.883
		c0-1.547,1.072-2.485,2.748-2.485c0.788,0,1.55,0.242,2.089,0.655l-0.09,1.805H24.94l-0.269-1.945l0.891,0.369v0.645
		c-0.59-0.498-1.006-0.764-1.577-0.764c-0.631,0-1.14,0.465-1.14,1.172c0,0.681,0.35,1.037,1.005,1.379l0.519,0.277
		c1.411,0.741,1.991,1.45,1.991,2.754c0,1.52-0.999,2.596-2.888,2.596c-0.829,0-1.764-0.216-2.4-0.673l0.066-1.915h1.03l0.287,2.086
		l-0.854-0.314v-0.619c0.702,0.44,1.157,0.671,1.869,0.671C24.257,60.659,24.682,60.129,24.682,59.431z"/>
	<path d="M34.351,56.952c0,2.97-1.682,4.471-3.507,4.471c-1.825,0-3.51-1.469-3.51-4.471c0-2.97,1.696-4.471,3.51-4.471
		C32.658,52.481,34.351,53.95,34.351,56.952z M28.105,61.627l-0.616-0.601l6.063-8.748l0.616,0.601L28.105,61.627z M30.844,60.677
		c1.112,0,1.549-1.588,1.549-3.725c0-2.127-0.437-3.734-1.549-3.734c-1.112,0-1.552,1.607-1.552,3.734
		C29.292,59.089,29.731,60.677,30.844,60.677z"/>
	<path d="M34.99,53.412V52.72h3.486v0.692l-1.557,0.193h-0.325L34.99,53.412z M36.919,60.299l1.437,0.193v0.692H34.99v-0.692
		l1.604-0.193H36.919z M35.841,56.713c0-1.326,0-2.667-0.033-3.993h1.842c-0.033,1.302-0.033,2.641-0.033,3.993v0.561
		c0,1.243,0,2.583,0.033,3.909h-1.842c0.033-1.301,0.033-2.641,0.033-3.993V56.713z M36.771,58.345l3.901-5.624h0.823l-4.724,6.527
		V58.345z M39.255,55.274l2.691,5.91h-2.02l-1.82-4.275L39.255,55.274z M39.074,60.492l1.486-0.193h0.254l1.454,0.193v0.692h-3.194
		V60.492z M39.363,53.412V52.72h2.559v0.692l-1.28,0.193l-0.325,0.017L39.363,53.412z"/>
	<path d="M42.745,53.412V52.72h1.779v0.885h-0.175L42.745,53.412z M44.523,60.299v0.885h-1.779v-0.692l1.604-0.193H44.523z
		 M43.595,56.713c0-1.326,0-2.667-0.033-3.993h1.923c-0.033,1.302-0.033,2.641-0.033,3.993v0.425c0,1.379,0,2.719,0.033,4.046
		h-1.923c0.033-1.301,0.033-2.641,0.033-4.036V56.713z M44.523,60.442h1.314c1.265,0,2.048-1.263,2.048-3.496
		c0-2.268-0.783-3.485-2.029-3.485h-1.334V52.72h1.506c2.356,0,3.775,1.604,3.775,4.208c0,2.689-1.556,4.256-3.972,4.256h-1.309
		V60.442z"/>
	<path d="M50.374,60.492l1.177-0.193h0.316l1.423,0.193v0.692h-2.916V60.492z M50.951,53.175l0.638,0.365l-1.199-0.119V52.72h2.496
		l3.966,6.342v2.146h-0.936L50.951,53.175z M51.314,52.72l0.712,0.701v7.762h-0.712V52.72z M54.874,52.72h2.917v0.692l-1.122,0.193
		h-0.309l-1.486-0.193V52.72z M56.139,52.72h0.712v8.488l-0.712-0.83V52.72z"/>
</g>
</svg>
