<?xml version="1.0" encoding="utf-8"?>
<!-- Generator: Adobe Illustrator 25.0.0, SVG Export Plug-In . SVG Version: 6.00 Build 0)  -->
<svg version="1.1" id="레이어_1" xmlns="http://www.w3.org/2000/svg" xmlns:xlink="http://www.w3.org/1999/xlink" x="0px"
	 y="0px" viewBox="0 0 113.4 113.4" style="enable-background:new 0 0 113.4 113.4;" xml:space="preserve">
<style type="text/css">
	.st0{fill:#FFFFFF;stroke:#FFFFFF;stroke-width:0.75;stroke-miterlimit:10;}
	.st1{fill:#FFFFFF;stroke:#DCDDDD;stroke-width:0.25;stroke-miterlimit:10;}
	.st2{fill:#88BB3A;}
	.st3{fill:#C7D338;}
	.st4{fill:#5EB994;}
	.st5{fill:#AEC382;}
	.st6{fill:#E8BE37;}
	.st7{fill:#EB9D64;}
	.st8{fill:#E79196;}
	.st9{fill:#D06C7E;}
	.st10{fill:#4774B9;}
	.st11{fill:#4495B3;}
	.st12{fill:#BE8DB8;}
	.st13{fill:#B4BD31;}
	.st14{fill:#89C394;}
	.st15{fill:#D18B51;}
	.st16{fill:#126A7A;}
	.st17{fill:#449B77;}
	.st18{fill:#31825F;}
	.st19{stroke:#FFFFFF;stroke-miterlimit:10;}
	.st20{fill:#FFFFFF;stroke:#000000;stroke-miterlimit:10;}
</style>
<g>
	<g>
		<path class="st0" d="M33.6,75.9v-0.7h1.9v0.9h-0.2L33.6,75.9z M35.5,83.2v0.9h-1.9v-0.7l1.7-0.2H35.5z M34.5,79.4
			c0-1.4,0-2.8,0-4.2h2c0,1.4,0,2.8,0,4.2v0.5c0,1.5,0,2.9,0,4.3h-2c0-1.4,0-2.8,0-4.3V79.4z M35.5,83.4h1.4c1.3,0,2.2-1.3,2.2-3.7
			c0-2.4-0.8-3.7-2.2-3.7h-1.4v-0.8h1.6c2.5,0,4,1.7,4,4.5c0,2.9-1.6,4.5-4.2,4.5h-1.4V83.4z"/>
		<path class="st0" d="M45.8,82.3c0-0.7-0.3-1-1-1.4l-0.5-0.3c-1.4-0.7-2.2-1.5-2.2-3.1c0-1.6,1.1-2.6,2.9-2.6
			c0.8,0,1.6,0.3,2.2,0.7l-0.1,1.9H46l-0.3-2.1l0.9,0.4v0.7c-0.6-0.5-1.1-0.8-1.7-0.8c-0.7,0-1.2,0.5-1.2,1.2c0,0.7,0.4,1.1,1.1,1.5
			l0.6,0.3c1.5,0.8,2.1,1.5,2.1,2.9c0,1.6-1.1,2.8-3.1,2.8c-0.9,0-1.9-0.2-2.5-0.7l0.1-2h1.1l0.3,2.2l-0.9-0.3v-0.7
			c0.7,0.5,1.2,0.7,2,0.7C45.3,83.6,45.8,83,45.8,82.3z"/>
		<path class="st0" d="M56,79.7c0,3.1-1.8,4.7-3.7,4.7c-1.9,0-3.7-1.6-3.7-4.7c0-3.1,1.8-4.7,3.7-4.7C54.2,74.9,56,76.5,56,79.7z
			 M49.4,84.6L48.7,84l6.4-9.3l0.7,0.6L49.4,84.6z M52.3,83.6c1.2,0,1.6-1.7,1.6-3.9c0-2.3-0.5-4-1.6-4c-1.2,0-1.6,1.7-1.6,4
			C50.6,81.9,51.1,83.6,52.3,83.6z"/>
		<path class="st0" d="M56.7,75.9v-0.7h3.7v0.7l-1.7,0.2h-0.3L56.7,75.9z M58.7,83.2l1.5,0.2v0.7h-3.6v-0.7l1.7-0.2H58.7z
			 M57.6,79.4c0-1.4,0-2.8,0-4.2h2c0,1.4,0,2.8,0,4.2V80c0,1.3,0,2.7,0,4.1h-2c0-1.4,0-2.8,0-4.2V79.4z M58.6,81.1l4.1-6h0.9l-5,6.9
			V81.1z M61.2,77.9l2.9,6.3h-2.1L60,79.6L61.2,77.9z M61,83.4l1.6-0.2h0.3l1.5,0.2v0.7H61V83.4z M61.3,75.9v-0.7H64v0.7l-1.4,0.2
			l-0.3,0L61.3,75.9z"/>
		<path class="st0" d="M64.9,75.9v-0.7h1.9v0.9h-0.2L64.9,75.9z M66.8,83.2v0.9h-1.9v-0.7l1.7-0.2H66.8z M65.8,79.4
			c0-1.4,0-2.8,0-4.2h2c0,1.4,0,2.8,0,4.2v0.5c0,1.5,0,2.9,0,4.3h-2c0-1.4,0-2.8,0-4.3V79.4z M66.8,83.4h1.4c1.3,0,2.2-1.3,2.2-3.7
			c0-2.4-0.8-3.7-2.2-3.7h-1.4v-0.8h1.6c2.5,0,4,1.7,4,4.5c0,2.9-1.6,4.5-4.2,4.5h-1.4V83.4z"/>
		<path class="st0" d="M73,83.4l1.2-0.2h0.3l1.5,0.2v0.7H73V83.4z M73.6,75.7l0.7,0.4L73,75.9v-0.7h2.6l4.2,6.7v2.3h-1L73.6,75.7z
			 M74,75.2l0.8,0.7v8.2H74V75.2z M77.8,75.2h3.1v0.7l-1.2,0.2h-0.3l-1.6-0.2V75.2z M79.1,75.2h0.8v9l-0.8-0.9V75.2z"/>
	</g>
	<circle class="st1" cx="56.7" cy="56.7" r="37.8"/>
	<g>
		<path class="st2" d="M65,20.8l0.3,0.6l0.5,1l0.1,0.4l0.3,0.7l1,1.9l0.7,2l0.1,0.2l0.4,0.5l0.1,0.4l1.8,2.6l0.7,1l0.8,0.9l0.1,0.1
			l0.6,0.7l0,0.3l0,0.3l0.1,0.3l0.4,0.2l0.1,0.2l0.3,1l0.1,0.2l0.2,0.1l0.1,0.1l0.5,1l0.3,0.4l0.1,0.2l0,0.2l0.1,0.2l0.5,0.6
			l0.2,0.5l0.1,1l0.2,0.6l0.6,0.8l0,0.2l-0.1,0.2l-0.1,0.2l-0.1,0.1l0,0.1l0.1,0.4l0.1,1.2l0.1,0.6l0.4,1.1l0,0.6l-0.1,0.5l-0.2,0.5
			l-0.2,0.6l0.2-0.6l0.2-0.5l0.1-0.5l0-0.6l-0.4-1.1l-0.1-0.6l-0.1-1.2l-0.1-0.4l0-0.1l0.1-0.1l0.1-0.2l0.1-0.2l0-0.2l-0.3-0.5
			l-1,1.1l-1.4,0.1l-0.3-0.2l-0.4-0.1l-0.3,0.2l-0.3,0.1l-0.4-0.2l-0.4-0.1l-0.1,0.1l-0.1,0l-0.1-0.1l-0.1-0.1l-0.3,0.2l-0.3,0.1
			l0-0.2l0-0.2l-0.2-0.1l-0.2,0L70,41.9l-0.3,0L69.4,42l-0.2,0.2l0.1,0.3l0,0.3l-0.1,0.3l-0.3,0l-0.3-0.1L68.3,43l-0.3-0.1l-0.2-0.1
			l-0.2-0.1l-0.3,0l-0.3-0.1l-0.3-0.2l-0.3-0.2l-0.3,0L66,42.2l-0.2,0l-0.2,0l-0.1-0.2l-0.2-0.2l0-0.2l-0.1-0.1l-0.5,0.1l-0.3,0.1
			l-0.1,0l-0.1,0L64,41.7l-0.1-0.1l0.2-0.3l0.3-0.2l0.1-0.3l-0.2-0.1l-0.6-0.1l-0.6-0.2l-0.3,0.2l-0.2,0.1l-0.3-0.1l-0.2,0.2
			L61.8,41l-0.4,0.1l-0.1-0.2v-0.3l-0.4-0.4l-0.6,0.2l-0.2,0.3l0.1,0.7l-0.2,0.2l-0.1,0.1l-0.1,0.1l-0.1,0l-0.1-0.1l-0.3,0l-0.3,0.1
			l0.1-0.7l-1.2,0.2l-1.1,0.3l0.6-1.1l0.5-1.2l0.7-1.4l0.1-0.3L58.5,37l0.1-0.2l0.2-0.2l0.2-0.1l0.1-0.2L59,36l-0.2-0.1l-0.3,0
			l-0.3-0.1l-0.4,0l-0.6-0.3l-0.3-0.1l-0.3-0.2l-0.3,0l-0.3,0.1L56,34.9l0-0.2l0.1-0.2l0-0.3l0-0.3L55.9,34l-0.1-0.2l0.3-0.4
			L56,33.2l-0.1-0.2l0.1-0.2l0-0.2l0-0.2l0.6-0.4l0.2-0.1l0.1-0.2l0.1-0.6l-0.3-0.4l-0.2,0l-0.2-0.1l-0.2-0.4l-0.2,0l-0.3,0
			l-0.3-0.2l-0.1-0.4l-0.1-0.7L55,28.6l-0.1-0.1l-0.1,0l-0.1,0.1l-0.1,0l-0.2-0.1l-0.5,0.2l-0.4-0.1l-0.2-0.1l-0.2-0.2l0-0.3
			l0.1-0.2l0.1-0.1l0-0.1l-0.1-0.1l-0.1,0l-0.1,0l-0.1,0.1L53,27.8l-0.2,0.2l-0.2,0l-0.2-0.1l0-0.1l0-0.1l-0.1,0l-0.1,0.1l0,0.1
			l0,0.5L52,28.4l-0.4-0.2l-0.4-0.3l-0.1-0.1l-0.1,0l-0.1-0.2l-0.1-0.2l-0.1-0.1l-0.1-0.1L50.5,27l-0.2-0.1L50,26.6l-0.2-0.1
			l0.1-0.1l0.6-0.5l0.7-0.4l0.7-0.3l0.7-0.1l0.3,0l1.3-0.1l1,0.3l0.3,0l0.6-0.2l2.1-0.2l0.1,0.1l0.1,0.2l0.1,0.1l0.1,0l0.7-0.2
			l1.1,0.1l0.7-0.1l0.7-0.3l0.7-0.5l0.6-0.6l0.3-0.4l0.2-0.4l0.1-0.4l0-0.5L64,21.8l0-0.2l0.1-0.2l0.3-0.2L65,20.8z"/>
		<path class="st3" d="M46.5,31.8l-0.1-1.2l0.1-0.3l0.1-0.1l0.2,0l0.3-0.1l0.4-0.3l0.9-1.4l0.2-0.2l0.4-0.3l0.2-0.2l0.2-0.5l0.1-0.4
			l0.1-0.2l0.2,0.1l0.4,0.2l0.2,0.1l0.1,0.2l0.1,0.1l0.1,0.1l0.1,0.2l0.1,0.2l0.1,0l0.1,0.1l0.4,0.3l0.4,0.2l0.1-0.2l0-0.5l0-0.1
			l0.1-0.1l0.1,0l0,0.1l0,0.1l0.2,0.1l0.2,0l0.2-0.2l0.1-0.2l0.1-0.1l0.1,0l0.1,0l0.1,0.1l0,0.1l-0.1,0.1L53.3,28l0,0.3l0.2,0.2
			l0.2,0.1l0.4,0.1l0.5-0.2l0.2,0.1l0.1,0l0.1-0.1l0.1,0l0.1,0.1l0.1,0.3l0.1,0.7l0.1,0.4l0.3,0.2l0.3,0l0.2,0l0.2,0.4l0.2,0.1
			l0.2,0l0.3,0.4l-0.1,0.6l-0.1,0.2l-0.2,0.1L56,32.3l0,0.2l0,0.2l-0.1,0.2l0.1,0.2l0.1,0.2l-0.3,0.4l0.1,0.2l0.3-0.1l0,0.3l0,0.3
			L56,34.7l0,0.2l0.2,0.2l0.3-0.1l0.3,0l0.3,0.2l0.3,0.1l0.6,0.3l0.4,0l0.3,0.1l0.3,0L59,36l0.1,0.2L59,36.5l-0.2,0.1l-0.2,0.2
			L58.5,37l0.1,0.3l-0.1,0.3l-0.7,1.4l-0.5,1.2l-0.6,1.1l-0.1,0.1l-0.1,0.1l-0.1,0.1l-0.1,0.1l-0.1,0.1L56.3,42l-0.5,1l-0.3,0.2
			l-0.1-0.1l-0.2,0L55,43.2l-0.1,0.2l-0.1,0.2l-0.3,0.1l-0.2,0.2l-0.1,0.4l-0.4,0.1l-0.5,0.2l-0.5,0.1l-0.5-0.1L52,44.4l-0.5-0.2
			l-0.9,0.4l-0.4,0l-0.5-0.1l0,0l0.1-0.1l0.2-0.1l0.1-0.1l0.1-0.3l0-0.1l-0.1-0.1l0,0l0.1-0.1l0.1,0l0.1,0l0.2-0.1l0.1,0l0.1,0
			l0-0.2l-0.7,0.2l-0.1,0.1l0,0.4l-0.1,0.1l-0.3,0.1l-0.4-0.1l-0.4-0.2l-0.4-0.4l-0.1-0.4l0.7-0.1V43l0,0l-0.1-0.1l0.1,0l0.1,0
			l0.1,0l0.1,0.1l0-0.3l-0.1-0.2l-0.1-0.3l0.1-0.4l-0.1-0.1l-0.1,0.1l-0.1,0.2l0,0.2l-0.1,0.2l-0.1,0.1l-0.1-0.1l-0.2,0l-0.2,0.1
			l-0.5-0.2l0-0.2l0-0.1l0-0.2l0-0.2l0.1-0.2l0.2-0.2l0.2-0.1l0.2-0.1l0.3,0l0.3-0.1l0.1-0.1l0-0.3l-0.1,0l-0.2,0.1L48.3,41l-0.1,0
			L48,40.9L48,40.8l0-0.2l-0.3,0.1l-0.2,0.2l-0.4,0.4L47,41.4l-0.1,0l-0.1,0l-0.1-0.1l0-0.1l0.1-0.1l0.2-0.2L46.6,41l-0.1,0l0-0.2
			l0.1-0.1l0.1-0.1l0.2-0.1l0.1-0.1l0.1-0.2l0,0l-0.3,0l-0.1-0.1l-0.1-0.1l-0.1-0.2l-0.1-0.2l0,0l0,0l0.1-0.1l0.1,0.1l0.1,0l0.2-0.1
			l0.2,0l0.1,0.1l0.1,0l0.2-0.1l0,0.2l0,0.1l0.1,0.1l0.1,0.1l0.1,0l0.1-0.1l0.1-0.3l0.2-0.3l0.2,0l0.2,0.1l0.2,0l-0.1-0.1l-0.1-0.1
			l-0.1-0.1l-0.1,0l-0.2,0l-0.1-0.1l-0.2,0l-0.1,0l-0.1,0l-0.2,0L47.2,39l-0.5-0.4l0-0.2l0.2-0.3l0.1-0.1l0.3-0.1l0.1-0.1l0.1-0.1
			l0.2-0.3l0.1-0.3l-0.1-0.2l-0.2-0.1l-0.1-0.3l0.4-0.9l-0.5-0.3l-1.1-0.5l0,0.4l-0.4,0.4l-0.1-0.1l-0.1-0.2l-0.1-0.2L45.4,35
			l-0.1-0.1l0-0.2l0-0.3L45.2,34L45,32.8l0-0.2l0.1,0l0.6,0.2l0.2,0l0.2-0.1l0.1,0l0.1,0.1l0.1,0.2l0,0.3l0,0.3l-0.1,0.2l0,0.3
			l0.3,0.3l0.4,0.2l0.3,0l-0.2-0.2l-0.6-0.5l0.2-0.5l0.1-0.3l0-0.2l-0.1-0.2l0-0.1l0-0.2l0-0.3l0.1-0.2l-0.1-0.1l-0.1,0L46.5,31.8z
			 M51.4,35.6l0.1-0.4l0-0.3l-0.1-0.3l-0.1-0.4l-0.2-0.3l-0.4,0l-0.3,0.1l-0.2,0.2L50,34.5l-0.3,0.3l-0.5,0L49.2,35l0,0.2l-0.2,0.1
			l-0.3,0.1l-0.3-0.2l-0.3,0l-0.2,0.4L47.7,36l0.6,0.3l0.1,0.4l0.2,0.1l0.3,0.1l0.3,0.4l0.5,0l0.2,0l0.2-0.1l0.3-0.1l0.3-0.1
			l0.1,0.3l0.3-0.2l0.3-0.1l0.3-0.2l0.1-0.2l0.2-0.3l-0.1-0.1l0-0.2L52,36l0.2-0.1l0-0.2l-0.1-0.2l-0.2,0l-0.3,0.1L51.4,35.6z"/>
		<path class="st4" d="M43.6,50.5l0.1,0.3l0.1,0.2l0.1,0.2l-0.1,0l-0.5,0l-0.2,0l0-0.2l0.1-0.1l0.1-0.1l0-0.1l-0.3,0.2L43,50.8
			l0-0.2l0.2-0.3l-0.1-0.1L43,50.4l-0.1-0.1l-0.1,0.1l0.1-0.3l0-0.5l-0.1-0.3l-0.1-0.4l0.1-0.1l0.2-0.2l0.2-0.1l0.1,0.2l0,0.1l0,0.1
			L43.2,49l0,0.1l0.2,0.4l0,0.1l0,0.1l0.1,0.1l0.1,0.1l0.1,0.2h-0.2v0.1l0.1,0l0.2,0.1l0,0.1l0,0.1L43.6,50.5z M48.1,56.1l-0.2,0.1
			l-0.2,0.2l-0.2,0.2l-0.2,0.1l-0.2,0l-0.2,0.1l-0.2-0.1l-0.1-0.1l0-0.1l-0.1-0.2l-0.1-0.1l-0.2-0.2l-0.1-0.2l0.2-0.1l-0.1-0.1
			L46,55.4l-0.1,0l-0.2-0.4l-0.2-0.1l-0.1,0.1l-0.1,0l0-0.1L45,54.6l-0.2,0l-0.1,0.3l0,0.1l-0.1-0.1l0-0.4l0.4-0.2l0.3-0.1l0.5,0.1
			l-0.2-0.3L45.5,54l-0.1-0.1l-0.1,0L45.3,54l-0.1,0l-0.1-0.1L45,53.8l0.2-0.6l0.1-0.3l0.2-0.1l-0.1-0.1L45,52.4l-0.2-0.1l0.2-0.2
			l0.5-0.1l0.1-0.1l-0.1-0.2l-0.2,0l-0.4,0l-0.1-0.1l-0.1-0.2l-0.1-0.1v-0.1h0.1L44.7,51l0.2-0.1l0.2-0.1l0.2-0.3l0.4-0.1l0.2-0.1
			h-0.6l-0.2,0.1l-0.2,0.4l-0.2,0l-0.1-0.1l-0.1-0.3l-0.1-0.3l0-0.2l0.2-0.3l0.1-0.2l0-0.1l-0.2,0.1l-0.1-0.1l-0.1-0.1l-0.1,0
			l-0.1-0.1l0-0.1l0-0.1l-0.1-0.2l-0.1-0.1l0-0.1l0.2,0l0.2-0.1l0.2,0l0-0.2l0.1-0.1l-0.1-0.1l-0.1,0l-0.2-0.2l0.1-0.2l0.2-0.1
			l-0.1-0.2l-0.3,0l-0.1-0.2l0.1-0.2l0.3,0l-0.1-0.2l-0.1-0.1l0-0.1l-0.1,0.1l-0.2,0.2L44,46.9l0,0.1l0,0.1l0.1,0.1l0,0.2L44,47.7
			l0,0.4l-0.1,0.3l-0.1,0.1l-0.2-0.2l-0.2,0l-0.2-0.1l0.1-0.7l0.1-0.3l-0.1-0.1l0-0.3l-0.1-0.1l-0.2,0l-0.1,0.2l0,0.2l-0.1,0.2
			l-0.2,0l0.1,0.2l0.2,0.3l0.1,0.2l-0.1,0.1l0,0.1l0.2,0.2l-0.2,0l-0.1,0.1l-0.1,0.1l-0.1,0.1l0-0.1l0-0.1l0-0.1l0-0.1l0.1-0.3
			l-0.3-0.5l0.1-0.3L42.2,47L42,47.1l-0.3,0.4l-0.2,0.1l-0.1,0l-0.1,0l-0.1,0L41,47.5l0-0.1l0-0.1l0-0.1l0.1-0.1l0.4,0l0.1-0.1
			l0-0.2l-0.1-0.2l-0.2-0.1l-0.2-0.1l-0.1-0.1l-0.1,0.2l0,0.3l-0.1,0.2l-0.1,0.1l0-0.1l0-0.3l0-0.3l0-0.1l0.3-0.4l0.1-0.1l0-0.2
			l0,0.1l0,0.1l0.1,0.1l0.1,0.1l0.1-0.1l0.1,0l0.1,0l0.1,0L41.4,46l-0.1-0.2l0.3,0.1l0.1,0l0.1-0.2l-0.3,0l-0.2-0.1l0-0.2l0.2-0.3
			l-0.2-0.2l0-0.2l0.2-0.2l0.3-0.1l-0.1,0.3l0,0.1l0.1,0l0.3,0l0.1-0.1l0.1-0.1l0-0.3l0-0.4l0.1-0.3l0.3-0.1l0,0.2l0,0.3l0,0.3
			l0.1,0.4l-0.1,0.1L42.6,45l-0.1,0.1l0,0.1l0.1,0.2l0,0.1l-0.1,0.1l-0.2,0.1l0,0l0,0.1l0,0.1l0.1,0.1l0.1,0l0.2-0.2l0.1,0l0.3,0.2
			l-0.2-0.5l-0.1-0.3l0.1-0.1l0.2,0.2l0.1,0.1l0-0.1l0,0l0.1,0l0.2-0.1V45l-0.1,0l-0.2-0.1v-0.1l0.3-0.1l0.2-0.3l0-0.3L43.7,44
			l-0.1,0l-0.3,0l-0.1-0.1l-0.1-0.1l0-0.1l0.1,0l0.2,0.1l0.1-0.2l-0.1-0.1l-0.2-0.1l-0.2,0l0.1-0.1l0.1-0.1l0.1,0l0.1,0.1l0.1,0.1
			l0.1,0l0,0l0-0.1v-0.1l0.4,0l0.2,0.1l0.1,0.2l-0.1,0.1L44,43.5l-0.1,0.2l0.1,0.2l0.1-0.1l0.1-0.1l0.1,0l0,0.1l0,0.1l0.1,0.1l0,0.1
			l0,0l-0.1,0.1l0,0.1V45l0,0.2l0.1,0.1l0.1,0l0-0.1l0-0.3l0.2-0.7l0-0.3l0.1-0.1L45,44l0.2,0.2l0.1,0.1l0.1,0.1l0.1,0.1l0.2,0v-0.1
			l-0.1-0.1l-0.1-0.3L45.3,44l-0.7-0.7l0,0l0-0.1l0.1,0l0.1,0.1l0.2,0.2l0.1,0.1l0.1,0.1l0.1,0l0.1-0.1l0-0.1l-0.1-0.1l-0.2,0
			L45,43.2l-0.2-0.2l-0.1-0.3l0-0.2l0.2,0l0.2,0.1l0.2,0.1l0.2,0.2l0.2,0.1l0.1,0.1l0.2,0.1l0.2,0.1l0.1,0.2l-0.1,0.2L46,43.7l0,0.1
			l0.1,0.2l0,0.1l0,0.2l0.1-0.1l0-0.1l0-0.1l0-0.3l0-0.1l0.1-0.1l0.1-0.2l0.2-0.1l0.2,0l0.2,0l0.2,0.1l0.3,0.1l0.2,0.1l0.2,0.2
			l0,0.3l-0.2,0.6l0.1-0.1l0.2-0.3l0.1,0l0.1,0.1l0,0.2l0,0.4l0,0.1l-0.1,0.2l0,0.1l0,0.1l0.1,0.2l0.1,0.4l0,0.1l-0.2,0.1l0,0.1
			l0,0.1l0.1,0.1l0.1,0l0.1-0.3l0.1-0.2l0.1-0.2l-0.1-0.3l0.2,0.1l0.2,0l-0.4-0.4l-0.1-0.2l0.2-0.1l0.2,0l0.5-0.2l0.2-0.2l0,0
			l0.5,0.1l0.4,0l0.9-0.4l0.5,0.2l0.4,0.4l0.5,0.1L53,45l0.1,0.1l0.1,0.1l0.2,0.4l0.1,0.1l0,0.3l0.1,0.1l0.1,0.1l0,0.2l0,0.2
			l-0.1,0.1l0,0.1l0,0.1L53.6,47l-0.1,0l-0.1,0l-0.1,0.1l-0.7-0.5l-0.4,0.2l0.2,0.6l0.4,0.5l-0.2,0.5l0,0.2l-0.1,0.5l0.3,0.3
			l0.3,0.1l0.1,0.5l0.5,0.3l0,0l-0.2,0.6l-0.4,0.7l0.2,0.4l-0.6,0.9l0.7,0.9l0.7-0.2l0.1-0.7l0.4,0l0,0.3l0.2-0.1l0.6-0.3l0.2-0.4
			l0.1-0.2l0.1-0.2l0.2-0.1l0-0.2l-0.1,0l-0.2-0.1l-0.2,0.1l-0.1,0.2l0.1-0.2l0.2-0.1l0.2,0.1l0.1,0l0,0.2l-0.2,0.1L55.6,52
			l-0.1,0.2l-0.2,0.4l-0.1,0.5l0,0.4l0,0.4l0.4-0.1l0.3,0.1l0.3,0.2l0.1,0.4l0,0.5l0.1,0.5l0.2,0.4l0.2,0.4l-0.3,0.3l-0.3,0.2
			L56,56.9l-0.3,0L55.4,57l-0.6-0.1l0-0.1l0.1-0.2l-0.1-0.1l-0.1,0l-0.4-0.2l-0.5-0.9l-0.3-0.3l-0.2,0.2l-0.1,0.2l-0.2,0l-0.2,0.1
			l-0.2,0.1L52,55.8l-0.3,0.1L51.3,56l-0.2-0.4l0.1-0.6l-0.4-0.1l-1.1,0.4l-0.6,0.1l-0.5,0.1L48.1,56.1z"/>
		<polygon class="st5" points="47.1,38 47,37.9 46.5,37.9 46.2,38.2 45.9,38 46,37.7 46.2,37.5 46.1,37.4 45.9,37.3 45.7,37.2 
			45.7,36.9 45.7,36.7 45.8,36.5 46.1,36.4 46.2,36.4 46.2,36.3 46.1,36.2 46,36.4 45.8,36.4 45.8,36.2 45.7,36 45.8,35.7 
			46.2,35.2 46.3,34.8 47.4,35.3 47.9,35.6 47.5,36.6 47.6,36.8 47.8,36.9 47.9,37.1 47.8,37.5 47.6,37.8 47.5,37.9 47.4,37.9 		"/>
		<polygon class="st5" points="45.4,36.1 45.4,36.2 45.4,36.2 45.5,36.3 45.5,36.4 45.6,36.5 45.5,36.5 45.4,36.6 45.4,36.6 
			45.2,36.7 45.1,36.6 45,36.7 44.7,36.8 44.6,36.9 44.5,37.1 44,37.4 43.9,37.4 43.8,37.4 43.8,37.4 43.8,37.2 43.7,37.2 
			43.6,37.2 43.6,37.2 43.6,37.2 43.6,37.2 43.6,37.1 43.5,37.1 43.5,37.1 43.4,37.2 43.3,37.2 43.2,37.1 43.3,37.1 43.2,37 
			43.1,36.9 43.1,36.8 43.1,36.7 43.2,36.7 43.3,36.7 43.8,36.4 44.1,36.3 44.4,36.3 44.6,36.2 44.7,35.9 44.8,35.9 45,36 45,36 
			45.1,36 45.1,36.1 45.2,36.1 45.3,36.1 		"/>
		<polygon class="st5" points="42.4,32.2 42.6,32.2 42.8,32.2 42.9,32.3 42.9,32.6 42.7,32.7 42.4,32.7 42,32.6 41.9,32.7 
			41.8,32.7 41.7,32.8 41.6,32.6 41.6,32.6 41.8,32.2 41.9,32 42.1,32 42.2,32 		"/>
		<polygon class="st5" points="43.1,33.7 43.2,33.8 43.3,33.9 43.4,34 43.2,34.2 43,34.2 42.3,33.6 42.4,33.5 42.4,33.4 42.5,33.1 
			42.5,33.1 42.6,33 42.6,32.9 42.7,32.9 42.7,33 42.8,33 42.8,33.1 42.8,33.3 42.8,33.4 42.9,33.4 43,33.5 		"/>
		<polygon class="st5" points="44.7,35 44.7,35 44.6,35 44.5,34.9 44.4,34.8 44.3,34.8 44.3,34.9 44.3,34.9 43.7,34.9 43.5,34.8 
			43.2,34.5 43.6,34.4 43.7,34.4 43.8,34.2 43.7,34.2 43.7,34.1 43.6,34.1 43.2,33.3 43.2,33.2 43.3,33.1 43.2,32.4 43.3,32.3 
			43.4,32.2 43.7,31.9 43.9,31.9 44,32 44.2,32.2 44.4,32.3 44.7,32.5 44.8,32.7 44.9,32.9 44.9,33 44.8,33.2 44.8,33.3 44.8,33.4 
			44.9,33.5 45,33.6 45,34.1 45,34.3 45,34.3 45.1,34.5 45.1,34.5 45,34.6 44.9,34.9 		"/>
		<polygon class="st5" points="44.5,39.4 44.6,39.4 44.6,39.6 44.6,39.7 44.5,39.7 44.4,39.8 44.4,39.9 44.3,40 44.2,40 44.1,39.9 
			44,40 44,39.9 43.9,39.7 44,39.6 44,39.4 44.2,39.3 		"/>
		<polygon class="st5" points="45.9,39.7 45.9,39.7 46,39.9 45.9,40 45.3,40.4 45.1,40.5 45.1,40.4 45.2,40.2 45.2,40.1 45.2,40.1 
			45.3,39.9 45.3,39.7 45.3,39.5 45.2,39.4 45.1,39.3 45.1,39.3 45.3,39.4 45.5,39.2 45.5,39.2 45.5,39.4 45.5,39.5 45.6,39.5 
			45.8,39.6 		"/>
		<path class="st6" d="M44,65.1L43.8,65l-0.1-0.1l0.1-0.3l0.2-0.4l0.3-0.7l0.2-0.4l0.4-0.1l0.4-0.1l0.3,0l0.2-0.1l0.2-0.2l0.2-0.1
			l0.2,0.2l0.2,0.2l0.1,0l-0.1-0.5l-0.1-0.2l-0.2-0.1l-1.5,0.3l-0.5-0.3l0-0.4l0-0.1l0.3-0.1l0.2-0.2L45,61l0.3-0.2l0.4-0.2l0.3-0.4
			l0-0.4l0.2-0.1l0.1-0.1l0.1-0.1l0.4,0l0.4,0l0.2,0.2l0.2,0l0.1,0.2l0-0.1l0-0.2l0-0.2l-0.1-0.1l-0.1-0.1l-0.2-0.1l-0.2-0.2
			l-0.2-0.1l-0.1-0.1l0-0.1l0.1-0.1l0.1-0.1l0.1,0l0.6,0l0.1,0l0.1-0.1l0.1-0.1l0-0.1l0.1-0.1l0.1,0l0,0L48.3,58l-0.1-0.1l-0.1,0
			l0,0l-0.8,0.3l-0.3,0l-0.5,0l-0.5,0l0-0.2l0-0.3l-0.1-0.1l-0.3-0.1l-0.5,0.1l0-0.4l1-0.1l0.5-0.1l0.5,0l0.2-0.1l0.2,0.1l0.2-0.1
			l0.4-0.3l0.5-0.2l0.2-0.2l0-0.2l-0.6,0.2l0.5-0.6l0.5-0.1l0.6-0.1l1.1-0.4l0.4,0.1l-0.1,0.6l0.2,0.4l0.3-0.1l0.3-0.1l0.6-0.1
			l0.2-0.1l0.2-0.1l0.2,0l0.1-0.2l0.2-0.2l0.3,0.3l0.5,0.9l0.4,0.2l0.1,0l0.1,0.1l-0.1,0.2l0,0.1l0.6,0.1l0.2-0.1l0.3,0l0.3-0.1
			l0.3-0.2l0.3-0.3l0.1,0.1l0.1,0.1l0.1,0l0.1-0.1l0.2,0.1l0.2,0.2l0.5,0.2l0.1,0.1l0.2,0.1l0.3-0.2l0.4-0.2l0.2,0.2l0.2,0.1
			l0.1-0.1l0.1-0.1l0.4,0.8l-0.1,0.9l-0.4,0.4l-0.1,0.3L59,59.2l-0.3,0.1l-0.1,0l-0.1,0.1l-0.2,0.4L58,60.1l-0.2,0.2l-0.1,0.4l0,0.4
			l-0.1,0.3l-0.2,0.3l-0.1,0.4l-0.1,0.4L57,62.8l0,0.3l0.3,0.1l0,0.1l0,0.2l0.1,0.3l0,0.3l0.1,0.3l0.2,0.1l-0.1,0.4l-0.5,0.5
			l-0.1,0.4l0,0.3l-0.2,0.2l-0.6-0.5l-0.7-0.3l-0.4,0.2l-0.3,0.3l-0.3,0l-0.4,0l-0.4,0.1l-0.4,0l-0.2-0.1l-0.2-0.1l-0.2,0l-0.2,0
			l-0.3,0.1l-0.3,0.2l-0.4-0.1L51.2,66l0-0.4L51,65.3l-0.1-0.2l0.1-0.4l-0.2-0.3l-0.3,0l-0.1,0.1l-0.1,0.1l-0.1,0.2l0,0.2l-0.3,0
			l-0.5-0.7L49,64l-0.2-0.1l-0.2,0l-0.2,0.2l-0.4,0l-0.3,0.2l0,0.2l0,0.2l-0.1,0.2L47.6,65l0,0.1l0,0.1l-0.1,0.2l-0.1,0.1l-0.2,0.1
			L47,65.7l-0.2,0.1l-0.1,0.1L46.4,66L46,66.1l-0.3,0.1l-0.3-0.1l0-0.4l0.1-0.4l0.1-0.5l-0.3-0.1l-1.1,0.3L44,65.1L44,65.1z
			 M42,62.5L42,62.5l-0.1-0.1l0-0.1l0.1-0.1l0,0l-0.1,0l0,0l0.1,0l0-0.1l0.1,0l0,0l0-0.1l0,0l0.1,0l0.1-0.1l0,0l0,0l0,0.1l0,0.1
			l-0.2,0.2l-0.1,0.2L42,62.5L42,62.5L42,62.5z"/>
		<polygon class="st7" points="58.9,70.7 58.8,70.6 58.4,70.6 58.2,70.6 58.2,70.5 58.1,70.4 58.1,70.3 57.9,70.2 57.9,70.3 
			57.9,70.5 57.9,70.5 57.9,70.8 57.8,70.9 57.7,71 57.3,71.3 57.1,71.4 56.9,71.3 56.7,70.9 56.5,70.8 56.4,71 56.4,71.2 
			56.4,71.5 56.5,71.7 56.6,72 56.8,72.3 57,72.4 57.1,72.5 57.3,72.6 57.4,72.5 57.7,72.2 58,72.1 58.2,72.2 58.3,72.2 58.5,72.1 
			58.5,72.3 58.5,72.5 58.4,72.9 58.3,73.6 58.2,73.7 57.8,73.8 57.5,73.7 57.2,73.6 57,74.1 57,74 57,74 57,74.1 56.9,74.1 
			57,74.3 57,74.4 57.1,75 57.1,75.1 57,75.1 56.8,74.9 56.5,74.9 56.3,74.8 56.2,74.6 56.2,74.3 56.2,74 56.4,73.7 56.5,73.4 
			56.4,73.2 56.3,73.1 56.2,72.7 56.1,72.7 56.1,72.7 56,72.7 55.9,72.6 55.9,72.6 55.9,72.5 56,72.4 55.8,72.1 55.8,72 55.8,71.9 
			55.8,71.7 55.9,71.7 55.8,71.6 55.8,71.5 55.7,71.5 55.7,71.6 55.7,71.6 55.5,72.1 55.4,72.2 55.4,72.2 55.3,72.2 54.9,72.3 
			54.7,72.4 54.3,72.4 54.1,72.4 54.2,72.5 54.5,72.7 54.7,72.7 54.7,72.8 54.3,73 54,73.1 54,73.3 54.1,73.3 54.3,73.3 54.4,73.3 
			54.5,73.4 54.5,73.5 54.4,73.5 54.4,73.5 54.5,74.1 54.8,74.3 55.2,74.6 55.4,74.9 55.3,74.9 55.1,74.9 55,74.9 55.5,75.1 
			55.6,75.2 55.6,75.5 55.5,75.6 55.4,75.7 55.2,75.7 55,75.7 54.5,75.4 54.4,75.4 54.2,75.4 54.1,75.5 53.9,75.6 53.8,75.7 
			53.9,75.7 54,76 54.2,76 54.2,76.1 54.7,76 54.9,76.2 54.4,76.6 54.2,76.9 54,76.8 53.7,77 53.7,77.3 53.8,77.4 53.5,77.4 
			53.1,76.8 52.9,76.5 52.5,76.1 52.4,76.1 52,76.3 52,76.5 52.1,76.5 51.9,76.5 51.7,76.4 51.6,76.4 51.5,76.2 51.4,76 51.5,75.9 
			51.8,75.7 51.8,75.6 52.1,75.4 52.2,75.1 52.3,75 52.4,74.9 52.4,75.1 52.4,75.3 52.2,75.7 52.5,75.7 52.8,75.6 53,75.4 52.9,75 
			52.9,74.8 52.8,74.7 52.7,74.6 52.7,74.4 52.8,74.3 53.1,74 53.2,74.1 53.3,74.1 53.3,74.2 53.2,74.4 53.3,74.5 53.4,74.7 
			53.5,74.7 53.7,74.6 53.8,74.5 53.9,74.2 54,74.1 53.9,73.9 53.8,73.6 53.7,73.5 53.5,73.7 53.3,73.8 53.1,73.6 52.8,73.2 
			52.7,73.4 52.4,74 52.3,74.2 52.1,74.2 52,74.2 51.7,74.2 51.6,74.2 51.5,74.3 51.3,74.6 51.2,74.7 50.8,74.9 50.6,75.1 
			50.4,75.1 50.3,75.2 50.2,75.2 50.2,75.3 50.2,75.5 50.2,75.6 50.1,75.7 50,75.9 50,76 50,76.2 49.4,76.8 49.5,77.3 49.4,77.4 
			49.1,77.3 49,77.4 48.9,77.5 48.9,77.6 49,77.8 48.9,77.7 48.5,77.5 48.1,77.4 48,77.3 48,77.1 48,76.4 48,76.2 48,76 48,75.8 
			47.9,75.6 47.8,75.5 47.7,75.6 47.6,75.7 47.5,75.8 47.4,75.9 47.5,76.1 47.6,76.3 47.6,76.4 47.2,76.5 47.3,76.7 47.5,77 
			47.1,77.2 46.9,77.4 47.1,77.4 47.1,77.5 47.1,77.5 47.1,77.6 47.1,77.6 47,77.6 46.9,77.5 46.9,77.5 46.7,77.6 46.7,77.6 
			46.7,77.7 46.6,77.8 46.6,77.9 46.2,78 46.1,78.1 46.1,78.2 45.8,79.1 45.8,79.2 45.8,79.3 45.5,79.3 45,79.4 44.9,79.4 
			44.9,79.3 45,78.9 45,78.8 44.9,78.7 44.7,78.7 44.4,78.7 44.4,78.6 44.5,78.5 44.5,78.5 44.5,78.3 44.6,78.3 44.6,78.3 
			44.7,78.3 44.8,78 44.9,77.8 44.8,77.7 44.8,77.7 44.7,77.6 44.5,77.6 44.4,77.6 44.4,77.5 44.4,77.4 44.4,77.4 44.4,77.3 
			44.5,77.1 44.5,77 44.3,77.1 44.3,76.8 44.6,76.6 44.8,76.5 45.1,76.5 45.1,76.4 45,76.3 44.9,76.3 44.8,76.3 45,76.1 45.1,76 
			45.1,75.9 45,75.8 44.9,75.8 44.8,75.9 44.7,76 44.7,76 44.5,75.9 44.4,75.9 44.4,76 44.3,76 44.3,76.2 44.2,76.2 44.1,76.2 
			44,76.2 43.8,76.2 43.6,76.2 43.5,76.3 43.5,76 43.4,75.9 43.1,75.8 43.1,75.8 43.1,75.7 43,75.6 43,75.7 42.9,75.7 42.8,75.8 
			42.8,75.8 42.7,75.8 42.5,75.5 42.4,75.5 42.4,75.4 42.4,75.4 42.5,75.3 42.5,75.3 42.5,75.3 42.7,75.3 42.7,75.3 42.7,75.1 
			42.4,75 42.2,74.8 42.2,74.4 42.2,74 42.4,73.7 42.4,73.6 42.4,73.5 42.4,73.4 42.5,73.4 42.6,73.4 42.6,73.4 42.7,73.4 
			42.8,73.6 43.1,74.1 43,74.2 43,74.4 43,74.5 43,74.6 43.2,75.3 43.4,75.3 43.9,75.4 44.2,75.6 44.3,75.6 44.4,75.4 44.2,75.4 
			44.2,75.3 44,75.3 43.9,75.1 43.7,75 43.8,74.7 43.6,74.7 43.5,74.9 43.4,74.9 43.4,74.7 43.3,74.3 43.4,74.1 43.3,73.9 
			43.6,73.9 44.1,74 44.2,74.1 44.1,74.3 44.1,74.3 44.1,74.4 44.2,74.4 44.3,74.5 44.3,74.6 44.5,74.7 44.7,74.8 44.8,74.9 
			44.9,75 45.1,75.1 45.1,75 44.9,74.7 45,74.7 45.2,74.8 45.5,74.9 45.8,75 46,75 45.8,74.9 45.6,74.8 45.3,74.5 45.3,74.4 
			45.1,74.3 44.8,73.8 44.6,73.7 44.3,73.7 44,73.7 43.7,73.5 43.5,73.6 43.2,73.5 43.2,73.4 43.3,73.2 43.5,73.2 43.8,73.2 
			44.2,73 44.7,73.4 44.9,73.4 44.9,73.4 45,73.4 45,73.4 45,73.5 45,73.2 45,73 45.1,72.8 45.4,72.7 45.9,72.9 46.2,72.9 
			46.1,72.7 46.3,72.6 46.3,72.6 46.5,72.6 46.3,72.4 46.1,72.4 45.5,72.4 45.5,72.3 45.5,72.2 45.5,72.1 45.5,72 45.5,71.9 
			45.6,71.9 45.6,71.8 45.6,71.6 45.5,71.4 45.4,71.4 45.2,71.5 45.1,71.6 45.1,71.7 45.2,72 45.2,72.1 45.2,72.1 45,72.4 
			44.9,72.8 44.8,73 44.6,73 44.6,73 44.5,72.9 44.6,72.8 44.6,72.7 44.7,72.6 44.5,72.6 44.4,72.6 44.3,72.7 44.2,72.7 43.9,72.7 
			43.8,72.7 43.8,72.8 43.6,72.8 43.4,72.9 43.3,72.9 43.2,72.7 43.3,72.6 43.5,72.4 43.6,72.2 43.7,72.1 43.7,72.1 43.7,72 
			43.7,71.8 43.7,71.7 43.8,71.5 43.7,71.4 43.6,71.2 43.5,70.9 43.5,70.7 43.7,70.6 43.9,70.4 44,70.3 43.7,70.3 43.6,70.3 
			43.5,70.3 43.4,70.4 43.4,70.4 43.3,70.5 43.3,70.6 43.3,70.8 43.3,70.9 43.2,71 43,71.1 42.8,71 42.7,70.9 42.8,70.8 42.8,70.8 
			42.7,70.7 42.6,70.7 42.6,70.6 42.5,70.4 42.6,70.4 42.8,70.4 43,70.4 43,70.2 43.3,69.9 43.2,69.6 42.9,69.1 42.7,69 42.5,68.9 
			42.6,69.2 42.5,69.4 42.4,69.4 42.2,69.2 42.3,69 42,68.7 42,68.4 42.1,68.3 42.4,68.2 42.6,68.3 42.7,68.5 42.8,68.5 42.9,68.3 
			43,68 43,68.1 43,68.3 43,68.5 43,68.6 43,68.7 43,68.8 43,68.8 43.1,68.8 43.1,68.8 43.1,69 43.2,69.1 43.2,69.1 43.3,69.2 
			43.4,69.2 43.6,69.2 43.7,69.3 43.6,69.4 43.7,69.6 43.7,69.7 43.8,69.8 44.1,69.2 44.2,69 44.1,68.7 44.1,68.7 43.9,68.6 
			43.8,68.6 43.7,68.5 43.6,68.2 43.3,67.8 43.2,67.6 43.2,67.5 43.3,67.5 43.3,67.4 43.3,67.3 43.2,67.2 43.2,67.1 43.2,66.9 
			43,66.9 42.9,67 42.6,67 42.7,66.8 42.9,66.8 43.1,66.8 43.3,66.7 43.3,66.7 43.2,66.7 43.2,66.6 43.1,66.6 43.2,66.5 43.2,66.4 
			43.3,66.4 43.4,66.3 43.4,66.2 43.4,66.1 43.3,66 43.3,65.9 43.4,65.7 43.5,65.5 43.7,65.2 43.8,65.2 43.9,65.4 44.1,65.5 
			44.2,65.5 44.2,65.4 44,65.1 44,65.1 44.2,65.1 45.3,64.8 45.6,64.9 45.5,65.4 45.4,65.7 45.4,66.1 45.7,66.2 46,66.1 46.4,66 
			46.7,65.9 46.9,65.8 47,65.7 47.2,65.6 47.4,65.6 47.5,65.4 47.6,65.2 47.6,65.1 47.6,65 47.7,64.9 47.8,64.7 47.8,64.5 
			47.8,64.3 48.1,64.1 48.5,64.1 48.7,63.9 48.9,63.9 49,64 49.4,64.3 49.9,65 50.2,65 50.3,64.8 50.3,64.6 50.4,64.5 50.5,64.4 
			50.8,64.4 51,64.7 50.9,65.1 51,65.3 51.2,65.6 51.2,66 51.5,66.3 51.9,66.4 52.2,66.2 52.5,66.1 52.8,66.1 52.9,66.1 53.1,66.2 
			53.3,66.3 53.7,66.3 54.1,66.3 54.5,66.3 54.8,66.2 55.1,65.9 55.5,65.6 56.2,65.9 56.8,66.4 56.8,66.7 57,67 57.1,67.3 57.1,68 
			57.3,68.3 57.6,68.5 57.8,68.7 57.9,69 58,69.2 58.7,70 58.8,70.3 58.8,70.6 		"/>
		<polygon class="st7" points="52,76.9 52.3,76.9 52.5,76.9 52.7,77 52.8,77.2 52.7,77.4 52.6,77.6 52.4,77.7 51.9,77.8 51.8,77.8 
			51.6,77.7 51.4,77.5 51.4,77.4 51.4,77.4 51.5,77.3 51.4,77.2 51.3,77.2 51.5,77.1 51.6,77 		"/>
		<polygon class="st7" points="43.4,76.7 43.4,76.9 43.3,77.1 43.3,77.3 43.1,77.8 43,77.9 42.9,78 42.9,77.9 42.7,77.8 42.6,77.7 
			42.6,77.8 42.5,78 41.5,78.6 41.4,78.6 40.9,78.7 40.8,78.6 40.8,78.5 40.8,78.4 40.9,78.3 40.9,78.3 40.9,78.2 40.6,78 
			40.6,78.3 40.3,78 40.5,77.5 40.8,77.2 41.1,77.2 41.2,76.9 41.3,76.8 41.4,76.7 41.5,76.6 41.6,76.6 41.7,76.5 41.7,76.3 
			41.8,76.5 42,76.5 42.1,76.4 42.2,76.2 42.1,76 41.8,75.8 41.9,75.7 42.1,75.7 42.3,75.8 42.4,75.9 42.5,76 42.6,76 42.6,76.1 
			42.7,76.2 42.7,76.3 42.8,76.2 43,76.1 43,76.2 		"/>
		<polygon class="st7" points="58.6,74.3 58.7,74.3 58.8,74.5 58.9,74.6 59,75 59,75.2 59,75.4 58.9,75.5 58.8,75.7 58.7,75.7 
			58.5,75.6 58.2,75.2 58.1,75 58.2,74.8 58.2,74.7 58.4,74.6 58.5,74.5 58.6,74.2 58.4,74 58.4,73.9 58.5,73.8 58.7,73.8 
			58.8,73.9 58.8,74 58.8,74.1 		"/>
		<polygon class="st7" points="53.5,83 53.5,83.1 53.6,83.1 53.6,83.1 53.6,83.2 53.5,83.1 53.3,83.1 53.3,83.1 53.3,83 53.2,82.9 
			53.2,82.8 53.2,82.8 53.1,82.7 53.2,82.7 53.1,82.6 53.2,82.5 53.2,82.5 53.2,82.5 53.3,82.5 53.3,82.5 53.3,82.5 53.4,82.5 
			53.3,82.7 53.3,82.8 		"/>
		<polygon class="st7" points="55.9,77.4 55.9,77.5 55.9,77.6 55.9,77.7 55.7,77.8 55.5,77.8 55.4,77.8 55.4,77.7 55.4,77.6 
			55.2,77.6 55.2,77.5 55.2,77.5 55.1,77.4 55,77.3 55.1,77.2 55.1,77.2 55,77.1 55.1,77.1 55.2,77.1 55.3,77.1 55.4,77.2 
			55.4,77.2 55.5,77.2 55.6,77.1 55.7,77.1 		"/>
		<polygon class="st7" points="58.6,76.6 58.7,76.7 58.7,76.7 58.7,76.8 58.6,76.9 58.5,76.9 58.5,76.8 58.4,76.8 58.3,76.7 
			58.2,76.7 58.1,76.6 58,76.5 58,76.4 57.9,76.4 57.8,76.3 57.9,76.1 58,76.1 58.2,76 58.4,76.1 58.6,76.5 58.5,76.5 58.5,76.6 		
			"/>
		<polygon class="st7" points="45.7,81.1 45.8,81.1 45.9,81.2 45.9,81.3 45.9,81.2 45.8,81.2 45.8,81.3 45.8,81.3 45.7,81.2 
			45.6,81.2 45.5,81.3 45.5,81.3 45.3,81.4 45.2,81.5 45.1,81.6 44.9,81.6 44.7,81.5 44.7,81.3 44.8,81.1 45,80.9 45.2,80.9 
			45.4,81.1 45.5,81.1 45.6,81.1 45.7,81.1 		"/>
		<polygon class="st7" points="46.5,81.3 46.6,81.3 46.6,81.4 46.6,81.4 46.5,81.4 46.5,81.5 46.5,81.6 46.5,81.7 46.4,81.8 
			46.3,81.7 46.3,81.7 46.2,81.6 46.2,81.6 46.1,81.4 46.2,81.1 46.2,81 46.2,80.9 46.1,80.8 46.2,80.7 46.2,80.7 46.3,80.7 
			46.5,80.8 46.5,80.9 46.4,81 46.4,81.1 		"/>
		<polygon class="st7" points="49.1,80.7 49.2,80.8 49.3,80.9 49.3,81 49.2,81.1 49.2,81.2 49,81.3 48.9,81.3 48.8,81.2 48.7,81.1 
			48.6,81.2 48.5,81.2 48.5,81.2 48.5,81 48.5,80.9 48.5,80.7 48.6,80.6 48.7,80.6 48.8,80.5 49,80.5 		"/>
		<polygon class="st7" points="45.9,80.4 45.9,80.5 45.9,80.6 45.9,80.7 45.8,80.8 45.7,80.8 45.6,80.8 45.6,80.9 45.6,81 
			45.4,80.9 45.3,80.9 45.3,80.8 45.3,80.8 45.2,80.8 45.2,80.7 45.3,80.6 45.3,80.5 45.3,80.5 45.3,80.4 45.3,80.4 45.3,80.4 
			45.3,80.4 45.3,80.3 45.3,80.2 45.3,80.2 45.4,80.2 45.5,80.3 45.7,80.3 45.8,80.4 		"/>
		<polygon class="st7" points="48.5,79.2 48.5,79.3 48.4,79.3 48.3,79.2 48.3,79.1 48.2,79 48.2,79 48,79 47.9,79.1 47.8,79.1 
			47.8,79 47.7,79 47.5,78.9 47.5,78.9 47.6,78.9 47.7,78.8 47.7,78.8 47.8,78.8 47.9,78.8 48,78.8 48.1,78.8 48.2,78.7 48.3,78.6 
			48.4,78.7 48.5,78.7 48.5,78.7 48.6,78.7 48.7,78.7 48.8,78.7 48.9,78.8 48.9,78.9 48.9,79 48.8,79 48.8,79.1 48.8,79.2 
			48.7,79.2 48.6,79.2 		"/>
		<polygon class="st7" points="51.1,78.8 51.1,78.8 51.2,78.8 51.1,78.9 51,78.8 50.9,78.8 50.8,78.8 50.8,78.9 50.9,78.9 50.8,79 
			50.6,79.1 50.5,79.2 50.5,79.1 50.6,79 50.6,78.9 50.6,78.9 50.4,78.8 50.4,78.8 50.4,78.7 50.3,78.7 50.1,78.6 50,78.6 50,78.6 
			50,78.6 50.1,78.6 50.2,78.5 50.3,78.4 50.4,78.3 50.4,78.3 50.4,78.3 50.5,78.4 50.6,78.5 50.6,78.6 50.7,78.6 50.8,78.6 
			50.9,78.6 51,78.6 51,78.7 		"/>
		<polygon class="st7" points="47.5,79.2 47.6,79.3 47.6,79.5 47.6,79.5 47.5,79.5 47.5,79.5 47.4,79.4 47.3,79.4 47.2,79.4 
			47.2,79.5 47.2,79.5 47.1,79.4 46.9,79.4 46.7,79.3 46.7,79.2 46.8,79.2 46.8,79.1 46.7,79 46.6,79.1 46.4,79 46.3,79 46.2,78.9 
			46.2,78.7 46.2,78.5 46.2,78.4 46.2,78.2 46.3,78.1 46.5,78 46.5,78 46.7,78 46.8,78 46.9,78.1 47.1,78.3 47.2,78.5 47.2,78.7 
			47.2,78.8 47.3,78.9 47.3,79 		"/>
		<polygon class="st7" points="47.5,78.2 47.5,78.2 47.4,78.2 47.5,78.1 47.5,78 47.6,77.9 47.7,77.7 48,77.6 48.2,77.5 48.3,77.5 
			48.4,77.6 48.4,77.7 48.3,77.7 48.3,77.8 48.4,77.8 48.5,77.9 48.6,78 48.6,78.1 48.5,78.1 48.3,78.1 48.2,78.1 48.1,78.2 
			47.9,78.3 47.8,78.4 47.7,78.6 47.7,78.6 47.6,78.5 47.6,78.4 47.6,78.3 		"/>
		<polygon class="st7" points="42.9,71.9 43.1,72 43.2,72.2 42.9,72.4 42.8,72.4 42.9,72.3 42.9,72.2 42.9,72.2 42.6,72 42.6,72 
			42.2,72 42.1,72.1 41.9,72.1 41.8,72.1 41.7,72 41.8,71.9 42,71.9 42.2,71.9 42.2,71.8 42.3,71.8 42.3,71.7 42.4,71.7 42.5,71.6 
			42.5,71.5 42.4,71.4 42.3,71.2 42.5,71.2 42.6,71.2 42.8,71.3 43,71.5 43,71.5 42.9,71.5 42.7,71.7 42.7,71.7 42.7,71.8 
			42.7,71.9 42.8,71.9 		"/>
		<path class="st8" d="M70.6,68l0.2,0.5l0,0.3l0,0.3l0.2,0l-0.2,0l0-0.3l0-0.3l-0.1,0l-0.1,0.2L70.6,69l-0.3,0l-0.7,0l0-0.2
			l-0.1-0.1L69.4,69L69.3,69L69,68.9l-0.1-0.2l-0.1,0l-0.2,0.1v-0.6l0,0l-0.1,0l-0.1,0.1l0,0.2l-0.2-0.1l-0.1-0.2l-0.1-0.1l-0.2,0.1
			l0-0.2l-0.1-0.3l0-0.1l-0.1-0.4l-0.1,0l-0.1,0.1l-0.1,0.2l0,0.1l0.1,0.3l0.1,0.4l0,0.1l0.1,0.2l0.2,0.2l0,0.1l-0.1,0.2l0.1,0
			l0.1,0.1l0.1,0L68,69.3l-0.1,0l-0.2,0l-0.1,0l0-0.1l0-0.1l0-0.1L67.4,69l-0.1-0.1l-0.6-0.2l-0.2,0l-0.4,0.1l-0.1,0l0,0.1l0.1,0.2
			l-0.2,0l-0.4,0.2l-0.4,0.1l-0.1,0.2l0,0.2L65,69.9V70l1.1-0.6l0.2,0l0,0.2l0.1,0.2l0,0.2l-0.1,0.2l-0.1,0.1l-0.2,0l-0.2,0
			l-0.1-0.1l-0.1,0.1l0.1,0.1l0.1,0.1l0.1,0.1l0,0.1l0,0.1l0,0.3l-0.1,0.5l0.1,0.1l0.1,0l0.1-0.1l0-0.1l0.1,0.2L66,71.8l-0.3,0.4
			l-0.2,0.1l-0.3,0l0-0.2l0.2,0l0.1,0l0.1-0.1l-0.7-0.1l-0.1-0.1l-0.2-0.2l0-0.1l0.1-0.1l0.3-0.1l-0.2-0.5L64.5,71l-0.2,0.3l-0.3,0
			L63.8,71l-0.1-0.1l-0.2,0L63.3,71l-0.1,0.2l0,0.2l0,0.2l-0.2,0l-0.5,0l-0.2-0.1l0-0.1l0-0.2l0-0.1l-0.1,0l-0.1,0l-0.2,0l-0.3,0
			l-0.1,0l-0.1-0.1l0-0.1l0-0.1l0-0.1l0-1l0-0.2l0-0.1l0.1-0.1l0-0.1l0-0.2l-0.2,0.2l-0.1,0.2l-0.2,0.2l-0.3,0l0.2,0.5l-0.1,0.1
			l-0.3,0l-0.3,0.2L60.4,70l-0.1-0.1l-0.1-0.1l0,0.4L60,70.6l-0.2,0.2l-0.3,0l-0.1,0l-0.1,0l-0.1,0l-0.1,0.1L59,70.7l-0.1,0l0-0.1
			l0-0.2L58.7,70L58,69.2L57.9,69l-0.1-0.3l-0.2-0.3l-0.3-0.2L57.1,68l0-0.7L57,67l-0.2-0.3l0.1-0.3l0.2-0.2l0-0.3l0.1-0.4l0.5-0.5
			l0.1-0.4l-0.2-0.1l-0.1-0.3l0-0.3l-0.1-0.3l0-0.2l0-0.1L57,63.1l0-0.3l0.2-0.3l0.1-0.4l0.1-0.4l0.2-0.3l0.1-0.3l0-0.4l0.1-0.4
			l0.2-0.2l0.2-0.2l0.2-0.4l0.1-0.1l0.1,0l0.3-0.1l0.5-0.3l0.1-0.3l0.4-0.4l0.1,0.3l0.2,0.1l0.1,0.1l0.1,0.1l0,0.1l0,0.1l0.1,0
			l0.1,0l0.3,0l0.1,0.1l0.2,0.1l0.3,0l0.3,0l0.3,0.1l0.2,0.2l0.1,0.3l0.2,0.2l0.1,0.1l0,0.1l0.2,0.1l0.1,0.2l0,0.3l-0.1,0.3l0.2,0.6
			l0.7,0l0.3,0l0.3,0.1l0.3,0.1l0.3,0.2l0.3,0.1l0.6-0.3l0.3,0.1l0.3-0.4l0.3-0.2l0.1,0.7l0.3,0.3l0.3,0.2l0.4,0l0.4-0.1l0.4,0.1
			l0.3,0.2l0.4,0l0.4-0.3l0.2-0.1l0.2,0l0.1-0.1l0.1-0.2l0.4-0.2l0.4,0.1l0.3,0.2l0.3-0.1l0,0.5l-0.3,0.5l0.2,0.3l0.7,0.1l0.3,0.2
			l0.5,0.5l0.6,0.3l0.2,0.2l0.1,0.4l0.2,0.2l0.3,0.1l0,0l-0.1,0.2l0,0.2l-0.1,0.1l-0.1,0.1l0.1,0.2l0,0.1L74.5,67l-0.2,0.4l-0.2,0.2
			l-0.1,0.2l0,0l0,0l0,0l0,0l0.1-0.3l0.2-0.2l0.2-0.4l0.1-0.2l0-0.1l-0.1-0.2l0.1-0.1l0.1-0.1l0-0.2l0.1-0.2l0,0l-0.3-0.1L74.2,66
			L74,66l-0.2,0.3l-0.3,0l-0.4,0.3l-0.2-0.1l-0.3,0l-0.3,0.1l-0.2,0.2L72,66.9l-0.3,0.6l-0.2,0.2L71,67.6L70.6,68z M61.7,72.5
			l0.1,0.2l0,0.1L61.7,73l0,0.2l0,0.3l0,0.2l-0.1,0.1l-0.1,0l0.1,0.3l0,0.1l-0.2,0L61.3,74l-0.2-0.1L60.9,74l-0.2,0l-0.1-0.3
			l-0.1-0.5l-0.2-0.1l-0.1,0.1l-0.1,0.2l0,0.3L60,73.9l-0.2,0l-0.2-0.1l-0.1-0.1l-0.1-0.1l0-0.1l0-0.1l0-0.2l-0.3-1l0-0.2l0-0.2
			l0.1-0.2l0.1-0.1l0.1,0l0.1,0l0.1-0.3l0.1-0.1l0.2-0.1l0.1-0.1l0.2,0.1l0.1,0.1l0.1,0.2l0,0.2l-0.1,0.2L60,71.8l0,0.1l0.1,0.2
			l0.1,0.1l0.1,0.1l0.2,0.1l0.1,0.2l0.2,0l0.3-0.1l0.3-0.1L61.7,72.5L61.7,72.5z M69.1,71.8l0,0.2l0,0.2L69,72.2l-0.1-0.1l0.1,0.2
			l0.1,0.3l0,0.2l-0.1,0l-0.2-0.1l-0.2-0.1l-0.1-0.1l0,0.2l0,0.1l-0.2,0.2l-0.1,0.2l0.1,0.1l0.2,0.1l0.1,0.1l-0.2,0.1L67.6,74
			l-0.2,0l0.4-0.3l-0.2-0.1l-0.1-0.1l0-0.2l0.1-0.2l-0.3,0.2l-0.1-0.1l0-0.2l0-0.2l0.1-0.1l0.3-0.1l0.1-0.1l0-0.2l0.1-0.2l-0.1-0.1
			l-0.1,0.1l-0.4,0.2l-0.2,0.1l-0.1-0.2l-0.2-0.2l-0.1-0.2l0-0.3l0.1-0.2l0.1-0.1l0.2-0.1l0.1-0.1l0.4-0.1l0.1,0l0.2,0.1l0.1,0.1
			l0.1,0.1l0.2,0v-0.1l-0.2-0.1l-0.1-0.2l-0.1-0.2l0-0.2l0.1,0l0.8-0.4L68.4,70l0.1-0.2l0.2-0.1l0.2,0.1l0,0.1l0,0.1l-0.1,0.5l0,0.1
			l0.1,0.2l0.1,0.1l0,0.1l0,0.2l0,0.2l-0.2,0.5l0.2-0.1l0.1-0.1l0,0L69.1,71.8z M61.8,72.1L61.8,72.1l0.1,0.1l-0.1,0l-0.5-0.1
			L61,72.2l-0.2,0l-0.2-0.1l-0.1-0.2l0.1-0.2l0.1-0.2l0.1-0.2l0.1-0.1l0.2,0l0.1,0.1l-0.1,0.2l0,0.1l0,0.1l0.1,0l0.1-0.1l0.1-0.2
			l0.1,0l0,0.1l0.1,0.1l0.1,0l0,0.2L61.8,72.1L61.8,72.1z M70.2,69.8l0,0.3L70,70.2l-0.1,0l0-0.1l-0.1-0.2l-0.1-0.1l0-0.1l0-0.1
			l0-0.1l-0.1-0.1l0-0.1l0.1-0.1l0.1,0l0.1,0l0.1,0.2L70.2,69.8z M64.2,74.9L64.2,74.9l0,0.1l-0.1,0.1l0,0l-0.1,0l-0.1,0l-0.1,0
			l-0.1,0.1l-0.1,0.1l-0.1,0l0,0l0-0.1l0-0.1l0,0l0,0l0,0l0-0.1l0-0.1l0-0.1l0,0l0.1,0l0.3,0.2l0,0.1l0,0L64.2,74.9z M65.2,72.5
			l0.1,0l0.2,0l0.2,0l0.1,0.1l0,0.2l-0.1,0.1l0,0.1l0,0.1l-0.1,0l0,0l0,0l0.1,0l0.1,0.1l0,0.1l-0.1,0.1l-0.2,0l-0.1-0.1l0-0.1
			l-0.1,0l0-0.1l0-0.1l-0.1,0l-0.1,0l0.1-0.1l0-0.1L65,72.5l-0.2-0.1l-0.1,0l-0.1,0l0-0.1l0.1-0.1l0.1,0l0.2,0.1L65.2,72.5
			L65.2,72.5z M63.6,72.3l0.2,0.2l0.1,0.1l0,0.1h-0.1l-0.1,0l0,0.1l0,0l-0.1,0l-0.1,0l-0.1-0.1l-0.1-0.1l0-0.1l0.1-0.1l0.1-0.1
			L63.6,72.3z"/>
		<path class="st9" d="M74,67.9L74,68l-0.2,0l-0.1,0l-0.2,0l-0.1,0l-0.1,0.1l-0.1,0l0,0.2l0.1,0.1l0,0.2l-0.1,0.2L73,68.9l-0.2-0.2
			l-0.1-0.1l-0.1-0.1l-0.3,0.3L72.2,69l0,0.3L72,69.3L72,69.2l-0.1-0.1l0,0.1l0,0.3l-0.1,0l0-0.1l0,0l-0.1,0.1l-0.1,0.1l-0.1-0.1
			l-0.1-0.3l0-0.3l0.1-0.3l0-0.2L71,69l-0.2,0l0-0.5L70.6,68l0.4-0.4l0.6,0.1l0.2-0.2l0.3-0.6l0.2-0.2l0.2-0.2l0.3-0.1l0.3,0
			l0.2,0.1l0.4-0.3l0.3,0L74,66l0.2,0l0.2-0.3l0.3,0.1l0,0l-0.1,0.2l0,0.2l-0.1,0.1l-0.1,0.1l0.1,0.2l0,0.1l-0.3,0.6l-0.2,0.2
			L74,67.9L74,67.9z"/>
		<path class="st10" d="M76.9,61.9L76.9,61.9l0.1,0.1l0,0.3l0,0.3l-0.1,0.5l-0.1,0.2l-0.2,0.2l-0.2,0.1l-0.1-0.2l-0.1-0.3L76.1,63
			l-0.2,0l-0.1,0.3l0.1,0l0.1,0.1l0,0.2l0,0.2l0,0.2L76,64l-0.1,0l-0.1,0.1l0,0.1l0,0.2l0,0.3l-0.1,0.2L75.7,65l0.1,0.1l0.1,0.1
			l0,0.2l-0.2,0.1l-0.2,0.1l-0.3,0.3l-0.3,0l0,0l0,0l-0.3-0.1l-0.2-0.2l-0.1-0.4l-0.2-0.2l-0.6-0.3l-0.5-0.5l-0.3-0.2l-0.7-0.1
			l-0.2-0.3l0.3-0.5l0-0.5l0.3-0.2l0.3-0.2l0.2,0l0.1-0.1l-0.1-0.2l-0.1-0.2l0.4-0.3l0.5-0.2l0.4-0.1l0.4,0.1l0.4,0.2l0.1,0.2l0,0.2
			l0,0.2l0.1,0.1l0.2,0l1-0.2L76.9,61.9L76.9,61.9z"/>
		<polygon class="st11" points="76.5,48.4 76.5,48.4 76.5,48.9 76.7,49.5 76.7,50.1 76.7,51.2 76.6,51.5 76.3,51.9 76.1,52.1 
			76.1,52.4 76,54 76.1,54.2 76.1,54.3 76.2,54.4 76.3,54.5 76.3,54.9 76.4,55.3 76.5,55.3 76.6,55.4 76.5,55.6 76.4,55.7 
			76.3,55.8 76.2,55.8 76,56 76,56.2 76.3,56.4 76.4,56.6 76.6,56.8 76.8,56.8 77.1,56.6 77.8,55.8 77.9,55.6 78.1,55.7 78.1,56 
			78.2,56.2 78.3,56.5 78.1,56.7 77.7,57.5 77.7,57.9 77.6,58.8 77.3,59.6 77.3,60.1 77,61 76.8,61.4 76.7,61.6 76.8,61.8 
			76.9,61.9 76.9,61.9 76,61.7 75,61.9 74.8,61.9 74.7,61.8 74.6,61.6 74.6,61.4 74.5,61.2 74.2,61.1 73.8,61 73.4,61 72.9,61.2 
			72.6,61.5 72.6,61.7 72.7,61.8 72.7,62 72.5,62 72.2,62.1 72,62.4 71.7,62.5 71.3,62.3 70.9,62.2 70.5,62.4 70.4,62.5 70.3,62.7 
			70.1,62.7 69.9,62.7 69.6,63 69.2,63 68.8,62.8 68.5,62.7 68.1,62.8 67.7,62.8 67.3,62.6 67.1,62.3 67,61.5 66.7,61.7 66.5,62.1 
			66.2,62.1 65.6,62.4 65.3,62.3 65,62.1 64.7,61.9 64.4,61.9 64.1,61.9 63.4,61.9 63.2,61.3 63.3,61 63.3,60.7 63.2,60.5 63,60.4 
			63,60.3 62.9,60.2 62.7,60 62.6,59.7 62.3,59.5 62.1,59.4 61.8,59.4 61.4,59.4 61.3,59.2 61.1,59.1 60.8,59.1 60.7,59.1 60.6,59 
			60.6,58.9 60.6,58.8 60.5,58.7 60.4,58.7 60.1,58.5 60.1,58.2 60.1,57.4 59.7,56.6 59.9,56.5 60.2,56.4 60.4,56.1 60.5,55.7 
			60.5,55.6 60.6,55.4 60.7,55.2 60.7,55 60.6,54.7 60.9,54.4 61.1,54.5 61.4,54.5 61.2,53.8 61,53.6 60.4,53.8 60.2,53.7 
			59.9,53.4 59.7,53.3 59.2,53.4 59.2,52.8 59.4,52.6 59.5,52.3 59.4,52 59.4,51.8 59.4,51.5 59.5,50.7 59.6,50.4 59.8,50.2 
			59.2,49.5 58.8,49.4 58.7,49.1 58.9,49 59,49 59.2,48.8 59.4,48.5 59.5,48.3 59.5,48.2 59.5,48.1 59.8,47.8 60.2,47.6 60.5,47.3 
			60.9,47.5 61.6,47.6 61.5,47.3 61.3,47 61.3,46.7 61.5,46.4 61.6,46.2 61.8,46.3 62,46.3 62.2,46.1 62.4,46 62.5,46.1 62.9,46.2 
			63.2,46.2 63.3,46 63.3,45.8 63.4,45.6 63.6,45.5 63.7,45.6 63.9,45.7 64.2,46 64.3,46.3 64.7,46.4 65.6,46 65.8,45.5 65.6,45.4 
			65.6,45.2 65.7,45 65.8,44.7 66.1,44.4 66.4,44.2 66.5,44 66.6,43.9 66.8,43.8 67,43.6 67.3,43.4 67.6,43.1 67.7,43.1 67.8,43.1 
			67.9,43 68.1,42.9 68.3,43 68.6,43.1 68.9,43.2 69.2,43.2 69.3,42.9 69.3,42.6 69.2,42.3 69.4,42 69.7,41.9 70,41.9 70.2,42.2 
			70.4,42.2 70.6,42.3 70.6,42.6 70.6,42.8 70.9,42.7 71.2,42.4 71.4,42.5 71.4,42.6 71.6,42.6 71.7,42.6 72.1,42.7 72.5,42.8 
			72.8,42.8 73.1,42.6 73.5,42.7 73.8,42.9 75.2,42.8 76.2,41.7 76.6,42.2 76.6,42.3 76.5,42.5 76.4,42.6 76.4,42.8 76.4,42.9 
			76.5,43.5 76.5,44.6 76.6,45.1 77,46.3 77,46.8 76.9,47.4 76.7,47.8 		"/>
		<path class="st12" d="M49.5,85.3l0.1,0.2l-0.1,0.1l-0.1,0l-0.1,0.1l0,0.1l0.1,0.1v0.1l0,0.1l-0.1,0.1l0,0l-0.2,0.2l-0.4,0.3
			l-0.1,0.2l-0.2,0.3l0,0.1l-0.1,0.2l-0.3,0L48,87.6l-0.3,0l-0.4,0.3l-1.1,0.2l-0.4,0.3l-0.5,0.1l-0.5,0l-0.6,0.1l-0.5-0.1l-1,0
			l-0.3,0.2l-0.2,0.3l-0.2,0L42,88.9l-0.2-0.4l-0.3-0.1L41.1,88L41,87.6l0.2-0.5l0.2-0.3l0.1-0.1l0.4-0.2l0.3-0.6l0.3-0.1l0.1-0.3
			l0.5-0.2l1.1-0.3l0.3-0.2l1.1-0.1l0.7-0.3l0.2,0l0.9-0.1l0.5,0l0.3,0.1l0.1,0.2l0.2,0.1l0.5,0.2l0.2,0.2l0.1,0.4l0.1,0.2l0.1-0.1
			L49.5,85.3L49.5,85.3z"/>
		<path class="st13" d="M51.4,35.6l0.3,0l0.3-0.1l0.2,0l0.1,0.2l0,0.2L52,36l-0.2,0.1l0,0.2l0.1,0.1l-0.2,0.3l-0.1,0.2l-0.3,0.2
			l-0.3,0.1l-0.3,0.2L50.6,37l-0.3,0.1l-0.3,0.1l-0.2,0.1l-0.2,0l-0.5,0l-0.3-0.4l-0.3-0.1l-0.2-0.1l-0.1-0.4L47.7,36l0.1-0.3
			l0.2-0.4l0.3,0l0.3,0.2l0.3-0.1l0.2-0.1l0-0.2l0.1-0.2l0.5,0l0.3-0.3l0.2-0.3l0.2-0.2l0.3-0.1l0.4,0l0.2,0.3l0.1,0.4l0.1,0.3
			l0,0.3L51.4,35.6z"/>
		<path class="st14" d="M52.9,44.8l0.5-0.1l0.5-0.2l0.4-0.1l0.1-0.4l0.2-0.2l0.3-0.1l0.1-0.2l0.1-0.2l0.2-0.2l0.2,0l0.1,0.1l0.3-0.2
			l0.5-1l0.1-0.1l0.1-0.1l0.1-0.1l0.1-0.1l0.1-0.1l0.1-0.1l1.1-0.3l1.2-0.2l-0.1,0.7l0.3-0.1l0.3,0l0.1,0.1l0.1,0l0.1-0.1l0.1-0.1
			l0.2-0.2l-0.1-0.7l0.2-0.3l0.6-0.2l0.4,0.4v0.3l0.1,0.2l0.4-0.1l0.4-0.2l0.2-0.2l0.3,0.1l0.2-0.1l0.3-0.2l0.6,0.2l0.6,0.1l0.2,0.1
			l-0.1,0.3l-0.3,0.2l-0.2,0.3l0.1,0.1l0.2,0.1l0.1,0l0.1,0l0.3-0.1l0.5-0.1l0.1,0.1l0,0.2l0.2,0.2l0.1,0.2l0.2,0l0.2,0l0.3-0.1
			l0.3,0l0.3,0.2l0.3,0.2l0.3,0.1l0.3,0l0.2,0.1l0.2,0.1L67.9,43l-0.1,0.1l-0.1-0.1l-0.1,0.1l-0.3,0.3L67,43.6l-0.2,0.2l-0.2,0.1
			L66.5,44l-0.1,0.2l-0.3,0.2l-0.2,0.3L65.7,45l-0.1,0.3l0.1,0.1l0.1,0.1L65.6,46l-0.9,0.4l-0.4-0.1L64.2,46l-0.3-0.2l-0.2-0.1
			l-0.1-0.2l-0.1,0.1l-0.1,0.2L63.3,46l-0.1,0.2l-0.3,0l-0.3-0.1L62.4,46l-0.2,0.1L62,46.3l-0.2,0l-0.2-0.1l-0.1,0.2l-0.1,0.3
			L61.3,47l0.2,0.3l0.2,0.3l-0.8-0.1l-0.4-0.2l-0.2,0.4l-0.4,0.2l-0.3,0.2l0,0.2l0,0.1l-0.1,0.1l-0.2,0.3L59,49l-0.2,0l-0.2,0.1
			l0.1,0.3l0.4,0.1l0.5,0.8l-0.2,0.2l-0.1,0.3l0,0.7l-0.1,0.3l0.1,0.2l0.1,0.2l-0.2,0.3l-0.2,0.2l0.1,0.6l0.4-0.1l0.3,0.1l0.3,0.3
			l0.2,0.1l0.6-0.1l0.2,0.2l0.1,0.7l-0.2,0l-0.3,0l-0.3,0.2l0.1,0.4l0,0.2l0,0.2l-0.1,0.1l-0.1,0.2l-0.1,0.3l-0.2,0.3l-0.3,0.1
			l-0.3,0.1l-0.1,0.1l-0.1,0.1l-0.2-0.1l-0.2-0.2l-0.4,0.2L58.3,57L58.1,57L58,56.9l-0.5-0.2l-0.2-0.2l-0.2-0.1l-0.1,0.1l-0.1,0
			l-0.1-0.1l-0.1-0.1l-0.2-0.4l-0.2-0.4l-0.1-0.5l0-0.5l-0.1-0.4L55.8,54l-0.3-0.1L55.2,54l0-0.4l0-0.4l0.1-0.5l0.2-0.4l0.1-0.2
			l0.1-0.2l0.2-0.1l0-0.2l-0.1,0l-0.2-0.1l-0.2,0.1l-0.1,0.2l-0.1-0.4l0-0.2L55.1,51l0-0.2l-0.2,0L54.8,51l-0.4,0.1L54.2,51l0-0.2
			l-0.1-0.2l-0.1,0L54,50.4l0-0.1l0-0.1l0.1-0.3l0-0.2l0.2-1.1l-0.3-0.4l0-0.5l-0.5-0.6l0.1-0.1l0.1,0l0.1,0l0.1-0.1l0-0.1l0-0.1
			l0.1-0.1l0-0.2l0-0.2l-0.1-0.1L53.6,46l0-0.3l-0.1-0.1l-0.2-0.4l-0.1-0.1L53,45L52.9,44.8z"/>
		<path class="st15" d="M49.9,66.9l0.2,0.6l-0.4,0.6L49.1,68l-0.6,0.4l-0.4-0.2l0.1-0.2l-0.3-0.3L47.7,67l0.4-0.6h0.3l0.3,0.4
			l0.3-0.1l0.3-0.1L49.9,66.9z"/>
		<path class="st16" d="M70.1,58.7L70.1,58.7l-0.2,0l0,0.1l0,0.1l-0.1,0.3l0,0.1l0,0.1l0.1,0.9l-0.7,0.4l-0.6-1.3l-0.2,0.1l0.1,0.3
			l0.1,0.6l-0.6,1.1h-0.7l-0.5-0.4l0-0.5l0.7-0.2L67,60l0.6-0.1l0.1-0.2l-0.2-0.5L67.3,59l-0.1-0.2l0.2-0.2l0.2,0l0.2,0l0-0.1l0-0.1
			l-0.1,0l-0.1,0l0.1-0.3l0.2-0.2l-0.1-0.6l0.5-0.4l0.7-0.1l0.6,0l0.4,0.3l0.1,0.2l0,0.1l-0.1,0.1l0,0.3l0.1,0.1l0.1,0.1l0,0.2
			l0,0.2l-0.1,0.2L70.1,58.7z"/>
		<polygon class="st17" points="53.7,50.2 53.5,50.8 53.1,51.5 53.3,51.9 52.6,52.7 53.4,53.6 54.1,53.4 54.1,52.7 54.5,52.8 
			54.6,53.1 54.7,53 55.3,52.7 55.5,52.3 55.6,52 55.8,51.8 55.9,51.7 56,51.5 55.8,51.4 55.7,51.3 55.5,51.5 55.4,51.7 55.2,51.3 
			55.2,51.1 55.1,51 55.1,50.8 55,50.8 54.8,51 54.5,51.1 54.2,51 54.2,50.7 54.1,50.6 54,50.5 54,50.5 53.9,50.4 53.9,50.3 
			53.9,50.3 53.9,50.3 		"/>
		<polygon class="st18" points="54.1,48.6 53.8,48.2 53.8,47.8 53.3,47.1 52.6,46.6 52.2,46.9 52.4,47.5 52.8,48 52.6,48.4 
			52.6,48.7 52.4,49.1 52.8,49.4 53.1,49.5 53.2,49.9 53.7,50.2 53.9,50.2 54,49.9 53.9,49.7 		"/>
		<polygon class="st11" points="80.1,41.4 80.3,41.5 80.3,41.9 80.2,42.3 80.1,42.5 79.8,42.6 79.6,42.6 79.3,42.4 79.1,42.2 
			79,41.9 79.1,41.7 79.3,41.6 79.7,41.5 80,41.4 		"/>
		<polygon class="st11" points="82.9,44.7 83,44.8 83,44.9 83,45.1 82.9,45.2 82.8,45.2 82.7,45.2 82.6,45.1 82.5,45.1 82.5,44.9 
			82.5,44.8 82.6,44.8 82.8,44.8 82.9,44.7 		"/>
		<polygon class="st11" points="83.3,45 83.4,45 83.5,45.1 83.4,45.2 83.3,45.3 83.3,45.4 83.2,45.3 83.2,45.1 83.2,45 		"/>
	</g>
	<g>
		<path class="st19" d="M45.2,51.9l-0.6,3.2h-8.4l-3,16.1h-5.5l3-16.1h-8.2l0.6-3.2H45.2z"/>
		<path class="st19" d="M70,51.9L52.8,68h12.8L65,71.2H42.5l17.2-16.1H47.2l0.6-3.2H70z"/>
		<path class="st19" d="M89,51.9l-0.6,3.2H77.8L77,59.7h9.3l-0.6,3.2h-9.3l-1,5.1h13.4l-0.6,3.2H69.3L73,51.9H89z"/>
	</g>
	<g>
		<path class="st20" d="M38.6,42c0,1.3-0.4,2.5-1.1,3.6s-1.7,1.9-2.9,2.5c-0.7,0.3-1.4,0.6-2.2,0.7c-0.8,0.1-1.7,0.2-2.8,0.2h-4.5
			L28,37.6h4.1c1.2,0,2.2,0.1,2.9,0.3c0.7,0.2,1.3,0.4,1.8,0.7c0.6,0.4,1.1,0.9,1.4,1.5C38.4,40.5,38.6,41.2,38.6,42z M35.2,42.3
			c0-0.5-0.1-1-0.3-1.3c-0.2-0.4-0.5-0.7-1-0.9c-0.2-0.1-0.4-0.2-0.6-0.2c-0.2-0.1-0.4-0.1-0.7-0.1c-0.3,0-0.6,0-0.9,0
			c-0.3,0-0.6,0-0.9,0h-0.1l-1.8,7.2h0.3c0.3,0,0.7,0,1,0c0.4,0,0.7,0,0.9,0c0.3,0,0.6-0.1,0.8-0.1c0.2-0.1,0.5-0.2,0.8-0.3
			c0.8-0.4,1.4-0.9,1.9-1.7C35,44,35.2,43.2,35.2,42.3z"/>
		<path class="st20" d="M44,49.2c-1.1,0-2-0.1-2.9-0.3c-0.8-0.2-1.6-0.4-2.2-0.6l0.6-2.7H40c0.6,0.5,1.3,0.9,2,1.1
			c0.8,0.3,1.6,0.4,2.5,0.4c0.9,0,1.6-0.1,2-0.3c0.4-0.2,0.6-0.6,0.6-1c0-0.2,0-0.3-0.1-0.4c-0.1-0.1-0.2-0.2-0.4-0.3
			c-0.2-0.1-0.5-0.2-0.8-0.3c-0.4-0.1-0.8-0.2-1.4-0.4c-0.6-0.2-1.2-0.3-1.6-0.5c-0.5-0.2-0.9-0.4-1.2-0.6c-0.3-0.2-0.6-0.5-0.8-0.9
			c-0.2-0.3-0.3-0.7-0.3-1.2c0-1.1,0.6-2.1,1.7-2.7c1.1-0.7,2.6-1,4.5-1c0.9,0,1.8,0.1,2.6,0.2c0.8,0.1,1.5,0.3,2.1,0.6l-0.6,2.6
			h-0.3c-0.4-0.4-1-0.7-1.7-0.9c-0.7-0.2-1.5-0.4-2.3-0.4c-0.8,0-1.5,0.1-1.9,0.3c-0.5,0.2-0.7,0.5-0.7,0.9c0,0.2,0,0.3,0.1,0.4
			c0.1,0.1,0.2,0.2,0.4,0.3c0.2,0.1,0.5,0.2,0.9,0.3c0.4,0.1,0.8,0.2,1.4,0.4c1.4,0.3,2.4,0.7,3,1.2c0.6,0.5,0.9,1.1,0.9,1.9
			c0,0.7-0.2,1.2-0.5,1.7s-0.8,0.9-1.3,1.2c-0.6,0.3-1.3,0.6-2,0.7S45,49.2,44,49.2z"/>
		<path class="st20" d="M62.6,49H52.5l0.6-2.4h3.2l1.8-7.3H55l0.6-2.2c0.5,0,0.9,0,1.4-0.1c0.5-0.1,0.9-0.1,1.2-0.3
			c0.4-0.1,0.7-0.3,0.9-0.6c0.3-0.2,0.4-0.6,0.6-0.9H63l-2.9,11.4h3.1L62.6,49z"/>
	</g>
	<g>
		<path class="st0" d="M33.6,75.9v-0.7h1.9v0.9h-0.2L33.6,75.9z M35.5,83.2v0.9h-1.9v-0.7l1.7-0.2H35.5z M34.5,79.4
			c0-1.4,0-2.8,0-4.2h2c0,1.4,0,2.8,0,4.2v0.5c0,1.5,0,2.9,0,4.3h-2c0-1.4,0-2.8,0-4.3V79.4z M35.5,83.4h1.4c1.3,0,2.2-1.3,2.2-3.7
			c0-2.4-0.8-3.7-2.2-3.7h-1.4v-0.8h1.6c2.5,0,4,1.7,4,4.5c0,2.9-1.6,4.5-4.2,4.5h-1.4V83.4z"/>
		<path class="st0" d="M45.8,82.3c0-0.7-0.3-1-1-1.4l-0.5-0.3c-1.4-0.7-2.2-1.5-2.2-3.1c0-1.6,1.1-2.6,2.9-2.6
			c0.8,0,1.6,0.3,2.2,0.7l-0.1,1.9H46l-0.3-2.1l0.9,0.4v0.7c-0.6-0.5-1.1-0.8-1.7-0.8c-0.7,0-1.2,0.5-1.2,1.2c0,0.7,0.4,1.1,1.1,1.5
			l0.6,0.3c1.5,0.8,2.1,1.5,2.1,2.9c0,1.6-1.1,2.8-3.1,2.8c-0.9,0-1.9-0.2-2.5-0.7l0.1-2h1.1l0.3,2.2l-0.9-0.3v-0.7
			c0.7,0.5,1.2,0.7,2,0.7C45.3,83.6,45.8,83,45.8,82.3z"/>
		<path class="st0" d="M56,79.7c0,3.1-1.8,4.7-3.7,4.7c-1.9,0-3.7-1.6-3.7-4.7c0-3.1,1.8-4.7,3.7-4.7C54.2,74.9,56,76.5,56,79.7z
			 M49.4,84.6L48.7,84l6.4-9.3l0.7,0.6L49.4,84.6z M52.3,83.6c1.2,0,1.6-1.7,1.6-3.9c0-2.3-0.5-4-1.6-4c-1.2,0-1.6,1.7-1.6,4
			C50.7,81.9,51.1,83.6,52.3,83.6z"/>
		<path class="st0" d="M56.7,75.9v-0.7h3.7v0.7l-1.7,0.2h-0.3L56.7,75.9z M58.7,83.2l1.5,0.2v0.7h-3.6v-0.7l1.7-0.2H58.7z
			 M57.6,79.4c0-1.4,0-2.8,0-4.2h2c0,1.4,0,2.8,0,4.2V80c0,1.3,0,2.7,0,4.1h-2c0-1.4,0-2.8,0-4.2V79.4z M58.6,81.1l4.1-6h0.9l-5,6.9
			V81.1z M61.2,77.9l2.9,6.3h-2.1L60,79.6L61.2,77.9z M61,83.4l1.6-0.2h0.3l1.5,0.2v0.7H61V83.4z M61.3,75.9v-0.7H64v0.7l-1.4,0.2
			l-0.3,0L61.3,75.9z"/>
		<path class="st0" d="M64.9,75.9v-0.7h1.9v0.9h-0.2L64.9,75.9z M66.8,83.2v0.9h-1.9v-0.7l1.7-0.2H66.8z M65.8,79.4
			c0-1.4,0-2.8,0-4.2h2c0,1.4,0,2.8,0,4.2v0.5c0,1.5,0,2.9,0,4.3h-2c0-1.4,0-2.8,0-4.3V79.4z M66.8,83.4h1.4c1.3,0,2.2-1.3,2.2-3.7
			c0-2.4-0.8-3.7-2.2-3.7h-1.4v-0.8h1.6c2.5,0,4,1.7,4,4.5c0,2.9-1.6,4.5-4.2,4.5h-1.4V83.4z"/>
		<path class="st0" d="M73,83.4l1.2-0.2h0.3l1.5,0.2v0.7H73V83.4z M73.6,75.7l0.7,0.4L73,75.9v-0.7h2.6l4.2,6.7v2.3h-1L73.6,75.7z
			 M74,75.2l0.8,0.7v8.2H74V75.2z M77.8,75.2h3.1v0.7l-1.2,0.2h-0.3l-1.6-0.2V75.2z M79.1,75.2h0.8v9l-0.8-0.9V75.2z"/>
	</g>
	<g>
		<path d="M33.6,75.9v-0.7h1.9v0.9h-0.2L33.6,75.9z M35.5,83.2v0.9h-1.9v-0.7l1.7-0.2H35.5z M34.5,79.4c0-1.4,0-2.8,0-4.2h2
			c0,1.4,0,2.8,0,4.2v0.5c0,1.5,0,2.9,0,4.3h-2c0-1.4,0-2.8,0-4.3V79.4z M35.5,83.4h1.4c1.3,0,2.2-1.3,2.2-3.7
			c0-2.4-0.8-3.7-2.2-3.7h-1.4v-0.8h1.6c2.5,0,4,1.7,4,4.5c0,2.9-1.6,4.5-4.2,4.5h-1.4V83.4z"/>
		<path d="M45.8,82.3c0-0.7-0.3-1-1-1.4l-0.5-0.3c-1.4-0.7-2.2-1.5-2.2-3.1c0-1.6,1.1-2.6,2.9-2.6c0.8,0,1.6,0.3,2.2,0.7l-0.1,1.9
			H46l-0.3-2.1l0.9,0.4v0.7c-0.6-0.5-1.1-0.8-1.7-0.8c-0.7,0-1.2,0.5-1.2,1.2c0,0.7,0.4,1.1,1.1,1.5l0.6,0.3
			c1.5,0.8,2.1,1.5,2.1,2.9c0,1.6-1.1,2.8-3.1,2.8c-0.9,0-1.9-0.2-2.5-0.7l0.1-2h1.1l0.3,2.2l-0.9-0.3v-0.7c0.7,0.5,1.2,0.7,2,0.7
			C45.3,83.6,45.8,83,45.8,82.3z"/>
		<path d="M56,79.7c0,3.1-1.8,4.7-3.7,4.7c-1.9,0-3.7-1.6-3.7-4.7c0-3.1,1.8-4.7,3.7-4.7C54.2,74.9,56,76.5,56,79.7z M49.4,84.6
			L48.7,84l6.4-9.3l0.7,0.6L49.4,84.6z M52.3,83.6c1.2,0,1.6-1.7,1.6-3.9c0-2.3-0.5-4-1.6-4c-1.2,0-1.6,1.7-1.6,4
			C50.7,81.9,51.1,83.6,52.3,83.6z"/>
		<path d="M56.7,75.9v-0.7h3.7v0.7l-1.7,0.2h-0.3L56.7,75.9z M58.7,83.2l1.5,0.2v0.7h-3.6v-0.7l1.7-0.2H58.7z M57.6,79.4
			c0-1.4,0-2.8,0-4.2h2c0,1.4,0,2.8,0,4.2V80c0,1.3,0,2.7,0,4.1h-2c0-1.4,0-2.8,0-4.2V79.4z M58.6,81.1l4.1-6h0.9l-5,6.9V81.1z
			 M61.2,77.9l2.9,6.3h-2.1L60,79.6L61.2,77.9z M61,83.4l1.6-0.2h0.3l1.5,0.2v0.7H61V83.4z M61.3,75.9v-0.7H64v0.7l-1.4,0.2l-0.3,0
			L61.3,75.9z"/>
		<path d="M64.9,75.9v-0.7h1.9v0.9h-0.2L64.9,75.9z M66.8,83.2v0.9h-1.9v-0.7l1.7-0.2H66.8z M65.8,79.4c0-1.4,0-2.8,0-4.2h2
			c0,1.4,0,2.8,0,4.2v0.5c0,1.5,0,2.9,0,4.3h-2c0-1.4,0-2.8,0-4.3V79.4z M66.8,83.4h1.4c1.3,0,2.2-1.3,2.2-3.7
			c0-2.4-0.8-3.7-2.2-3.7h-1.4v-0.8h1.6c2.5,0,4,1.7,4,4.5c0,2.9-1.6,4.5-4.2,4.5h-1.4V83.4z"/>
		<path d="M73,83.4l1.2-0.2h0.3l1.5,0.2v0.7H73V83.4z M73.6,75.7l0.7,0.4L73,75.9v-0.7h2.6l4.2,6.7v2.3h-1L73.6,75.7z M74,75.2
			l0.8,0.7v8.2H74V75.2z M77.8,75.2h3.1v0.7l-1.2,0.2h-0.3l-1.6-0.2V75.2z M79.1,75.2h0.8v9l-0.8-0.9V75.2z"/>
	</g>
</g>
</svg>
