<?xml version="1.0" encoding="utf-8"?>
<!-- Generator: Adobe Illustrator 25.0.0, SVG Export Plug-In . SVG Version: 6.00 Build 0)  -->
<svg version="1.1" id="레이어_1" xmlns="http://www.w3.org/2000/svg" xmlns:xlink="http://www.w3.org/1999/xlink" x="0px"
	 y="0px" width="71px" height="71px" viewBox="0 0 71 71" style="enable-background:new 0 0 71 71;" xml:space="preserve">
<style type="text/css">
	.st0{fill:#88BB3A;}
	.st1{fill:#C7D338;}
	.st2{fill:#5EB994;}
	.st3{fill:#AEC382;}
	.st4{fill:#E8BE37;}
	.st5{fill:#EB9D64;}
	.st6{fill:#E79196;}
	.st7{fill:#D06C7E;}
	.st8{fill:#4774B9;}
	.st9{fill:#4495B3;}
	.st10{fill:#BE8DB8;}
	.st11{fill:#B4BD31;}
	.st12{fill:#89C394;}
	.st13{fill:#D18B51;}
	.st14{fill:#126A7A;}
	.st15{fill:#449B77;}
	.st16{fill:#31825F;}
	.st17{stroke:#FFFFFF;stroke-width:0.75;stroke-miterlimit:10;}
	.st18{fill:#FFFFFF;stroke:#000000;stroke-width:0.75;stroke-miterlimit:10;}
	.st19{fill:#FFFFFF;stroke:#FFFFFF;stroke-width:0.75;stroke-miterlimit:10;}
</style>
<g>
	<path class="st0" d="M43.268,1.879l0.305,0.604l0.477,0.943l0.095,0.413l0.243,0.626l0.903,1.785l0.704,1.871l0.115,0.203
		l0.367,0.454l0.141,0.381l1.704,2.437l0.661,0.963l0.792,0.878l0.112,0.092l0.531,0.624l0.027,0.263l0.002,0.317l0.063,0.269
		l0.362,0.201l0.105,0.216l0.299,0.972l0.133,0.225l0.16,0.096l0.134,0.139l0.465,0.914l0.28,0.351l0.097,0.193l0.037,0.205
		l0.071,0.199l0.493,0.543l0.157,0.445l0.14,0.971l0.192,0.534l0.524,0.73l0.04,0.153l-0.06,0.148l-0.095,0.141l-0.06,0.138
		l-0.004,0.124l0.074,0.4l0.09,1.141l0.095,0.527l0.339,1.075l0.027,0.526L54.5,26.794l-0.23,0.441l-0.187,0.523l0.187-0.523
		l0.23-0.441l0.106-0.486l-0.027-0.526l-0.339-1.075l-0.095-0.527l-0.09-1.141l-0.074-0.4l0.004-0.124l0.06-0.138l0.095-0.141
		l0.06-0.148l-0.04-0.153l-0.323-0.45l-0.954,1.068l-1.284,0.062l-0.319-0.192l-0.35-0.082l-0.278,0.147l-0.267,0.068l-0.377-0.173
		l-0.401-0.067l-0.135,0.055l-0.112-0.014l-0.087-0.116l-0.125-0.052l-0.291,0.226l-0.306,0.12l-0.023-0.224l0.025-0.222
		l-0.178-0.088l-0.198-0.045l-0.144-0.252l-0.279-0.022l-0.278,0.13l-0.186,0.227l0.068,0.315l-0.033,0.294l-0.06,0.273
		l-0.261-0.024L46.7,22.831l-0.253-0.106l-0.262-0.139l-0.205-0.132l-0.207-0.09l-0.26-0.03l-0.266-0.053l-0.269-0.175l-0.243-0.184
		l-0.244,0.002l-0.246,0.079l-0.22,0.039l-0.186,0.014l-0.074-0.168l-0.203-0.211l0.018-0.183l-0.101-0.112l-0.487,0.056
		l-0.311,0.104l-0.093,0.044l-0.091-0.002l-0.145-0.08l-0.112-0.126l0.175-0.272l0.295-0.21l0.118-0.27l-0.184-0.055l-0.583-0.092
		l-0.571-0.203l-0.237,0.183l-0.202,0.106l-0.244-0.051l-0.205,0.158l-0.338,0.188l-0.339,0.082l-0.127-0.178v-0.275l-0.389-0.412
		l-0.521,0.176l-0.193,0.237l0.056,0.623l-0.207,0.142l-0.069,0.084l-0.079,0.069l-0.088-0.041l-0.087-0.054l-0.313-0.022
		l-0.311,0.073l0.088-0.618l-1.087,0.149l-1.08,0.296l0.555-1.027l0.454-1.116l0.63-1.344l0.078-0.289l-0.059-0.289l0.134-0.234
		l0.189-0.23l0.203-0.084l0.107-0.229l-0.116-0.198l-0.152-0.13l-0.243-0.027l-0.249-0.095l-0.344-0.046l-0.575-0.318l-0.259-0.106
		l-0.257-0.169l-0.282-0.044l-0.274,0.087l-0.227-0.192l0.018-0.209l0.108-0.219l0.042-0.254l0.003-0.262l-0.271,0.087l-0.122-0.157
		l0.298-0.35l-0.05-0.233l-0.082-0.232l0.059-0.176l-0.003-0.21l-0.02-0.199l0.519-0.383l0.21-0.068l0.117-0.18l0.053-0.525
		l-0.242-0.371l-0.199-0.04l-0.189-0.087l-0.143-0.383l-0.226-0.011l-0.242,0.016l-0.264-0.193l-0.126-0.343l-0.052-0.61
		l-0.098-0.307l-0.069-0.059l-0.08,0.013l-0.054,0.052l-0.068,0.01l-0.174-0.123l-0.427,0.151l-0.392-0.095l-0.159-0.096
		l-0.162-0.146l-0.005-0.245l0.079-0.231l0.058-0.088l0.041-0.084l-0.068-0.057l-0.087-0.021l-0.082,0.017l-0.072,0.056
		l-0.135,0.176l-0.151,0.153l-0.232,0.04l-0.205-0.139L31.45,8.37l-0.016-0.128L31.36,8.196l-0.078,0.083L31.255,8.41l-0.002,0.427
		L31.12,9.046l-0.375-0.178l-0.343-0.31l-0.12-0.127l-0.127,0.016l-0.113-0.164L29.97,8.069l-0.093-0.112l-0.111-0.089l-0.086-0.204
		l-0.152-0.097l-0.36-0.229l-0.203-0.099l0.06-0.076L29.586,6.7l0.651-0.408l0.685-0.278l0.659-0.071l0.325,0.035l1.261-0.11
		l0.97,0.294l0.308-0.028l0.601-0.182l1.972-0.173l0.084,0.057l0.131,0.189l0.126,0.127L37.5,6.187l0.676-0.142l1.073,0.063
		l0.696-0.055l0.702-0.25l0.653-0.422l0.544-0.571l0.237-0.339l0.198-0.362l0.133-0.402l0.044-0.463l-0.087-0.446L42.347,2.57
		l0.064-0.169L42.69,2.18L43.268,1.879z"/>
	<path class="st1" d="M25.913,12.231l-0.071-1.112l0.054-0.308l0.123-0.09l0.189-0.021l0.264-0.1l0.407-0.325l0.873-1.335
		l0.179-0.182l0.394-0.306l0.169-0.195l0.208-0.514l0.139-0.344l0.126-0.161l0.203,0.099l0.36,0.229l0.152,0.097l0.086,0.204
		l0.111,0.089l0.093,0.112l0.071,0.214l0.113,0.164l0.127-0.016l0.12,0.127l0.343,0.31l0.375,0.178l0.133-0.208l0.002-0.427
		l0.026-0.132l0.078-0.083l0.074,0.045L31.45,8.37l0.038,0.127l0.205,0.139l0.232-0.04l0.151-0.153l0.135-0.176l0.072-0.056
		l0.082-0.017l0.087,0.021l0.068,0.057l-0.041,0.084l-0.058,0.088l-0.079,0.231l0.005,0.245l0.162,0.146l0.159,0.096l0.392,0.095
		l0.427-0.151l0.174,0.123l0.068-0.01l0.054-0.052l0.08-0.013l0.069,0.059l0.098,0.307l0.052,0.61l0.126,0.343l0.264,0.193
		l0.242-0.016l0.226,0.011l0.143,0.383l0.189,0.087l0.199,0.04l0.242,0.371l-0.053,0.525l-0.117,0.18l-0.21,0.068l-0.519,0.383
		l0.02,0.199l0.003,0.21l-0.059,0.176l0.082,0.232l0.05,0.233l-0.298,0.35l0.122,0.157l0.271-0.087l-0.003,0.262l-0.042,0.254
		l-0.108,0.219l-0.018,0.209l0.227,0.192l0.274-0.087l0.282,0.044l0.257,0.169l0.259,0.106l0.575,0.318l0.344,0.046l0.249,0.095
		l0.243,0.027l0.152,0.13l0.116,0.198l-0.107,0.229l-0.203,0.084l-0.189,0.23l-0.134,0.234l0.059,0.289l-0.078,0.289l-0.63,1.344
		l-0.454,1.116l-0.555,1.027l-0.072,0.136l-0.082,0.124l-0.082,0.058l-0.079,0.064l-0.059,0.1l-0.05,0.109l-0.488,0.908
		l-0.257,0.179l-0.058-0.077l-0.2-0.042l-0.158,0.168l-0.085,0.212l-0.124,0.16l-0.262,0.113l-0.167,0.181l-0.092,0.376l-0.34,0.114
		l-0.434,0.209l-0.459,0.135l-0.483-0.065l-0.395-0.332l-0.442-0.201l-0.85,0.363l-0.4,0l-0.477-0.098l-0.003-0.001l0.131-0.1
		l0.154-0.073l0.111-0.125l0.07-0.31l-0.02-0.055l-0.095-0.1l-0.018-0.027l0.055-0.051l0.055-0.007l0.052,0.002l0.142-0.079
		l0.091-0.014l0.067-0.045l0.027-0.148l-0.612,0.172l-0.092,0.131l0.032,0.395l-0.074,0.089l-0.238,0.078L28.42,23.77l-0.402-0.234
		l-0.363-0.357l-0.138-0.342l0.612-0.067v-0.08l-0.042-0.02l-0.097-0.074l0.115-0.015l0.109,0.006l0.1,0.034l0.088,0.069
		l-0.043-0.244l-0.14-0.217l-0.102-0.249l0.075-0.337l-0.116-0.052l-0.089,0.118l-0.055,0.204l-0.018,0.206l-0.047,0.223
		l-0.097,0.052l-0.097-0.097l-0.196,0.041l-0.197,0.05l-0.471-0.142l0.003-0.145l-0.044-0.127l0.037-0.172l-0.02-0.219l0.119-0.217
		l0.141-0.194l0.163-0.078l0.174-0.067l0.259-0.004l0.276-0.075l0.057-0.085l0.016-0.237l-0.063-0.046l-0.142,0.078l-0.212,0.184
		l-0.132-0.027l-0.097-0.057l-0.052-0.101l0.001-0.156l-0.243,0.124l-0.197,0.141l-0.364,0.395l-0.094,0.075l-0.118,0.042
		l-0.11-0.004l-0.067-0.066l0.004-0.118l0.062-0.115l0.151-0.213l-0.298,0.069l-0.095-0.03l-0.032-0.175l0.055-0.13l0.125-0.074
		l0.142-0.048l0.103-0.058l0.124-0.17l-0.032-0.044l-0.274,0.038l-0.091-0.056l-0.072-0.138l-0.068-0.172l-0.082-0.16l0.046-0.013
		l0.029-0.02l0.065-0.062l0.075,0.057l0.113-0.006l0.199-0.051l0.162,0.045l0.136,0.084l0.134,0.043l0.157-0.077l-0.012,0.143
		l0.012,0.139l0.05,0.107l0.097,0.049l0.107-0.042l0.05-0.121l0.051-0.275l0.172-0.258l0.141,0.02l0.16,0.097l0.225-0.033
		l-0.048-0.105l-0.062-0.078l-0.079-0.052l-0.096-0.028l-0.142,0.005l-0.065-0.098l-0.153-0.028l-0.123,0.039L27.1,19.089
		l-0.194-0.038l-0.32-0.101l-0.445-0.338l-0.024-0.148l0.198-0.288l0.135-0.136l0.322-0.094l0.076-0.056l0.134-0.099l0.146-0.282
		l0.096-0.317l-0.097-0.159l-0.165-0.108l-0.11-0.252l0.351-0.878l-0.429-0.288l-1.079-0.497l-0.032,0.401l-0.403,0.414l-0.05-0.113
		l-0.08-0.19l-0.091-0.15l-0.105-0.181l-0.117-0.114l-0.002-0.174l-0.042-0.26l-0.11-0.406l-0.147-1.061l0.04-0.174l0.136-0.025
		l0.563,0.202l0.18-0.039l0.15-0.07l0.133-0.026l0.136,0.091l0.051,0.152l0.02,0.238l-0.015,0.244l-0.056,0.167l-0.004,0.302
		l0.314,0.263l0.398,0.167l0.247,0.015l-0.192-0.199l-0.589-0.425l0.171-0.458l0.051-0.274l-0.043-0.193l-0.097-0.202l-0.008-0.111
		l-0.012-0.148l0.047-0.259l0.107-0.207l-0.077-0.096l-0.101,0.014L25.913,12.231z M30.498,15.807l0.094-0.365l-0.006-0.315
		l-0.107-0.287l-0.068-0.41l-0.175-0.302l-0.368-0.03l-0.319,0.076l-0.204,0.218l-0.144,0.304l-0.236,0.3l-0.459,0.044l-0.059,0.204
		l-0.017,0.222L28.214,15.6l-0.243,0.083l-0.328-0.2l-0.286-0.018l-0.153,0.329l-0.13,0.325l0.575,0.26l0.054,0.369l0.204,0.134
		l0.296,0.089l0.3,0.394l0.439,0.015l0.187-0.031l0.18-0.103l0.254-0.079l0.256-0.059l0.117,0.269l0.3-0.151l0.292-0.068
		l0.265-0.157l0.097-0.168l0.175-0.239l-0.082-0.092l-0.003-0.233l0.155-0.103l0.143-0.072l0.027-0.192l-0.078-0.187l-0.208,0.003
		l-0.24,0.087L30.498,15.807z"/>
	<path class="st2" d="M23.233,29.764l0.077,0.235l0.138,0.213l0.058,0.198l-0.097-0.045l-0.454,0.026l-0.147-0.024l-0.028-0.19
		l0.049-0.068l0.079-0.072l0.042-0.112l-0.244,0.154l-0.114-0.055l0.032-0.19l0.185-0.256l-0.07-0.079l-0.14,0.165l-0.047-0.114
		l-0.107,0.057l0.056-0.305l-0.039-0.465l-0.047-0.281l-0.106-0.355l0.088-0.116l0.181-0.168l0.195-0.066l0.136,0.218l0.018,0.078
		l-0.044,0.093l-0.078,0.062l0.009,0.087l0.172,0.39l0.027,0.124l-0.045,0.103l0.053,0.091l0.116,0.069l0.091,0.158h-0.215v0.079
		l0.07,0.014l0.145,0.081l-0.011,0.08l-0.01,0.063L23.233,29.764z M27.391,34.974l-0.21,0.065l-0.206,0.142l-0.173,0.166
		l-0.191,0.092l-0.228,0.039l-0.214,0.094l-0.156-0.076l-0.052-0.088l-0.017-0.116l-0.053-0.159l-0.085-0.137l-0.172-0.227
		l-0.092-0.154l0.142-0.115l-0.067-0.079l-0.14-0.059l-0.128-0.043l-0.234-0.402l-0.18-0.078l-0.136,0.079l-0.064-0.001L24.73,33.78
		l-0.231-0.148l-0.2,0.031l-0.062,0.238l-0.034,0.082l-0.07-0.064l0.041-0.369l0.347-0.176l0.307-0.097l0.429,0.124l-0.151-0.25
		l-0.086-0.098l-0.114-0.083l-0.068-0.016L24.756,33l-0.058-0.032l-0.077-0.083l-0.063-0.09l0.215-0.59l0.123-0.26l0.15-0.099
		l-0.113-0.139l-0.434-0.133l-0.156-0.083l0.154-0.142l0.455-0.11l0.095-0.132l-0.066-0.168l-0.161-0.042l-0.337-0.002l-0.07-0.049
		l-0.121-0.147l-0.082-0.073V30.54h0.133l-0.153-0.284l0.185-0.103l0.211-0.064l0.197-0.287l0.421-0.117l0.199-0.106h-0.597
		l-0.144,0.082l-0.22,0.328l-0.162,0.031l-0.102-0.123l-0.093-0.234l-0.059-0.241l0.007-0.142l0.213-0.25l0.099-0.154l-0.032-0.069
		l-0.196,0.071l-0.089-0.083l-0.08-0.053l-0.048-0.01l-0.047-0.117l0.045-0.106l-0.009-0.117l-0.051-0.218l-0.062-0.093
		l-0.004-0.053l0.141-0.009l0.204-0.095l0.213,0.007l0.016-0.155l0.061-0.137l-0.083-0.11l-0.121-0.025l-0.164-0.162l0.104-0.149
		l0.144-0.116l-0.097-0.176l-0.245-0.046l-0.05-0.213l0.078-0.157l0.239-0.038l-0.137-0.157l-0.047-0.079l-0.032-0.112l-0.086,0.073
		l-0.145,0.158l-0.162,0.069l-0.032,0.09l0.006,0.09l0.072,0.111l0.013,0.216l-0.075,0.248l0.045,0.333l-0.109,0.284l-0.093,0.116
		l-0.189-0.148l-0.198-0.009l-0.197-0.129l0.049-0.687l0.061-0.248l-0.117-0.056l0.035-0.323l-0.11-0.132l-0.165,0.029l-0.092,0.166
		l-0.025,0.204l-0.074,0.149l-0.233,0.004l0.096,0.196l0.186,0.298l0.067,0.21l-0.112,0.095l0.015,0.105l0.172,0.233l-0.156,0.031
		l-0.132,0.076l-0.111,0.109l-0.089,0.132l0.002-0.093l-0.012-0.095l-0.023-0.086l-0.035-0.073l0.141-0.311l-0.3-0.493l0.09-0.247
		l-0.077-0.348l-0.189,0.106l-0.27,0.342l-0.2,0.074l-0.117,0.023l-0.105,0.041l-0.105,0.007l-0.124-0.072l-0.03-0.059l-0.042-0.119
		l-0.016-0.117l0.05-0.053l0.422,0.004l0.107-0.073l-0.003-0.192l-0.11-0.2l-0.157-0.077l-0.165-0.048l-0.132-0.109l-0.052,0.152
		l-0.03,0.317l-0.057,0.147l-0.12,0.109l-0.04-0.103l0.012-0.319l-0.02-0.31l0.028-0.086l0.262-0.333l0.052-0.116l0.041-0.163
		l0.032,0.123l0.044,0.111l0.055,0.105l0.071,0.104l0.054-0.051l0.067,0.005l0.077,0.027l0.087,0.019l-0.107-0.151l-0.109-0.196
		l0.291,0.087l0.12-0.031l0.077-0.152L21.281,25.2l-0.161-0.073l-0.019-0.159l0.169-0.272l-0.231-0.192l0.015-0.178l0.176-0.143
		l0.25-0.09l-0.065,0.312l0.025,0.086l0.141,0.03l0.254-0.005l0.068-0.047l0.067-0.115l0.018-0.287l-0.026-0.386l0.047-0.315
		l0.238-0.073l-0.031,0.176l0.007,0.276l0.045,0.28l0.127,0.336l-0.062,0.118l-0.1,0.106l-0.062,0.111l0.003,0.117l0.064,0.188
		l0.008,0.051l-0.056,0.06l-0.184,0.12l-0.038,0.033l0.01,0.11l0.033,0.116l0.054,0.068l0.073-0.034l0.172-0.159l0.129-0.004
		l0.295,0.202l-0.211-0.458l-0.075-0.285l0.109-0.128l0.165,0.211l0.101,0.065l0.047-0.138l0.043-0.043l0.107-0.043l0.205-0.052
		v-0.079l-0.082-0.012l-0.197-0.083v-0.079l0.246-0.058l0.145-0.235l0.037-0.287l-0.08-0.212l-0.089-0.03l-0.268-0.005l-0.132-0.054
		l-0.099-0.121l-0.032-0.119l0.049-0.042l0.147,0.107l0.067-0.198l-0.072-0.118l-0.157-0.048l-0.187,0.014l0.076-0.098l0.102-0.071
		l0.11-0.019l0.1,0.057l0.097,0.075l0.086,0.017l0.039-0.04l-0.045-0.096V22.77l0.377-0.006l0.181,0.063l0.077,0.169l-0.052,0.105
		l-0.098,0.111l-0.06,0.145l0.065,0.207l0.09-0.09l0.116-0.063l0.1,0.002l0.042,0.107l0.012,0.089l0.047,0.081l0.011,0.087
		l-0.018,0.033l-0.092,0.11L23.852,24v0.57l0.034,0.165l0.075,0.116l0.075,0.044l0.033-0.06l0.042-0.318l0.187-0.61l0.043-0.3
		l0.055-0.071l0.124,0.084l0.177,0.196l0.072,0.138l0.052,0.128l0.077,0.084l0.146,0.006v-0.079l-0.073-0.097l-0.089-0.26
		l-0.078-0.13l-0.627-0.662l-0.045-0.036l0.035-0.138l0.087,0.016l0.105,0.099l0.163,0.204l0.087,0.077l0.105,0.048l0.127,0.001
		l0.096-0.056l0.009-0.088l-0.07-0.082l-0.145-0.036l-0.195-0.094l-0.212-0.198l-0.095-0.295l-0.022-0.198l0.187-0.005l0.163,0.079
		l0.146,0.129l0.205,0.146l0.195,0.135l0.08,0.082l0.155,0.106l0.15,0.083l0.102,0.174l-0.048,0.173l-0.099,0.117l0.02,0.091
		l0.102,0.194l0.012,0.12L25.541,24l0.112-0.078l0.045-0.095l0.027-0.106l-0.039-0.313l0.042-0.104l0.065-0.109l0.095-0.178
		l0.169-0.079l0.158-0.001l0.177,0.023l0.196,0.072l0.248,0.067l0.178,0.117l0.215,0.221l0.015,0.273l-0.161,0.552l0.122-0.081
		l0.192-0.248l0.105-0.019l0.073,0.105l0.042,0.188l0.022,0.365l-0.011,0.078l-0.047,0.173l-0.01,0.101l0.02,0.105l0.091,0.153
		l0.087,0.397l-0.029,0.114l-0.168,0.051l0.031,0.107l0.04,0.073l0.059,0.05l0.085,0.039l0.06-0.286l0.101-0.17L28,25.373
		l-0.085-0.32l0.207,0.06l0.217,0.027l-0.351-0.389l-0.105-0.214l0.209-0.093l0.188-0.031l0.444-0.179l0.196-0.15l0.003,0.001
		l0.477,0.098l0.4,0l0.85-0.363l0.442,0.201l0.395,0.332l0.483,0.065l0.08,0.189l0.12,0.127l0.137,0.08l0.175,0.353l0.134,0.094
		l-0.011,0.262l0.085,0.077l0.068,0.128l0.022,0.145l-0.025,0.144l-0.05,0.134l-0.032,0.139l-0.014,0.11l-0.052,0.097l-0.095,0.027
		l-0.097-0.015L32.332,26.6l-0.684-0.47l-0.37,0.234l0.206,0.573l0.35,0.448l-0.2,0.434l0.019,0.214l-0.135,0.422l0.314,0.262
		l0.315,0.06l0.053,0.428l0.484,0.282l0,0l-0.199,0.532L32.1,30.655l0.185,0.361l-0.59,0.82l0.671,0.835l0.686-0.179l0.053-0.656
		l0.367,0.028l0.025,0.295l0.147-0.05l0.543-0.312l0.231-0.416l0.093-0.212l0.104-0.189l0.168-0.127l0.039-0.22l-0.131-0.044
		l-0.142-0.064l-0.172,0.126l-0.134,0.181l0.134-0.181l0.172-0.126l0.142,0.064l0.131,0.044l-0.039,0.22l-0.168,0.127l-0.104,0.189
		l-0.093,0.212l-0.231,0.416l-0.123,0.49l-0.018,0.35l0.027,0.36l0.33-0.068l0.303,0.098l0.314,0.192l0.106,0.376l-0.014,0.437
		l0.088,0.433l0.208,0.37l0.232,0.361L35.4,35.441l-0.248,0.218l-0.303,0.084l-0.301,0.014l-0.221,0.054l-0.592-0.078l-0.042-0.101
		l0.072-0.144l-0.061-0.126l-0.131-0.033l-0.339-0.171l-0.46-0.828l-0.327-0.29l-0.171,0.175l-0.137,0.214l-0.215,0.044
		l-0.145,0.065l-0.148,0.052l-0.563,0.11l-0.286,0.111l-0.302,0.056l-0.218-0.339l0.091-0.558l-0.377-0.075l-1.059,0.334
		l-0.575,0.123l-0.489,0.054L27.391,34.974z"/>
	<polygon class="st3" points="26.45,18.039 26.421,17.952 25.885,17.883 25.635,18.202 25.377,18.004 25.482,17.771 25.618,17.567 
		25.533,17.423 25.35,17.323 25.182,17.234 25.205,16.999 25.172,16.815 25.272,16.642 25.565,16.554 25.653,16.509 25.674,16.402 
		25.537,16.364 25.499,16.476 25.289,16.499 25.234,16.371 25.212,16.135 25.262,15.824 25.664,15.41 25.696,15.008 26.775,15.505 
		27.204,15.793 26.853,16.671 26.963,16.923 27.128,17.031 27.225,17.191 27.129,17.508 26.983,17.789 26.849,17.889 26.773,17.945 
			"/>
	<polygon class="st3" points="24.848,16.272 24.888,16.314 24.928,16.377 24.982,16.428 25.024,16.514 25.05,16.582 24.994,16.605 
		24.908,16.669 24.873,16.716 24.694,16.759 24.615,16.746 24.507,16.797 24.268,16.901 24.139,17.017 24.068,17.143 23.622,17.479 
		23.522,17.456 23.428,17.467 23.387,17.457 23.344,17.3 23.264,17.249 23.226,17.29 23.193,17.301 23.181,17.275 23.198,17.229 
		23.173,17.167 23.111,17.159 23.07,17.213 23.006,17.263 22.93,17.228 22.82,17.201 22.885,17.136 22.862,17.066 22.75,16.96 
		22.723,16.893 22.762,16.797 22.823,16.779 22.908,16.823 23.371,16.499 23.703,16.462 23.928,16.468 24.136,16.358 24.207,16.07 
		24.352,16.016 24.47,16.135 24.528,16.158 24.587,16.191 24.645,16.215 24.702,16.219 24.764,16.231 	"/>
	<polygon class="st3" points="22.107,12.558 22.308,12.555 22.496,12.584 22.591,12.692 22.523,12.921 22.342,13.077 22.117,13.092 
		21.691,13.001 21.597,13.037 21.482,13.098 21.383,13.101 21.342,12.961 21.365,12.917 21.482,12.56 21.608,12.438 21.752,12.399 
		21.916,12.441 	"/>
	<polygon class="st3" points="22.735,13.944 22.863,14.045 22.961,14.156 22.981,14.279 22.873,14.418 22.665,14.431 21.972,13.89 
		22.061,13.808 22.104,13.706 22.162,13.463 22.194,13.401 22.244,13.335 22.301,13.286 22.36,13.272 22.398,13.293 22.423,13.333 
		22.438,13.387 22.47,13.624 22.482,13.668 22.531,13.753 22.596,13.826 	"/>
	<polygon class="st3" points="24.28,15.211 24.202,15.22 24.141,15.191 24.033,15.075 23.956,15.028 23.901,15.047 23.859,15.091 
		23.82,15.115 23.282,15.144 23.082,15.051 22.873,14.77 23.187,14.688 23.262,14.638 23.349,14.502 23.337,14.44 23.28,14.401 
		23.227,14.33 22.863,13.635 22.84,13.53 22.878,13.391 22.868,12.779 22.91,12.64 23.009,12.603 23.25,12.322 23.437,12.274 
		23.6,12.392 23.754,12.574 23.909,12.716 24.237,12.882 24.368,13.013 24.42,13.221 24.409,13.325 24.355,13.5 24.344,13.577 
		24.367,13.665 24.462,13.839 24.484,13.934 24.517,14.398 24.484,14.507 24.54,14.576 24.598,14.714 24.63,14.77 24.498,14.85 
		24.383,15.121 	"/>
	<polygon class="st3" points="24.038,19.298 24.143,19.368 24.183,19.523 24.138,19.577 24.028,19.614 23.986,19.699 23.978,19.777 
		23.889,19.882 23.773,19.91 23.694,19.852 23.61,19.86 23.543,19.818 23.52,19.656 23.539,19.49 23.623,19.374 23.804,19.277 	"/>
	<polygon class="st3" points="25.366,19.603 25.39,19.663 25.415,19.772 25.361,19.89 24.84,20.306 24.603,20.336 24.605,20.271 
		24.716,20.12 24.731,20.033 24.685,19.959 24.818,19.807 24.822,19.653 24.767,19.464 24.692,19.332 24.617,19.247 24.64,19.221 
		24.808,19.303 24.952,19.176 24.984,19.187 24.954,19.298 24.997,19.399 25.117,19.467 25.311,19.549 	"/>
	<path class="st4" d="M23.555,43.482l-0.141-0.16l-0.05-0.133l0.075-0.296l0.176-0.367l0.277-0.647l0.234-0.336l0.334-0.119
		l0.38-0.078l0.325-0.018l0.15-0.12L25.458,41l0.204-0.052l0.182,0.205l0.187,0.231l0.137,0.046l-0.133-0.469l-0.095-0.213
		l-0.155-0.089l-1.451,0.237l-0.505-0.315l0.031-0.338l0.008-0.135l0.239-0.119l0.209-0.206l0.193-0.222l0.307-0.179l0.376-0.207
		l0.286-0.399l0.044-0.376l0.157-0.093l0.116-0.073l0.062-0.054l0.367-0.037l0.359,0.044l0.228,0.176l0.163,0.041l0.109,0.188
		l0.042-0.102l0.035-0.142l0.015-0.148L27.04,38.09l-0.094-0.069l-0.196-0.097l-0.222-0.151l-0.18-0.135l-0.095-0.048l0.027-0.109
		l0.085-0.117l0.085-0.07l0.093-0.022l0.571,0.037l0.125-0.01l0.092-0.048l0.062-0.113l0.023-0.093l0.049-0.064l0.141-0.024
		l0.045-0.041l-0.053-0.092l-0.109-0.095l-0.121-0.045l-0.032,0.026l-0.751,0.304l-0.252,0.012l-0.495-0.032l-0.489-0.039
		l-0.005-0.217l-0.031-0.299l-0.094-0.082l-0.305-0.105l-0.45,0.071l-0.044-0.38l0.927-0.1l0.504-0.063l0.51-0.03l0.165-0.099
		l0.176,0.051l0.215-0.11l0.377-0.286l0.478-0.191l0.202-0.145l0.018-0.182l-0.599,0.185l0.46-0.567l0.489-0.054l0.575-0.123
		l1.059-0.334l0.377,0.075l-0.091,0.558l0.218,0.339l0.302-0.056l0.286-0.111l0.563-0.11l0.148-0.052l0.145-0.065l0.215-0.044
		l0.137-0.214l0.171-0.175l0.327,0.29l0.46,0.828l0.339,0.171l0.131,0.033l0.061,0.126l-0.072,0.144l0.042,0.101l0.592,0.078
		l0.221-0.054l0.301-0.014l0.303-0.084l0.248-0.218l0.242-0.243l0.088,0.105l0.097,0.089l0.082-0.02l0.067-0.089l0.173,0.102
		l0.153,0.182l0.458,0.15l0.095,0.119l0.164,0.047l0.329-0.201l0.377-0.17l0.149,0.142l0.15,0.081l0.131-0.12l0.131-0.138
		l0.418,0.714l-0.048,0.803l-0.374,0.401l-0.099,0.265l-0.508,0.27l-0.251,0.077l-0.139-0.015l-0.1,0.065l-0.192,0.416l-0.221,0.231
		l-0.234,0.207l-0.114,0.329l-0.03,0.387l-0.129,0.282l-0.159,0.296l-0.119,0.379l-0.088,0.391l-0.143,0.291l-0.011,0.316
		l0.262,0.111l0.038,0.138l0.019,0.158l0.113,0.295l-0.018,0.321l0.105,0.237l0.147,0.098l-0.061,0.344l-0.427,0.51l-0.068,0.335
		l-0.015,0.309l-0.215,0.219l-0.583-0.47l-0.654-0.236l-0.371,0.207l-0.298,0.321l-0.32,0.045l-0.339,0.003l-0.371,0.05
		l-0.376-0.007l-0.174-0.102l-0.155-0.12l-0.18,0.046l-0.212-0.003l-0.309,0.051l-0.294,0.176l-0.38-0.057l-0.246-0.262l0.014-0.414
		l-0.208-0.235l-0.062-0.232l0.091-0.361l-0.206-0.314l-0.301,0.017l-0.074,0.129l-0.1,0.096l-0.066,0.166l-0.024,0.179
		l-0.316,0.004l-0.48-0.65l-0.313-0.256l-0.179-0.076l-0.186-0.013l-0.17,0.202l-0.347-0.034l-0.257,0.231l-0.001,0.169l0.01,0.17
		l-0.094,0.142l-0.129,0.095l0.007,0.134l0.02,0.128l-0.086,0.177l-0.135,0.117l-0.167,0.081l-0.175,0.051l-0.148,0.09l-0.137,0.102
		L25.8,44.241l-0.324,0.118l-0.304,0.076l-0.255-0.086l0.015-0.339l0.066-0.337l0.059-0.458l-0.295-0.079l-0.993,0.277l-0.211,0.068
		L23.555,43.482z M21.727,40.974l-0.045-0.047l-0.032-0.083l0.02-0.08l0.107-0.056l-0.015-0.02l-0.051-0.033l0.025-0.03l0.057-0.032
		l0.038-0.054l0.062-0.01l0.037-0.017l-0.017-0.069l0.044,0.002l0.116,0.021l0.077-0.063l0.037-0.041l0.044,0.034l0.022,0.075
		l-0.038,0.093l-0.188,0.162l-0.126,0.141l-0.08,0.062l-0.033,0.031L21.727,40.974z"/>
	<polygon class="st5" points="37.543,48.645 37.476,48.626 37.062,48.63 36.924,48.607 36.869,48.543 36.844,48.449 36.784,48.328 
		36.667,48.235 36.639,48.331 36.657,48.48 36.679,48.545 36.605,48.775 36.564,48.853 36.469,48.963 36.083,49.272 35.868,49.367 
		35.714,49.235 35.521,48.842 35.361,48.778 35.25,48.937 35.195,49.186 35.206,49.395 35.301,49.615 35.459,49.899 35.641,50.148 
		35.803,50.252 35.918,50.401 36.025,50.452 36.152,50.372 36.469,50.075 36.689,50.045 36.876,50.082 37.051,50.093 37.243,49.99 
		37.232,50.236 37.198,50.41 37.097,50.761 36.979,51.382 36.895,51.525 36.535,51.645 36.251,51.503 36.023,51.454 35.835,51.865 
		35.775,51.825 35.76,51.829 35.746,51.852 35.696,51.865 35.775,52.028 35.835,52.203 35.91,52.758 35.864,52.861 35.758,52.802 
		35.591,52.626 35.346,52.596 35.164,52.496 35.047,52.312 34.997,52.035 35.059,51.772 35.192,51.513 35.289,51.268 35.241,51.059 
		35.159,50.942 34.997,50.591 34.954,50.564 34.897,50.562 34.837,50.553 34.787,50.5 34.782,50.436 34.799,50.361 34.829,50.313 
		34.675,49.988 34.648,49.866 34.657,49.793 34.702,49.671 34.712,49.607 34.69,49.537 34.642,49.483 34.595,49.467 34.572,49.519 
		34.537,49.547 34.363,49.99 34.295,50.084 34.26,50.109 34.208,50.115 33.859,50.238 33.656,50.263 33.214,50.252 33.048,50.301 
		33.183,50.412 33.447,50.528 33.664,50.591 33.664,50.67 33.229,50.808 33.01,50.932 32.972,51.101 33.06,51.172 33.252,51.095 
		33.354,51.139 33.427,51.257 33.405,51.301 33.35,51.315 33.322,51.348 33.464,51.843 33.759,52.107 34.079,52.312 34.298,52.626 
		34.193,52.61 34.013,52.609 33.937,52.626 34.376,52.796 34.433,52.933 34.462,53.191 34.368,53.285 34.263,53.374 34.063,53.365 
		33.937,53.397 33.471,53.107 33.322,53.058 33.189,53.084 33.025,53.159 32.885,53.259 32.826,53.354 32.85,53.394 32.972,53.651 
		33.116,53.682 33.202,53.74 33.591,53.638 33.803,53.819 33.319,54.264 33.146,54.509 32.959,54.423 32.664,54.646 32.695,54.862 
		32.826,55.004 32.543,55.006 32.125,54.454 31.981,54.158 31.598,53.743 31.48,53.77 31.075,53.982 31.116,54.109 31.145,54.158 
		30.979,54.101 30.818,54.069 30.681,53.997 30.586,53.819 30.573,53.637 30.638,53.531 30.865,53.397 30.939,53.331 31.145,53.058 
		31.272,52.791 31.346,52.699 31.494,52.626 31.485,52.833 31.435,53.034 31.285,53.397 31.584,53.377 31.835,53.286 31.985,53.079 
		31.981,52.712 31.921,52.569 31.842,52.487 31.782,52.391 31.772,52.203 31.827,52.105 32.122,51.779 32.228,51.835 32.298,51.911 
		32.316,52.008 32.262,52.126 32.323,52.288 32.411,52.401 32.528,52.44 32.686,52.38 32.753,52.294 32.892,51.994 32.972,51.865 
		32.83,51.653 32.775,51.432 32.703,51.332 32.509,51.483 32.286,51.577 32.101,51.423 31.849,51.016 31.704,51.244 31.498,51.774 
		31.355,51.949 31.207,52.008 31.083,52.002 30.826,51.949 30.706,51.991 30.593,52.094 30.409,52.338 30.326,52.408 29.952,52.626 
		29.75,52.78 29.62,52.856 29.495,52.889 29.418,52.929 29.4,53.031 29.405,53.168 29.386,53.313 29.319,53.415 29.224,53.526 
		29.176,53.658 29.253,53.819 28.689,54.374 28.707,54.886 28.611,54.971 28.339,54.835 28.249,54.943 28.207,55.065 28.212,55.198 
		28.269,55.342 28.137,55.3 27.851,55.096 27.458,54.981 27.368,54.927 27.288,54.69 27.331,54.062 27.292,53.819 27.348,53.664 
		27.336,53.474 27.268,53.307 27.152,53.219 27.041,53.251 26.93,53.356 26.844,53.49 26.81,53.608 26.852,53.78 26.916,53.929 
		26.92,54.034 26.604,54.139 26.645,54.29 26.874,54.581 26.482,54.808 26.335,54.944 26.487,55.004 26.522,55.032 26.532,55.092 
		26.52,55.153 26.487,55.18 26.425,55.167 26.33,55.11 26.28,55.096 26.145,55.116 26.118,55.173 26.116,55.266 26.064,55.388 
		25.984,55.442 25.681,55.518 25.567,55.614 25.526,55.694 25.277,56.53 25.257,56.649 25.257,56.792 25.007,56.739 24.536,56.894 
		24.418,56.87 24.404,56.724 24.5,56.427 24.481,56.286 24.388,56.206 24.259,56.181 23.992,56.194 23.992,56.117 24.046,56.046 
		24.063,55.996 24.083,55.802 24.118,55.795 24.164,55.81 24.208,55.78 24.353,55.517 24.38,55.391 24.341,55.265 24.29,55.224 
		24.216,55.198 24.063,55.18 23.953,55.15 23.939,55.083 23.968,55.022 23.992,55.004 23.996,54.845 24.034,54.693 24.016,54.611 
		23.852,54.666 23.897,54.367 24.101,54.217 24.373,54.164 24.627,54.158 24.581,54.062 24.518,53.989 24.438,53.937 24.341,53.904 
		24.503,53.791 24.603,53.659 24.606,53.543 24.481,53.474 24.435,53.492 24.343,53.607 24.278,53.651 24.193,53.65 24.061,53.568 
		23.992,53.566 23.929,53.623 23.887,53.707 23.852,53.819 23.761,53.839 23.674,53.836 23.574,53.819 23.355,53.823 23.235,53.844 
		23.085,53.904 23.066,53.707 22.978,53.593 22.735,53.474 22.739,53.434 22.688,53.334 22.626,53.274 22.596,53.354 22.566,53.402 
		22.493,53.443 22.411,53.46 22.346,53.435 22.134,53.232 22.107,53.219 22.072,53.095 22.09,53.059 22.131,53.042 22.171,52.974 
		22.212,53.032 22.314,53.033 22.388,52.974 22.346,52.846 22.072,52.712 21.86,52.557 21.843,52.199 21.932,51.802 22.039,51.525 
		22.05,51.431 22.041,51.316 22.056,51.219 22.14,51.178 22.216,51.186 22.296,51.209 22.356,51.25 22.423,51.398 22.735,51.865 
		22.638,51.993 22.608,52.117 22.626,52.244 22.659,52.38 22.87,52.974 22.997,53.05 23.504,53.135 23.721,53.285 23.839,53.274 
		23.922,53.058 23.807,53.076 23.746,53.045 23.536,53 23.437,52.845 23.307,52.715 23.343,52.429 23.208,52.454 23.142,52.63 
		23.036,52.639 22.972,52.408 22.941,52.098 23.018,51.921 22.959,51.704 23.239,51.676 23.668,51.77 23.723,51.869 23.696,52.03 
		23.699,52.08 23.695,52.128 23.719,52.203 23.825,52.272 23.887,52.356 24.021,52.443 24.204,52.515 24.315,52.623 24.457,52.725 
		24.566,52.796 24.61,52.741 24.396,52.459 24.523,52.431 24.712,52.54 24.956,52.673 25.251,52.767 25.465,52.712 25.249,52.676 
		25.074,52.565 24.767,52.296 24.842,52.203 24.621,52.042 24.286,51.613 24.101,51.525 23.846,51.474 23.544,51.494 23.335,51.358 
		23.078,51.428 22.841,51.35 22.81,51.232 22.956,51.049 23.1,50.99 23.404,51.038 23.793,50.864 24.261,51.209 24.418,51.178 
		24.458,51.206 24.483,51.231 24.51,51.253 24.558,51.271 24.513,51.032 24.533,50.813 24.655,50.653 24.905,50.591 25.374,50.731 
		25.613,50.749 25.541,50.591 25.699,50.512 25.784,50.494 25.891,50.5 25.738,50.325 25.506,50.282 24.975,50.33 25.015,50.209 
		25.002,50.127 24.975,50.042 24.975,49.913 25.013,49.831 25.067,49.77 25.112,49.694 25.115,49.565 25.033,49.381 24.892,49.338 
		24.74,49.41 24.627,49.565 24.615,49.668 24.682,49.878 24.697,49.99 24.68,50.007 24.558,50.252 24.443,50.676 24.336,50.82 
		24.133,50.839 24.133,50.81 24.069,50.761 24.111,50.695 24.166,50.565 24.208,50.5 24.069,50.429 23.976,50.47 23.886,50.549 
		23.751,50.591 23.479,50.531 23.393,50.572 23.376,50.7 23.235,50.697 23.015,50.77 22.908,50.716 22.873,50.584 22.946,50.46 
		23.155,50.252 23.23,50.137 23.273,50.047 23.29,49.963 23.295,49.866 23.267,49.68 23.302,49.589 23.434,49.472 23.307,49.372 
		23.195,49.164 23.135,48.92 23.155,48.715 23.297,48.585 23.49,48.452 23.55,48.343 23.295,48.282 23.178,48.303 23.11,48.362 
		23.055,48.424 22.977,48.452 22.878,48.503 22.893,48.625 22.943,48.768 22.946,48.885 22.803,49.015 22.618,49.027 22.439,48.969 
		22.311,48.885 22.408,48.818 22.451,48.799 22.361,48.735 22.284,48.657 22.221,48.565 22.171,48.452 22.289,48.392 22.403,48.398 
		22.659,48.452 22.628,48.185 22.913,47.901 22.838,47.64 22.546,47.236 22.367,47.072 22.171,47.005 22.252,47.285 22.181,47.445 
		22.036,47.451 21.892,47.261 21.987,47.128 21.724,46.778 21.688,46.571 21.835,46.4 22.044,46.372 22.229,46.467 22.311,46.665 
		22.441,46.581 22.513,46.438 22.596,46.153 22.668,46.295 22.681,46.415 22.654,46.645 22.608,46.762 22.596,46.834 22.616,46.908 
		22.656,46.908 22.704,46.891 22.735,46.912 22.776,47.076 22.786,47.147 22.824,47.188 22.946,47.261 23.045,47.296 23.217,47.302 
		23.295,47.346 23.235,47.488 23.252,47.625 23.325,47.752 23.434,47.864 23.692,47.281 23.719,47.083 23.714,46.86 23.664,46.78 
		23.472,46.732 23.39,46.687 23.323,46.618 23.218,46.338 22.883,45.946 22.805,45.765 22.828,45.704 22.875,45.653 22.923,45.586 
		22.946,45.47 22.838,45.394 22.785,45.295 22.805,45.122 22.674,45.174 22.538,45.196 22.247,45.199 22.361,45.058 22.548,45.015 
		22.76,45.003 22.946,44.958 22.885,44.935 22.853,44.906 22.815,44.881 22.735,44.865 22.785,44.752 22.845,44.686 22.911,44.635 
		22.977,44.563 23.012,44.469 22.996,44.387 22.963,44.308 22.946,44.221 22.981,44.026 23.07,43.834 23.295,43.491 23.354,43.553 
		23.504,43.748 23.685,43.803 23.776,43.797 23.751,43.705 23.555,43.482 23.557,43.482 23.768,43.414 24.762,43.136 25.057,43.216 
		24.997,43.674 24.932,44.011 24.917,44.35 25.172,44.435 25.476,44.359 25.8,44.241 26.143,44.19 26.28,44.089 26.428,43.999 
		26.604,43.948 26.771,43.867 26.906,43.75 26.991,43.573 26.971,43.445 26.964,43.311 27.093,43.216 27.187,43.074 27.177,42.904 
		27.178,42.735 27.435,42.505 27.782,42.539 27.952,42.336 28.138,42.35 28.317,42.425 28.629,42.682 29.109,43.331 29.425,43.328 
		29.449,43.149 29.515,42.983 29.615,42.887 29.689,42.758 29.99,42.741 30.196,43.055 30.106,43.417 30.168,43.649 30.376,43.884 
		30.362,44.298 30.609,44.56 30.989,44.616 31.283,44.441 31.591,44.39 31.804,44.392 31.983,44.347 32.139,44.466 32.313,44.568 
		32.689,44.575 33.06,44.525 33.399,44.523 33.72,44.478 34.018,44.157 34.388,43.951 35.043,44.187 35.626,44.657 35.571,44.93 
		35.781,45.178 35.884,45.498 35.927,46.162 36.065,46.41 36.317,46.593 36.545,46.832 36.634,47.096 36.744,47.326 37.381,48.02 
		37.518,48.358 37.517,48.589 	"/>
	<polygon class="st5" points="31.082,54.525 31.401,54.487 31.568,54.5 31.708,54.567 31.819,54.768 31.786,54.999 31.651,55.187 
		31.462,55.265 31.04,55.342 30.877,55.319 30.757,55.26 30.513,55.096 30.513,55.004 30.568,54.935 30.578,54.878 30.538,54.822 
		30.443,54.758 30.584,54.653 30.747,54.587 	"/>
	<polygon class="st5" points="22.974,54.343 22.99,54.513 22.963,54.703 22.908,54.888 22.706,55.319 22.625,55.45 22.523,55.518 
		22.506,55.48 22.331,55.315 22.25,55.265 22.25,55.342 22.209,55.54 21.235,56.071 21.118,56.111 20.688,56.147 20.569,56.117 
		20.546,56.01 20.604,55.919 20.679,55.843 20.708,55.78 20.654,55.704 20.359,55.518 20.359,55.78 20.144,55.527 20.272,55.113 
		20.563,54.779 20.848,54.758 20.941,54.49 21,54.395 21.095,54.289 21.205,54.229 21.303,54.212 21.377,54.157 21.405,53.982 
		21.525,54.129 21.687,54.145 21.832,54.05 21.894,53.862 21.816,53.707 21.553,53.499 21.621,53.397 21.787,53.384 21.956,53.477 
		22.102,53.593 22.211,53.651 22.236,53.686 22.266,53.764 22.315,53.849 22.383,53.904 22.43,53.889 22.661,53.743 22.67,53.85 	
		"/>
	<polygon class="st5" points="37.309,52.035 37.415,52.062 37.509,52.209 37.582,52.391 37.668,52.702 37.678,52.883 37.647,53.059 
		37.573,53.23 37.47,53.335 37.356,53.344 37.241,53.283 36.879,52.914 36.836,52.771 36.898,52.543 36.943,52.483 37.134,52.338 
		37.168,52.264 37.246,51.949 37.091,51.784 37.109,51.683 37.221,51.632 37.348,51.617 37.458,51.667 37.485,51.783 37.433,51.92 	
		"/>
	<polygon class="st5" points="32.473,60.251 32.533,60.304 32.606,60.325 32.633,60.367 32.62,60.427 32.476,60.357 32.336,60.325 
		32.311,60.286 32.276,60.202 32.253,60.099 32.215,60.072 32.183,60.033 32.158,59.949 32.173,59.899 32.168,59.842 32.176,59.791 
		32.208,59.78 32.246,59.793 32.293,59.778 32.321,59.746 32.336,59.741 32.361,59.794 32.326,59.908 32.343,60.036 	"/>
	<polygon class="st5" points="34.751,54.935 34.797,55.058 34.797,55.131 34.72,55.214 34.533,55.335 34.37,55.385 34.312,55.352 
		34.308,55.246 34.239,55.173 34.135,55.14 34.088,55.076 34.115,55.027 34.004,54.956 33.936,54.905 33.972,54.812 33.966,54.743 
		33.948,54.687 33.998,54.659 34.071,54.69 34.147,54.735 34.29,54.771 34.293,54.803 34.34,54.791 34.433,54.699 34.527,54.694 	
		"/>
	<polygon class="st5" points="37.318,54.237 37.386,54.274 37.43,54.345 37.408,54.422 37.281,54.466 37.197,54.47 37.176,54.448 
		37.143,54.398 37.048,54.345 36.899,54.295 36.799,54.218 36.753,54.113 36.703,54.036 36.619,53.991 36.547,53.903 36.602,53.798 
		36.774,53.715 36.961,53.69 37.094,53.789 37.249,54.09 37.231,54.177 37.236,54.222 	"/>
	<polygon class="st5" points="25.212,58.42 25.301,58.457 25.386,58.564 25.361,58.618 25.319,58.58 25.282,58.574 25.264,58.622 
		25.226,58.607 25.133,58.556 25.037,58.558 24.982,58.612 24.947,58.678 24.833,58.756 24.731,58.847 24.578,58.94 24.382,58.932 
		24.273,58.787 24.266,58.6 24.355,58.417 24.537,58.291 24.692,58.291 24.895,58.42 24.954,58.427 25.039,58.401 25.154,58.403 	
		"/>
	<polygon class="st5" points="25.96,58.609 26,58.632 26.035,58.692 26.003,58.729 25.958,58.736 25.943,58.81 25.943,58.934 
		25.891,59.031 25.791,59.059 25.738,59.028 25.72,58.97 25.671,58.931 25.618,58.92 25.596,58.754 25.661,58.469 25.683,58.311 
		25.616,58.248 25.596,58.191 25.681,58.11 25.686,58.068 25.773,58.069 25.946,58.158 25.97,58.278 25.873,58.362 25.856,58.456 	
		"/>
	<polygon class="st5" points="28.386,58.061 28.484,58.15 28.546,58.219 28.519,58.374 28.494,58.44 28.429,58.555 28.309,58.62 
		28.157,58.633 28.045,58.575 27.952,58.491 27.885,58.5 27.85,58.561 27.812,58.539 27.77,58.349 27.833,58.221 27.85,58.103 
		27.89,58.01 27.962,57.941 28.108,57.869 28.283,57.914 	"/>
	<polygon class="st5" points="25.347,57.809 25.389,57.869 25.397,57.977 25.326,58.037 25.291,58.177 25.142,58.185 25.059,58.202 
		25.109,58.291 25.058,58.334 24.902,58.292 24.821,58.216 24.801,58.167 24.758,58.151 24.71,58.141 24.7,58.1 24.752,57.952 
		24.782,57.897 24.786,57.859 24.766,57.83 24.775,57.802 24.812,57.784 24.836,57.757 24.83,57.722 24.777,57.636 24.811,57.607 
		24.892,57.633 24.971,57.675 25.184,57.712 25.294,57.769 	"/>
	<polygon class="st5" points="27.818,56.692 27.775,56.737 27.683,56.756 27.633,56.685 27.612,56.59 27.557,56.515 27.478,56.481 
		27.373,56.497 27.251,56.54 27.153,56.539 27.114,56.519 27.075,56.493 26.848,56.393 26.834,56.351 26.939,56.338 27.041,56.307 
		27.086,56.281 27.124,56.263 27.204,56.276 27.298,56.319 27.411,56.272 27.549,56.16 27.653,56.133 27.713,56.179 27.787,56.199 
		27.83,56.196 27.873,56.188 27.987,56.2 28.132,56.235 28.222,56.288 28.202,56.378 28.143,56.448 28.127,56.49 28.117,56.576 
		28.053,56.646 27.965,56.629 27.87,56.647 	"/>
	<polygon class="st5" points="30.249,56.243 30.284,56.273 30.304,56.331 30.241,56.344 30.155,56.3 30.053,56.277 29.98,56.306 
		30.007,56.34 30.069,56.375 29.995,56.449 29.815,56.591 29.71,56.638 29.7,56.529 29.75,56.452 29.815,56.409 29.779,56.36 
		29.555,56.313 29.585,56.264 29.561,56.202 29.493,56.16 29.321,56.144 29.255,56.122 29.225,56.102 29.25,56.079 29.325,56.064 
		29.384,56.024 29.479,55.909 29.581,55.824 29.572,55.792 29.605,55.803 29.677,55.874 29.744,55.973 29.782,56.085 29.862,56.12 
		30.002,56.076 30.104,56.064 30.152,56.106 30.186,56.163 	"/>
	<polygon class="st5" points="26.899,56.684 26.919,56.76 26.976,56.898 26.941,56.931 26.892,56.924 26.842,56.91 26.75,56.87 
		26.672,56.819 26.629,56.828 26.619,56.9 26.57,56.929 26.48,56.888 26.325,56.852 26.133,56.784 26.131,56.704 26.226,56.632 
		26.201,56.541 26.113,56.517 26.006,56.545 25.873,56.508 25.753,56.43 25.682,56.339 25.652,56.205 25.642,56.052 25.65,55.896 
		25.691,55.74 25.772,55.62 25.881,55.568 25.94,55.554 26.12,55.536 26.238,55.575 26.347,55.649 26.469,55.793 26.564,56.031 
		26.592,56.227 26.624,56.317 26.68,56.393 26.712,56.499 	"/>
	<polygon class="st5" points="26.884,55.772 26.834,55.768 26.789,55.723 26.827,55.649 26.874,55.577 26.945,55.421 27.089,55.23 
		27.291,55.118 27.503,55.068 27.63,55.09 27.679,55.164 27.687,55.246 27.634,55.301 27.642,55.33 27.737,55.388 27.815,55.476 
		27.883,55.575 27.892,55.651 27.818,55.663 27.608,55.599 27.521,55.62 27.469,55.696 27.199,55.822 27.105,55.95 27.075,56.083 
		27.02,56.121 26.953,56.044 26.955,55.916 26.933,55.808 	"/>
	<polygon class="st5" points="22.571,49.803 22.765,49.872 22.786,50.135 22.586,50.321 22.476,50.279 22.541,50.206 22.573,50.134 
		22.546,50.085 22.261,49.928 22.219,49.905 21.917,49.954 21.783,50.02 21.631,50.044 21.51,50.003 21.447,49.922 21.502,49.856 
		21.664,49.846 21.873,49.77 21.909,49.723 21.942,49.689 21.952,49.636 22.081,49.597 22.126,49.519 22.131,49.428 22.051,49.319 
		22.017,49.196 22.129,49.138 22.306,49.18 22.488,49.273 22.618,49.403 22.605,49.477 22.516,49.488 22.36,49.592 22.341,49.649 
		22.347,49.723 22.361,49.781 22.427,49.802 	"/>
	<path class="st6" d="M48.588,46.154l0.198,0.454l-0.01,0.239l0.01,0.253l0.141-0.01l-0.141,0.01l-0.01-0.253l0.01-0.239
		l-0.068-0.01l-0.089,0.198l-0.072,0.299l-0.253-0.029l-0.673,0.011l-0.039-0.229l-0.068-0.122l-0.093,0.346l-0.102,0.049
		l-0.238-0.107l-0.111-0.209l-0.122-0.014l-0.157,0.121v-0.546l-0.042-0.045l-0.087,0.036l-0.074,0.115l-0.006,0.193l-0.162-0.127
		L46.2,46.355l-0.14-0.113l-0.206,0.082l0.045-0.176l-0.085-0.251l0.04-0.093l-0.102-0.328l-0.06-0.035l-0.117,0.107l-0.127,0.2
		l-0.003,0.134l0.13,0.271l0.072,0.33l0.042,0.116l0.087,0.15l0.171,0.23l0.025,0.116l-0.048,0.166l0.081,0.011l0.126,0.055
		l0.072,0.019l-0.09,0.06l-0.09,0.024l-0.207,0.001l-0.109-0.025l-0.031-0.066l-0.005-0.083l-0.034-0.08l-0.098-0.104l-0.07-0.057
		l-0.552-0.194l-0.155-0.01l-0.339,0.064l-0.092,0.046l0.007,0.088l0.118,0.166l-0.19,0.038l-0.35,0.177l-0.402,0.11l-0.052,0.158
		l-0.02,0.171l-0.109,0.113v0.085l1.02-0.542l0.173-0.012l0.035,0.219l0.062,0.161l0.021,0.143l-0.082,0.166l-0.131,0.073
		l-0.2,0.033l-0.2-0.009l-0.132-0.055l-0.069,0.122l0.047,0.059l0.092,0.054l0.069,0.106l0.01,0.065l0.003,0.093l-0.013,0.259
		l-0.077,0.51l0.094,0.09l0.09-0.03l0.071-0.099l0.032-0.123l0.138,0.162l-0.142,0.255l-0.258,0.336l-0.229,0.069l-0.307-0.021
		l0.005-0.19l0.197-0.003l0.084-0.015l0.051-0.084l-0.635-0.071l-0.132-0.053l-0.146-0.204l-0.021-0.102l0.105-0.066l0.235-0.091
		l-0.232-0.466l-0.167,0.165l-0.168,0.324l-0.237,0.015l-0.216-0.291l-0.113-0.072l-0.232-0.024l-0.102,0.062l-0.057,0.15
		l-0.021,0.191l0.005,0.184l-0.216-0.036l-0.475,0.021l-0.187-0.104l-0.022-0.067l-0.002-0.182l-0.011-0.048l-0.047-0.012
		l-0.114,0.021l-0.147-0.034l-0.24-0.021l-0.085-0.046l-0.047-0.1l0.005-0.098l0.026-0.094l0.017-0.084l-0.017-0.923l0.017-0.149
		l0.03-0.069l0.052-0.091l0.045-0.12l0.012-0.153l-0.16,0.191l-0.131,0.223l-0.162,0.167l-0.245,0.021l0.187,0.441l-0.127,0.086
		l-0.277-0.006l-0.265,0.167l-0.107-0.299l-0.065-0.122l-0.115-0.089l-0.03,0.402l-0.11,0.317l-0.214,0.192l-0.273,0.024
		l-0.109-0.043l-0.097-0.025l-0.081,0.009l-0.062,0.059l-0.152-0.126l-0.107-0.029l-0.026-0.055l0.001-0.231l-0.137-0.338
		l-0.637-0.694l-0.11-0.23l-0.089-0.264l-0.228-0.239l-0.251-0.183l-0.138-0.248l-0.043-0.664l-0.103-0.32l-0.21-0.248l0.055-0.273
		l0.215-0.219l0.015-0.309l0.068-0.335l0.427-0.51l0.061-0.344l-0.147-0.098l-0.105-0.237l0.018-0.321l-0.113-0.295l-0.019-0.158
		l-0.038-0.138l-0.262-0.111l0.011-0.316l0.143-0.291l0.088-0.391l0.119-0.379l0.159-0.296l0.129-0.282l0.03-0.387l0.114-0.329
		l0.234-0.207l0.221-0.231l0.192-0.416l0.1-0.065l0.139,0.015l0.251-0.077l0.508-0.27l0.099-0.265l0.374-0.401l0.082,0.28
		l0.207,0.12l0.095,0.072l0.094,0.08l0.008,0.1l0.041,0.102l0.082,0.037l0.083,0.028l0.31,0.024l0.134,0.113l0.166,0.112
		l0.294,0.023l0.29-0.003l0.264,0.089l0.194,0.211l0.136,0.259l0.226,0.16l0.057,0.118l0.035,0.108l0.157,0.097l0.136,0.16
		l-0.006,0.297l-0.123,0.283l0.161,0.58l0.631,0.027l0.309-0.043l0.295,0.049l0.277,0.133l0.262,0.197l0.291,0.058l0.547-0.281
		l0.28,0.057l0.253-0.36l0.236-0.182l0.085,0.694l0.258,0.315l0.32,0.203l0.371-0.042l0.383-0.068l0.334,0.102l0.319,0.168
		l0.381,0.011l0.333-0.264l0.147-0.054l0.148-0.019l0.141-0.122l0.117-0.151l0.37-0.152l0.393,0.098l0.301,0.142l0.286-0.096
		l0.043,0.499l-0.256,0.515l0.153,0.31l0.63,0.097l0.265,0.201l0.442,0.505l0.526,0.29l0.235,0.183l0.069,0.347l0.223,0.221
		l0.291,0.103l0.041,0.036l-0.048,0.166l-0.018,0.231l-0.06,0.12l-0.069,0.102l0.058,0.171l0.003,0.07l-0.116,0.234l-0.163,0.346
		l-0.182,0.219l-0.098,0.204l0,0l-0.019,0.037l-0.02-0.045l0.02,0.045l0.117-0.242l0.182-0.219l0.163-0.346l0.116-0.234l-0.003-0.07
		l-0.058-0.171l0.069-0.102l0.06-0.12l0.018-0.231l0.048-0.166l-0.041-0.036l-0.291-0.103l-0.228,0.298l-0.188-0.025l-0.172,0.295
		l-0.316,0.025l-0.36,0.236l-0.201-0.128l-0.259-0.01l-0.241,0.097l-0.194,0.141l-0.146,0.181l-0.238,0.529l-0.181,0.211
		l-0.522-0.081L48.588,46.154z M40.249,50.414l0.052,0.141l-0.03,0.124l-0.057,0.132l-0.03,0.162l0.028,0.256l-0.008,0.147
		l-0.058,0.064l-0.082,0.046l0.087,0.252l-0.042,0.126l-0.157,0.029l-0.15-0.09l-0.161-0.071l-0.19,0.088l-0.166,0.022l-0.102-0.241
		l-0.115-0.502L38.9,51.01l-0.134,0.093l-0.091,0.209l-0.034,0.259l-0.062,0.109l-0.145,0.005l-0.153-0.053l-0.093-0.061
		l-0.063-0.112l-0.015-0.092l-0.002-0.109l-0.022-0.158l-0.282-0.918l-0.037-0.222l0.027-0.219l0.117-0.224l0.078-0.057l0.08-0.015
		l0.062-0.042l0.048-0.275l0.06-0.079l0.164-0.128l0.135-0.065l0.155,0.048l0.136,0.121l0.079,0.156l-0.014,0.164l-0.09,0.156
		l-0.23,0.24l0.042,0.086l0.047,0.218l0.057,0.113l0.087,0.061l0.219,0.073l0.123,0.22l0.198-0.035l0.251-0.099l0.237-0.051
		l0.344,0.058L40.249,50.414z M47.191,49.743l-0.012,0.147l-0.046,0.156l-0.09,0.087l-0.139-0.059l0.057,0.167l0.132,0.281
		l0.027,0.193l-0.078,0.031l-0.179-0.062l-0.192-0.101L46.555,50.5l-0.032,0.174l-0.032,0.094l-0.177,0.206l-0.057,0.161
		l0.121,0.093l0.168,0.07l0.085,0.096l-0.16,0.141l-0.741,0.229l-0.223,0.015l0.349-0.254l-0.145-0.069l-0.055-0.11l0.008-0.148
		l0.052-0.182l-0.317,0.162l-0.094-0.065l-0.046-0.143l0.006-0.144l0.064-0.065l0.255-0.052l0.072-0.137l0.005-0.194l0.055-0.219
		l-0.14-0.085l-0.105,0.13l-0.367,0.162L44.944,50.5l-0.116-0.181l-0.146-0.16l-0.119-0.179l-0.032-0.237l0.066-0.143l0.135-0.132
		l0.156-0.101l0.133-0.057l0.383-0.079l0.105,0.002l0.168,0.071l0.134,0.088l0.137,0.067l0.19,0.013v-0.077l-0.19-0.125
		l-0.108-0.186l-0.048-0.212l-0.011-0.199l0.135,0.017l0.716-0.408l-0.122-0.229l0.057-0.227l0.157-0.126l0.181,0.071l0.045,0.103
		l0.003,0.121l-0.067,0.462l0.005,0.073l0.047,0.146l0.062,0.117l0.045,0.121l-0.003,0.164l-0.041,0.148l-0.161,0.423l0.207-0.073
		l0.099-0.068l0.033,0.024L47.191,49.743z M40.281,50.039l0.042,0.033l0.057,0.086l-0.108,0.027l-0.463-0.122l-0.253,0.081
		l-0.148-0.018l-0.152-0.093l-0.09-0.177l0.07-0.192l0.14-0.181l0.089-0.17l0.093-0.12l0.162-0.044l0.052,0.138L39.7,49.489
		l-0.036,0.137l0.01,0.114l0.054,0.037l0.06-0.135l0.12-0.19l0.098-0.017l0.03,0.087l0.052,0.05l0.051,0.028l0.023,0.149
		l0.058,0.207L40.281,50.039z M48.154,47.838l-0.045,0.258l-0.067,0.092l-0.052,0.018l-0.025-0.054l-0.05-0.218l-0.077-0.081
		l-0.027-0.064l0.012-0.088l-0.035-0.104l-0.054-0.098l0.028-0.09l0.108-0.061l0.117-0.012l0.102,0.03l0.07,0.157L48.154,47.838z
		 M42.549,52.593l0.026,0.028l-0.015,0.066l-0.098,0.121l-0.044,0.029l-0.066,0.01l-0.097-0.022l-0.08,0.012l-0.109,0.054
		l-0.053,0.05l-0.061,0.013l-0.01-0.046l0.036-0.079l-0.01-0.064l-0.045-0.045l-0.038-0.009l-0.045-0.034l0.004-0.062l0.027-0.057
		l0.004-0.068l0.041-0.039l0.069-0.017l0.324,0.173l0.001,0.077l0.047,0.005L42.549,52.593z M43.482,50.35l0.098-0.04l0.157-0.039
		l0.179-0.012l0.1,0.098l0.027,0.16l-0.054,0.1l0.037,0.06l-0.044,0.075l-0.103-0.041l-0.041,0.025l0.003,0.031l0.084,0.016
		l0.084,0.069l-0.041,0.075l-0.104,0.131l-0.169,0.002l-0.074-0.095l-0.04-0.097l-0.086-0.003l0.02-0.082l-0.028-0.081l-0.132-0.02
		l-0.047-0.038l0.098-0.078l0.019-0.095l-0.099-0.078l-0.184-0.064l-0.117,0.037l-0.069-0.004l-0.022-0.082l0.082-0.09l0.12-0.03
		l0.158,0.064l0.12,0.092L43.482,50.35z M41.99,50.151l0.153,0.171l0.057,0.097l-0.041,0.067h-0.11l-0.052,0.027l0.007,0.088
		l-0.031,0.038l-0.097-0.027l-0.06-0.029l-0.112-0.078l-0.065-0.097l0.012-0.067l0.07-0.114l0.137-0.104L41.99,50.151z"/>
	<path class="st7" d="M51.799,46.069l-0.05,0.102l-0.158-0.003l-0.117-0.005l-0.144,0.024l-0.106-0.006l-0.111,0.05l-0.122,0.014
		l-0.01,0.175l0.082,0.122l0.014,0.146l-0.052,0.166l-0.229,0.107l-0.185-0.161l-0.112-0.093l-0.083-0.103l-0.268,0.287
		l-0.122,0.229l-0.039,0.243l-0.083,0.058l-0.049-0.123l-0.122-0.132l0.01,0.118l0.024,0.254l-0.078,0l-0.034-0.084l-0.044-0.02
		l-0.105,0.07l-0.1,0.062l-0.068-0.084l-0.083-0.281l0.034-0.253l0.078-0.321l0.015-0.18l-0.454,0.643l-0.141,0.01l0-0.492
		l-0.198-0.454l0.346-0.356l0.522,0.081l0.181-0.211l0.238-0.529l0.146-0.181l0.194-0.141l0.241-0.097l0.259,0.01l0.201,0.128
		l0.36-0.236l0.316-0.025l0.172-0.295l0.188,0.025l0.228-0.298l0.291,0.103l0.041,0.036l-0.048,0.166l-0.018,0.231l-0.06,0.12
		l-0.069,0.102l0.058,0.171l0.003,0.07l-0.278,0.58l-0.182,0.219L51.799,46.069L51.799,46.069z"/>
	<path class="st8" d="M54.455,40.47l0.016,0.019l0.068,0.121L54.5,40.883l-0.022,0.324l-0.069,0.487L54.306,41.9l-0.168,0.227
		l-0.155,0.084l-0.067-0.221l-0.06-0.288l-0.132-0.216l-0.142-0.037l-0.085,0.245l0.14,0.032l0.083,0.106l0.04,0.155l0.009,0.178
		l-0.045,0.168l-0.105,0.039l-0.117,0.011l-0.082,0.082l0.015,0.09l0.013,0.233l0.042,0.24l-0.095,0.154l-0.087,0.154l0.085,0.12
		l0.068,0.069l-0.014,0.17l-0.21,0.069l-0.198,0.119l-0.284,0.281l-0.24-0.009l-0.004,0.013l-0.041-0.036l-0.291-0.103l-0.223-0.221
		l-0.069-0.347l-0.235-0.183l-0.526-0.29l-0.442-0.505l-0.265-0.201l-0.63-0.097l-0.153-0.31l0.256-0.515l-0.043-0.499l0.246-0.199
		l0.263-0.153l0.157-0.004l0.064-0.123l-0.098-0.162l-0.056-0.176l0.344-0.267l0.432-0.151l0.354-0.054l0.347,0.073l0.36,0.155
		l0.094,0.155l0.005,0.188l0.025,0.167l0.127,0.091l0.171,0.044l0.951-0.172l0.809,0.198L54.455,40.47z"/>
	<polygon class="st9" points="54.083,27.759 54.085,27.78 54.137,28.28 54.277,28.801 54.333,29.326 54.27,30.41 54.207,30.642 
		53.891,31.025 53.768,31.24 53.714,31.49 53.671,33.02 53.706,33.228 53.768,33.343 53.836,33.389 53.891,33.453 53.95,33.883 
		54.026,34.212 54.108,34.27 54.163,34.341 54.125,34.538 54.043,34.649 53.936,34.701 53.835,34.734 53.665,34.874 53.656,35.047 
		53.871,35.247 54.026,35.42 54.189,35.62 54.397,35.656 54.659,35.45 55.309,34.739 55.434,34.529 55.603,34.664 55.64,34.881 
		55.713,35.106 55.766,35.357 55.606,35.607 55.238,36.34 55.209,36.668 55.1,37.53 54.835,38.279 54.85,38.747 54.579,39.56 
		54.379,39.955 54.291,40.152 54.377,40.376 54.455,40.47 54.446,40.473 53.637,40.275 52.686,40.446 52.514,40.402 52.388,40.311 
		52.362,40.143 52.357,39.956 52.263,39.801 51.903,39.646 51.556,39.573 51.202,39.627 50.77,39.778 50.425,40.045 50.481,40.221 
		50.58,40.383 50.515,40.506 50.358,40.51 50.095,40.664 49.848,40.863 49.562,40.958 49.261,40.817 48.868,40.719 48.498,40.871 
		48.381,41.022 48.24,41.144 48.092,41.163 47.945,41.218 47.612,41.482 47.231,41.471 46.912,41.303 46.578,41.201 46.195,41.269 
		45.824,41.311 45.504,41.108 45.246,40.794 45.162,40.099 44.926,40.282 44.674,40.642 44.394,40.585 43.846,40.866 43.556,40.807 
		43.293,40.611 43.017,40.478 42.722,40.428 42.413,40.472 41.782,40.445 41.622,39.865 41.744,39.582 41.751,39.285 41.614,39.125 
		41.457,39.027 41.422,38.919 41.365,38.802 41.139,38.642 41.002,38.383 40.808,38.172 40.544,38.082 40.254,38.085 39.961,38.062 
		39.795,37.95 39.66,37.838 39.351,37.814 39.267,37.786 39.185,37.748 39.144,37.647 39.135,37.547 39.041,37.467 38.946,37.395 
		38.739,37.275 38.657,36.995 38.704,36.192 38.286,35.478 38.534,35.356 38.791,35.27 38.949,34.961 39.035,34.637 39.114,34.496 
		39.212,34.377 39.235,34.169 39.232,33.996 39.175,33.656 39.423,33.444 39.668,33.49 39.886,33.503 39.769,32.843 39.538,32.673 
		39.016,32.798 38.817,32.704 38.528,32.462 38.28,32.381 37.869,32.478 37.808,31.876 38.034,31.681 38.181,31.389 38.068,31.189 
		38.004,30.97 38.065,30.666 38.106,29.974 38.207,29.684 38.393,29.503 37.893,28.776 37.492,28.708 37.377,28.417 37.528,28.347 
		37.678,28.32 37.826,28.162 38.056,27.852 38.113,27.723 38.107,27.604 38.133,27.453 38.452,27.237 38.809,27.067 39.031,26.736 
		39.421,26.906 40.145,27.021 39.997,26.734 39.801,26.482 39.87,26.221 39.998,25.943 40.121,25.733 40.285,25.842 40.489,25.824 
		40.657,25.598 40.831,25.486 40.996,25.592 41.312,25.703 41.607,25.726 41.679,25.516 41.73,25.317 41.836,25.149 41.969,25.017 
		42.103,25.167 42.273,25.288 42.514,25.496 42.666,25.804 43.03,25.924 43.886,25.565 44.037,25.064 43.902,24.94 43.83,24.815 
		43.96,24.577 44.067,24.337 44.292,24.015 44.608,23.791 44.698,23.628 44.825,23.523 45.036,23.456 45.206,23.291 45.466,23.074 
		45.702,22.824 45.801,22.761 45.923,22.808 46.061,22.728 46.186,22.586 46.448,22.725 46.7,22.831 47.006,22.897 47.267,22.921 
		47.327,22.648 47.36,22.355 47.292,22.04 47.478,21.813 47.756,21.683 48.035,21.705 48.179,21.957 48.376,22.002 48.554,22.09 
		48.528,22.313 48.552,22.537 48.858,22.417 49.149,22.19 49.273,22.242 49.36,22.358 49.472,22.372 49.607,22.317 50.008,22.384 
		50.385,22.557 50.652,22.49 50.93,22.343 51.28,22.425 51.599,22.617 52.883,22.554 53.837,21.487 54.16,21.936 54.2,22.089 
		54.14,22.237 54.045,22.378 53.985,22.516 53.981,22.64 54.063,23.144 54.145,24.181 54.24,24.708 54.579,25.782 54.607,26.308 
		54.5,26.794 54.27,27.235 	"/>
	<path class="st10" d="M28.761,62.369l0.077,0.159l-0.047,0.054l-0.099,0.029l-0.071,0.085l0.005,0.071l0.065,0.113v0.066
		l-0.035,0.066l-0.087,0.115l-0.017,0.036l-0.184,0.213l-0.347,0.277l-0.108,0.231l-0.154,0.27l-0.007,0.108l-0.068,0.159
		l-0.252,0.029l-0.097,0.051l-0.269-0.024l-0.392,0.31l-1.033,0.19l-0.346,0.294l-0.423,0.094l-0.453-0.045L23.9,65.416l-0.43-0.129
		L22.497,65.3l-0.303,0.142l-0.18,0.319l-0.165,0.034l-0.165-0.079l-0.233-0.377l-0.31-0.105l-0.301-0.315l-0.105-0.384l0.182-0.497
		l0.172-0.308l0.107-0.108l0.355-0.21l0.303-0.527l0.279-0.071l0.129-0.279l0.478-0.165l1.043-0.299l0.261-0.225l0.997-0.104
		l0.679-0.296l0.163,0.046l0.826-0.133l0.479-0.04l0.317,0.053l0.121,0.182l0.151,0.118l0.493,0.196l0.15,0.152l0.101,0.367
		l0.099,0.143l0.047-0.056l0.065-0.053L28.761,62.369z"/>
	<path class="st11" d="M30.498,15.807l0.28-0.003l0.24-0.087l0.208-0.003l0.078,0.187l-0.027,0.192l-0.143,0.072l-0.155,0.103
		l0.003,0.233l0.082,0.092l-0.175,0.239l-0.097,0.168l-0.265,0.157l-0.292,0.068l-0.3,0.151l-0.117-0.269l-0.256,0.059l-0.254,0.079
		l-0.18,0.103l-0.187,0.031l-0.439-0.015l-0.3-0.394l-0.296-0.089l-0.204-0.134l-0.054-0.369l-0.575-0.26l0.13-0.325l0.153-0.329
		l0.286,0.018l0.328,0.2l0.243-0.083l0.217-0.132l0.017-0.222l0.059-0.204l0.459-0.044l0.236-0.3l0.144-0.304l0.204-0.218
		l0.319-0.076l0.368,0.03l0.175,0.302l0.068,0.41l0.107,0.287l0.006,0.315L30.498,15.807z"/>
	<path class="st12" d="M31.971,24.417l0.459-0.135l0.434-0.209l0.34-0.114l0.092-0.376l0.167-0.181l0.262-0.113l0.124-0.16
		l0.085-0.212l0.158-0.168l0.2,0.042l0.058,0.077l0.257-0.179l0.488-0.908l0.05-0.109l0.059-0.1l0.079-0.064l0.082-0.058
		l0.082-0.124l0.072-0.136l1.08-0.296l1.087-0.149l-0.088,0.618l0.311-0.073l0.313,0.022l0.087,0.054l0.088,0.041l0.079-0.069
		l0.069-0.084l0.207-0.142l-0.056-0.623l0.193-0.237l0.521-0.176l0.389,0.412v0.275l0.127,0.178l0.339-0.082l0.338-0.188
		l0.205-0.158l0.244,0.051l0.202-0.106l0.237-0.183l0.571,0.203l0.583,0.092l0.184,0.055l-0.118,0.27l-0.295,0.21l-0.175,0.272
		l0.112,0.126l0.145,0.08l0.091,0.002l0.093-0.044l0.311-0.104l0.487-0.056l0.101,0.112l-0.018,0.183l0.203,0.211l0.074,0.168
		l0.186-0.014l0.22-0.039l0.246-0.079l0.244-0.002l0.243,0.184l0.269,0.175l0.266,0.053l0.26,0.03l0.207,0.09l0.205,0.132
		l-0.125,0.142l-0.138,0.08l-0.122-0.047l-0.099,0.063l-0.236,0.25l-0.26,0.217l-0.17,0.165l-0.211,0.066l-0.127,0.106l-0.09,0.163
		l-0.316,0.224l-0.225,0.322l-0.107,0.24l-0.13,0.238l0.072,0.125l0.135,0.125l-0.151,0.5l-0.856,0.36l-0.365-0.12l-0.152-0.308
		l-0.241-0.209l-0.17-0.121l-0.133-0.149l-0.133,0.131l-0.107,0.168l-0.051,0.199l-0.072,0.21l-0.295-0.023l-0.316-0.111
		l-0.165-0.106l-0.174,0.112l-0.168,0.226l-0.204,0.017l-0.164-0.108l-0.124,0.209l-0.128,0.279l-0.069,0.261l0.195,0.252
		l0.149,0.286l-0.725-0.115l-0.39-0.169l-0.222,0.331l-0.357,0.169l-0.318,0.216l-0.026,0.151l0.006,0.119l-0.057,0.13l-0.23,0.309
		l-0.148,0.158l-0.15,0.027l-0.151,0.07l0.115,0.291l0.4,0.068l0.501,0.727l-0.186,0.181l-0.101,0.29l-0.041,0.691l-0.061,0.305
		l0.064,0.218l0.113,0.2l-0.147,0.292l-0.226,0.195l0.061,0.602l0.411-0.097l0.247,0.081l0.29,0.242l0.199,0.094l0.522-0.125
		l0.231,0.171l0.116,0.66l-0.218-0.013l-0.245-0.045l-0.247,0.212l0.057,0.34l0.002,0.173l-0.022,0.208l-0.098,0.119l-0.079,0.141
		l-0.086,0.324l-0.159,0.309l-0.257,0.086l-0.248,0.122l-0.131,0.138l-0.131,0.12l-0.15-0.081l-0.149-0.142l-0.377,0.17
		l-0.329,0.201l-0.164-0.047l-0.095-0.119l-0.458-0.15l-0.153-0.182l-0.173-0.102l-0.067,0.089l-0.082,0.02l-0.097-0.089
		l-0.088-0.105l-0.232-0.361l-0.208-0.37l-0.088-0.433l0.014-0.437l-0.106-0.376l-0.314-0.192l-0.303-0.098l-0.33,0.068l-0.027-0.36
		l0.018-0.35l0.123-0.49l0.231-0.416l0.093-0.212l0.104-0.189l0.168-0.127l0.039-0.22l-0.131-0.044l-0.142-0.064l-0.172,0.126
		l-0.134,0.181l-0.106-0.337L34.12,30.27l-0.126-0.065l0.018-0.145l-0.143-0.035l-0.119,0.173l-0.33,0.073l-0.309-0.088l0.039-0.222
		l-0.059-0.142l-0.089-0.043l-0.073-0.08l-0.036-0.092l0.023-0.097l0.052-0.321l-0.041-0.146l0.151-1.021l-0.27-0.398L32.8,27.196
		L32.332,26.6l0.086-0.092l0.097,0.015l0.095-0.027l0.052-0.097l0.014-0.11l0.032-0.139l0.05-0.134l0.025-0.144l-0.022-0.145
		L32.692,25.6l-0.085-0.077l0.011-0.262l-0.134-0.094l-0.175-0.353l-0.137-0.08l-0.12-0.127L31.971,24.417z"/>
	<path class="st13" d="M29.165,45.131l0.207,0.571l-0.403,0.537l-0.631-0.101l-0.523,0.361l-0.409-0.141l0.095-0.215l-0.321-0.278
		l-0.085-0.634l0.406-0.574h0.314l0.274,0.421l0.268-0.061l0.28-0.084L29.165,45.131z"/>
	<path class="st14" d="M48.126,37.477l-0.077-0.023l-0.096,0.008l0.005,0.083l-0.014,0.106l-0.096,0.252l-0.001,0.081l-0.031,0.118
		l0.081,0.833l-0.702,0.341l-0.528-1.223l-0.146,0.115l0.05,0.322l0.124,0.544l-0.524,1.065h-0.658l-0.463-0.347l0.002-0.476
		l0.687-0.193l-0.592-0.465l0.529-0.128l0.106-0.231l-0.155-0.455l-0.159-0.062l-0.061-0.233l0.142-0.198l0.153-0.001l0.165-0.027
		l0.043-0.119l0.019-0.126l-0.09-0.033l-0.097-0.016l0.11-0.248l0.175-0.193l-0.064-0.575l0.481-0.399l0.651-0.087l0.54-0.035
		l0.41,0.301l0.13,0.226l-0.005,0.1l-0.05,0.084l0.003,0.319l0.082,0.124l0.11,0.093l0.021,0.2l0.005,0.213l-0.055,0.199
		L48.126,37.477z"/>
	<polygon class="st15" points="32.686,29.494 32.487,30.026 32.101,30.662 32.287,31.023 31.697,31.843 32.368,32.678 
		33.055,32.499 33.107,31.843 33.474,31.871 33.5,32.167 33.646,32.117 34.19,31.806 34.421,31.389 34.514,31.177 34.618,30.988 
		34.786,30.862 34.825,30.642 34.694,30.598 34.552,30.534 34.38,30.66 34.246,30.841 34.14,30.503 34.122,30.277 33.996,30.212 
		34.014,30.067 33.872,30.032 33.752,30.205 33.422,30.279 33.114,30.191 33.153,29.968 33.094,29.826 33.005,29.783 32.932,29.703 
		32.896,29.611 32.919,29.514 32.919,29.514 32.9,29.512 	"/>
	<polygon class="st16" points="33.071,28.007 32.801,27.608 32.792,27.184 32.324,26.587 31.639,26.117 31.27,26.351 31.475,26.924 
		31.825,27.372 31.625,27.806 31.644,28.02 31.51,28.442 31.824,28.704 32.139,28.765 32.192,29.193 32.676,29.474 32.909,29.494 
		32.961,29.173 32.92,29.028 	"/>
	<polygon class="st9" points="57.518,21.205 57.698,21.338 57.685,21.668 57.569,22.035 57.446,22.279 57.246,22.377 56.978,22.326 
		56.717,22.173 56.544,21.969 56.489,21.704 56.578,21.507 56.768,21.383 57.142,21.321 57.392,21.23 	"/>
	<polygon class="st9" points="60.149,24.305 60.228,24.363 60.222,24.507 60.171,24.667 60.118,24.774 60.03,24.817 59.913,24.795 
		59.799,24.728 59.723,24.638 59.699,24.523 59.738,24.436 59.821,24.382 59.985,24.355 60.094,24.316 	"/>
	<polygon class="st9" points="60.465,24.561 60.581,24.576 60.655,24.651 60.622,24.793 60.522,24.89 60.461,24.919 60.427,24.847 
		60.37,24.686 60.383,24.573 	"/>
</g>
<g>
	<path class="st17" d="M19.71,31.034v3.318h-6.051v14.79H9.498v-14.79H3.447v-3.318H19.71z"/>
	<path class="st17" d="M34.786,37.567l-5.172,11.809H27.82l-7.342-18.341h4.42l3.933,9.996l4.287-9.996h3.353l4.294,9.996
		l3.901-9.996h4.416l-7.306,18.341h-1.794L34.786,37.567z"/>
	<path class="st17" d="M58.459,30.801c2.846,0,5.15,0.931,6.912,2.793c1.762,1.862,2.643,4.029,2.643,6.501
		c0,2.506-0.893,4.679-2.679,6.52c-1.786,1.84-4.078,2.761-6.876,2.761c-2.83,0-5.134-0.916-6.912-2.748s-2.667-4.01-2.667-6.533
		c0-2.48,0.883-4.649,2.649-6.507C53.296,31.73,55.606,30.801,58.459,30.801z M58.459,45.616c1.579,0,2.85-0.507,3.815-1.523
		c0.964-1.015,1.447-2.348,1.447-3.999c0-1.659-0.482-2.994-1.447-4.006c-0.965-1.011-2.236-1.516-3.815-1.516
		c-1.586,0-2.864,0.505-3.832,1.516c-0.969,1.011-1.453,2.346-1.453,4.006c0,1.651,0.484,2.984,1.453,3.999
		C55.596,45.109,56.873,45.616,58.459,45.616z"/>
</g>
<g>
	<path class="st18" d="M19.177,21.775c0,1.212-0.351,2.33-1.051,3.355c-0.701,1.025-1.599,1.81-2.695,2.356
		c-0.664,0.326-1.357,0.542-2.079,0.65c-0.722,0.107-1.586,0.161-2.592,0.161H6.5l2.715-10.697h3.811
		c1.122,0,2.026,0.079,2.712,0.237c0.685,0.158,1.239,0.371,1.661,0.639c0.58,0.364,1.021,0.818,1.324,1.361
		C19.026,20.383,19.177,21.028,19.177,21.775z M16,22.026c0-0.488-0.1-0.909-0.3-1.26c-0.2-0.352-0.505-0.636-0.916-0.851
		c-0.189-0.096-0.382-0.169-0.58-0.219c-0.197-0.05-0.422-0.088-0.675-0.112c-0.242-0.019-0.518-0.029-0.829-0.029
		c-0.31,0-0.582,0-0.813,0h-0.103l-1.737,6.782h0.276c0.305,0,0.631,0,0.979,0s0.629-0.012,0.845-0.036
		c0.279-0.024,0.53-0.062,0.754-0.115c0.224-0.053,0.469-0.141,0.738-0.266c0.758-0.354,1.341-0.884,1.749-1.587
		C15.796,23.629,16,22.86,16,22.026z"/>
	<path class="st18" d="M24.259,28.492c-1.007,0-1.904-0.079-2.691-0.237c-0.788-0.158-1.469-0.355-2.043-0.589l0.608-2.565h0.332
		c0.543,0.451,1.18,0.799,1.913,1.046c0.732,0.247,1.52,0.37,2.363,0.37c0.864,0,1.499-0.107,1.905-0.32s0.609-0.518,0.609-0.916
		c0-0.149-0.033-0.277-0.099-0.385c-0.066-0.107-0.194-0.214-0.383-0.32c-0.19-0.105-0.449-0.209-0.779-0.312
		c-0.329-0.103-0.755-0.222-1.276-0.356c-0.575-0.144-1.09-0.299-1.545-0.467c-0.456-0.167-0.845-0.366-1.166-0.596
		c-0.321-0.235-0.565-0.505-0.731-0.812c-0.166-0.306-0.249-0.673-0.249-1.099c0-1.073,0.52-1.929,1.561-2.568
		c1.041-0.639,2.465-0.959,4.272-0.959c0.869,0,1.69,0.065,2.462,0.194c0.772,0.129,1.427,0.304,1.964,0.524l-0.577,2.464h-0.324
		c-0.411-0.343-0.952-0.63-1.625-0.861c-0.672-0.231-1.406-0.346-2.201-0.346c-0.78,0-1.383,0.102-1.81,0.307s-0.64,0.488-0.64,0.85
		c0,0.168,0.032,0.307,0.095,0.416c0.063,0.11,0.192,0.218,0.387,0.323c0.169,0.096,0.435,0.2,0.798,0.313
		c0.364,0.113,0.791,0.229,1.28,0.348c1.317,0.321,2.258,0.697,2.822,1.128c0.564,0.431,0.846,1.016,0.846,1.753
		c0,0.618-0.153,1.161-0.458,1.631c-0.306,0.47-0.728,0.85-1.265,1.142c-0.564,0.312-1.204,0.539-1.921,0.683
		C25.977,28.421,25.166,28.492,24.259,28.492z"/>
	<path class="st18" d="M41.74,28.298h-9.466l0.571-2.25h2.981l1.728-6.812H34.57l0.535-2.103c0.439,0,0.884-0.026,1.333-0.078
		c0.449-0.052,0.823-0.136,1.122-0.251c0.331-0.133,0.618-0.313,0.86-0.541c0.242-0.228,0.42-0.524,0.535-0.887h3.157l-2.718,10.672
		h2.918L41.74,28.298z"/>
</g>
<g>
	<path class="st19" d="M13.246,52.931v-0.693h1.784v0.886h-0.175L13.246,52.931z M15.03,59.827v0.886h-1.784v-0.693l1.609-0.194
		H15.03z M14.099,56.237c0-1.328,0-2.67-0.033-3.999h1.928c-0.033,1.303-0.033,2.645-0.033,3.999v0.425c0,1.381,0,2.723,0.033,4.051
		h-1.928c0.033-1.302,0.033-2.645,0.033-4.042V56.237z M15.03,59.971h1.318c1.269,0,2.054-1.265,2.054-3.501
		c0-2.271-0.785-3.489-2.034-3.489H15.03v-0.743h1.51c2.362,0,3.785,1.606,3.785,4.214c0,2.693-1.561,4.262-3.983,4.262H15.03
		V59.971z"/>
	<path class="st19" d="M24.752,58.958c0-0.68-0.288-0.989-0.957-1.335l-0.469-0.249c-1.307-0.693-2.059-1.46-2.059-2.887
		c0-1.549,1.075-2.489,2.755-2.489c0.79,0,1.554,0.243,2.095,0.656l-0.091,1.807h-1.017l-0.27-1.948l0.893,0.37v0.646
		c-0.591-0.499-1.009-0.765-1.581-0.765c-0.632,0-1.143,0.466-1.143,1.173c0,0.682,0.351,1.039,1.008,1.381l0.521,0.278
		c1.415,0.742,1.996,1.452,1.996,2.758c0,1.522-1.001,2.599-2.896,2.599c-0.831,0-1.769-0.217-2.407-0.674l0.067-1.918h1.033
		l0.288,2.089l-0.857-0.315v-0.62c0.703,0.441,1.16,0.672,1.874,0.672C24.325,60.188,24.752,59.657,24.752,58.958z"/>
	<path class="st19" d="M34.447,56.476c0,2.974-1.687,4.477-3.517,4.477c-1.831,0-3.52-1.471-3.52-4.477
		c0-2.974,1.701-4.477,3.52-4.477C32.749,51.998,34.447,53.47,34.447,56.476z M28.184,61.157l-0.618-0.602l6.08-8.76l0.618,0.602
		L28.184,61.157z M30.93,60.206c1.115,0,1.553-1.59,1.553-3.73c0-2.13-0.438-3.739-1.553-3.739c-1.116,0-1.557,1.61-1.557,3.739
		C29.373,58.616,29.815,60.206,30.93,60.206z"/>
	<path class="st19" d="M35.088,52.931v-0.693h3.496v0.693l-1.561,0.194h-0.326L35.088,52.931z M37.023,59.827l1.441,0.194v0.693
		h-3.376v-0.693l1.609-0.194H37.023z M35.941,56.237c0-1.328,0-2.67-0.033-3.999h1.847c-0.033,1.303-0.033,2.645-0.033,3.999v0.562
		c0,1.244,0,2.586,0.033,3.915h-1.847c0.033-1.302,0.033-2.645,0.033-3.999V56.237z M36.874,57.871l3.912-5.632h0.825l-4.737,6.536
		V57.871z M39.365,54.795l2.699,5.918h-2.026l-1.825-4.281L39.365,54.795z M39.183,60.021l1.49-0.194h0.255l1.458,0.194v0.693
		h-3.203V60.021z M39.473,52.931v-0.693h2.566v0.693l-1.284,0.194l-0.326,0.018L39.473,52.931z"/>
	<path class="st19" d="M42.864,52.931v-0.693h1.784v0.886h-0.175L42.864,52.931z M44.648,59.827v0.886h-1.784v-0.693l1.609-0.194
		H44.648z M43.717,56.237c0-1.328,0-2.67-0.033-3.999h1.928c-0.033,1.303-0.033,2.645-0.033,3.999v0.425
		c0,1.381,0,2.723,0.033,4.051h-1.928c0.033-1.302,0.033-2.645,0.033-4.042V56.237z M44.648,59.971h1.318
		c1.269,0,2.054-1.265,2.054-3.501c0-2.271-0.785-3.489-2.034-3.489h-1.338v-0.743h1.51c2.362,0,3.785,1.606,3.785,4.214
		c0,2.693-1.561,4.262-3.983,4.262h-1.313V59.971z"/>
	<path class="st19" d="M50.515,60.021l1.18-0.194h0.317l1.427,0.194v0.693h-2.924V60.021z M51.094,52.694l0.639,0.365L50.53,52.94
		v-0.702h2.503l3.977,6.351v2.149h-0.939L51.094,52.694z M51.457,52.238l0.714,0.702v7.773h-0.714V52.238z M55.028,52.238h2.925
		v0.693l-1.125,0.194h-0.309l-1.491-0.194V52.238z M56.296,52.238h0.714v8.5l-0.714-0.831V52.238z"/>
</g>
<g>
	<path d="M13.246,52.931v-0.693h1.784v0.886h-0.175L13.246,52.931z M15.03,59.827v0.886h-1.784v-0.693l1.609-0.194H15.03z
		 M14.099,56.237c0-1.328,0-2.67-0.033-3.999h1.928c-0.033,1.303-0.033,2.645-0.033,3.999v0.425c0,1.381,0,2.723,0.033,4.051h-1.928
		c0.033-1.302,0.033-2.645,0.033-4.042V56.237z M15.03,59.971h1.318c1.269,0,2.054-1.265,2.054-3.501
		c0-2.271-0.785-3.489-2.034-3.489H15.03v-0.743h1.51c2.362,0,3.785,1.606,3.785,4.214c0,2.693-1.561,4.262-3.983,4.262H15.03
		V59.971z"/>
	<path d="M24.752,58.958c0-0.68-0.288-0.989-0.957-1.335l-0.469-0.249c-1.307-0.693-2.059-1.46-2.059-2.887
		c0-1.549,1.075-2.489,2.755-2.489c0.79,0,1.554,0.243,2.095,0.656l-0.091,1.807h-1.017l-0.27-1.948l0.893,0.37v0.646
		c-0.591-0.499-1.009-0.765-1.581-0.765c-0.632,0-1.143,0.466-1.143,1.173c0,0.682,0.351,1.039,1.008,1.381l0.521,0.278
		c1.415,0.742,1.996,1.452,1.996,2.758c0,1.522-1.001,2.599-2.896,2.599c-0.831,0-1.769-0.217-2.407-0.674l0.067-1.918h1.033
		l0.288,2.089l-0.857-0.315v-0.62c0.703,0.441,1.16,0.672,1.874,0.672C24.325,60.188,24.752,59.657,24.752,58.958z"/>
	<path d="M34.447,56.476c0,2.974-1.687,4.477-3.517,4.477c-1.831,0-3.52-1.471-3.52-4.477c0-2.974,1.701-4.477,3.52-4.477
		C32.749,51.998,34.447,53.47,34.447,56.476z M28.184,61.157l-0.618-0.602l6.08-8.76l0.618,0.602L28.184,61.157z M30.93,60.206
		c1.115,0,1.553-1.59,1.553-3.73c0-2.13-0.438-3.739-1.553-3.739c-1.116,0-1.557,1.61-1.557,3.739
		C29.373,58.616,29.815,60.206,30.93,60.206z"/>
	<path d="M35.088,52.931v-0.693h3.496v0.693l-1.561,0.194h-0.326L35.088,52.931z M37.023,59.827l1.441,0.194v0.693h-3.376v-0.693
		l1.609-0.194H37.023z M35.941,56.237c0-1.328,0-2.67-0.033-3.999h1.847c-0.033,1.303-0.033,2.645-0.033,3.999v0.562
		c0,1.244,0,2.586,0.033,3.915h-1.847c0.033-1.302,0.033-2.645,0.033-3.999V56.237z M36.874,57.871l3.912-5.632h0.825l-4.737,6.536
		V57.871z M39.365,54.795l2.699,5.918h-2.026l-1.825-4.281L39.365,54.795z M39.183,60.021l1.49-0.194h0.255l1.458,0.194v0.693
		h-3.203V60.021z M39.473,52.931v-0.693h2.566v0.693l-1.284,0.194l-0.326,0.018L39.473,52.931z"/>
	<path d="M42.864,52.931v-0.693h1.784v0.886h-0.175L42.864,52.931z M44.648,59.827v0.886h-1.784v-0.693l1.609-0.194H44.648z
		 M43.717,56.237c0-1.328,0-2.67-0.033-3.999h1.928c-0.033,1.303-0.033,2.645-0.033,3.999v0.425c0,1.381,0,2.723,0.033,4.051h-1.928
		c0.033-1.302,0.033-2.645,0.033-4.042V56.237z M44.648,59.971h1.318c1.269,0,2.054-1.265,2.054-3.501
		c0-2.271-0.785-3.489-2.034-3.489h-1.338v-0.743h1.51c2.362,0,3.785,1.606,3.785,4.214c0,2.693-1.561,4.262-3.983,4.262h-1.313
		V59.971z"/>
	<path d="M50.515,60.021l1.18-0.194h0.317l1.427,0.194v0.693h-2.924V60.021z M51.094,52.694l0.639,0.365L50.53,52.94v-0.702h2.503
		l3.977,6.351v2.149h-0.939L51.094,52.694z M51.457,52.238l0.714,0.702v7.773h-0.714V52.238z M55.028,52.238h2.925v0.693
		l-1.125,0.194h-0.309l-1.491-0.194V52.238z M56.296,52.238h0.714v8.5l-0.714-0.831V52.238z"/>
</g>
</svg>
