<?xml version="1.0" encoding="utf-8"?>
<!-- Generator: Adobe Illustrator 25.0.0, SVG Export Plug-In . SVG Version: 6.00 Build 0)  -->
<svg version="1.1" id="레이어_1" xmlns="http://www.w3.org/2000/svg" xmlns:xlink="http://www.w3.org/1999/xlink" x="0px"
	 y="0px" width="71px" height="71px" viewBox="0 0 71 71" style="enable-background:new 0 0 71 71;" xml:space="preserve">
<style type="text/css">
	.st0{fill:#FFFFFF;stroke:#FFFFFF;stroke-width:0.75;stroke-miterlimit:10;}
	.st1{fill:#88BB3A;}
	.st2{fill:#C7D338;}
	.st3{fill:#5EB994;}
	.st4{fill:#AEC382;}
	.st5{fill:#E8BE37;}
	.st6{fill:#EB9D64;}
	.st7{fill:#E79196;}
	.st8{fill:#D06C7E;}
	.st9{fill:#4774B9;}
	.st10{fill:#4495B3;}
	.st11{fill:#BE8DB8;}
	.st12{fill:#B4BD31;}
	.st13{fill:#89C394;}
	.st14{fill:#D18B51;}
	.st15{fill:#126A7A;}
	.st16{fill:#449B77;}
	.st17{fill:#31825F;}
	.st18{stroke:#FFFFFF;stroke-width:0.75;stroke-miterlimit:10;}
	.st19{fill:#FFFFFF;stroke:#000000;stroke-width:0.75;stroke-miterlimit:10;}
</style>
<g>
	<path class="st0" d="M13.802,53.551v-0.689h1.771v0.882h-0.174L13.802,53.551z M15.573,60.408v0.882h-1.771v-0.689l1.597-0.193
		H15.573z M14.649,56.838c0-1.321,0-2.656-0.033-3.976h1.914c-0.033,1.296-0.033,2.63-0.033,3.976v0.423
		c0,1.373,0,2.708,0.033,4.029h-1.914c0.033-1.295,0.033-2.63,0.033-4.02V56.838z M15.573,60.551h1.309
		c1.26,0,2.04-1.258,2.04-3.481c0-2.258-0.78-3.47-2.02-3.47h-1.328v-0.738h1.5c2.346,0,3.759,1.597,3.759,4.19
		c0,2.678-1.55,4.238-3.955,4.238h-1.303V60.551z"/>
	<path class="st0" d="M25.226,59.544c0-0.676-0.286-0.983-0.95-1.327l-0.466-0.248c-1.298-0.689-2.044-1.452-2.044-2.871
		c0-1.54,1.068-2.475,2.736-2.475c0.785,0,1.543,0.241,2.08,0.652l-0.09,1.797h-1.01l-0.268-1.937l0.887,0.368v0.642
		c-0.587-0.496-1.002-0.76-1.57-0.76c-0.628,0-1.135,0.463-1.135,1.167c0,0.678,0.348,1.033,1.001,1.373l0.517,0.276
		c1.405,0.738,1.982,1.444,1.982,2.743c0,1.514-0.994,2.585-2.876,2.585c-0.826,0-1.756-0.216-2.39-0.671l0.066-1.907h1.026
		l0.286,2.078l-0.851-0.313v-0.616c0.699,0.438,1.152,0.668,1.861,0.668C24.802,60.767,25.226,60.239,25.226,59.544z"/>
	<path class="st0" d="M34.853,57.076c0,2.957-1.675,4.453-3.492,4.453c-1.818,0-3.495-1.463-3.495-4.453
		c0-2.957,1.689-4.453,3.495-4.453C33.167,52.623,34.853,54.086,34.853,57.076z M28.633,61.731l-0.613-0.599l6.037-8.712
		l0.613,0.599L28.633,61.731z M31.36,60.785c1.107,0,1.542-1.581,1.542-3.71c0-2.118-0.435-3.719-1.542-3.719
		c-1.108,0-1.546,1.601-1.546,3.719C29.815,59.204,30.253,60.785,31.36,60.785z"/>
	<path class="st0" d="M35.489,53.551v-0.689h3.471v0.689l-1.55,0.193h-0.323L35.489,53.551z M37.41,60.408l1.431,0.193v0.689h-3.352
		v-0.689l1.597-0.193H37.41z M36.336,56.838c0-1.321,0-2.656-0.033-3.976h1.834c-0.033,1.296-0.033,2.63-0.033,3.976v0.559
		c0,1.237,0,2.572,0.033,3.893h-1.834c0.033-1.295,0.033-2.63,0.033-3.976V56.838z M37.262,58.463l3.884-5.601h0.819l-4.703,6.5
		V58.463z M39.735,55.404l2.68,5.885h-2.012l-1.813-4.257L39.735,55.404z M39.555,60.601l1.48-0.193h0.253l1.448,0.193v0.689h-3.18
		V60.601z M39.843,53.551v-0.689h2.548v0.689l-1.275,0.193l-0.323,0.017L39.843,53.551z"/>
	<path class="st0" d="M43.21,53.551v-0.689h1.771v0.882h-0.174L43.21,53.551z M44.981,60.408v0.882H43.21v-0.689l1.597-0.193H44.981
		z M44.057,56.838c0-1.321,0-2.656-0.033-3.976h1.914c-0.033,1.296-0.033,2.63-0.033,3.976v0.423c0,1.373,0,2.708,0.033,4.029
		h-1.914c0.033-1.295,0.033-2.63,0.033-4.02V56.838z M44.981,60.551h1.309c1.26,0,2.04-1.258,2.04-3.481
		c0-2.258-0.78-3.47-2.02-3.47h-1.328v-0.738h1.5c2.346,0,3.759,1.597,3.759,4.19c0,2.678-1.55,4.238-3.955,4.238h-1.303V60.551z"/>
	<path class="st0" d="M50.807,60.601l1.172-0.193h0.315l1.417,0.193v0.689h-2.904V60.601z M51.381,53.315l0.635,0.363l-1.194-0.118
		v-0.698h2.485l3.948,6.316v2.137h-0.932L51.381,53.315z M51.743,52.862l0.709,0.698v7.73h-0.709V52.862z M55.288,52.862h2.904
		v0.689l-1.117,0.193h-0.307l-1.48-0.193V52.862z M56.547,52.862h0.709v8.453l-0.709-0.826V52.862z"/>
</g>
<g>
	<path class="st1" d="M43.268,1.773l0.305,0.605l0.477,0.945l0.095,0.414l0.243,0.627l0.903,1.788l0.704,1.874L46.11,8.23
		l0.367,0.455l0.141,0.382l1.704,2.44l0.661,0.964l0.792,0.879l0.112,0.092l0.531,0.625l0.027,0.264l0.002,0.317l0.063,0.269
		l0.362,0.202l0.105,0.216l0.299,0.974l0.133,0.225l0.16,0.096l0.134,0.139l0.465,0.916l0.28,0.352l0.097,0.194l0.037,0.205
		l0.071,0.199l0.493,0.543l0.157,0.445l0.14,0.972l0.192,0.534l0.524,0.731l0.04,0.153l-0.06,0.148l-0.095,0.141l-0.06,0.138
		l-0.004,0.124l0.074,0.401l0.09,1.143l0.095,0.527l0.339,1.076l0.027,0.527L54.5,26.726l-0.23,0.442l-0.187,0.524l0.187-0.524
		l0.23-0.442l0.106-0.487l-0.027-0.527l-0.339-1.076l-0.095-0.527l-0.09-1.143l-0.074-0.401l0.004-0.124l0.06-0.138l0.095-0.141
		l0.06-0.148l-0.04-0.153l-0.323-0.45l-0.954,1.069l-1.284,0.063L51.28,22.35l-0.35-0.082l-0.278,0.147l-0.267,0.068l-0.377-0.173
		l-0.401-0.068l-0.135,0.055l-0.112-0.014l-0.087-0.116l-0.125-0.052l-0.291,0.227l-0.306,0.12l-0.023-0.224l0.025-0.223
		l-0.178-0.088l-0.198-0.045l-0.144-0.253l-0.279-0.022l-0.278,0.13l-0.186,0.227l0.068,0.315l-0.033,0.294l-0.06,0.274
		l-0.261-0.024L46.7,22.757l-0.253-0.106l-0.262-0.139l-0.205-0.133l-0.207-0.09l-0.26-0.03l-0.266-0.053l-0.269-0.175l-0.243-0.184
		l-0.244,0.002l-0.246,0.079l-0.22,0.039l-0.186,0.014l-0.074-0.169l-0.203-0.211l0.018-0.183l-0.101-0.112l-0.487,0.056
		l-0.311,0.104l-0.093,0.044l-0.091-0.002l-0.145-0.08l-0.112-0.127l0.175-0.272l0.295-0.21l0.118-0.27l-0.184-0.055l-0.583-0.092
		l-0.571-0.204l-0.237,0.183l-0.202,0.106l-0.244-0.051l-0.205,0.158l-0.338,0.189l-0.339,0.082l-0.127-0.178v-0.276l-0.389-0.412
		l-0.521,0.176l-0.193,0.237l0.056,0.624l-0.207,0.142l-0.069,0.084l-0.079,0.069l-0.088-0.041l-0.087-0.054l-0.313-0.022
		l-0.311,0.074l0.088-0.619l-1.087,0.149l-1.08,0.296l0.555-1.028l0.454-1.118l0.63-1.346l0.078-0.289l-0.059-0.289l0.134-0.234
		l0.189-0.231l0.203-0.084l0.107-0.229l-0.116-0.198l-0.152-0.13l-0.243-0.027l-0.249-0.095l-0.344-0.046L36.13,15.45l-0.259-0.106
		l-0.257-0.169l-0.282-0.044l-0.274,0.087l-0.227-0.192l0.018-0.209l0.108-0.219l0.042-0.254l0.003-0.262l-0.271,0.087l-0.122-0.158
		l0.298-0.351l-0.05-0.234l-0.082-0.232l0.059-0.176l-0.003-0.211l-0.02-0.199l0.519-0.384l0.21-0.069l0.117-0.181l0.053-0.525
		l-0.242-0.372l-0.199-0.041l-0.189-0.087l-0.143-0.383l-0.226-0.011l-0.242,0.016l-0.264-0.193l-0.126-0.343l-0.052-0.611
		l-0.098-0.308l-0.069-0.059l-0.08,0.013l-0.054,0.052l-0.068,0.01L33.486,9.01l-0.427,0.151l-0.392-0.095L32.509,8.97l-0.162-0.146
		l-0.005-0.245l0.079-0.231l0.058-0.088l0.041-0.084l-0.068-0.057l-0.087-0.021l-0.082,0.017l-0.072,0.056l-0.135,0.176L31.925,8.5
		l-0.232,0.04L31.488,8.4L31.45,8.273l-0.016-0.129L31.36,8.1l-0.078,0.083l-0.026,0.132l-0.002,0.428L31.12,8.951l-0.375-0.178
		l-0.343-0.311l-0.12-0.127l-0.127,0.016l-0.113-0.165L29.97,7.973L29.877,7.86l-0.111-0.089l-0.086-0.204L29.528,7.47l-0.36-0.229
		l-0.203-0.099l0.06-0.076l0.561-0.463l0.651-0.409l0.685-0.278l0.659-0.071l0.325,0.035l1.261-0.11l0.97,0.295l0.308-0.028
		l0.601-0.182l1.972-0.173l0.084,0.057l0.131,0.189l0.126,0.127L37.5,6.088l0.676-0.142l1.073,0.063l0.696-0.055l0.702-0.25
		l0.653-0.423l0.544-0.572l0.237-0.339l0.198-0.362l0.133-0.403l0.044-0.463l-0.087-0.447l-0.022-0.228l0.064-0.169l0.279-0.221
		L43.268,1.773z"/>
	<path class="st2" d="M25.913,12.141l-0.071-1.114l0.054-0.309l0.123-0.09l0.189-0.021l0.264-0.101l0.407-0.325l0.873-1.337
		l0.179-0.182l0.394-0.306l0.169-0.195l0.208-0.515l0.139-0.345l0.126-0.161l0.203,0.099l0.36,0.229l0.152,0.097l0.086,0.204
		l0.111,0.089l0.093,0.113l0.071,0.214l0.113,0.165l0.127-0.016l0.12,0.127l0.343,0.311l0.375,0.178l0.133-0.209l0.002-0.428
		l0.026-0.132L31.36,8.1l0.074,0.045l0.016,0.129L31.488,8.4l0.205,0.14l0.232-0.04l0.151-0.153l0.135-0.176l0.072-0.056
		l0.082-0.017l0.087,0.021l0.068,0.057l-0.041,0.084l-0.058,0.088l-0.079,0.231l0.005,0.245l0.162,0.146l0.159,0.097l0.392,0.095
		l0.427-0.151l0.174,0.123l0.068-0.01l0.054-0.052l0.08-0.013l0.069,0.059l0.098,0.308l0.052,0.611l0.126,0.343l0.264,0.193
		l0.242-0.016l0.226,0.011l0.143,0.383l0.189,0.087l0.199,0.041l0.242,0.372l-0.053,0.525l-0.117,0.181l-0.21,0.069l-0.519,0.384
		l0.02,0.199l0.003,0.211l-0.059,0.176l0.082,0.232l0.05,0.234l-0.298,0.351l0.122,0.158l0.271-0.087l-0.003,0.262l-0.042,0.254
		l-0.108,0.219l-0.018,0.209l0.227,0.192l0.274-0.087l0.282,0.044l0.257,0.169l0.259,0.106l0.575,0.319l0.344,0.046l0.249,0.095
		l0.243,0.027l0.152,0.13l0.116,0.198l-0.107,0.229l-0.203,0.084l-0.189,0.231l-0.134,0.234l0.059,0.289l-0.078,0.289l-0.63,1.346
		l-0.454,1.118l-0.555,1.028l-0.072,0.137l-0.082,0.124l-0.082,0.058l-0.079,0.064l-0.059,0.1l-0.05,0.109l-0.488,0.909
		l-0.257,0.179l-0.058-0.077l-0.2-0.042l-0.158,0.169l-0.085,0.213l-0.124,0.16l-0.262,0.113l-0.167,0.181l-0.092,0.376l-0.34,0.114
		l-0.434,0.209l-0.459,0.135l-0.483-0.065l-0.395-0.332l-0.442-0.202l-0.85,0.364l-0.4,0l-0.477-0.098l-0.003-0.001l0.131-0.1
		l0.154-0.073l0.111-0.125l0.07-0.31l-0.02-0.055l-0.095-0.1l-0.018-0.027l0.055-0.052l0.055-0.007l0.052,0.002l0.142-0.079
		l0.091-0.014l0.067-0.045l0.027-0.148l-0.612,0.172l-0.092,0.131l0.032,0.396l-0.074,0.09l-0.238,0.078l-0.339-0.047l-0.402-0.235
		l-0.363-0.357l-0.138-0.342l0.612-0.067v-0.08l-0.042-0.02l-0.097-0.074l0.115-0.015l0.109,0.006l0.1,0.034l0.088,0.069
		l-0.043-0.244l-0.14-0.217l-0.102-0.249l0.075-0.338l-0.116-0.052l-0.089,0.118l-0.055,0.204l-0.018,0.206l-0.047,0.224
		l-0.097,0.052l-0.097-0.097l-0.196,0.041l-0.197,0.051l-0.471-0.142l0.003-0.145l-0.044-0.128l0.037-0.173l-0.02-0.22l0.119-0.218
		l0.141-0.194l0.163-0.078l0.174-0.067l0.259-0.004l0.276-0.075l0.057-0.086l0.016-0.238l-0.063-0.046l-0.142,0.078l-0.212,0.184
		l-0.132-0.027l-0.097-0.057l-0.052-0.101l0.001-0.157l-0.243,0.124l-0.197,0.141l-0.364,0.396l-0.094,0.075l-0.118,0.042
		l-0.11-0.004l-0.067-0.066l0.004-0.118l0.062-0.115l0.151-0.213l-0.298,0.069l-0.095-0.03l-0.032-0.175l0.055-0.13l0.125-0.074
		l0.142-0.049l0.103-0.058l0.124-0.17l-0.032-0.044l-0.274,0.038l-0.091-0.056l-0.072-0.138l-0.068-0.172l-0.082-0.16l0.046-0.013
		l0.029-0.02l0.065-0.062l0.075,0.058l0.113-0.006l0.199-0.051l0.162,0.045l0.136,0.084l0.134,0.043l0.157-0.077l-0.012,0.143
		l0.012,0.139l0.05,0.108l0.097,0.049l0.107-0.042l0.05-0.121l0.051-0.275l0.172-0.258l0.141,0.02l0.16,0.097l0.225-0.033
		l-0.048-0.105l-0.062-0.078l-0.079-0.052l-0.096-0.028l-0.142,0.005l-0.065-0.098l-0.153-0.028l-0.123,0.039L27.1,19.009
		l-0.194-0.039l-0.32-0.102l-0.445-0.338l-0.024-0.148l0.198-0.289l0.135-0.136l0.322-0.094l0.076-0.056l0.134-0.099l0.146-0.282
		l0.096-0.317l-0.097-0.16l-0.165-0.108l-0.11-0.253l0.351-0.879l-0.429-0.289l-1.079-0.497l-0.032,0.402l-0.403,0.415l-0.05-0.113
		l-0.08-0.191l-0.091-0.15l-0.105-0.181l-0.117-0.114l-0.002-0.174l-0.042-0.26l-0.11-0.407l-0.147-1.062l0.04-0.175l0.136-0.025
		l0.563,0.202l0.18-0.039l0.15-0.071l0.133-0.026l0.136,0.092l0.051,0.153l0.02,0.238l-0.015,0.245l-0.056,0.167l-0.004,0.303
		l0.314,0.263l0.398,0.168l0.247,0.015l-0.192-0.199l-0.589-0.426l0.171-0.459l0.051-0.275l-0.043-0.194l-0.097-0.203l-0.008-0.111
		l-0.012-0.148l0.047-0.26l0.107-0.207l-0.077-0.096l-0.101,0.014L25.913,12.141z M30.498,15.722l0.094-0.365l-0.006-0.315
		l-0.107-0.287l-0.068-0.411l-0.175-0.302l-0.368-0.03l-0.319,0.076l-0.204,0.219l-0.144,0.305l-0.236,0.3l-0.459,0.044
		l-0.059,0.205l-0.017,0.222l-0.217,0.132l-0.243,0.083l-0.328-0.2l-0.286-0.018l-0.153,0.33l-0.13,0.326l0.575,0.26l0.054,0.37
		l0.204,0.134l0.296,0.089l0.3,0.395l0.439,0.015l0.187-0.031l0.18-0.103l0.254-0.079l0.256-0.059l0.117,0.269l0.3-0.151
		l0.292-0.068l0.265-0.158l0.097-0.168l0.175-0.24l-0.082-0.093l-0.003-0.233l0.155-0.103l0.143-0.072l0.027-0.192l-0.078-0.188
		l-0.208,0.003l-0.24,0.087L30.498,15.722z"/>
	<path class="st3" d="M23.233,29.701l0.077,0.235l0.138,0.213l0.058,0.199l-0.097-0.045l-0.454,0.026l-0.147-0.024l-0.028-0.19
		l0.049-0.068l0.079-0.072l0.042-0.113l-0.244,0.154l-0.114-0.055l0.032-0.19l0.185-0.256l-0.07-0.079l-0.14,0.166l-0.047-0.114
		l-0.107,0.057l0.056-0.305l-0.039-0.466l-0.047-0.282l-0.106-0.355l0.088-0.116l0.181-0.169l0.195-0.067l0.136,0.218l0.018,0.078
		l-0.044,0.093l-0.078,0.063l0.009,0.087l0.172,0.391l0.027,0.124l-0.045,0.104l0.053,0.091l0.116,0.069l0.091,0.159h-0.215v0.079
		l0.07,0.014l0.145,0.081l-0.011,0.08l-0.01,0.063L23.233,29.701z M27.391,34.918l-0.21,0.065l-0.206,0.143l-0.173,0.167
		l-0.191,0.092l-0.228,0.039l-0.214,0.095l-0.156-0.076l-0.052-0.088l-0.017-0.116l-0.053-0.159l-0.085-0.137l-0.172-0.227
		l-0.092-0.154l0.142-0.115l-0.067-0.079l-0.14-0.059l-0.128-0.043l-0.234-0.403l-0.18-0.078l-0.136,0.079l-0.064-0.001
		l-0.005-0.139l-0.231-0.148l-0.2,0.032l-0.062,0.238l-0.034,0.082l-0.07-0.064l0.041-0.37l0.347-0.176l0.307-0.097l0.429,0.124
		l-0.151-0.25l-0.086-0.098l-0.114-0.084l-0.068-0.016l-0.082,0.048l-0.058-0.032l-0.077-0.084l-0.063-0.09l0.215-0.591l0.123-0.261
		l0.15-0.1l-0.113-0.139l-0.434-0.133l-0.156-0.083l0.154-0.143l0.455-0.111l0.095-0.132l-0.066-0.168l-0.161-0.042l-0.337-0.002
		l-0.07-0.049l-0.121-0.147l-0.082-0.073v-0.086h0.133l-0.153-0.285l0.185-0.103l0.211-0.064l0.197-0.287l0.421-0.117l0.199-0.107
		h-0.597l-0.144,0.082l-0.22,0.329l-0.162,0.031l-0.102-0.124l-0.093-0.235l-0.059-0.241l0.007-0.142l0.213-0.25l0.099-0.154
		l-0.032-0.069l-0.196,0.071l-0.089-0.083l-0.08-0.053l-0.048-0.01l-0.047-0.117l0.045-0.107l-0.009-0.117l-0.051-0.219
		l-0.062-0.093l-0.004-0.053l0.141-0.009l0.204-0.095l0.213,0.007l0.016-0.155l0.061-0.137l-0.083-0.111l-0.121-0.025l-0.164-0.163
		l0.104-0.149l0.144-0.116l-0.097-0.177l-0.245-0.046l-0.05-0.213l0.078-0.157l0.239-0.038l-0.137-0.157l-0.047-0.079l-0.032-0.112
		l-0.086,0.073l-0.145,0.158l-0.162,0.07l-0.032,0.09l0.006,0.09l0.072,0.111l0.013,0.216l-0.075,0.249l0.045,0.334l-0.109,0.285
		l-0.093,0.116l-0.189-0.148l-0.198-0.009l-0.197-0.13l0.049-0.688l0.061-0.249l-0.117-0.056l0.035-0.323l-0.11-0.132l-0.165,0.029
		l-0.092,0.166l-0.025,0.204l-0.074,0.149l-0.233,0.004l0.096,0.196l0.186,0.298l0.067,0.21l-0.112,0.095l0.015,0.105l0.172,0.234
		l-0.156,0.031l-0.132,0.076l-0.111,0.109l-0.089,0.132l0.002-0.093l-0.012-0.095l-0.023-0.086l-0.035-0.074l0.141-0.311l-0.3-0.494
		l0.09-0.247l-0.077-0.348l-0.189,0.106l-0.27,0.342l-0.2,0.074l-0.117,0.023l-0.105,0.041l-0.105,0.007l-0.124-0.072l-0.03-0.059
		l-0.042-0.119l-0.016-0.117l0.05-0.053l0.422,0.004l0.107-0.073l-0.003-0.193l-0.11-0.2l-0.157-0.077l-0.165-0.048l-0.132-0.109
		l-0.052,0.153l-0.03,0.318l-0.057,0.147l-0.12,0.109l-0.04-0.103l0.012-0.32l-0.02-0.31l0.028-0.086l0.262-0.333l0.052-0.116
		l0.041-0.163l0.032,0.124l0.044,0.111l0.055,0.105l0.071,0.104l0.054-0.051l0.067,0.005l0.077,0.027l0.087,0.019l-0.107-0.152
		l-0.109-0.196l0.291,0.087l0.12-0.031l0.077-0.152l-0.261-0.019l-0.161-0.073l-0.019-0.159l0.169-0.272l-0.231-0.192l0.015-0.178
		l0.176-0.144l0.25-0.09l-0.065,0.312l0.025,0.086l0.141,0.03l0.254-0.005l0.068-0.047l0.067-0.115l0.018-0.288l-0.026-0.387
		l0.047-0.315l0.238-0.073l-0.031,0.177l0.007,0.276l0.045,0.28l0.127,0.337l-0.062,0.119l-0.1,0.106l-0.062,0.111l0.003,0.118
		l0.064,0.188l0.008,0.051l-0.056,0.06l-0.184,0.121l-0.038,0.033l0.01,0.11l0.033,0.116l0.054,0.068l0.073-0.034l0.172-0.159
		l0.129-0.004l0.295,0.203l-0.211-0.458l-0.075-0.285l0.109-0.128l0.165,0.211l0.101,0.065l0.047-0.138l0.043-0.043l0.107-0.043
		l0.205-0.052v-0.08l-0.082-0.012l-0.197-0.083v-0.08l0.246-0.058l0.145-0.236l0.037-0.287l-0.08-0.212l-0.089-0.03l-0.268-0.005
		l-0.132-0.054l-0.099-0.121l-0.032-0.119l0.049-0.042l0.147,0.107l0.067-0.198L22.865,23l-0.157-0.048l-0.187,0.014l0.076-0.098
		l0.102-0.071l0.11-0.019l0.1,0.057l0.097,0.075l0.086,0.017l0.039-0.04l-0.045-0.096v-0.095l0.377-0.006l0.181,0.064l0.077,0.169
		l-0.052,0.105l-0.098,0.111l-0.06,0.145l0.065,0.207l0.09-0.09l0.116-0.063l0.1,0.002l0.042,0.107l0.012,0.09l0.047,0.081
		l0.011,0.087l-0.018,0.033l-0.092,0.11l-0.029,0.079v0.571l0.034,0.165l0.075,0.116l0.075,0.044l0.033-0.06l0.042-0.318
		l0.187-0.611l0.043-0.301l0.055-0.071l0.124,0.084l0.177,0.197l0.072,0.138l0.052,0.128l0.077,0.084l0.146,0.006v-0.079
		l-0.073-0.097l-0.089-0.261l-0.078-0.13l-0.627-0.663l-0.045-0.036l0.035-0.138l0.087,0.016l0.105,0.099l0.163,0.204l0.087,0.077
		l0.105,0.048l0.127,0.001l0.096-0.056l0.009-0.088l-0.07-0.082l-0.145-0.036l-0.195-0.094l-0.212-0.199l-0.095-0.296l-0.022-0.198
		l0.187-0.005l0.163,0.079l0.146,0.129l0.205,0.146l0.195,0.135l0.08,0.082l0.155,0.106l0.15,0.083l0.102,0.175l-0.048,0.173
		l-0.099,0.117l0.02,0.092l0.102,0.195l0.012,0.12l-0.037,0.21l0.112-0.078l0.045-0.095l0.027-0.106l-0.039-0.314l0.042-0.104
		l0.065-0.109l0.095-0.178l0.169-0.079l0.158-0.001l0.177,0.023l0.196,0.072l0.248,0.067l0.178,0.117l0.215,0.222l0.015,0.273
		l-0.161,0.553l0.122-0.081l0.192-0.248l0.105-0.019l0.073,0.105l0.042,0.188l0.022,0.365l-0.011,0.078l-0.047,0.174l-0.01,0.101
		l0.02,0.105l0.091,0.153l0.087,0.397l-0.029,0.114l-0.168,0.051l0.031,0.108l0.04,0.073l0.059,0.05l0.085,0.039l0.06-0.287
		l0.101-0.17L28,25.303l-0.085-0.32l0.207,0.06l0.217,0.027l-0.351-0.39l-0.105-0.215l0.209-0.094l0.188-0.031l0.444-0.179
		l0.196-0.15l0.003,0.001l0.477,0.098l0.4,0l0.85-0.364l0.442,0.202l0.395,0.332l0.483,0.065l0.08,0.19l0.12,0.127l0.137,0.08
		l0.175,0.354l0.134,0.094l-0.011,0.263l0.085,0.078l0.068,0.128l0.022,0.145l-0.025,0.144l-0.05,0.135l-0.032,0.139l-0.014,0.11
		l-0.052,0.098l-0.095,0.027l-0.097-0.015l-0.086,0.092l-0.684-0.471l-0.37,0.234l0.206,0.574l0.35,0.449l-0.2,0.435l0.019,0.214
		l-0.135,0.423l0.314,0.262l0.315,0.06l0.053,0.429l0.484,0.282l0,0l-0.199,0.533L32.1,30.593l0.185,0.362l-0.59,0.821l0.671,0.836
		l0.686-0.179l0.053-0.657l0.367,0.028l0.025,0.296l0.147-0.05l0.543-0.312l0.231-0.417l0.093-0.213l0.104-0.189l0.168-0.127
		l0.039-0.22l-0.131-0.044l-0.142-0.064l-0.172,0.126l-0.134,0.181l0.134-0.181l0.172-0.126l0.142,0.064l0.131,0.044l-0.039,0.22
		l-0.168,0.127l-0.104,0.189l-0.093,0.213l-0.231,0.417l-0.123,0.49l-0.018,0.35l0.027,0.361l0.33-0.068l0.303,0.099l0.314,0.192
		l0.106,0.377l-0.014,0.438l0.088,0.434l0.208,0.371l0.232,0.362L35.4,35.386l-0.248,0.218l-0.303,0.084l-0.301,0.014l-0.221,0.054
		l-0.592-0.078l-0.042-0.102l0.072-0.144l-0.061-0.126l-0.131-0.033l-0.339-0.171l-0.46-0.829l-0.327-0.29l-0.171,0.176
		l-0.137,0.214l-0.215,0.044l-0.145,0.065l-0.148,0.052l-0.563,0.11l-0.286,0.111l-0.302,0.057l-0.218-0.339l0.091-0.558
		l-0.377-0.076l-1.059,0.334l-0.575,0.124l-0.489,0.054L27.391,34.918z"/>
	<polygon class="st4" points="26.45,17.958 26.421,17.87 25.885,17.802 25.635,18.121 25.377,17.923 25.482,17.689 25.618,17.485 
		25.533,17.34 25.35,17.241 25.182,17.152 25.205,16.917 25.172,16.732 25.272,16.559 25.565,16.47 25.653,16.425 25.674,16.318 
		25.537,16.28 25.499,16.393 25.289,16.416 25.234,16.287 25.212,16.051 25.262,15.739 25.664,15.324 25.696,14.922 26.775,15.42 
		27.204,15.709 26.853,16.588 26.963,16.84 27.128,16.949 27.225,17.108 27.129,17.426 26.983,17.708 26.849,17.807 26.773,17.863 	
		"/>
	<polygon class="st4" points="24.848,16.188 24.888,16.23 24.928,16.293 24.982,16.344 25.024,16.431 25.05,16.498 24.994,16.522 
		24.908,16.586 24.873,16.633 24.694,16.676 24.615,16.662 24.507,16.714 24.268,16.818 24.139,16.934 24.068,17.06 23.622,17.397 
		23.522,17.374 23.428,17.385 23.387,17.375 23.344,17.218 23.264,17.166 23.226,17.207 23.193,17.219 23.181,17.192 23.198,17.147 
		23.173,17.084 23.111,17.076 23.07,17.131 23.006,17.18 22.93,17.146 22.82,17.118 22.885,17.053 22.862,16.983 22.75,16.877 
		22.723,16.81 22.762,16.714 22.823,16.696 22.908,16.74 23.371,16.415 23.703,16.379 23.928,16.384 24.136,16.274 24.207,15.985 
		24.352,15.932 24.47,16.051 24.528,16.074 24.587,16.107 24.645,16.131 24.702,16.135 24.764,16.147 	"/>
	<polygon class="st4" points="22.107,12.468 22.308,12.465 22.496,12.495 22.591,12.602 22.523,12.832 22.342,12.988 22.117,13.003 
		21.691,12.912 21.597,12.948 21.482,13.01 21.383,13.012 21.342,12.872 21.365,12.827 21.482,12.471 21.608,12.348 21.752,12.309 
		21.916,12.352 	"/>
	<polygon class="st4" points="22.735,13.856 22.863,13.957 22.961,14.069 22.981,14.192 22.873,14.332 22.665,14.344 21.972,13.803 
		22.061,13.721 22.104,13.618 22.162,13.375 22.194,13.313 22.244,13.246 22.301,13.198 22.36,13.183 22.398,13.205 22.423,13.244 
		22.438,13.299 22.47,13.536 22.482,13.58 22.531,13.666 22.596,13.738 	"/>
	<polygon class="st4" points="24.28,15.125 24.202,15.134 24.141,15.106 24.033,14.989 23.956,14.942 23.901,14.961 23.859,15.005 
		23.82,15.029 23.282,15.059 23.082,14.965 22.873,14.684 23.187,14.602 23.262,14.552 23.349,14.416 23.337,14.353 23.28,14.314 
		23.227,14.243 22.863,13.547 22.84,13.441 22.878,13.303 22.868,12.69 22.91,12.551 23.009,12.513 23.25,12.232 23.437,12.184 
		23.6,12.302 23.754,12.485 23.909,12.627 24.237,12.793 24.368,12.924 24.42,13.132 24.409,13.236 24.355,13.411 24.344,13.489 
		24.367,13.577 24.462,13.751 24.484,13.847 24.517,14.312 24.484,14.42 24.54,14.489 24.598,14.627 24.63,14.684 24.498,14.763 
		24.383,15.036 	"/>
	<polygon class="st4" points="24.038,19.219 24.143,19.289 24.183,19.444 24.138,19.498 24.028,19.535 23.986,19.62 23.978,19.699 
		23.889,19.803 23.773,19.832 23.694,19.773 23.61,19.781 23.543,19.74 23.52,19.578 23.539,19.411 23.623,19.294 23.804,19.198 	
		"/>
	<polygon class="st4" points="25.366,19.524 25.39,19.584 25.415,19.694 25.361,19.812 24.84,20.228 24.603,20.258 24.605,20.193 
		24.716,20.042 24.731,19.955 24.685,19.88 24.818,19.728 24.822,19.575 24.767,19.385 24.692,19.253 24.617,19.168 24.64,19.142 
		24.808,19.223 24.952,19.097 24.984,19.107 24.954,19.219 24.997,19.319 25.117,19.388 25.311,19.47 	"/>
	<path class="st5" d="M23.555,43.44l-0.141-0.161l-0.05-0.134l0.075-0.297l0.176-0.367l0.277-0.648l0.234-0.337l0.334-0.12
		l0.38-0.078l0.325-0.018l0.15-0.12l0.144-0.208l0.204-0.052l0.182,0.205l0.187,0.232l0.137,0.046l-0.133-0.469l-0.095-0.213
		l-0.155-0.089l-1.451,0.237l-0.505-0.315l0.031-0.338l0.008-0.135l0.239-0.119l0.209-0.207l0.193-0.222l0.307-0.179l0.376-0.208
		l0.286-0.4l0.044-0.376l0.157-0.094l0.116-0.074l0.062-0.054l0.367-0.037l0.359,0.044l0.228,0.176l0.163,0.041l0.109,0.189
		l0.042-0.103l0.035-0.143l0.015-0.148L27.04,38.04l-0.094-0.069l-0.196-0.097l-0.222-0.152l-0.18-0.135l-0.095-0.048l0.027-0.109
		l0.085-0.117l0.085-0.07l0.093-0.022l0.571,0.037l0.125-0.01l0.092-0.048l0.062-0.113l0.023-0.093l0.049-0.064l0.141-0.024
		l0.045-0.041l-0.053-0.092l-0.109-0.095l-0.121-0.045l-0.032,0.026l-0.751,0.304l-0.252,0.012l-0.495-0.032l-0.489-0.039
		l-0.005-0.217l-0.031-0.299l-0.094-0.082l-0.305-0.105l-0.45,0.071l-0.044-0.381l0.927-0.1l0.504-0.063l0.51-0.03l0.165-0.099
		l0.176,0.051l0.215-0.11l0.377-0.286l0.478-0.191l0.202-0.145l0.018-0.183l-0.599,0.185l0.46-0.568l0.489-0.054l0.575-0.124
		l1.059-0.334l0.377,0.076l-0.091,0.558l0.218,0.339l0.302-0.057l0.286-0.111l0.563-0.11l0.148-0.052l0.145-0.065l0.215-0.044
		l0.137-0.214l0.171-0.176l0.327,0.29l0.46,0.829l0.339,0.171l0.131,0.033l0.061,0.126l-0.072,0.144l0.042,0.102l0.592,0.078
		l0.221-0.054l0.301-0.014l0.303-0.084l0.248-0.218l0.242-0.243l0.088,0.106l0.097,0.089l0.082-0.02l0.067-0.089l0.173,0.102
		l0.153,0.182l0.458,0.151l0.095,0.119l0.164,0.047l0.329-0.201l0.377-0.17l0.149,0.142l0.15,0.081l0.131-0.12l0.131-0.138
		l0.418,0.715l-0.048,0.804l-0.374,0.402l-0.099,0.265l-0.508,0.27l-0.251,0.077l-0.139-0.015l-0.1,0.065l-0.192,0.417l-0.221,0.231
		l-0.234,0.207l-0.114,0.33l-0.03,0.387l-0.129,0.282l-0.159,0.297l-0.119,0.379l-0.088,0.392l-0.143,0.292l-0.011,0.316
		l0.262,0.111l0.038,0.139l0.019,0.159l0.113,0.296l-0.018,0.321l0.105,0.237l0.147,0.098l-0.061,0.344l-0.427,0.511l-0.068,0.335
		l-0.015,0.309l-0.215,0.219l-0.583-0.471l-0.654-0.237l-0.371,0.207l-0.298,0.321l-0.32,0.045l-0.339,0.003l-0.371,0.05
		l-0.376-0.007l-0.174-0.102l-0.155-0.12l-0.18,0.046l-0.212-0.003L31.283,44.4l-0.294,0.176l-0.38-0.057l-0.246-0.262l0.014-0.414
		l-0.208-0.235l-0.062-0.233l0.091-0.362l-0.206-0.314l-0.301,0.017l-0.074,0.129l-0.1,0.097l-0.066,0.166l-0.024,0.179
		l-0.316,0.004l-0.48-0.651l-0.313-0.257l-0.179-0.076l-0.186-0.013l-0.17,0.202l-0.347-0.034l-0.257,0.231l-0.001,0.17l0.01,0.17
		l-0.094,0.143l-0.129,0.095l0.007,0.134l0.02,0.128l-0.086,0.178l-0.135,0.118l-0.167,0.081l-0.175,0.051l-0.148,0.09l-0.137,0.102
		L25.8,44.2l-0.324,0.118l-0.304,0.076l-0.255-0.086l0.015-0.34l0.066-0.337l0.059-0.459l-0.295-0.079l-0.993,0.278l-0.211,0.068
		L23.555,43.44z M21.727,40.928l-0.045-0.047l-0.032-0.083l0.02-0.08l0.107-0.056l-0.015-0.02l-0.051-0.033l0.025-0.03l0.057-0.032
		l0.038-0.054l0.062-0.01l0.037-0.017l-0.017-0.069l0.044,0.002l0.116,0.021l0.077-0.063l0.037-0.041l0.044,0.034l0.022,0.075
		l-0.038,0.094l-0.188,0.163l-0.126,0.141l-0.08,0.062l-0.033,0.031L21.727,40.928z"/>
	<polygon class="st6" points="37.543,48.61 37.476,48.592 37.062,48.596 36.924,48.572 36.869,48.509 36.844,48.414 36.784,48.293 
		36.667,48.2 36.639,48.296 36.657,48.445 36.679,48.511 36.605,48.74 36.564,48.819 36.469,48.929 36.083,49.238 35.868,49.334 
		35.714,49.202 35.521,48.808 35.361,48.744 35.25,48.903 35.195,49.153 35.206,49.362 35.301,49.582 35.459,49.867 35.641,50.116 
		35.803,50.22 35.918,50.369 36.025,50.421 36.152,50.341 36.469,50.043 36.689,50.013 36.876,50.05 37.051,50.061 37.243,49.958 
		37.232,50.204 37.198,50.378 37.097,50.73 36.979,51.352 36.895,51.495 36.535,51.616 36.251,51.473 36.023,51.424 35.835,51.835 
		35.775,51.796 35.76,51.799 35.746,51.822 35.696,51.835 35.775,51.999 35.835,52.174 35.91,52.73 35.864,52.833 35.758,52.774 
		35.591,52.598 35.346,52.568 35.164,52.467 35.047,52.284 34.997,52.005 35.059,51.742 35.192,51.483 35.289,51.238 35.241,51.028 
		35.159,50.911 34.997,50.56 34.954,50.533 34.897,50.531 34.837,50.522 34.787,50.468 34.782,50.404 34.799,50.329 34.829,50.282 
		34.675,49.955 34.648,49.834 34.657,49.76 34.702,49.638 34.712,49.575 34.69,49.505 34.642,49.45 34.595,49.434 34.572,49.486 
		34.537,49.514 34.363,49.958 34.295,50.052 34.26,50.076 34.208,50.083 33.859,50.206 33.656,50.231 33.214,50.22 33.048,50.27 
		33.183,50.381 33.447,50.496 33.664,50.56 33.664,50.638 33.229,50.777 33.01,50.901 32.972,51.071 33.06,51.142 33.252,51.064 
		33.354,51.109 33.427,51.227 33.405,51.271 33.35,51.285 33.322,51.318 33.464,51.813 33.759,52.078 34.079,52.284 34.298,52.598 
		34.193,52.582 34.013,52.581 33.937,52.598 34.376,52.768 34.433,52.905 34.462,53.164 34.368,53.258 34.263,53.347 34.063,53.338 
		33.937,53.37 33.471,53.079 33.322,53.031 33.189,53.056 33.025,53.132 32.885,53.232 32.826,53.327 32.85,53.367 32.972,53.624 
		33.116,53.656 33.202,53.713 33.591,53.612 33.803,53.793 33.319,54.238 33.146,54.483 32.959,54.397 32.664,54.621 32.695,54.837 
		32.826,54.98 32.543,54.981 32.125,54.428 31.981,54.132 31.598,53.717 31.48,53.743 31.075,53.955 31.116,54.083 31.145,54.132 
		30.979,54.075 30.818,54.043 30.681,53.971 30.586,53.793 30.573,53.611 30.638,53.504 30.865,53.37 30.939,53.304 31.145,53.031 
		31.272,52.763 31.346,52.671 31.494,52.598 31.485,52.806 31.435,53.007 31.285,53.37 31.584,53.35 31.835,53.258 31.985,53.051 
		31.981,52.684 31.921,52.541 31.842,52.459 31.782,52.363 31.772,52.174 31.827,52.076 32.122,51.749 32.228,51.806 32.298,51.881 
		32.316,51.979 32.262,52.097 32.323,52.259 32.411,52.373 32.528,52.411 32.686,52.352 32.753,52.265 32.892,51.965 32.972,51.835 
		32.83,51.623 32.775,51.402 32.703,51.301 32.509,51.453 32.286,51.547 32.101,51.393 31.849,50.985 31.704,51.213 31.498,51.744 
		31.355,51.919 31.207,51.979 31.083,51.973 30.826,51.919 30.706,51.962 30.593,52.065 30.409,52.309 30.326,52.379 29.952,52.598 
		29.75,52.752 29.62,52.828 29.495,52.861 29.418,52.901 29.4,53.004 29.405,53.141 29.386,53.286 29.319,53.388 29.224,53.499 
		29.176,53.631 29.253,53.793 28.689,54.348 28.707,54.861 28.611,54.946 28.339,54.81 28.249,54.919 28.207,55.04 28.212,55.173 
		28.269,55.318 28.137,55.276 27.851,55.072 27.458,54.957 27.368,54.902 27.288,54.665 27.331,54.036 27.292,53.793 27.348,53.638 
		27.336,53.447 27.268,53.28 27.152,53.192 27.041,53.224 26.93,53.329 26.844,53.464 26.81,53.582 26.852,53.753 26.916,53.903 
		26.92,54.007 26.604,54.113 26.645,54.264 26.874,54.556 26.482,54.783 26.335,54.919 26.487,54.98 26.522,55.007 26.532,55.068 
		26.52,55.128 26.487,55.156 26.425,55.143 26.33,55.086 26.28,55.072 26.145,55.092 26.118,55.149 26.116,55.241 26.064,55.364 
		25.984,55.418 25.681,55.495 25.567,55.591 25.526,55.671 25.277,56.508 25.257,56.627 25.257,56.77 25.007,56.717 24.536,56.872 
		24.418,56.848 24.404,56.702 24.5,56.404 24.481,56.264 24.388,56.184 24.259,56.158 23.992,56.171 23.992,56.094 24.046,56.023 
		24.063,55.973 24.083,55.778 24.118,55.772 24.164,55.787 24.208,55.757 24.353,55.494 24.38,55.367 24.341,55.24 24.29,55.2 
		24.216,55.174 24.063,55.156 23.953,55.125 23.939,55.058 23.968,54.997 23.992,54.98 23.996,54.821 24.034,54.668 24.016,54.586 
		23.852,54.641 23.897,54.341 24.101,54.191 24.373,54.138 24.627,54.132 24.581,54.036 24.518,53.963 24.438,53.911 24.341,53.878 
		24.503,53.765 24.603,53.632 24.606,53.516 24.481,53.447 24.435,53.465 24.343,53.58 24.278,53.624 24.193,53.623 24.061,53.541 
		23.992,53.539 23.929,53.596 23.887,53.681 23.852,53.793 23.761,53.813 23.674,53.81 23.574,53.793 23.355,53.797 23.235,53.818 
		23.085,53.878 23.066,53.681 22.978,53.567 22.735,53.447 22.739,53.407 22.688,53.307 22.626,53.247 22.596,53.327 22.566,53.375 
		22.493,53.417 22.411,53.433 22.346,53.408 22.134,53.205 22.107,53.192 22.072,53.067 22.09,53.031 22.131,53.015 22.171,52.946 
		22.212,53.004 22.314,53.006 22.388,52.946 22.346,52.819 22.072,52.684 21.86,52.528 21.843,52.17 21.932,51.772 22.039,51.495 
		22.05,51.401 22.041,51.286 22.056,51.189 22.14,51.148 22.216,51.156 22.296,51.178 22.356,51.219 22.423,51.368 22.735,51.835 
		22.638,51.964 22.608,52.088 22.626,52.215 22.659,52.352 22.87,52.946 22.997,53.022 23.504,53.107 23.721,53.257 23.839,53.247 
		23.922,53.031 23.807,53.048 23.746,53.018 23.536,52.972 23.437,52.817 23.307,52.686 23.343,52.401 23.208,52.426 23.142,52.601 
		23.036,52.611 22.972,52.379 22.941,52.069 23.018,51.892 22.959,51.674 23.239,51.647 23.668,51.74 23.723,51.84 23.696,52.001 
		23.699,52.051 23.695,52.1 23.719,52.174 23.825,52.243 23.887,52.327 24.021,52.414 24.204,52.487 24.315,52.595 24.457,52.697 
		24.566,52.768 24.61,52.713 24.396,52.43 24.523,52.403 24.712,52.512 24.956,52.645 25.251,52.739 25.465,52.684 25.249,52.648 
		25.074,52.537 24.767,52.267 24.842,52.174 24.621,52.013 24.286,51.583 24.101,51.495 23.846,51.444 23.544,51.464 23.335,51.328 
		23.078,51.398 22.841,51.32 22.81,51.202 22.956,51.019 23.1,50.96 23.404,51.007 23.793,50.833 24.261,51.178 24.418,51.148 
		24.458,51.175 24.483,51.201 24.51,51.222 24.558,51.241 24.513,51.001 24.533,50.782 24.655,50.622 24.905,50.56 25.374,50.7 
		25.613,50.718 25.541,50.56 25.699,50.48 25.784,50.463 25.891,50.468 25.738,50.293 25.506,50.25 24.975,50.298 25.015,50.177 
		25.002,50.095 24.975,50.01 24.975,49.88 25.013,49.798 25.067,49.737 25.112,49.661 25.115,49.532 25.033,49.348 24.892,49.305 
		24.74,49.377 24.627,49.532 24.615,49.635 24.682,49.845 24.697,49.958 24.68,49.975 24.558,50.22 24.443,50.645 24.336,50.789 
		24.133,50.808 24.133,50.779 24.069,50.73 24.111,50.664 24.166,50.534 24.208,50.468 24.069,50.397 23.976,50.439 23.886,50.518 
		23.751,50.56 23.479,50.499 23.393,50.54 23.376,50.669 23.235,50.666 23.015,50.739 22.908,50.685 22.873,50.552 22.946,50.429 
		23.155,50.22 23.23,50.105 23.273,50.015 23.29,49.93 23.295,49.834 23.267,49.648 23.302,49.556 23.434,49.439 23.307,49.339 
		23.195,49.13 23.135,48.886 23.155,48.681 23.297,48.55 23.49,48.418 23.55,48.308 23.295,48.247 23.178,48.268 23.11,48.328 
		23.055,48.39 22.977,48.418 22.878,48.469 22.893,48.591 22.943,48.734 22.946,48.851 22.803,48.981 22.618,48.994 22.439,48.935 
		22.311,48.851 22.408,48.784 22.451,48.765 22.361,48.701 22.284,48.623 22.221,48.53 22.171,48.418 22.289,48.357 22.403,48.363 
		22.659,48.418 22.628,48.15 22.913,47.866 22.838,47.604 22.546,47.2 22.367,47.035 22.171,46.968 22.252,47.249 22.181,47.409 
		22.036,47.414 21.892,47.224 21.987,47.091 21.724,46.741 21.688,46.534 21.835,46.362 22.044,46.334 22.229,46.43 22.311,46.627 
		22.441,46.544 22.513,46.401 22.596,46.115 22.668,46.257 22.681,46.377 22.654,46.608 22.608,46.725 22.596,46.797 22.616,46.871 
		22.656,46.871 22.704,46.854 22.735,46.875 22.776,47.04 22.786,47.11 22.824,47.151 22.946,47.224 23.045,47.259 23.217,47.265 
		23.295,47.31 23.235,47.452 23.252,47.589 23.325,47.717 23.434,47.829 23.692,47.244 23.719,47.046 23.714,46.823 23.664,46.743 
		23.472,46.695 23.39,46.649 23.323,46.581 23.218,46.3 22.883,45.907 22.805,45.727 22.828,45.666 22.875,45.614 22.923,45.547 
		22.946,45.431 22.838,45.355 22.785,45.255 22.805,45.082 22.674,45.134 22.538,45.156 22.247,45.16 22.361,45.018 22.548,44.975 
		22.76,44.963 22.946,44.918 22.885,44.895 22.853,44.866 22.815,44.841 22.735,44.825 22.785,44.712 22.845,44.646 22.911,44.595 
		22.977,44.523 23.012,44.428 22.996,44.346 22.963,44.267 22.946,44.18 22.981,43.985 23.07,43.792 23.295,43.449 23.354,43.511 
		23.504,43.706 23.685,43.761 23.776,43.755 23.751,43.663 23.555,43.44 23.557,43.439 23.768,43.371 24.762,43.094 25.057,43.173 
		24.997,43.632 24.932,43.969 24.917,44.309 25.172,44.395 25.476,44.318 25.8,44.2 26.143,44.149 26.28,44.048 26.428,43.958 
		26.604,43.906 26.771,43.826 26.906,43.708 26.991,43.531 26.971,43.402 26.964,43.269 27.093,43.174 27.187,43.031 27.177,42.861 
		27.178,42.692 27.435,42.461 27.782,42.495 27.952,42.292 28.138,42.306 28.317,42.382 28.629,42.638 29.109,43.289 29.425,43.285 
		29.449,43.106 29.515,42.94 29.615,42.844 29.689,42.715 29.99,42.698 30.196,43.013 30.106,43.374 30.168,43.607 30.376,43.842 
		30.362,44.257 30.609,44.519 30.989,44.576 31.283,44.4 31.591,44.349 31.804,44.352 31.983,44.306 32.139,44.426 32.313,44.528 
		32.689,44.534 33.06,44.485 33.399,44.482 33.72,44.437 34.018,44.116 34.388,43.909 35.043,44.146 35.626,44.617 35.571,44.89 
		35.781,45.138 35.884,45.459 35.927,46.124 36.065,46.372 36.317,46.556 36.545,46.795 36.634,47.06 36.744,47.29 37.381,47.985 
		37.518,48.323 37.517,48.555 	"/>
	<polygon class="st6" points="31.082,54.5 31.401,54.462 31.568,54.474 31.708,54.542 31.819,54.743 31.786,54.974 31.651,55.163 
		31.462,55.24 31.04,55.318 30.877,55.295 30.757,55.236 30.513,55.072 30.513,54.98 30.568,54.91 30.578,54.853 30.538,54.797 
		30.443,54.733 30.584,54.628 30.747,54.562 	"/>
	<polygon class="st6" points="22.974,54.317 22.99,54.488 22.963,54.678 22.908,54.863 22.706,55.295 22.625,55.426 22.523,55.495 
		22.506,55.456 22.331,55.291 22.25,55.24 22.25,55.318 22.209,55.517 21.235,56.048 21.118,56.088 20.688,56.125 20.569,56.094 
		20.546,55.987 20.604,55.896 20.679,55.82 20.708,55.757 20.654,55.68 20.359,55.495 20.359,55.757 20.144,55.503 20.272,55.089 
		20.563,54.754 20.848,54.733 20.941,54.465 21,54.369 21.095,54.263 21.205,54.203 21.303,54.186 21.377,54.131 21.405,53.955 
		21.525,54.103 21.687,54.12 21.832,54.024 21.894,53.835 21.816,53.68 21.553,53.473 21.621,53.37 21.787,53.357 21.956,53.45 
		22.102,53.567 22.211,53.624 22.236,53.659 22.266,53.737 22.315,53.823 22.383,53.878 22.43,53.863 22.661,53.717 22.67,53.824 	
		"/>
	<polygon class="st6" points="37.309,52.005 37.415,52.033 37.509,52.18 37.582,52.363 37.668,52.674 37.678,52.856 37.647,53.032 
		37.573,53.203 37.47,53.308 37.356,53.317 37.241,53.255 36.879,52.886 36.836,52.743 36.898,52.514 36.943,52.455 37.134,52.309 
		37.168,52.235 37.246,51.919 37.091,51.754 37.109,51.654 37.221,51.602 37.348,51.587 37.458,51.637 37.485,51.753 37.433,51.891 
			"/>
	<polygon class="st6" points="32.473,60.235 32.533,60.288 32.606,60.308 32.633,60.351 32.62,60.411 32.476,60.341 32.336,60.308 
		32.311,60.27 32.276,60.185 32.253,60.083 32.215,60.055 32.183,60.016 32.158,59.932 32.173,59.882 32.168,59.825 32.176,59.774 
		32.208,59.763 32.246,59.776 32.293,59.761 32.321,59.729 32.336,59.724 32.361,59.777 32.326,59.891 32.343,60.019 	"/>
	<polygon class="st6" points="34.751,54.91 34.797,55.034 34.797,55.107 34.72,55.19 34.533,55.311 34.37,55.361 34.312,55.328 
		34.308,55.222 34.239,55.149 34.135,55.116 34.088,55.052 34.115,55.002 34.004,54.931 33.936,54.88 33.972,54.787 33.966,54.718 
		33.948,54.662 33.998,54.634 34.071,54.665 34.147,54.71 34.29,54.746 34.293,54.778 34.34,54.766 34.433,54.674 34.527,54.669 	
		"/>
	<polygon class="st6" points="37.318,54.211 37.386,54.248 37.43,54.32 37.408,54.397 37.281,54.441 37.197,54.444 37.176,54.422 
		37.143,54.373 37.048,54.32 36.899,54.27 36.799,54.192 36.753,54.087 36.703,54.01 36.619,53.965 36.547,53.877 36.602,53.771 
		36.774,53.689 36.961,53.664 37.094,53.763 37.249,54.065 37.231,54.151 37.236,54.196 	"/>
	<polygon class="st6" points="25.212,58.4 25.301,58.438 25.386,58.545 25.361,58.6 25.319,58.561 25.282,58.555 25.264,58.603 
		25.226,58.588 25.133,58.537 25.037,58.539 24.982,58.593 24.947,58.659 24.833,58.737 24.731,58.829 24.578,58.922 24.382,58.913 
		24.273,58.768 24.266,58.581 24.355,58.398 24.537,58.271 24.692,58.271 24.895,58.4 24.954,58.408 25.039,58.382 25.154,58.384 	
		"/>
	<polygon class="st6" points="25.96,58.59 26,58.613 26.035,58.673 26.003,58.711 25.958,58.718 25.943,58.791 25.943,58.916 
		25.891,59.013 25.791,59.04 25.738,59.009 25.72,58.952 25.671,58.913 25.618,58.901 25.596,58.735 25.661,58.45 25.683,58.291 
		25.616,58.228 25.596,58.172 25.681,58.09 25.686,58.048 25.773,58.049 25.946,58.138 25.97,58.259 25.873,58.343 25.856,58.437 	
		"/>
	<polygon class="st6" points="28.386,58.041 28.484,58.13 28.546,58.2 28.519,58.355 28.494,58.421 28.429,58.536 28.309,58.601 
		28.157,58.614 28.045,58.556 27.952,58.472 27.885,58.48 27.85,58.542 27.812,58.52 27.77,58.329 27.833,58.201 27.85,58.084 
		27.89,57.99 27.962,57.921 28.108,57.849 28.283,57.893 	"/>
	<polygon class="st6" points="25.347,57.788 25.389,57.849 25.397,57.957 25.326,58.017 25.291,58.157 25.142,58.166 25.059,58.183 
		25.109,58.271 25.058,58.314 24.902,58.272 24.821,58.197 24.801,58.147 24.758,58.131 24.71,58.121 24.7,58.08 24.752,57.932 
		24.782,57.877 24.786,57.839 24.766,57.809 24.775,57.782 24.812,57.764 24.836,57.737 24.83,57.702 24.777,57.616 24.811,57.586 
		24.892,57.612 24.971,57.655 25.184,57.691 25.294,57.749 	"/>
	<polygon class="st6" points="27.818,56.67 27.775,56.715 27.683,56.734 27.633,56.663 27.612,56.567 27.557,56.492 27.478,56.459 
		27.373,56.474 27.251,56.518 27.153,56.517 27.114,56.496 27.075,56.471 26.848,56.371 26.834,56.329 26.939,56.315 27.041,56.285 
		27.086,56.259 27.124,56.241 27.204,56.253 27.298,56.297 27.411,56.25 27.549,56.137 27.653,56.111 27.713,56.156 27.787,56.176 
		27.83,56.173 27.873,56.165 27.987,56.177 28.132,56.212 28.222,56.265 28.202,56.356 28.143,56.425 28.127,56.468 28.117,56.554 
		28.053,56.624 27.965,56.607 27.87,56.625 	"/>
	<polygon class="st6" points="30.249,56.22 30.284,56.25 30.304,56.308 30.241,56.321 30.155,56.277 30.053,56.255 29.98,56.283 
		30.007,56.317 30.069,56.353 29.995,56.427 29.815,56.569 29.71,56.616 29.7,56.507 29.75,56.43 29.815,56.387 29.779,56.337 
		29.555,56.291 29.585,56.242 29.561,56.179 29.493,56.138 29.321,56.122 29.255,56.099 29.225,56.079 29.25,56.056 29.325,56.041 
		29.384,56.001 29.479,55.886 29.581,55.801 29.572,55.769 29.605,55.78 29.677,55.85 29.744,55.95 29.782,56.062 29.862,56.097 
		30.002,56.053 30.104,56.041 30.152,56.083 30.186,56.14 	"/>
	<polygon class="st6" points="26.899,56.662 26.919,56.738 26.976,56.876 26.941,56.909 26.892,56.902 26.842,56.888 26.75,56.849 
		26.672,56.798 26.629,56.806 26.619,56.879 26.57,56.907 26.48,56.866 26.325,56.83 26.133,56.762 26.131,56.682 26.226,56.61 
		26.201,56.519 26.113,56.495 26.006,56.523 25.873,56.486 25.753,56.407 25.682,56.317 25.652,56.182 25.642,56.029 25.65,55.873 
		25.691,55.716 25.772,55.597 25.881,55.544 25.94,55.53 26.12,55.512 26.238,55.551 26.347,55.626 26.469,55.769 26.564,56.008 
		26.592,56.204 26.624,56.295 26.68,56.371 26.712,56.476 	"/>
	<polygon class="st6" points="26.884,55.749 26.834,55.745 26.789,55.699 26.827,55.626 26.874,55.553 26.945,55.397 27.089,55.206 
		27.291,55.094 27.503,55.044 27.63,55.066 27.679,55.14 27.687,55.222 27.634,55.277 27.642,55.306 27.737,55.364 27.815,55.452 
		27.883,55.552 27.892,55.627 27.818,55.64 27.608,55.575 27.521,55.597 27.469,55.673 27.199,55.799 27.105,55.927 27.075,56.06 
		27.02,56.098 26.953,56.021 26.955,55.893 26.933,55.785 	"/>
	<polygon class="st6" points="22.571,49.771 22.765,49.839 22.786,50.103 22.586,50.289 22.476,50.247 22.541,50.174 22.573,50.102 
		22.546,50.053 22.261,49.896 22.219,49.873 21.917,49.922 21.783,49.988 21.631,50.012 21.51,49.971 21.447,49.889 21.502,49.824 
		21.664,49.813 21.873,49.737 21.909,49.691 21.942,49.656 21.952,49.603 22.081,49.564 22.126,49.486 22.131,49.395 22.051,49.285 
		22.017,49.162 22.129,49.104 22.306,49.147 22.488,49.239 22.618,49.37 22.605,49.444 22.516,49.455 22.36,49.559 22.341,49.617 
		22.347,49.69 22.361,49.748 22.427,49.769 	"/>
	<path class="st7" d="M48.588,46.116l0.198,0.454l-0.01,0.239l0.01,0.254l0.141-0.01l-0.141,0.01l-0.01-0.254l0.01-0.239
		l-0.068-0.01l-0.089,0.198l-0.072,0.3l-0.253-0.029L47.63,47.04l-0.039-0.229l-0.068-0.122l-0.093,0.347l-0.102,0.049l-0.238-0.107
		l-0.111-0.209l-0.122-0.014l-0.157,0.122v-0.547l-0.042-0.045l-0.087,0.036l-0.074,0.115l-0.006,0.193L46.327,46.5L46.2,46.317
		l-0.14-0.113l-0.206,0.082l0.045-0.177l-0.085-0.251l0.04-0.093l-0.102-0.329l-0.06-0.035l-0.117,0.107l-0.127,0.201l-0.003,0.134
		l0.13,0.271l0.072,0.331l0.042,0.116l0.087,0.151l0.171,0.23l0.025,0.116l-0.048,0.166l0.081,0.011l0.126,0.055l0.072,0.019
		l-0.09,0.06l-0.09,0.024l-0.207,0.001l-0.109-0.025l-0.031-0.066l-0.005-0.083l-0.034-0.08l-0.098-0.104l-0.07-0.057l-0.552-0.195
		l-0.155-0.01l-0.339,0.065l-0.092,0.046l0.007,0.088l0.118,0.167l-0.19,0.038l-0.35,0.177l-0.402,0.11l-0.052,0.158l-0.02,0.172
		l-0.109,0.113v0.085l1.02-0.543l0.173-0.012l0.035,0.22l0.062,0.161l0.021,0.143l-0.082,0.166L44.432,48.2l-0.2,0.034l-0.2-0.009
		l-0.132-0.055l-0.069,0.122l0.047,0.059l0.092,0.054l0.069,0.107l0.01,0.065l0.003,0.093l-0.013,0.26l-0.077,0.51l0.094,0.09
		l0.09-0.03l0.071-0.099l0.032-0.123l0.138,0.162l-0.142,0.256l-0.258,0.337L43.759,50.1l-0.307-0.021l0.005-0.191l0.197-0.003
		l0.084-0.015l0.051-0.084l-0.635-0.071l-0.132-0.053l-0.146-0.204l-0.021-0.102l0.105-0.066l0.235-0.091l-0.232-0.467l-0.167,0.165
		l-0.168,0.325l-0.237,0.015l-0.216-0.291l-0.113-0.073l-0.232-0.024l-0.102,0.062l-0.057,0.151l-0.021,0.191l0.005,0.185
		l-0.216-0.037l-0.475,0.021l-0.187-0.104l-0.022-0.067l-0.002-0.183l-0.011-0.048l-0.047-0.012l-0.114,0.021l-0.147-0.034
		l-0.24-0.021l-0.085-0.046l-0.047-0.1l0.005-0.098l0.026-0.094l0.017-0.084l-0.017-0.925l0.017-0.149l0.03-0.069l0.052-0.091
		l0.045-0.12l0.012-0.153l-0.16,0.192l-0.131,0.224l-0.162,0.168l-0.245,0.021l0.187,0.442l-0.127,0.086l-0.277-0.006l-0.265,0.168
		l-0.107-0.3l-0.065-0.122l-0.115-0.089l-0.03,0.402l-0.11,0.318l-0.214,0.192l-0.273,0.024l-0.109-0.043l-0.097-0.025l-0.081,0.009
		l-0.062,0.059l-0.152-0.126l-0.107-0.029l-0.026-0.055l0.001-0.232l-0.137-0.339l-0.637-0.695l-0.11-0.23l-0.089-0.264l-0.228-0.24
		l-0.251-0.183l-0.138-0.249l-0.043-0.665l-0.103-0.32l-0.21-0.248l0.055-0.273l0.215-0.219l0.015-0.309l0.068-0.335l0.427-0.511
		l0.061-0.344l-0.147-0.098l-0.105-0.237l0.018-0.321l-0.113-0.296l-0.019-0.159l-0.038-0.139l-0.262-0.111l0.011-0.316l0.143-0.292
		l0.088-0.392l0.119-0.379l0.159-0.297l0.129-0.282l0.03-0.387l0.114-0.33l0.234-0.207l0.221-0.231l0.192-0.417l0.1-0.065
		l0.139,0.015l0.251-0.077l0.508-0.27l0.099-0.265l0.374-0.402l0.082,0.28l0.207,0.121l0.095,0.072l0.094,0.08l0.008,0.1
		l0.041,0.102l0.082,0.037l0.083,0.028l0.31,0.024l0.134,0.113l0.166,0.112l0.294,0.023l0.29-0.003l0.264,0.089l0.194,0.212
		l0.136,0.259l0.226,0.16l0.057,0.118l0.035,0.108l0.157,0.098l0.136,0.16l-0.006,0.297l-0.123,0.284l0.161,0.581l0.631,0.027
		l0.309-0.044l0.295,0.049l0.277,0.133l0.262,0.197l0.291,0.058l0.547-0.281l0.28,0.057l0.253-0.36l0.236-0.183l0.085,0.695
		l0.258,0.315l0.32,0.203l0.371-0.042l0.383-0.069l0.334,0.102l0.319,0.168l0.381,0.011l0.333-0.264l0.147-0.055l0.148-0.019
		l0.141-0.122l0.117-0.152l0.37-0.152l0.393,0.098l0.301,0.142l0.286-0.096l0.043,0.5l-0.256,0.516l0.153,0.31l0.63,0.097
		l0.265,0.202l0.442,0.506l0.526,0.29l0.235,0.183l0.069,0.348l0.223,0.221l0.291,0.103l0.041,0.036l-0.048,0.167l-0.018,0.231
		l-0.06,0.12l-0.069,0.103l0.058,0.171l0.003,0.07l-0.116,0.235l-0.163,0.346l-0.182,0.219l-0.098,0.205l0,0l-0.019,0.037
		l-0.02-0.045l0.02,0.045l0.117-0.242l0.182-0.219l0.163-0.346l0.116-0.235l-0.003-0.07l-0.058-0.171l0.069-0.103l0.06-0.12
		l0.018-0.231l0.048-0.167l-0.041-0.036l-0.291-0.103l-0.228,0.299l-0.188-0.025l-0.172,0.295l-0.316,0.025l-0.36,0.236
		l-0.201-0.128l-0.259-0.01l-0.241,0.097l-0.194,0.141l-0.146,0.181l-0.238,0.53l-0.181,0.212l-0.522-0.081L48.588,46.116z
		 M40.249,50.382l0.052,0.141l-0.03,0.125l-0.057,0.132l-0.03,0.163l0.028,0.257l-0.008,0.147l-0.058,0.064l-0.082,0.046
		l0.087,0.253l-0.042,0.127l-0.157,0.029l-0.15-0.09l-0.161-0.071l-0.19,0.088l-0.166,0.022l-0.102-0.241l-0.115-0.503L38.9,50.979
		l-0.134,0.093l-0.091,0.21l-0.034,0.26l-0.062,0.109l-0.145,0.005l-0.153-0.053l-0.093-0.061l-0.063-0.112l-0.015-0.092
		l-0.002-0.109l-0.022-0.158l-0.282-0.92l-0.037-0.222l0.027-0.219l0.117-0.224l0.078-0.057l0.08-0.015l0.062-0.042l0.048-0.275
		l0.06-0.079l0.164-0.128l0.135-0.065l0.155,0.048l0.136,0.121l0.079,0.156l-0.014,0.164l-0.09,0.157l-0.23,0.24l0.042,0.086
		l0.047,0.218l0.057,0.114l0.087,0.061l0.219,0.073l0.123,0.22l0.198-0.035l0.251-0.099l0.237-0.051l0.344,0.058L40.249,50.382z
		 M47.191,49.71l-0.012,0.148l-0.046,0.157l-0.09,0.087l-0.139-0.059l0.057,0.167l0.132,0.282l0.027,0.193l-0.078,0.031
		l-0.179-0.062l-0.192-0.101l-0.116-0.084l-0.032,0.174l-0.032,0.094l-0.177,0.207l-0.057,0.162l0.121,0.093l0.168,0.07l0.085,0.096
		l-0.16,0.141l-0.741,0.23l-0.223,0.015l0.349-0.254l-0.145-0.069l-0.055-0.11l0.008-0.148l0.052-0.182l-0.317,0.163l-0.094-0.065
		l-0.046-0.143l0.006-0.144l0.064-0.065l0.255-0.052l0.072-0.137l0.005-0.194l0.055-0.219l-0.14-0.085l-0.105,0.13l-0.367,0.163
		l-0.162,0.133l-0.116-0.181l-0.146-0.16l-0.119-0.179l-0.032-0.237l0.066-0.143l0.135-0.132l0.156-0.101l0.133-0.057l0.383-0.079
		l0.105,0.002l0.168,0.071l0.134,0.088l0.137,0.067l0.19,0.013v-0.078l-0.19-0.125l-0.108-0.186l-0.048-0.213l-0.011-0.199
		l0.135,0.017l0.716-0.408l-0.122-0.229l0.057-0.228l0.157-0.126l0.181,0.071l0.045,0.104l0.003,0.121l-0.067,0.463l0.005,0.073
		l0.047,0.147l0.062,0.117l0.045,0.121l-0.003,0.164l-0.041,0.149l-0.161,0.424l0.207-0.073l0.099-0.068l0.033,0.024L47.191,49.71z
		 M40.281,50.007l0.042,0.033l0.057,0.086l-0.108,0.027l-0.463-0.122l-0.253,0.082l-0.148-0.018l-0.152-0.093l-0.09-0.177
		l0.07-0.192l0.14-0.181l0.089-0.17l0.093-0.12l0.162-0.044l0.052,0.138L39.7,49.456l-0.036,0.137l0.01,0.115l0.054,0.037
		l0.06-0.135l0.12-0.19l0.098-0.017l0.03,0.087l0.052,0.05l0.051,0.028l0.023,0.15l0.058,0.207L40.281,50.007z M48.154,47.803
		l-0.045,0.258l-0.067,0.092l-0.052,0.018l-0.025-0.054l-0.05-0.218l-0.077-0.081l-0.027-0.064l0.012-0.088l-0.035-0.104
		l-0.054-0.099l0.028-0.09l0.108-0.061l0.117-0.012l0.102,0.03l0.07,0.158L48.154,47.803z M42.549,52.565l0.026,0.028l-0.015,0.066
		l-0.098,0.121l-0.044,0.029l-0.066,0.01l-0.097-0.022l-0.08,0.012l-0.109,0.054l-0.053,0.05l-0.061,0.013l-0.01-0.047l0.036-0.079
		l-0.01-0.064l-0.045-0.045l-0.038-0.009l-0.045-0.034l0.004-0.062l0.027-0.057l0.004-0.068l0.041-0.039l0.069-0.017l0.324,0.173
		l0.001,0.077l0.047,0.005L42.549,52.565z M43.482,50.318l0.098-0.04l0.157-0.04l0.179-0.012l0.1,0.098l0.027,0.16l-0.054,0.1
		l0.037,0.06l-0.044,0.075l-0.103-0.042l-0.041,0.025l0.003,0.031l0.084,0.016l0.084,0.07l-0.041,0.075l-0.104,0.131l-0.169,0.002
		l-0.074-0.095l-0.04-0.097l-0.086-0.003l0.02-0.082l-0.028-0.082l-0.132-0.02l-0.047-0.038l0.098-0.078l0.019-0.095l-0.099-0.078
		l-0.184-0.064l-0.117,0.037l-0.069-0.004l-0.022-0.082l0.082-0.091l0.12-0.03l0.158,0.064l0.12,0.092L43.482,50.318z M41.99,50.119
		l0.153,0.171l0.057,0.097l-0.041,0.067h-0.11l-0.052,0.027l0.007,0.088l-0.031,0.038l-0.097-0.027l-0.06-0.029l-0.112-0.079
		l-0.065-0.097l0.012-0.067l0.07-0.115l0.137-0.104L41.99,50.119z"/>
	<path class="st8" d="M51.799,46.031l-0.05,0.102l-0.158-0.003l-0.117-0.005l-0.144,0.024l-0.106-0.006l-0.111,0.05l-0.122,0.014
		l-0.01,0.176l0.082,0.122l0.014,0.146l-0.052,0.166l-0.229,0.107l-0.185-0.161l-0.112-0.093l-0.083-0.103l-0.268,0.288
		l-0.122,0.229l-0.039,0.244l-0.083,0.058l-0.049-0.123l-0.122-0.132l0.01,0.118l0.024,0.254l-0.078,0l-0.034-0.084l-0.044-0.02
		l-0.105,0.07l-0.1,0.062l-0.068-0.084l-0.083-0.281l0.034-0.253l0.078-0.322l0.015-0.18l-0.454,0.644l-0.141,0.01l0-0.493
		l-0.198-0.454l0.346-0.356l0.522,0.081l0.181-0.212l0.238-0.53l0.146-0.181l0.194-0.141l0.241-0.097l0.259,0.01l0.201,0.128
		l0.36-0.236l0.316-0.025l0.172-0.295l0.188,0.025l0.228-0.299l0.291,0.103l0.041,0.036l-0.048,0.167l-0.018,0.231l-0.06,0.12
		l-0.069,0.103l0.058,0.171l0.003,0.07l-0.278,0.581l-0.182,0.219L51.799,46.031L51.799,46.031z"/>
	<path class="st9" d="M54.455,40.423l0.016,0.019l0.068,0.121L54.5,40.837l-0.022,0.325l-0.069,0.488l-0.104,0.206l-0.168,0.227
		l-0.155,0.084l-0.067-0.221l-0.06-0.288l-0.132-0.216l-0.142-0.037l-0.085,0.245l0.14,0.032l0.083,0.106l0.04,0.155l0.009,0.178
		l-0.045,0.169l-0.105,0.039l-0.117,0.011l-0.082,0.082l0.015,0.09l0.013,0.233l0.042,0.241l-0.095,0.154l-0.087,0.154l0.085,0.12
		l0.068,0.069l-0.014,0.17l-0.21,0.069l-0.198,0.119l-0.284,0.282l-0.24-0.009l-0.004,0.013l-0.041-0.036l-0.291-0.103l-0.223-0.221
		l-0.069-0.348l-0.235-0.183l-0.526-0.29l-0.442-0.506l-0.265-0.202l-0.63-0.097l-0.153-0.31l0.256-0.516l-0.043-0.5l0.246-0.199
		l0.263-0.154l0.157-0.004l0.064-0.123l-0.098-0.163l-0.056-0.176l0.344-0.268l0.432-0.151l0.354-0.054l0.347,0.073l0.36,0.155
		l0.094,0.155l0.005,0.188l0.025,0.168l0.127,0.091l0.171,0.045l0.951-0.172l0.809,0.198L54.455,40.423z"/>
	<polygon class="st10" points="54.083,27.692 54.085,27.714 54.137,28.214 54.277,28.736 54.333,29.262 54.27,30.347 54.207,30.58 
		53.891,30.963 53.768,31.179 53.714,31.43 53.671,32.962 53.706,33.17 53.768,33.285 53.836,33.332 53.891,33.396 53.95,33.826 
		54.026,34.156 54.108,34.214 54.163,34.285 54.125,34.482 54.043,34.594 53.936,34.645 53.835,34.678 53.665,34.819 53.656,34.992 
		53.871,35.192 54.026,35.366 54.189,35.566 54.397,35.601 54.659,35.395 55.309,34.683 55.434,34.474 55.603,34.608 55.64,34.825 
		55.713,35.051 55.766,35.303 55.606,35.553 55.238,36.287 55.209,36.615 55.1,37.479 54.835,38.229 54.85,38.698 54.579,39.512 
		54.379,39.907 54.291,40.105 54.377,40.33 54.455,40.423 54.446,40.426 53.637,40.228 52.686,40.399 52.514,40.355 52.388,40.264 
		52.362,40.096 52.357,39.908 52.263,39.753 51.903,39.598 51.556,39.525 51.202,39.579 50.77,39.73 50.425,39.997 50.481,40.174 
		50.58,40.336 50.515,40.46 50.358,40.463 50.095,40.617 49.848,40.817 49.562,40.912 49.261,40.77 48.868,40.673 48.498,40.825 
		48.381,40.976 48.24,41.098 48.092,41.118 47.945,41.172 47.612,41.436 47.231,41.425 46.912,41.257 46.578,41.155 46.195,41.224 
		45.824,41.265 45.504,41.062 45.246,40.747 45.162,40.052 44.926,40.235 44.674,40.595 44.394,40.538 43.846,40.82 43.556,40.761 
		43.293,40.564 43.017,40.431 42.722,40.382 42.413,40.425 41.782,40.398 41.622,39.817 41.744,39.533 41.751,39.236 41.614,39.076 
		41.457,38.978 41.422,38.87 41.365,38.752 41.139,38.592 41.002,38.333 40.808,38.121 40.544,38.032 40.254,38.035 39.961,38.012 
		39.795,37.9 39.66,37.787 39.351,37.763 39.267,37.735 39.185,37.697 39.144,37.595 39.135,37.496 39.041,37.415 38.946,37.344 
		38.739,37.223 38.657,36.943 38.704,36.139 38.286,35.423 38.534,35.302 38.791,35.215 38.949,34.906 39.035,34.581 39.114,34.44 
		39.212,34.321 39.235,34.112 39.232,33.939 39.175,33.599 39.423,33.387 39.668,33.432 39.886,33.445 39.769,32.785 39.538,32.614 
		39.016,32.739 38.817,32.645 38.528,32.403 38.28,32.322 37.869,32.419 37.808,31.816 38.034,31.621 38.181,31.328 38.068,31.128 
		38.004,30.909 38.065,30.604 38.106,29.912 38.207,29.621 38.393,29.439 37.893,28.711 37.492,28.643 37.377,28.352 37.528,28.282 
		37.678,28.254 37.826,28.096 38.056,27.786 38.113,27.656 38.107,27.537 38.133,27.386 38.452,27.17 38.809,27 39.031,26.669 
		39.421,26.838 40.145,26.953 39.997,26.667 39.801,26.414 39.87,26.152 39.998,25.874 40.121,25.664 40.285,25.772 40.489,25.755 
		40.657,25.528 40.831,25.416 40.996,25.522 41.312,25.633 41.607,25.657 41.679,25.446 41.73,25.247 41.836,25.078 41.969,24.947 
		42.103,25.096 42.273,25.218 42.514,25.427 42.666,25.735 43.03,25.855 43.886,25.495 44.037,24.994 43.902,24.869 43.83,24.744 
		43.96,24.505 44.067,24.265 44.292,23.943 44.608,23.719 44.698,23.556 44.825,23.45 45.036,23.383 45.206,23.218 45.466,23 
		45.702,22.75 45.801,22.687 45.923,22.734 46.061,22.654 46.186,22.512 46.448,22.651 46.7,22.757 47.006,22.823 47.267,22.848 
		47.327,22.574 47.36,22.28 47.292,21.965 47.478,21.738 47.756,21.607 48.035,21.629 48.179,21.882 48.376,21.927 48.554,22.015 
		48.528,22.238 48.552,22.463 48.858,22.342 49.149,22.115 49.273,22.167 49.36,22.284 49.472,22.297 49.607,22.242 50.008,22.31 
		50.385,22.483 50.652,22.415 50.93,22.268 51.28,22.35 51.599,22.543 52.883,22.48 53.837,21.411 54.16,21.861 54.2,22.014 
		54.14,22.162 54.045,22.304 53.985,22.442 53.981,22.566 54.063,23.07 54.145,24.109 54.24,24.637 54.579,25.713 54.607,26.24 
		54.5,26.726 54.27,27.168 	"/>
	<path class="st11" d="M28.761,62.355l0.077,0.159l-0.047,0.054l-0.099,0.029l-0.071,0.085l0.005,0.071l0.065,0.113v0.066
		l-0.035,0.066l-0.087,0.115l-0.017,0.036l-0.184,0.213l-0.347,0.278l-0.108,0.231l-0.154,0.27l-0.007,0.108l-0.068,0.159
		l-0.252,0.029l-0.097,0.051l-0.269-0.024l-0.392,0.31l-1.033,0.19l-0.346,0.294l-0.423,0.094l-0.453-0.045L23.9,65.407l-0.43-0.13
		l-0.972,0.014l-0.303,0.142l-0.18,0.32l-0.165,0.034l-0.165-0.079l-0.233-0.377l-0.31-0.105l-0.301-0.315l-0.105-0.384l0.182-0.498
		l0.172-0.309l0.107-0.109l0.355-0.211l0.303-0.528l0.279-0.072l0.129-0.279l0.478-0.165l1.043-0.299l0.261-0.225l0.997-0.105
		l0.679-0.296l0.163,0.046l0.826-0.133l0.479-0.04l0.317,0.053l0.121,0.182l0.151,0.118l0.493,0.196l0.15,0.152l0.101,0.367
		l0.099,0.144l0.047-0.056l0.065-0.053L28.761,62.355z"/>
	<path class="st12" d="M30.498,15.722l0.28-0.003l0.24-0.087l0.208-0.003l0.078,0.188l-0.027,0.192l-0.143,0.072l-0.155,0.103
		l0.003,0.233l0.082,0.093l-0.175,0.24l-0.097,0.168l-0.265,0.158l-0.292,0.068l-0.3,0.151l-0.117-0.269l-0.256,0.059l-0.254,0.079
		l-0.18,0.103l-0.187,0.031l-0.439-0.015l-0.3-0.395l-0.296-0.089l-0.204-0.134l-0.054-0.37l-0.575-0.26l0.13-0.326l0.153-0.33
		l0.286,0.018l0.328,0.2l0.243-0.083l0.217-0.132l0.017-0.222l0.059-0.205l0.459-0.044l0.236-0.3l0.144-0.305l0.204-0.219
		l0.319-0.076l0.368,0.03l0.175,0.302l0.068,0.411l0.107,0.287l0.006,0.315L30.498,15.722z"/>
	<path class="st13" d="M31.971,24.346l0.459-0.135l0.434-0.209l0.34-0.114l0.092-0.376l0.167-0.181l0.262-0.113l0.124-0.16
		l0.085-0.213l0.158-0.169l0.2,0.042l0.058,0.077l0.257-0.179l0.488-0.909l0.05-0.109l0.059-0.1l0.079-0.064l0.082-0.058
		l0.082-0.124l0.072-0.137l1.08-0.296l1.087-0.149l-0.088,0.619l0.311-0.074l0.313,0.022l0.087,0.054l0.088,0.041l0.079-0.069
		l0.069-0.084l0.207-0.142l-0.056-0.624l0.193-0.237l0.521-0.176l0.389,0.412v0.276l0.127,0.178l0.339-0.082l0.338-0.189
		l0.205-0.158l0.244,0.051l0.202-0.106l0.237-0.183l0.571,0.204l0.583,0.092l0.184,0.055l-0.118,0.27l-0.295,0.21l-0.175,0.272
		l0.112,0.127l0.145,0.08l0.091,0.002l0.093-0.044l0.311-0.104l0.487-0.056l0.101,0.112l-0.018,0.183l0.203,0.211l0.074,0.169
		l0.186-0.014l0.22-0.039l0.246-0.079l0.244-0.002l0.243,0.184l0.269,0.175l0.266,0.053l0.26,0.03l0.207,0.09l0.205,0.133
		l-0.125,0.142l-0.138,0.08l-0.122-0.047l-0.099,0.064L45.466,23l-0.26,0.218l-0.17,0.165l-0.211,0.066l-0.127,0.106l-0.09,0.163
		l-0.316,0.224l-0.225,0.322l-0.107,0.24l-0.13,0.238l0.072,0.125l0.135,0.125l-0.151,0.501l-0.856,0.36l-0.365-0.12l-0.152-0.308
		l-0.241-0.209l-0.17-0.121l-0.133-0.15l-0.133,0.132l-0.107,0.169l-0.051,0.199l-0.072,0.21l-0.295-0.023l-0.316-0.111
		l-0.165-0.107l-0.174,0.112l-0.168,0.227l-0.204,0.017l-0.164-0.109l-0.124,0.21l-0.128,0.279l-0.069,0.262l0.195,0.252
		l0.149,0.287l-0.725-0.115l-0.39-0.169L38.809,27l-0.357,0.17l-0.318,0.216l-0.026,0.151l0.006,0.119l-0.057,0.13l-0.23,0.31
		l-0.148,0.159l-0.15,0.027l-0.151,0.07l0.115,0.291l0.4,0.068l0.501,0.728l-0.186,0.182l-0.101,0.291l-0.041,0.692l-0.061,0.305
		l0.064,0.219l0.113,0.2l-0.147,0.292l-0.226,0.196l0.061,0.603l0.411-0.097l0.247,0.081l0.29,0.242l0.199,0.094l0.522-0.125
		l0.231,0.171l0.116,0.661l-0.218-0.013l-0.245-0.045l-0.247,0.212l0.057,0.34l0.002,0.173l-0.022,0.208l-0.098,0.119l-0.079,0.141
		l-0.086,0.325l-0.159,0.31l-0.257,0.086l-0.248,0.122l-0.131,0.138l-0.131,0.12l-0.15-0.081l-0.149-0.142l-0.377,0.17l-0.329,0.201
		l-0.164-0.047l-0.095-0.119l-0.458-0.151l-0.153-0.182l-0.173-0.102l-0.067,0.089l-0.082,0.02l-0.097-0.089l-0.088-0.106
		l-0.232-0.362l-0.208-0.371l-0.088-0.434l0.014-0.438l-0.106-0.377l-0.314-0.192l-0.303-0.099l-0.33,0.068l-0.027-0.361l0.018-0.35
		l0.123-0.49l0.231-0.417l0.093-0.213l0.104-0.189l0.168-0.127l0.039-0.22l-0.131-0.044l-0.142-0.064l-0.172,0.126l-0.134,0.181
		l-0.106-0.338l-0.018-0.227l-0.126-0.065l0.018-0.145l-0.143-0.035l-0.119,0.174l-0.33,0.073l-0.309-0.088l0.039-0.223
		l-0.059-0.143l-0.089-0.043l-0.073-0.08l-0.036-0.092l0.023-0.097l0.052-0.321l-0.041-0.146l0.151-1.023l-0.27-0.399L32.8,27.129
		l-0.468-0.597l0.086-0.092l0.097,0.015l0.095-0.027l0.052-0.098l0.014-0.11l0.032-0.139l0.05-0.135l0.025-0.144l-0.022-0.145
		l-0.068-0.128l-0.085-0.078l0.011-0.263l-0.134-0.094l-0.175-0.354l-0.137-0.08l-0.12-0.127L31.971,24.346z"/>
	<path class="st14" d="M29.165,45.091l0.207,0.572l-0.403,0.537L28.339,46.1l-0.523,0.362l-0.409-0.141l0.095-0.215l-0.321-0.279
		l-0.085-0.635l0.406-0.575h0.314l0.274,0.421l0.268-0.061l0.28-0.084L29.165,45.091z"/>
	<path class="st15" d="M48.126,37.425l-0.077-0.023l-0.096,0.008l0.005,0.083L47.945,37.6l-0.096,0.252l-0.001,0.081l-0.031,0.118
		l0.081,0.834l-0.702,0.342l-0.528-1.225l-0.146,0.115l0.05,0.322l0.124,0.544l-0.524,1.067h-0.658l-0.463-0.348l0.002-0.477
		l0.687-0.194l-0.592-0.466l0.529-0.128l0.106-0.231l-0.155-0.456l-0.159-0.062l-0.061-0.233l0.142-0.198l0.153-0.001l0.165-0.027
		l0.043-0.119l0.019-0.126l-0.09-0.033l-0.097-0.016l0.11-0.248l0.175-0.193l-0.064-0.576l0.481-0.4l0.651-0.088l0.54-0.035
		l0.41,0.301l0.13,0.227l-0.005,0.1l-0.05,0.084l0.003,0.319l0.082,0.124l0.11,0.094l0.021,0.2l0.005,0.214l-0.055,0.2
		L48.126,37.425z"/>
	<polygon class="st16" points="32.686,29.431 32.487,29.963 32.101,30.6 32.287,30.962 31.697,31.783 32.368,32.619 33.055,32.44 
		33.107,31.783 33.474,31.811 33.5,32.107 33.646,32.057 34.19,31.745 34.421,31.328 34.514,31.116 34.618,30.927 34.786,30.8 
		34.825,30.58 34.694,30.536 34.552,30.472 34.38,30.598 34.246,30.779 34.14,30.441 34.122,30.214 33.996,30.149 34.014,30.005 
		33.872,29.969 33.752,30.143 33.422,30.216 33.114,30.128 33.153,29.906 33.094,29.763 33.005,29.72 32.932,29.64 32.896,29.547 
		32.919,29.45 32.919,29.45 32.9,29.449 	"/>
	<polygon class="st17" points="33.071,27.941 32.801,27.542 32.792,27.116 32.324,26.519 31.639,26.048 31.27,26.282 31.475,26.856 
		31.825,27.305 31.625,27.74 31.644,27.954 31.51,28.377 31.824,28.639 32.139,28.7 32.192,29.129 32.676,29.411 32.909,29.431 
		32.961,29.109 32.92,28.963 	"/>
	<polygon class="st10" points="57.518,21.129 57.698,21.262 57.685,21.592 57.569,21.96 57.446,22.204 57.246,22.303 56.978,22.252 
		56.717,22.098 56.544,21.894 56.489,21.629 56.578,21.431 56.768,21.307 57.142,21.245 57.392,21.154 	"/>
	<polygon class="st10" points="60.149,24.233 60.228,24.291 60.222,24.435 60.171,24.596 60.118,24.703 60.03,24.746 59.913,24.724 
		59.799,24.657 59.723,24.567 59.699,24.451 59.738,24.365 59.821,24.311 59.985,24.284 60.094,24.244 	"/>
	<polygon class="st10" points="60.465,24.489 60.581,24.504 60.655,24.58 60.622,24.722 60.522,24.819 60.461,24.848 60.427,24.776 
		60.37,24.615 60.383,24.502 	"/>
</g>
<g>
	<path class="st18" d="M24.701,30.973l-0.571,3.051h-7.858l-2.838,15.085H8.295l2.838-15.085H3.466l0.571-3.051H24.701z"/>
	<path class="st18" d="M47.999,30.973L31.867,46.084H43.88l-0.571,3.025H22.127l16.126-15.085H26.557l0.588-3.051H47.999z"/>
	<path class="st18" d="M65.88,30.973l-0.571,3.051h-9.954l-0.801,4.258h8.748l-0.571,3.05h-8.751l-0.893,4.752h12.55l-0.571,3.025
		H47.38l3.409-18.136H65.88z"/>
</g>
<g>
	<path class="st19" d="M18.509,21.699c0,1.214-0.35,2.334-1.051,3.361s-1.599,1.813-2.695,2.36
		c-0.664,0.327-1.357,0.543-2.079,0.651c-0.722,0.108-1.586,0.162-2.593,0.162h-4.26l2.715-10.714h3.811
		c1.122,0,2.027,0.079,2.712,0.238c0.685,0.158,1.238,0.372,1.66,0.64c0.58,0.365,1.021,0.819,1.324,1.364
		C18.357,20.305,18.509,20.951,18.509,21.699z M15.331,21.952c0-0.489-0.1-0.91-0.3-1.263c-0.2-0.352-0.505-0.637-0.916-0.853
		c-0.189-0.096-0.383-0.169-0.58-0.219c-0.197-0.05-0.422-0.088-0.675-0.111c-0.242-0.019-0.519-0.029-0.829-0.029
		c-0.311,0-0.582,0-0.813,0h-0.103l-1.737,6.792h0.276c0.305,0,0.632,0,0.979,0c0.347,0,0.629-0.012,0.845-0.036
		c0.279-0.024,0.53-0.062,0.754-0.115c0.223-0.053,0.47-0.142,0.738-0.266c0.758-0.355,1.341-0.885,1.749-1.59
		C15.127,23.556,15.331,22.786,15.331,21.952z"/>
	<path class="st19" d="M23.591,28.427c-1.006,0-1.903-0.079-2.691-0.238c-0.787-0.158-1.469-0.355-2.043-0.59l0.609-2.568h0.332
		c0.543,0.451,1.181,0.8,1.913,1.047c0.732,0.247,1.52,0.371,2.363,0.371c0.864,0,1.499-0.106,1.905-0.32
		c0.405-0.213,0.609-0.519,0.609-0.917c0-0.149-0.033-0.277-0.099-0.385c-0.066-0.108-0.194-0.215-0.383-0.32
		c-0.19-0.105-0.449-0.21-0.779-0.313c-0.329-0.103-0.755-0.222-1.276-0.356c-0.575-0.144-1.09-0.3-1.545-0.468
		c-0.456-0.168-0.844-0.367-1.166-0.597c-0.322-0.235-0.565-0.506-0.731-0.813c-0.166-0.307-0.249-0.674-0.249-1.101
		c0-1.075,0.52-1.932,1.561-2.572c1.04-0.641,2.464-0.961,4.272-0.961c0.87,0,1.69,0.065,2.462,0.194
		c0.772,0.129,1.427,0.305,1.964,0.525l-0.577,2.468h-0.324c-0.411-0.344-0.953-0.631-1.624-0.862
		c-0.672-0.231-1.406-0.347-2.202-0.347c-0.78,0-1.383,0.103-1.81,0.308c-0.427,0.205-0.64,0.488-0.64,0.851
		c0,0.168,0.032,0.307,0.095,0.417c0.063,0.111,0.192,0.218,0.387,0.324c0.169,0.096,0.435,0.2,0.799,0.313
		c0.363,0.113,0.79,0.229,1.28,0.349c1.318,0.322,2.258,0.698,2.822,1.13c0.564,0.432,0.846,1.017,0.846,1.756
		c0,0.619-0.153,1.163-0.459,1.633c-0.305,0.47-0.727,0.852-1.264,1.144c-0.564,0.312-1.204,0.539-1.921,0.683
		C25.309,28.355,24.497,28.427,23.591,28.427z"/>
	<path class="st19" d="M41.072,28.233h-9.466l0.571-2.254h2.981l1.728-6.822h-2.985l0.535-2.107c0.439,0,0.883-0.026,1.332-0.078
		c0.449-0.052,0.823-0.136,1.123-0.251c0.331-0.133,0.618-0.313,0.86-0.542c0.242-0.228,0.421-0.525,0.535-0.889h3.157
		l-2.718,10.689h2.918L41.072,28.233z"/>
</g>
<g>
	<path class="st0" d="M13.815,53.551v-0.689h1.771v0.882h-0.174L13.815,53.551z M15.586,60.408v0.882h-1.771v-0.689l1.597-0.193
		H15.586z M14.662,56.838c0-1.321,0-2.656-0.033-3.976h1.914c-0.033,1.296-0.033,2.63-0.033,3.976v0.423
		c0,1.373,0,2.708,0.033,4.029h-1.914c0.033-1.295,0.033-2.63,0.033-4.02V56.838z M15.586,60.551h1.309
		c1.26,0,2.04-1.258,2.04-3.481c0-2.258-0.78-3.47-2.02-3.47h-1.328v-0.738h1.5c2.346,0,3.759,1.597,3.759,4.19
		c0,2.678-1.55,4.238-3.955,4.238h-1.303V60.551z"/>
	<path class="st0" d="M25.239,59.544c0-0.676-0.286-0.983-0.95-1.327l-0.466-0.248c-1.298-0.689-2.044-1.452-2.044-2.871
		c0-1.54,1.068-2.475,2.736-2.475c0.785,0,1.543,0.241,2.08,0.652l-0.09,1.797h-1.01l-0.268-1.937l0.887,0.368v0.642
		c-0.587-0.496-1.002-0.76-1.57-0.76c-0.628,0-1.135,0.463-1.135,1.167c0,0.678,0.348,1.033,1.001,1.373l0.517,0.276
		c1.405,0.738,1.982,1.444,1.982,2.743c0,1.514-0.994,2.585-2.876,2.585c-0.826,0-1.756-0.216-2.39-0.671l0.066-1.907h1.026
		l0.286,2.078l-0.851-0.313v-0.616c0.699,0.438,1.152,0.668,1.861,0.668C24.816,60.767,25.239,60.239,25.239,59.544z"/>
	<path class="st0" d="M34.866,57.076c0,2.957-1.675,4.453-3.492,4.453c-1.818,0-3.495-1.463-3.495-4.453
		c0-2.957,1.689-4.453,3.495-4.453C33.18,52.623,34.866,54.086,34.866,57.076z M28.647,61.731l-0.613-0.599l6.037-8.712l0.613,0.599
		L28.647,61.731z M31.374,60.785c1.107,0,1.542-1.581,1.542-3.71c0-2.118-0.435-3.719-1.542-3.719c-1.108,0-1.546,1.601-1.546,3.719
		C29.828,59.204,30.266,60.785,31.374,60.785z"/>
	<path class="st0" d="M35.503,53.551v-0.689h3.471v0.689l-1.55,0.193H37.1L35.503,53.551z M37.424,60.408l1.431,0.193v0.689h-3.352
		v-0.689l1.597-0.193H37.424z M36.35,56.838c0-1.321,0-2.656-0.033-3.976h1.834c-0.033,1.296-0.033,2.63-0.033,3.976v0.559
		c0,1.237,0,2.572,0.033,3.893h-1.834c0.033-1.295,0.033-2.63,0.033-3.976V56.838z M37.276,58.463l3.884-5.601h0.819l-4.703,6.5
		V58.463z M39.749,55.404l2.68,5.885h-2.012l-1.813-4.257L39.749,55.404z M39.569,60.601l1.48-0.193h0.253l1.448,0.193v0.689h-3.18
		V60.601z M39.856,53.551v-0.689h2.548v0.689l-1.275,0.193l-0.323,0.017L39.856,53.551z"/>
	<path class="st0" d="M43.224,53.551v-0.689h1.771v0.882h-0.174L43.224,53.551z M44.995,60.408v0.882h-1.771v-0.689l1.597-0.193
		H44.995z M44.071,56.838c0-1.321,0-2.656-0.033-3.976h1.914c-0.033,1.296-0.033,2.63-0.033,3.976v0.423
		c0,1.373,0,2.708,0.033,4.029h-1.914c0.033-1.295,0.033-2.63,0.033-4.02V56.838z M44.995,60.551h1.309
		c1.26,0,2.04-1.258,2.04-3.481c0-2.258-0.78-3.47-2.02-3.47h-1.328v-0.738h1.5c2.346,0,3.759,1.597,3.759,4.19
		c0,2.678-1.55,4.238-3.955,4.238h-1.303V60.551z"/>
	<path class="st0" d="M50.821,60.601l1.172-0.193h0.315l1.417,0.193v0.689h-2.904V60.601z M51.395,53.315l0.635,0.363l-1.194-0.118
		v-0.698h2.485l3.948,6.316v2.137h-0.932L51.395,53.315z M51.756,52.862l0.709,0.698v7.73h-0.709V52.862z M55.301,52.862h2.904
		v0.689l-1.117,0.193h-0.307l-1.48-0.193V52.862z M56.561,52.862h0.709v8.453l-0.709-0.826V52.862z"/>
</g>
<g>
	<path d="M13.815,53.551v-0.689h1.771v0.882h-0.174L13.815,53.551z M15.586,60.408v0.882h-1.771v-0.689l1.597-0.193H15.586z
		 M14.662,56.838c0-1.321,0-2.656-0.033-3.976h1.914c-0.033,1.296-0.033,2.63-0.033,3.976v0.423c0,1.373,0,2.708,0.033,4.029h-1.914
		c0.033-1.295,0.033-2.63,0.033-4.02V56.838z M15.586,60.552h1.309c1.26,0,2.04-1.258,2.04-3.481c0-2.258-0.78-3.47-2.02-3.47
		h-1.328v-0.738h1.5c2.346,0,3.759,1.597,3.759,4.19c0,2.678-1.55,4.238-3.955,4.238h-1.303V60.552z"/>
	<path d="M25.239,59.544c0-0.676-0.286-0.983-0.95-1.327l-0.466-0.248c-1.298-0.689-2.044-1.452-2.044-2.871
		c0-1.54,1.068-2.475,2.736-2.475c0.785,0,1.543,0.241,2.08,0.652l-0.09,1.797h-1.01l-0.268-1.937l0.887,0.368v0.642
		c-0.587-0.496-1.002-0.76-1.57-0.76c-0.628,0-1.135,0.463-1.135,1.167c0,0.678,0.348,1.033,1.001,1.373l0.517,0.276
		c1.405,0.738,1.982,1.444,1.982,2.743c0,1.514-0.994,2.585-2.876,2.585c-0.826,0-1.756-0.216-2.39-0.671l0.066-1.907h1.026
		l0.286,2.078l-0.851-0.313v-0.616c0.699,0.438,1.152,0.668,1.861,0.668C24.816,60.767,25.239,60.24,25.239,59.544z"/>
	<path d="M34.866,57.076c0,2.957-1.675,4.453-3.492,4.453c-1.818,0-3.495-1.463-3.495-4.453c0-2.957,1.689-4.453,3.495-4.453
		C33.18,52.623,34.866,54.086,34.866,57.076z M28.647,61.731l-0.613-0.599l6.037-8.712l0.613,0.599L28.647,61.731z M31.374,60.785
		c1.107,0,1.542-1.581,1.542-3.71c0-2.118-0.435-3.719-1.542-3.719c-1.108,0-1.546,1.601-1.546,3.719
		C29.828,59.204,30.266,60.785,31.374,60.785z"/>
	<path d="M35.503,53.551v-0.689h3.471v0.689l-1.55,0.193H37.1L35.503,53.551z M37.423,60.408l1.431,0.193v0.689h-3.352v-0.689
		l1.597-0.193H37.423z M36.35,56.838c0-1.321,0-2.656-0.033-3.976h1.834c-0.033,1.296-0.033,2.63-0.033,3.976v0.559
		c0,1.237,0,2.572,0.033,3.893h-1.834c0.033-1.295,0.033-2.63,0.033-3.976V56.838z M37.276,58.463l3.884-5.601h0.819l-4.703,6.5
		V58.463z M39.749,55.405l2.68,5.885h-2.012l-1.813-4.257L39.749,55.405z M39.569,60.601l1.48-0.193h0.253l1.448,0.193v0.689h-3.18
		V60.601z M39.856,53.551v-0.689h2.548v0.689l-1.275,0.193l-0.323,0.017L39.856,53.551z"/>
	<path d="M43.224,53.551v-0.689h1.771v0.882h-0.174L43.224,53.551z M44.995,60.408v0.882h-1.771v-0.689l1.597-0.193H44.995z
		 M44.071,56.838c0-1.321,0-2.656-0.033-3.976h1.914c-0.033,1.296-0.033,2.63-0.033,3.976v0.423c0,1.373,0,2.708,0.033,4.029h-1.914
		c0.033-1.295,0.033-2.63,0.033-4.02V56.838z M44.995,60.552h1.309c1.26,0,2.04-1.258,2.04-3.481c0-2.258-0.78-3.47-2.02-3.47
		h-1.328v-0.738h1.5c2.346,0,3.759,1.597,3.759,4.19c0,2.678-1.55,4.238-3.955,4.238h-1.303V60.552z"/>
	<path d="M50.821,60.601l1.172-0.193h0.315l1.417,0.193v0.689h-2.904V60.601z M51.395,53.315l0.635,0.363l-1.194-0.118v-0.698h2.485
		l3.948,6.316v2.137h-0.932L51.395,53.315z M51.756,52.862l0.709,0.698v7.73h-0.709V52.862z M55.301,52.862h2.904v0.689
		l-1.117,0.193h-0.307l-1.48-0.193V52.862z M56.56,52.862h0.709v8.453l-0.709-0.826V52.862z"/>
</g>
</svg>
