<?xml version="1.0" encoding="utf-8"?>
<!-- Generator: Adobe Illustrator 25.0.0, SVG Export Plug-In . SVG Version: 6.00 Build 0)  -->
<svg version="1.1" id="레이어_1" xmlns="http://www.w3.org/2000/svg" xmlns:xlink="http://www.w3.org/1999/xlink" x="0px"
	 y="0px" viewBox="0 0 113.4 113.4" style="enable-background:new 0 0 113.4 113.4;" xml:space="preserve">
<style type="text/css">
	.st0{fill:#FFFFFF;stroke:#DCDDDD;stroke-width:0.25;stroke-miterlimit:10;}
	.st1{fill:#88BB3A;}
	.st2{fill:#C7D338;}
	.st3{fill:#5EB994;}
	.st4{fill:#AEC382;}
	.st5{fill:#E8BE37;}
	.st6{fill:#EB9D64;}
	.st7{fill:#E79196;}
	.st8{fill:#D06C7E;}
	.st9{fill:#4774B9;}
	.st10{fill:#4495B3;}
	.st11{fill:#BE8DB8;}
	.st12{fill:#B4BD31;}
	.st13{fill:#89C394;}
	.st14{fill:#D18B51;}
	.st15{fill:#126A7A;}
	.st16{fill:#449B77;}
	.st17{fill:#31825F;}
	.st18{stroke:#FFFFFF;stroke-miterlimit:10;}
	.st19{fill:#FFFFFF;stroke:#000000;stroke-miterlimit:10;}
	.st20{fill:#FFFFFF;stroke:#FFFFFF;stroke-width:0.75;stroke-miterlimit:10;}
</style>
<g>
	<circle class="st0" cx="56.7" cy="56.7" r="37.5"/>
	<g>
		<path class="st1" d="M64.9,21l0.3,0.6l0.5,1l0.1,0.4l0.3,0.7l1,1.9l0.7,2l0.1,0.2l0.4,0.5l0.1,0.4l1.8,2.6l0.7,1l0.8,0.9l0.1,0.1
			l0.6,0.7l0,0.3l0,0.3l0.1,0.3l0.4,0.2l0.1,0.2l0.3,1l0.1,0.2l0.2,0.1l0.1,0.1l0.5,1l0.3,0.4l0.1,0.2l0,0.2l0.1,0.2l0.5,0.6
			l0.2,0.5l0.1,1l0.2,0.6l0.6,0.8l0,0.2l-0.1,0.2l-0.1,0.1l-0.1,0.1l0,0.1l0.1,0.4l0.1,1.2l0.1,0.6l0.4,1.1l0,0.6l-0.1,0.5l-0.2,0.5
			l-0.2,0.6l0.2-0.6l0.2-0.5l0.1-0.5l0-0.6l-0.4-1.1l-0.1-0.6l-0.1-1.2L76.2,43l0-0.1l0.1-0.1l0.1-0.1l0.1-0.2l0-0.2l-0.3-0.5
			l-1,1.1L73.7,43l-0.3-0.2L73,42.7l-0.3,0.2l-0.3,0.1L72,42.7l-0.4-0.1l-0.1,0.1l-0.1,0l-0.1-0.1l-0.1-0.1l-0.3,0.2l-0.3,0.1l0-0.2
			l0-0.2l-0.2-0.1l-0.2,0L69.9,42l-0.3,0l-0.3,0.1l-0.2,0.2l0.1,0.3l0,0.3l-0.1,0.3l-0.3,0l-0.3-0.1l-0.3-0.1L68,43l-0.2-0.1
			l-0.2-0.1l-0.3,0L67,42.6l-0.3-0.2l-0.3-0.2l-0.3,0l-0.3,0.1l-0.2,0l-0.2,0l-0.1-0.2L65.2,42l0-0.2l-0.1-0.1l-0.5,0.1l-0.3,0.1
			l-0.1,0l-0.1,0l-0.2-0.1l-0.1-0.1l0.2-0.3l0.3-0.2l0.1-0.3l-0.2-0.1l-0.6-0.1L63,40.5l-0.3,0.2l-0.2,0.1l-0.3-0.1l-0.2,0.2
			l-0.4,0.2l-0.4,0.1L61.2,41v-0.3l-0.4-0.4l-0.6,0.2l-0.2,0.3l0.1,0.7l-0.2,0.2l-0.1,0.1l-0.1,0.1l-0.1,0l-0.1-0.1l-0.3,0l-0.3,0.1
			L59,41l-1.1,0.2l-1.1,0.3l0.6-1.1l0.5-1.2l0.7-1.4l0.1-0.3l-0.1-0.3l0.1-0.2l0.2-0.2l0.2-0.1l0.1-0.2L59,36.2L58.9,36l-0.3,0
			l-0.3-0.1l-0.4,0l-0.6-0.3l-0.3-0.1l-0.3-0.2l-0.3,0l-0.3,0.1L56,35l0-0.2l0.1-0.2l0-0.3l0-0.3l-0.3,0.1L55.8,34l0.3-0.4L56,33.4
			l-0.1-0.2l0.1-0.2l0-0.2l0-0.2l0.5-0.4l0.2-0.1l0.1-0.2l0.1-0.6l-0.3-0.4l-0.2,0l-0.2-0.1l-0.2-0.4l-0.2,0l-0.3,0l-0.3-0.2
			l-0.1-0.4l-0.1-0.6L55,28.8L55,28.7l-0.1,0l-0.1,0.1l-0.1,0l-0.2-0.1l-0.5,0.2l-0.4-0.1l-0.2-0.1l-0.2-0.2l0-0.3l0.1-0.2l0.1-0.1
			l0-0.1l-0.1-0.1l-0.1,0l-0.1,0l-0.1,0.1L53.1,28l-0.2,0.2l-0.2,0L52.5,28l0-0.1l0-0.1l-0.1,0l-0.1,0.1l0,0.1l0,0.5l-0.1,0.2
			l-0.4-0.2l-0.4-0.3L51.2,28L51,28l-0.1-0.2l-0.1-0.2l-0.1-0.1l-0.1-0.1l-0.1-0.2l-0.2-0.1L50,26.8l-0.2-0.1l0.1-0.1l0.6-0.5
			l0.7-0.4l0.7-0.3l0.7-0.1l0.3,0l1.3-0.1l1,0.3l0.3,0l0.6-0.2l2.1-0.2l0.1,0.1l0.1,0.2l0.1,0.1l0.1,0l0.7-0.2l1.1,0.1l0.7-0.1
			l0.7-0.3l0.7-0.4l0.6-0.6l0.3-0.4l0.2-0.4L64,23l0-0.5L64,22l0-0.2l0.1-0.2l0.3-0.2L64.9,21z"/>
		<path class="st2" d="M46.6,32l-0.1-1.2l0.1-0.3l0.1-0.1l0.2,0l0.3-0.1l0.4-0.3l0.9-1.4l0.2-0.2l0.4-0.3l0.2-0.2l0.2-0.5l0.1-0.4
			l0.1-0.2l0.2,0.1l0.4,0.2l0.2,0.1l0.1,0.2l0.1,0.1l0.1,0.1l0.1,0.2L51,28l0.1,0l0.1,0.1l0.4,0.3l0.4,0.2l0.1-0.2l0-0.5l0-0.1
			l0.1-0.1l0.1,0l0,0.1l0,0.1l0.2,0.1l0.2,0l0.2-0.2l0.1-0.2l0.1-0.1l0.1,0l0.1,0l0.1,0.1l0,0.1L53.4,28l-0.1,0.2l0,0.3l0.2,0.2
			l0.2,0.1l0.4,0.1l0.5-0.2l0.2,0.1l0.1,0l0.1-0.1l0.1,0l0.1,0.1l0.1,0.3l0.1,0.6l0.1,0.4l0.3,0.2l0.3,0l0.2,0l0.2,0.4l0.2,0.1
			l0.2,0l0.3,0.4l-0.1,0.6L56.7,32l-0.2,0.1L56,32.5l0,0.2l0,0.2l-0.1,0.2l0.1,0.2l0.1,0.2L55.8,34l0.1,0.2l0.3-0.1l0,0.3l0,0.3
			L56,34.8l0,0.2l0.2,0.2l0.3-0.1l0.3,0l0.3,0.2l0.3,0.1l0.6,0.3l0.4,0l0.3,0.1l0.3,0l0.2,0.1l0.1,0.2L59,36.6l-0.2,0.1l-0.2,0.2
			l-0.1,0.2l0.1,0.3l-0.1,0.3l-0.7,1.4l-0.5,1.2l-0.6,1.1l-0.1,0.1l-0.1,0.1l-0.1,0.1l-0.1,0.1L56.3,42l-0.1,0.1l-0.5,1l-0.3,0.2
			l-0.1-0.1l-0.2,0L55,43.3l-0.1,0.2l-0.1,0.2l-0.3,0.1L54.4,44l-0.1,0.4l-0.4,0.1l-0.5,0.2L53,44.9l-0.5-0.1L52,44.5l-0.5-0.2
			l-0.9,0.4l-0.4,0l-0.5-0.1l0,0l0.1-0.1l0.2-0.1l0.1-0.1l0.1-0.3l0-0.1l-0.1-0.1l0,0l0.1-0.1l0.1,0l0.1,0l0.2-0.1l0.1,0l0.1,0
			l0-0.2L50,43.5l-0.1,0.1l0,0.4l-0.1,0.1l-0.3,0.1l-0.4-0.1L48.8,44l-0.4-0.4l-0.1-0.4l0.6-0.1v-0.1l0,0L48.8,43l0.1,0l0.1,0l0.1,0
			l0.1,0.1l0-0.3L49,42.6l-0.1-0.3L49,42l-0.1-0.1L48.8,42l-0.1,0.2l0,0.2l-0.1,0.2l-0.1,0.1l-0.1-0.1l-0.2,0L48,42.8l-0.5-0.1
			l0-0.2l0-0.1l0-0.2l0-0.2l0.1-0.2l0.1-0.2l0.2-0.1l0.2-0.1l0.3,0l0.3-0.1l0.1-0.1l0-0.3l-0.1,0l-0.2,0.1l-0.2,0.2l-0.1,0L48.1,41
			L48,40.9l0-0.2l-0.3,0.1L47.6,41l-0.4,0.4l-0.1,0.1l-0.1,0l-0.1,0l-0.1-0.1l0-0.1l0.1-0.1L47,41l-0.3,0.1l-0.1,0l0-0.2l0.1-0.1
			l0.1-0.1l0.2-0.1l0.1-0.1l0.1-0.2l0,0l-0.3,0l-0.1-0.1l-0.1-0.1L46.5,40l-0.1-0.2l0,0l0,0l0.1-0.1l0.1,0.1l0.1,0l0.2-0.1l0.2,0
			l0.1,0.1l0.1,0l0.2-0.1l0,0.2l0,0.1l0.1,0.1l0.1,0.1l0.1,0l0.1-0.1l0.1-0.3l0.2-0.3l0.1,0l0.2,0.1l0.2,0l-0.1-0.1l-0.1-0.1
			l-0.1-0.1l-0.1,0l-0.2,0l-0.1-0.1l-0.2,0l-0.1,0l-0.1,0l-0.2,0l-0.3-0.1l-0.5-0.4l0-0.2l0.2-0.3l0.1-0.1l0.3-0.1l0.1-0.1l0.1-0.1
			l0.2-0.3l0.1-0.3l-0.1-0.2L47.7,37l-0.1-0.3l0.4-0.9l-0.5-0.3l-1.1-0.5l0,0.4l-0.4,0.4l-0.1-0.1l-0.1-0.2l-0.1-0.2l-0.1-0.2
			L45.4,35l0-0.2l0-0.3l-0.1-0.4L45.1,33l0-0.2l0.1,0l0.6,0.2l0.2,0l0.2-0.1l0.1,0l0.1,0.1l0.1,0.2l0,0.3l0,0.3l-0.1,0.2l0,0.3
			l0.3,0.3l0.4,0.2l0.3,0l-0.2-0.2l-0.6-0.5l0.2-0.5l0.1-0.3l0-0.2l-0.1-0.2l0-0.1l0-0.2l0-0.3l0.1-0.2l-0.1-0.1l-0.1,0L46.6,32z
			 M51.4,35.8l0.1-0.4l0-0.3l-0.1-0.3l-0.1-0.4L51.1,34l-0.4,0l-0.3,0.1l-0.2,0.2L50,34.6l-0.2,0.3l-0.5,0l-0.1,0.2l0,0.2L49,35.6
			l-0.3,0.1l-0.3-0.2l-0.3,0l-0.2,0.3l-0.1,0.3l0.6,0.3l0.1,0.4l0.2,0.1L49,37l0.3,0.4l0.5,0l0.2,0l0.2-0.1l0.3-0.1l0.3-0.1l0.1,0.3
			l0.3-0.2l0.3-0.1l0.3-0.2l0.1-0.2l0.2-0.3l-0.1-0.1l0-0.2l0.2-0.1l0.2-0.1l0-0.2l-0.1-0.2l-0.2,0l-0.3,0.1L51.4,35.8z"/>
		<path class="st3" d="M43.7,50.6l0.1,0.2L44,51l0.1,0.2l-0.1,0l-0.5,0l-0.2,0l0-0.2l0.1-0.1l0.1-0.1l0-0.1l-0.3,0.2L43,50.8l0-0.2
			l0.2-0.3l-0.1-0.1l-0.1,0.2L43,50.3l-0.1,0.1l0.1-0.3l0-0.5l0-0.3l-0.1-0.4l0.1-0.1l0.2-0.2l0.2-0.1l0.1,0.2l0,0.1l0,0.1L43.3,49
			l0,0.1l0.2,0.4l0,0.1l0,0.1l0.1,0.1l0.1,0.1l0.1,0.2h-0.2v0.1l0.1,0l0.2,0.1l0,0.1l0,0.1L43.7,50.6z M48.1,56.1l-0.2,0.1l-0.2,0.2
			l-0.2,0.2l-0.2,0.1l-0.2,0l-0.2,0.1l-0.2-0.1l-0.1-0.1l0-0.1l-0.1-0.2l-0.1-0.1l-0.2-0.2l-0.1-0.2l0.2-0.1l-0.1-0.1l-0.1-0.1
			l-0.1,0L45.7,55l-0.2-0.1L45.4,55l-0.1,0l0-0.1l-0.2-0.2l-0.2,0l-0.1,0.3l0,0.1L44.7,55l0-0.4l0.4-0.2l0.3-0.1l0.5,0.1l-0.2-0.3
			L45.6,54L45.5,54l-0.1,0L45.3,54l-0.1,0l-0.1-0.1l-0.1-0.1l0.2-0.6l0.1-0.3l0.2-0.1l-0.1-0.1l-0.5-0.1l-0.2-0.1l0.2-0.2l0.5-0.1
			l0.1-0.1l-0.1-0.2l-0.2,0l-0.4,0L45,51.7l-0.1-0.2l-0.1-0.1v-0.1h0.1l-0.2-0.3l0.2-0.1l0.2-0.1l0.2-0.3l0.4-0.1l0.2-0.1h-0.6
			l-0.2,0.1L45,50.8l-0.2,0l-0.1-0.1l-0.1-0.2l-0.1-0.3l0-0.2l0.2-0.3l0.1-0.2l0-0.1l-0.2,0.1l-0.1-0.1l-0.1-0.1l-0.1,0l-0.1-0.1
			l0-0.1l0-0.1l-0.1-0.2l-0.1-0.1l0-0.1l0.1,0l0.2-0.1l0.2,0l0-0.2l0.1-0.1l-0.1-0.1l-0.1,0L44.6,48l0.1-0.2l0.2-0.1l-0.1-0.2
			l-0.3,0l-0.1-0.2l0.1-0.2l0.3,0l-0.1-0.2l-0.1-0.1l0-0.1l-0.1,0.1l-0.2,0.2L44.1,47l0,0.1l0,0.1l0.1,0.1l0,0.2l-0.1,0.3l0,0.4
			L44,48.5l-0.1,0.1l-0.2-0.2l-0.2,0l-0.2-0.1l0.1-0.7l0.1-0.3l-0.1-0.1l0-0.3l-0.1-0.1l-0.2,0L43,46.9l0,0.2l-0.1,0.2l-0.2,0
			l0.1,0.2l0.2,0.3l0.1,0.2l-0.1,0.1l0,0.1l0.2,0.2l-0.2,0l-0.1,0.1l-0.1,0.1l-0.1,0.1l0-0.1l0-0.1l0-0.1l0-0.1l0.1-0.3l-0.3-0.5
			l0.1-0.3L42.3,47l-0.2,0.1l-0.3,0.4l-0.2,0.1l-0.1,0l-0.1,0l-0.1,0l-0.1-0.1l0-0.1l0-0.1l0-0.1l0.1-0.1l0.4,0l0.1-0.1l0-0.2
			l-0.1-0.2l-0.2-0.1l-0.2-0.1l-0.1-0.1L41,46.7l0,0.3l-0.1,0.2l-0.1,0.1l0-0.1l0-0.3l0-0.3l0-0.1L41,46l0.1-0.1l0-0.2l0,0.1l0,0.1
			l0.1,0.1l0.1,0.1l0.1-0.1l0.1,0l0.1,0l0.1,0l-0.1-0.2l-0.1-0.2l0.3,0.1l0.1,0l0.1-0.2l-0.3,0l-0.2-0.1l0-0.2l0.2-0.3L41.4,45
			l0-0.2l0.2-0.2l0.3-0.1l-0.1,0.3l0,0.1l0.1,0l0.3,0l0.1-0.1l0.1-0.1l0-0.3l0-0.4l0.1-0.3l0.3-0.1l0,0.2l0,0.3l0,0.3l0.1,0.4
			L42.8,45l-0.1,0.1l-0.1,0.1l0,0.1l0.1,0.2l0,0.1l-0.1,0.1l-0.2,0.1l0,0l0,0.1l0,0.1l0.1,0.1l0.1,0l0.2-0.2l0.1,0l0.3,0.2L43,45.6
			l-0.1-0.3l0.1-0.1l0.2,0.2l0.1,0.1l0-0.1l0,0l0.1,0l0.2-0.1v-0.1l-0.1,0L43.4,45v-0.1l0.3-0.1l0.2-0.2l0-0.3l-0.1-0.2l-0.1,0
			l-0.3,0L43.3,44l-0.1-0.1l0-0.1l0.1,0l0.2,0.1l0.1-0.2l-0.1-0.1l-0.2-0.1l-0.2,0l0.1-0.1l0.1-0.1l0.1,0l0.1,0.1l0.1,0.1l0.1,0l0,0
			l0-0.1v-0.1l0.4,0l0.2,0.1l0.1,0.2l-0.1,0.1l-0.1,0.1L44,43.8l0.1,0.2l0.1-0.1l0.1-0.1l0.1,0l0,0.1l0,0.1l0.1,0.1l0,0.1l0,0
			l-0.1,0.1l0,0.1v0.6l0,0.2l0.1,0.1l0.1,0l0-0.1l0-0.3l0.2-0.6l0-0.3L45,44l0.1,0.1l0.2,0.2l0.1,0.1l0.1,0.1l0.1,0.1l0.2,0v-0.1
			l-0.1-0.1l-0.1-0.3L45.4,44l-0.7-0.7l0,0l0-0.1l0.1,0l0.1,0.1l0.2,0.2l0.1,0.1l0.1,0.1l0.1,0l0.1-0.1l0-0.1l-0.1-0.1l-0.2,0
			l-0.2-0.1L44.9,43l-0.1-0.3l0-0.2l0.2,0l0.2,0.1l0.2,0.1l0.2,0.2l0.2,0.1l0.1,0.1l0.2,0.1l0.2,0.1l0.1,0.2l-0.1,0.2l-0.1,0.1
			l0,0.1l0.1,0.2l0,0.1l0,0.2l0.1-0.1l0-0.1l0-0.1l0-0.3l0-0.1l0.1-0.1l0.1-0.2l0.2-0.1l0.2,0l0.2,0l0.2,0.1l0.3,0.1l0.2,0.1
			l0.2,0.2l0,0.3l-0.2,0.6l0.1-0.1l0.2-0.3l0.1,0l0.1,0.1l0,0.2l0,0.4l0,0.1l-0.1,0.2l0,0.1l0,0.1l0.1,0.2l0.1,0.4l0,0.1l-0.2,0.1
			l0,0.1l0,0.1l0.1,0.1l0.1,0l0.1-0.3l0.1-0.2l0.1-0.2l-0.1-0.3l0.2,0.1l0.2,0l-0.4-0.4L48.6,45l0.2-0.1l0.2,0l0.5-0.2l0.2-0.2l0,0
			l0.5,0.1l0.4,0l0.9-0.4l0.5,0.2l0.4,0.4l0.5,0.1l0.1,0.2l0.1,0.1l0.1,0.1l0.2,0.4l0.1,0.1l0,0.3l0.1,0.1l0.1,0.1l0,0.2l0,0.2
			l-0.1,0.1l0,0.1l0,0.1l-0.1,0.1l-0.1,0l-0.1,0l-0.1,0.1l-0.7-0.5L52.2,47l0.2,0.6l0.4,0.5l-0.2,0.5l0,0.2l-0.1,0.4l0.3,0.3
			l0.3,0.1l0.1,0.5l0.5,0.3l0,0l-0.2,0.6l-0.4,0.7l0.2,0.4l-0.6,0.9l0.7,0.9l0.7-0.2l0.1-0.7l0.4,0l0,0.3l0.2-0.1l0.6-0.3l0.2-0.4
			l0.1-0.2l0.1-0.2l0.2-0.1l0-0.2l-0.1,0l-0.1-0.1l-0.2,0.1l-0.1,0.2l0.1-0.2l0.2-0.1l0.1,0.1l0.1,0l0,0.2l-0.2,0.1l-0.1,0.2
			l-0.1,0.2l-0.2,0.4l-0.1,0.5l0,0.4l0,0.4l0.3-0.1l0.3,0.1l0.3,0.2l0.1,0.4l0,0.5l0.1,0.5l0.2,0.4l0.2,0.4l-0.3,0.3l-0.3,0.2
			L56,56.9l-0.3,0L55.5,57l-0.6-0.1l0-0.1l0.1-0.2l-0.1-0.1l-0.1,0l-0.4-0.2l-0.5-0.9l-0.3-0.3l-0.2,0.2l-0.1,0.2l-0.2,0l-0.2,0.1
			l-0.2,0.1L52,55.8l-0.3,0.1L51.4,56l-0.2-0.4l0.1-0.6l-0.4-0.1l-1.1,0.4l-0.6,0.1l-0.5,0.1L48.1,56.1z"/>
		<polygon class="st4" points="47.1,38.1 47.1,38.1 46.5,38 46.3,38.3 46,38.1 46.1,37.9 46.2,37.6 46.2,37.5 46,37.4 45.8,37.3 
			45.8,37 45.8,36.9 45.9,36.7 46.2,36.6 46.3,36.5 46.3,36.4 46.2,36.4 46.1,36.5 45.9,36.5 45.8,36.4 45.8,36.1 45.9,35.8 
			46.3,35.4 46.3,34.9 47.5,35.5 47.9,35.8 47.6,36.7 47.7,37 47.8,37.1 47.9,37.3 47.8,37.6 47.7,37.9 47.5,38 47.5,38 		"/>
		<polygon class="st4" points="45.4,36.3 45.5,36.3 45.5,36.4 45.6,36.4 45.6,36.5 45.6,36.6 45.6,36.6 45.5,36.7 45.5,36.7 
			45.3,36.8 45.2,36.8 45.1,36.8 44.8,36.9 44.7,37.1 44.6,37.2 44.1,37.6 44,37.5 43.9,37.5 43.9,37.5 43.8,37.4 43.8,37.3 
			43.7,37.4 43.7,37.4 43.7,37.3 43.7,37.3 43.7,37.2 43.6,37.2 43.6,37.3 43.5,37.3 43.4,37.3 43.3,37.3 43.4,37.2 43.3,37.1 
			43.2,37 43.2,36.9 43.2,36.8 43.3,36.8 43.4,36.9 43.9,36.5 44.2,36.5 44.5,36.5 44.7,36.4 44.8,36.1 44.9,36 45,36.1 45.1,36.2 
			45.2,36.2 45.2,36.2 45.3,36.2 45.3,36.2 		"/>
		<polygon class="st4" points="42.5,32.3 42.7,32.3 42.9,32.4 43,32.5 43,32.7 42.8,32.9 42.5,32.9 42.1,32.8 42,32.9 41.9,32.9 
			41.8,32.9 41.7,32.8 41.8,32.7 41.9,32.3 42,32.2 42.2,32.2 42.3,32.2 		"/>
		<polygon class="st4" points="43.2,33.8 43.3,33.9 43.4,34 43.5,34.2 43.3,34.3 43.1,34.3 42.4,33.8 42.5,33.7 42.5,33.6 
			42.6,33.3 42.6,33.2 42.7,33.2 42.7,33.1 42.8,33.1 42.8,33.1 42.9,33.2 42.9,33.2 42.9,33.5 42.9,33.5 43,33.6 43.1,33.7 		"/>
		<polygon class="st4" points="44.8,35.2 44.8,35.2 44.7,35.1 44.6,35 44.5,35 44.4,35 44.4,35 44.3,35.1 43.8,35.1 43.6,35 
			43.3,34.7 43.7,34.6 43.8,34.5 43.8,34.4 43.8,34.3 43.8,34.3 43.7,34.2 43.3,33.5 43.3,33.4 43.4,33.2 43.3,32.6 43.4,32.4 
			43.5,32.4 43.7,32.1 43.9,32 44.1,32.2 44.3,32.4 44.4,32.5 44.8,32.7 44.9,32.8 45,33 45,33.2 44.9,33.3 44.9,33.4 44.9,33.5 
			45,33.7 45,33.8 45.1,34.3 45,34.4 45.1,34.5 45.2,34.6 45.2,34.7 45.1,34.8 44.9,35.1 		"/>
		<polygon class="st4" points="44.6,39.5 44.7,39.6 44.7,39.7 44.7,39.8 44.6,39.8 44.5,39.9 44.5,40 44.4,40.1 44.3,40.1 
			44.2,40.1 44.1,40.1 44.1,40 44,39.9 44,39.7 44.1,39.6 44.3,39.5 		"/>
		<polygon class="st4" points="46,39.8 46,39.9 46,40 46,40.1 45.4,40.5 45.2,40.6 45.2,40.5 45.3,40.4 45.3,40.3 45.3,40.2 
			45.4,40 45.4,39.9 45.3,39.7 45.3,39.5 45.2,39.4 45.2,39.4 45.4,39.5 45.5,39.4 45.6,39.4 45.5,39.5 45.6,39.6 45.7,39.7 
			45.9,39.7 		"/>
		<path class="st5" d="M44.1,65.1l-0.1-0.2l-0.1-0.1l0.1-0.3l0.2-0.4l0.3-0.7l0.2-0.4l0.4-0.1l0.4-0.1l0.3,0l0.2-0.1l0.2-0.2
			l0.2-0.1l0.2,0.2l0.2,0.2l0.1,0l-0.1-0.5l-0.1-0.2l-0.2-0.1l-1.5,0.3L44.4,62l0-0.4l0-0.1l0.3-0.1l0.2-0.2l0.2-0.2l0.3-0.2
			l0.4-0.2l0.3-0.4l0-0.4l0.2-0.1l0.1-0.1l0.1-0.1l0.4,0l0.4,0l0.2,0.2l0.2,0l0.1,0.2l0-0.1l0-0.2l0-0.2l-0.1-0.1l-0.1-0.1l-0.2-0.1
			L47.2,59L47,58.9l-0.1-0.1l0-0.1l0.1-0.1l0.1-0.1l0.1,0l0.6,0l0.1,0l0.1-0.1l0.1-0.1l0-0.1l0.1-0.1l0.1,0l0,0L48.3,58l-0.1-0.1
			l-0.1,0l0,0l-0.8,0.3l-0.3,0l-0.5,0l-0.5,0l0-0.2l0-0.3l-0.1-0.1l-0.3-0.1L45,57.5l0-0.4l1-0.1l0.5-0.1l0.5,0l0.2-0.1l0.2,0.1
			l0.2-0.1l0.4-0.3l0.5-0.2l0.2-0.2l0-0.2l-0.6,0.2l0.5-0.6l0.5-0.1l0.6-0.1l1.1-0.4l0.4,0.1l-0.1,0.6l0.2,0.4l0.3-0.1l0.3-0.1
			l0.6-0.1l0.2-0.1l0.2-0.1l0.2,0l0.1-0.2l0.2-0.2l0.3,0.3l0.5,0.9l0.4,0.2l0.1,0l0.1,0.1l-0.1,0.2l0,0.1l0.6,0.1l0.2-0.1l0.3,0
			l0.3-0.1l0.3-0.2l0.3-0.3l0.1,0.1l0.1,0.1l0.1,0l0.1-0.1l0.2,0.1l0.2,0.2l0.5,0.2l0.1,0.1l0.2,0l0.3-0.2l0.4-0.2l0.2,0.2l0.2,0.1
			l0.1-0.1l0.1-0.1l0.4,0.8L60,58.2l-0.4,0.4l-0.1,0.3L59,59.2l-0.3,0.1l-0.1,0l-0.1,0.1l-0.2,0.4L58,60l-0.2,0.2l-0.1,0.3l0,0.4
			l-0.1,0.3l-0.2,0.3L57.2,62l-0.1,0.4L57,62.7l0,0.3l0.3,0.1l0,0.1l0,0.2l0.1,0.3l0,0.3l0.1,0.3l0.2,0.1l-0.1,0.4l-0.5,0.5
			l-0.1,0.4l0,0.3l-0.2,0.2l-0.6-0.5l-0.7-0.3l-0.4,0.2l-0.3,0.3l-0.3,0l-0.4,0l-0.4,0.1l-0.4,0l-0.2-0.1L53,66l-0.2,0l-0.2,0
			l-0.3,0.1l-0.3,0.2l-0.4-0.1l-0.3-0.3l0-0.4l-0.2-0.2L51,65l0.1-0.4l-0.2-0.3l-0.3,0l-0.1,0.1l-0.1,0.1l-0.1,0.2l0,0.2l-0.3,0
			l-0.5-0.7L49.1,64l-0.2-0.1l-0.2,0l-0.2,0.2l-0.4,0l-0.3,0.2l0,0.2l0,0.2l-0.1,0.2l-0.1,0.1l0,0.1l0,0.1l-0.1,0.2l-0.1,0.1
			l-0.2,0.1l-0.2,0.1l-0.2,0.1l-0.1,0.1l-0.4,0.1L46.1,66l-0.3,0.1L45.5,66l0-0.4l0.1-0.4l0.1-0.5l-0.3-0.1L44.3,65L44.1,65.1
			L44.1,65.1z M42.1,62.4L42.1,62.4l-0.1-0.1l0-0.1l0.1-0.1l0,0l-0.1,0l0,0l0.1,0l0-0.1l0.1,0l0,0l0-0.1l0,0l0.1,0l0.1-0.1l0,0l0,0
			l0,0.1l0,0.1l-0.2,0.2l-0.1,0.1L42.1,62.4L42.1,62.4L42.1,62.4z"/>
		<polygon class="st6" points="58.9,70.6 58.8,70.5 58.3,70.5 58.2,70.5 58.1,70.4 58.1,70.3 58.1,70.2 57.9,70.1 57.9,70.2 
			57.9,70.4 57.9,70.4 57.9,70.7 57.8,70.8 57.7,70.9 57.3,71.2 57.1,71.3 56.9,71.2 56.7,70.8 56.5,70.7 56.4,70.9 56.4,71.1 
			56.4,71.3 56.5,71.6 56.6,71.9 56.8,72.1 57,72.3 57.1,72.4 57.2,72.5 57.4,72.4 57.7,72.1 57.9,72 58.1,72.1 58.3,72.1 58.5,72 
			58.5,72.2 58.5,72.4 58.4,72.8 58.3,73.4 58.2,73.6 57.8,73.7 57.5,73.6 57.2,73.5 57,74 57,73.9 57,73.9 57,73.9 56.9,74 
			57,74.1 57,74.3 57.1,74.9 57.1,75 57,75 56.8,74.8 56.5,74.7 56.3,74.6 56.2,74.4 56.2,74.1 56.2,73.9 56.4,73.6 56.5,73.3 
			56.4,73.1 56.3,73 56.2,72.6 56.1,72.6 56.1,72.6 56,72.6 55.9,72.5 55.9,72.4 56,72.4 56,72.3 55.8,72 55.8,71.8 55.8,71.8 
			55.8,71.6 55.9,71.6 55.8,71.5 55.8,71.4 55.7,71.4 55.7,71.5 55.7,71.5 55.5,72 55.4,72.1 55.4,72.1 55.3,72.1 55,72.2 
			54.7,72.3 54.3,72.3 54.1,72.3 54.2,72.4 54.5,72.5 54.8,72.6 54.8,72.7 54.3,72.8 54.1,73 54,73.2 54.1,73.2 54.3,73.1 
			54.4,73.2 54.5,73.3 54.5,73.4 54.4,73.4 54.4,73.4 54.5,73.9 54.9,74.2 55.2,74.4 55.4,74.8 55.3,74.8 55.1,74.7 55,74.8 
			55.5,74.9 55.6,75.1 55.6,75.4 55.5,75.5 55.4,75.6 55.2,75.5 55,75.6 54.5,75.3 54.4,75.2 54.3,75.3 54.1,75.3 53.9,75.4 
			53.9,75.5 53.9,75.6 54,75.9 54.2,75.9 54.3,75.9 54.7,75.8 54.9,76 54.4,76.5 54.2,76.8 54,76.7 53.7,76.9 53.7,77.1 53.9,77.3 
			53.6,77.3 53.1,76.7 53,76.4 52.6,75.9 52.4,76 52,76.2 52.1,76.3 52.1,76.4 51.9,76.3 51.7,76.3 51.6,76.2 51.5,76 51.5,75.8 
			51.6,75.7 51.8,75.6 51.9,75.5 52.1,75.2 52.2,74.9 52.3,74.8 52.5,74.8 52.4,75 52.4,75.2 52.2,75.6 52.6,75.6 52.8,75.5 
			53,75.2 53,74.9 52.9,74.7 52.8,74.6 52.8,74.5 52.8,74.3 52.8,74.2 53.1,73.9 53.2,73.9 53.3,74 53.3,74.1 53.3,74.2 53.3,74.4 
			53.4,74.5 53.6,74.6 53.7,74.5 53.8,74.4 53.9,74.1 54,74 53.9,73.7 53.8,73.5 53.7,73.4 53.5,73.6 53.3,73.7 53.1,73.5 
			52.8,73.1 52.7,73.3 52.5,73.9 52.3,74 52.2,74.1 52,74.1 51.8,74 51.6,74.1 51.5,74.2 51.3,74.5 51.2,74.5 50.8,74.8 50.6,74.9 
			50.5,75 50.3,75 50.3,75.1 50.2,75.2 50.3,75.3 50.2,75.5 50.2,75.6 50.1,75.7 50,75.9 50.1,76 49.5,76.6 49.5,77.2 49.4,77.2 
			49.1,77.1 49,77.2 49,77.3 49,77.5 49,77.6 48.9,77.6 48.6,77.4 48.2,77.3 48.1,77.2 48,77 48.1,76.3 48,76 48.1,75.9 48.1,75.7 
			48,75.5 47.9,75.4 47.8,75.4 47.6,75.5 47.5,75.7 47.5,75.8 47.6,76 47.6,76.1 47.6,76.3 47.3,76.4 47.3,76.5 47.6,76.8 
			47.2,77.1 47,77.2 47.2,77.3 47.2,77.3 47.2,77.4 47.2,77.4 47.2,77.5 47.1,77.5 47,77.4 46.9,77.4 46.8,77.4 46.8,77.5 
			46.8,77.6 46.7,77.7 46.6,77.7 46.3,77.8 46.2,77.9 46.1,78 45.9,78.9 45.9,79 45.9,79.2 45.6,79.1 45.1,79.3 45,79.3 45,79.1 
			45.1,78.8 45,78.6 44.9,78.6 44.8,78.5 44.5,78.5 44.5,78.5 44.6,78.4 44.6,78.3 44.6,78.1 44.7,78.1 44.7,78.1 44.8,78.1 
			44.9,77.8 44.9,77.7 44.9,77.6 44.8,77.5 44.8,77.5 44.6,77.5 44.5,77.4 44.5,77.4 44.5,77.3 44.5,77.3 44.5,77.1 44.6,77 
			44.6,76.9 44.4,76.9 44.4,76.6 44.6,76.5 44.9,76.4 45.2,76.4 45.2,76.3 45.1,76.2 45,76.2 44.9,76.1 45.1,76 45.2,75.9 
			45.2,75.7 45,75.7 45,75.7 44.9,75.8 44.8,75.9 44.7,75.9 44.6,75.8 44.5,75.8 44.5,75.8 44.4,75.9 44.4,76 44.3,76.1 44.2,76 
			44.1,76 43.9,76 43.7,76.1 43.6,76.1 43.5,75.9 43.5,75.8 43.2,75.7 43.2,75.6 43.1,75.5 43.1,75.5 43.1,75.5 43,75.6 42.9,75.6 
			42.9,75.6 42.8,75.6 42.6,75.4 42.5,75.4 42.5,75.3 42.5,75.2 42.6,75.2 42.6,75.1 42.6,75.2 42.8,75.2 42.8,75.1 42.8,75 
			42.5,74.9 42.3,74.7 42.3,74.3 42.3,73.9 42.5,73.6 42.5,73.5 42.5,73.4 42.5,73.3 42.6,73.2 42.7,73.2 42.7,73.3 42.8,73.3 
			42.9,73.5 43.2,74 43.1,74.1 43.1,74.2 43.1,74.4 43.1,74.5 43.3,75.1 43.5,75.2 44,75.3 44.2,75.5 44.4,75.5 44.5,75.2 
			44.3,75.2 44.3,75.2 44,75.2 43.9,75 43.8,74.9 43.8,74.6 43.7,74.6 43.6,74.8 43.5,74.8 43.4,74.5 43.4,74.2 43.5,74 43.4,73.8 
			43.7,73.8 44.2,73.9 44.2,74 44.2,74.1 44.2,74.2 44.2,74.2 44.2,74.3 44.4,74.4 44.4,74.5 44.6,74.6 44.8,74.6 44.9,74.8 
			45,74.9 45.1,74.9 45.2,74.9 45,74.6 45.1,74.6 45.3,74.7 45.5,74.8 45.9,74.9 46.1,74.9 45.9,74.8 45.7,74.7 45.3,74.4 
			45.4,74.3 45.2,74.1 44.8,73.7 44.6,73.6 44.4,73.5 44.1,73.6 43.8,73.4 43.6,73.5 43.3,73.4 43.3,73.3 43.4,73.1 43.6,73 
			43.9,73.1 44.3,72.9 44.8,73.3 45,73.2 45,73.3 45,73.3 45.1,73.3 45.1,73.3 45.1,73.1 45.1,72.8 45.2,72.7 45.5,72.6 46,72.8 
			46.2,72.8 46.2,72.6 46.3,72.5 46.4,72.5 46.5,72.5 46.4,72.3 46.1,72.3 45.6,72.3 45.6,72.2 45.6,72.1 45.6,72 45.6,71.9 
			45.6,71.8 45.7,71.7 45.7,71.7 45.7,71.5 45.6,71.3 45.5,71.3 45.3,71.4 45.2,71.5 45.2,71.6 45.3,71.9 45.3,72 45.3,72 
			45.1,72.3 45,72.7 44.9,72.9 44.7,72.9 44.7,72.8 44.6,72.8 44.7,72.7 44.7,72.6 44.8,72.5 44.6,72.4 44.5,72.5 44.4,72.6 
			44.3,72.6 44,72.5 43.9,72.6 43.9,72.7 43.7,72.7 43.5,72.8 43.4,72.7 43.3,72.6 43.4,72.5 43.6,72.3 43.7,72.1 43.8,72 
			43.8,71.9 43.8,71.8 43.8,71.6 43.8,71.6 43.9,71.4 43.8,71.3 43.7,71.1 43.6,70.8 43.6,70.6 43.8,70.5 44,70.3 44.1,70.2 
			43.8,70.2 43.7,70.2 43.6,70.3 43.5,70.3 43.5,70.3 43.4,70.4 43.4,70.5 43.4,70.7 43.4,70.8 43.3,70.9 43.1,71 42.9,70.9 
			42.8,70.8 42.9,70.7 42.9,70.7 42.8,70.6 42.7,70.6 42.7,70.5 42.6,70.3 42.7,70.3 42.8,70.3 43.1,70.3 43.1,70.1 43.4,69.8 
			43.3,69.5 43,69.1 42.8,68.9 42.6,68.8 42.7,69.1 42.6,69.3 42.5,69.3 42.3,69.1 42.4,68.9 42.1,68.6 42.1,68.4 42.2,68.2 
			42.5,68.1 42.7,68.2 42.8,68.5 42.9,68.4 43,68.2 43.1,67.9 43.1,68.1 43.1,68.2 43.1,68.4 43.1,68.6 43.1,68.6 43.1,68.7 
			43.1,68.7 43.2,68.7 43.2,68.7 43.2,68.9 43.3,69 43.3,69 43.4,69.1 43.5,69.1 43.7,69.1 43.8,69.2 43.7,69.3 43.7,69.5 
			43.8,69.6 43.9,69.7 44.2,69.1 44.2,68.9 44.2,68.7 44.2,68.6 44,68.5 43.9,68.5 43.8,68.4 43.7,68.1 43.4,67.7 43.3,67.5 
			43.3,67.4 43.3,67.4 43.4,67.3 43.4,67.2 43.3,67.1 43.3,67 43.3,66.8 43.1,66.9 43,66.9 42.7,66.9 42.8,66.8 43,66.7 43.2,66.7 
			43.4,66.6 43.4,66.6 43.3,66.6 43.3,66.6 43.2,66.6 43.3,66.4 43.3,66.4 43.4,66.3 43.5,66.2 43.5,66.1 43.5,66 43.4,66 
			43.4,65.9 43.5,65.7 43.6,65.5 43.8,65.1 43.9,65.2 44,65.4 44.2,65.4 44.3,65.4 44.3,65.3 44.1,65.1 44.1,65.1 44.3,65 
			45.3,64.7 45.7,64.8 45.6,65.3 45.5,65.6 45.5,66 45.8,66.1 46.1,66 46.4,65.9 46.8,65.8 46.9,65.7 47.1,65.6 47.3,65.6 
			47.5,65.5 47.6,65.4 47.7,65.2 47.7,65 47.7,64.9 47.8,64.8 47.9,64.7 47.9,64.5 47.9,64.3 48.2,64.1 48.5,64.1 48.7,63.9 
			48.9,63.9 49.1,64 49.4,64.2 49.9,64.9 50.3,64.9 50.3,64.7 50.4,64.6 50.5,64.5 50.6,64.3 50.9,64.3 51.1,64.6 51,65 51.1,65.3 
			51.3,65.5 51.3,65.9 51.5,66.2 51.9,66.3 52.2,66.1 52.6,66 52.8,66 53,66 53.1,66.1 53.3,66.2 53.7,66.2 54.1,66.2 54.5,66.2 
			54.8,66.1 55.1,65.8 55.5,65.6 56.2,65.8 56.8,66.3 56.8,66.6 57,66.9 57.1,67.2 57.1,67.9 57.3,68.2 57.6,68.4 57.8,68.6 
			57.9,68.9 58,69.2 58.7,69.9 58.8,70.2 58.8,70.5 		"/>
		<polygon class="st6" points="52,76.8 52.4,76.7 52.5,76.8 52.7,76.8 52.8,77 52.8,77.3 52.6,77.5 52.4,77.6 52,77.6 51.8,77.6 
			51.7,77.6 51.4,77.4 51.4,77.3 51.5,77.2 51.5,77.2 51.4,77.1 51.3,77 51.5,76.9 51.7,76.8 		"/>
		<polygon class="st6" points="43.5,76.6 43.5,76.8 43.4,77 43.4,77.2 43.2,77.6 43.1,77.8 43,77.8 43,77.8 42.8,77.6 42.7,77.6 
			42.7,77.6 42.6,77.9 41.6,78.4 41.5,78.5 41,78.5 40.9,78.5 40.9,78.3 40.9,78.3 41,78.2 41.1,78.1 41,78 40.7,77.8 40.7,78.1 
			40.5,77.8 40.6,77.4 40.9,77 41.2,77 41.3,76.7 41.4,76.6 41.5,76.5 41.6,76.5 41.7,76.4 41.8,76.4 41.8,76.2 41.9,76.4 
			42.1,76.4 42.2,76.3 42.3,76.1 42.2,75.9 41.9,75.7 42,75.6 42.2,75.6 42.4,75.7 42.5,75.8 42.6,75.9 42.7,75.9 42.7,76 
			42.8,76.1 42.8,76.1 42.9,76.1 43.1,75.9 43.1,76.1 		"/>
		<polygon class="st6" points="58.6,74.1 58.7,74.2 58.8,74.3 58.9,74.5 59,74.8 59,75 59,75.2 58.9,75.4 58.8,75.5 58.7,75.5 
			58.5,75.5 58.2,75.1 58.1,74.9 58.2,74.7 58.2,74.6 58.4,74.5 58.5,74.4 58.5,74 58.4,73.9 58.4,73.8 58.5,73.7 58.6,73.7 
			58.8,73.8 58.8,73.9 58.7,74 		"/>
		<polygon class="st6" points="53.5,82.8 53.6,82.9 53.6,82.9 53.7,83 53.6,83 53.5,83 53.3,82.9 53.3,82.9 53.3,82.8 53.3,82.7 
			53.2,82.7 53.2,82.6 53.2,82.5 53.2,82.5 53.2,82.4 53.2,82.4 53.2,82.3 53.3,82.4 53.3,82.3 53.3,82.3 53.3,82.3 53.4,82.4 
			53.3,82.5 53.4,82.6 		"/>
		<polygon class="st6" points="55.9,77.2 55.9,77.3 55.9,77.4 55.9,77.5 55.7,77.6 55.5,77.7 55.4,77.7 55.4,77.5 55.4,77.5 
			55.3,77.4 55.2,77.4 55.2,77.3 55.1,77.2 55,77.2 55.1,77.1 55.1,77 55.1,76.9 55.1,76.9 55.2,77 55.3,77 55.4,77 55.4,77.1 
			55.5,77.1 55.6,77 55.7,77 		"/>
		<polygon class="st6" points="58.6,76.5 58.7,76.5 58.7,76.6 58.7,76.7 58.6,76.7 58.5,76.7 58.5,76.7 58.4,76.6 58.3,76.6 
			58.2,76.5 58.1,76.5 58,76.3 58,76.3 57.9,76.2 57.8,76.1 57.9,76 58,75.9 58.2,75.9 58.4,76 58.5,76.3 58.5,76.4 58.5,76.5 		"/>
		<polygon class="st6" points="45.8,80.9 45.9,80.9 46,81.1 46,81.1 45.9,81.1 45.9,81.1 45.9,81.1 45.8,81.1 45.7,81 45.6,81 
			45.6,81.1 45.5,81.2 45.4,81.3 45.3,81.4 45.1,81.5 44.9,81.4 44.8,81.3 44.8,81.1 44.9,80.9 45.1,80.8 45.3,80.8 45.5,80.9 
			45.5,80.9 45.6,80.9 45.8,80.9 		"/>
		<polygon class="st6" points="46.6,81.1 46.7,81.1 46.7,81.2 46.7,81.2 46.6,81.2 46.6,81.3 46.6,81.4 46.5,81.5 46.4,81.6 
			46.4,81.5 46.4,81.5 46.3,81.4 46.2,81.4 46.2,81.3 46.3,81 46.3,80.8 46.2,80.7 46.2,80.7 46.3,80.6 46.3,80.5 46.4,80.5 
			46.6,80.6 46.6,80.8 46.5,80.8 46.5,80.9 		"/>
		<polygon class="st6" points="49.2,80.5 49.3,80.6 49.3,80.7 49.3,80.9 49.3,80.9 49.2,81 49.1,81.1 48.9,81.1 48.8,81.1 48.7,81 
			48.6,81 48.6,81.1 48.6,81 48.5,80.8 48.6,80.7 48.6,80.6 48.6,80.5 48.7,80.4 48.9,80.3 49.1,80.4 		"/>
		<polygon class="st6" points="46,80.3 46,80.3 46,80.4 45.9,80.5 45.9,80.6 45.7,80.7 45.7,80.7 45.7,80.8 45.7,80.8 45.5,80.8 
			45.4,80.7 45.4,80.6 45.3,80.6 45.3,80.6 45.3,80.6 45.3,80.4 45.4,80.3 45.4,80.3 45.3,80.3 45.4,80.2 45.4,80.2 45.4,80.2 
			45.4,80.2 45.4,80.1 45.4,80 45.5,80.1 45.6,80.1 45.8,80.2 45.9,80.2 		"/>
		<polygon class="st6" points="48.6,79.1 48.5,79.1 48.4,79.1 48.4,79.1 48.4,79 48.3,78.9 48.2,78.8 48.1,78.9 48,78.9 47.9,78.9 
			47.8,78.9 47.8,78.9 47.5,78.8 47.5,78.7 47.6,78.7 47.8,78.7 47.8,78.6 47.8,78.6 47.9,78.6 48,78.7 48.1,78.6 48.3,78.5 
			48.4,78.5 48.5,78.5 48.5,78.5 48.6,78.5 48.6,78.5 48.8,78.6 48.9,78.6 49,78.6 49,78.7 48.9,78.8 48.9,78.9 48.9,78.9 48.8,79 
			48.7,79 48.6,79 		"/>
		<polygon class="st6" points="51.1,78.6 51.2,78.6 51.2,78.7 51.1,78.7 51,78.7 50.9,78.6 50.9,78.7 50.9,78.7 51,78.7 50.9,78.8 
			50.7,79 50.6,79 50.6,78.9 50.6,78.8 50.7,78.8 50.6,78.7 50.4,78.7 50.4,78.6 50.4,78.6 50.3,78.5 50.2,78.5 50.1,78.5 
			50.1,78.4 50.1,78.4 50.2,78.4 50.2,78.4 50.3,78.2 50.4,78.2 50.4,78.1 50.5,78.1 50.5,78.2 50.6,78.3 50.6,78.4 50.7,78.5 
			50.9,78.4 51,78.4 51,78.5 51.1,78.5 		"/>
		<polygon class="st6" points="47.6,79.1 47.6,79.1 47.7,79.3 47.6,79.3 47.6,79.3 47.5,79.3 47.4,79.3 47.4,79.2 47.3,79.2 
			47.3,79.3 47.3,79.3 47.2,79.3 47,79.2 46.8,79.2 46.8,79.1 46.9,79 46.9,78.9 46.8,78.9 46.7,78.9 46.5,78.9 46.4,78.8 
			46.3,78.7 46.3,78.6 46.3,78.4 46.3,78.2 46.3,78.1 46.4,77.9 46.5,77.9 46.6,77.9 46.8,77.8 46.9,77.9 47,78 47.1,78.1 
			47.2,78.4 47.3,78.6 47.3,78.7 47.4,78.8 47.4,78.9 		"/>
		<polygon class="st6" points="47.6,78.1 47.5,78.1 47.5,78 47.5,78 47.6,77.9 47.6,77.7 47.8,77.5 48,77.4 48.2,77.4 48.4,77.4 
			48.4,77.5 48.4,77.5 48.4,77.6 48.4,77.6 48.5,77.7 48.6,77.8 48.6,77.9 48.7,78 48.6,78 48.4,77.9 48.3,77.9 48.2,78 47.9,78.2 
			47.8,78.3 47.8,78.4 47.7,78.5 47.7,78.4 47.7,78.2 47.6,78.1 		"/>
		<polygon class="st6" points="43,71.8 43.2,71.9 43.3,72.1 43,72.3 42.9,72.3 43,72.2 43,72.1 43,72.1 42.7,71.9 42.7,71.9 
			42.3,71.9 42.2,72 42,72 41.9,72 41.8,71.9 41.9,71.8 42.1,71.8 42.3,71.7 42.3,71.7 42.4,71.7 42.4,71.6 42.5,71.6 42.6,71.5 
			42.6,71.4 42.5,71.3 42.4,71.1 42.6,71.1 42.7,71.1 42.9,71.2 43.1,71.4 43.1,71.4 43,71.4 42.8,71.6 42.8,71.6 42.8,71.7 
			42.8,71.8 42.9,71.8 		"/>
		<path class="st7" d="M70.5,67.9l0.2,0.5l0,0.3l0,0.3l0.1,0l-0.1,0l0-0.3l0-0.3l-0.1,0l-0.1,0.2l-0.1,0.3l-0.3,0l-0.7,0l0-0.2
			l-0.1-0.1l-0.1,0.4l-0.1,0.1l-0.3-0.1l-0.1-0.2l-0.1,0l-0.2,0.1v-0.6l0,0l-0.1,0l-0.1,0.1l0,0.2l-0.2-0.1L68,68.1L67.9,68
			l-0.2,0.1l0-0.2l-0.1-0.3l0-0.1l-0.1-0.3l-0.1,0l-0.1,0.1l-0.1,0.2l0,0.1l0.1,0.3l0.1,0.3l0,0.1l0.1,0.2l0.2,0.2l0,0.1l-0.1,0.2
			l0.1,0l0.1,0.1l0.1,0l-0.1,0.1l-0.1,0l-0.2,0l-0.1,0l0-0.1l0-0.1l0-0.1l-0.1-0.1l-0.1-0.1l-0.6-0.2l-0.2,0l-0.4,0.1l-0.1,0l0,0.1
			l0.1,0.2L66,69l-0.4,0.2l-0.4,0.1l-0.1,0.2l0,0.2L65,69.8v0.1l1.1-0.6l0.2,0l0,0.2l0.1,0.2l0,0.2L66.3,70l-0.1,0.1l-0.2,0l-0.2,0
			l-0.1-0.1l-0.1,0.1l0.1,0.1l0.1,0.1l0.1,0.1l0,0.1l0,0.1l0,0.3l-0.1,0.5l0.1,0.1l0.1,0l0.1-0.1l0-0.1l0.1,0.2l-0.2,0.3l-0.3,0.4
			l-0.2,0.1l-0.3,0l0-0.2l0.2,0l0.1,0l0.1-0.1l-0.7-0.1l-0.1-0.1l-0.2-0.2l0-0.1l0.1-0.1l0.2-0.1l-0.2-0.5l-0.2,0.2l-0.2,0.3l-0.3,0
			l-0.2-0.3l-0.1-0.1l-0.2,0l-0.1,0.1L63.2,71l0,0.2l0,0.2l-0.2,0l-0.5,0l-0.2-0.1l0-0.1l0-0.2l0-0.1l-0.1,0l-0.1,0l-0.2,0l-0.3,0
			l-0.1,0l-0.1-0.1l0-0.1l0-0.1l0-0.1l0-1l0-0.2l0-0.1l0.1-0.1l0-0.1l0-0.2l-0.2,0.2l-0.1,0.2l-0.2,0.2l-0.3,0l0.2,0.5L61,70.1
			l-0.3,0l-0.3,0.2l-0.1-0.3l-0.1-0.1l-0.1-0.1l0,0.4L60,70.5l-0.2,0.2l-0.3,0l-0.1,0l-0.1,0l-0.1,0l-0.1,0.1L59,70.6l-0.1,0l0-0.1
			l0-0.2l-0.1-0.4L58,69.2l-0.1-0.2l-0.1-0.3l-0.2-0.3l-0.3-0.2l-0.1-0.3l0-0.7L57,66.9l-0.2-0.3l0.1-0.3l0.2-0.2l0-0.3l0.1-0.4
			l0.5-0.5l0.1-0.4l-0.2-0.1l-0.1-0.3l0-0.3l-0.1-0.3l0-0.2l0-0.1L57,63.1l0-0.3l0.2-0.3l0.1-0.4l0.1-0.4l0.2-0.3l0.1-0.3l0-0.4
			l0.1-0.3L58,60l0.2-0.2l0.2-0.4l0.1-0.1l0.1,0l0.3-0.1l0.5-0.3l0.1-0.3l0.4-0.4l0.1,0.3l0.2,0.1l0.1,0.1l0.1,0.1l0,0.1l0,0.1
			l0.1,0l0.1,0l0.3,0l0.1,0.1l0.2,0.1l0.3,0l0.3,0l0.3,0.1l0.2,0.2l0.1,0.3l0.2,0.2l0.1,0.1l0,0.1l0.2,0.1l0.1,0.2l0,0.3l-0.1,0.3
			l0.2,0.6l0.7,0l0.3,0l0.3,0.1l0.3,0.1l0.3,0.2l0.3,0.1l0.6-0.3l0.3,0.1l0.3-0.4l0.2-0.2l0.1,0.7l0.3,0.3l0.3,0.2l0.4,0l0.4-0.1
			l0.4,0.1l0.3,0.2l0.4,0l0.4-0.3l0.2-0.1l0.2,0l0.1-0.1l0.1-0.2l0.4-0.2l0.4,0.1l0.3,0.2l0.3-0.1l0,0.5l-0.3,0.5l0.2,0.3l0.7,0.1
			l0.3,0.2l0.5,0.5l0.6,0.3l0.2,0.2l0.1,0.4l0.2,0.2l0.3,0.1l0,0L74.6,66l0,0.2l-0.1,0.1l-0.1,0.1l0.1,0.2l0,0.1L74.4,67l-0.2,0.4
			L74,67.6l-0.1,0.2l0,0l0,0l0,0l0,0l0.1-0.3l0.2-0.2l0.2-0.4l0.1-0.2l0-0.1l-0.1-0.2l0.1-0.1l0.1-0.1l0-0.2l0.1-0.2l0,0l-0.3-0.1
			L74.1,66l-0.2,0l-0.2,0.3l-0.3,0L73,66.5l-0.2-0.1l-0.3,0l-0.3,0.1L72,66.6l-0.2,0.2l-0.3,0.6l-0.2,0.2l-0.6-0.1L70.5,67.9z
			 M61.7,72.4l0.1,0.1l0,0.1l-0.1,0.1l0,0.2l0,0.3l0,0.2l-0.1,0.1l-0.1,0l0.1,0.3l0,0.1l-0.2,0l-0.2-0.1l-0.2-0.1l-0.2,0.1l-0.2,0
			l-0.1-0.3l-0.1-0.5l-0.2-0.1l-0.1,0.1L60,73.4l0,0.3l-0.1,0.1l-0.2,0l-0.2-0.1l-0.1-0.1l-0.1-0.1l0-0.1l0-0.1l0-0.2l-0.3-1l0-0.2
			l0-0.2l0.1-0.2l0.1-0.1l0.1,0l0.1,0l0.1-0.3l0.1-0.1l0.2-0.1l0.1-0.1l0.2,0.1l0.1,0.1l0.1,0.2l0,0.2l-0.1,0.2l-0.2,0.3l0,0.1
			L60,72l0.1,0.1l0.1,0.1l0.2,0.1l0.1,0.2l0.2,0l0.3-0.1l0.3-0.1L61.7,72.4L61.7,72.4z M69.1,71.7l0,0.2l0,0.2l-0.1,0.1l-0.1-0.1
			l0.1,0.2l0.1,0.3l0,0.2l-0.1,0l-0.2-0.1l-0.2-0.1l-0.1-0.1l0,0.2l0,0.1L68.1,73l-0.1,0.2l0.1,0.1l0.2,0.1l0.1,0.1l-0.2,0.1
			l-0.8,0.2l-0.2,0l0.4-0.3l-0.2-0.1l-0.1-0.1l0-0.2l0.1-0.2l-0.3,0.2l-0.1-0.1l0-0.2l0-0.2l0.1-0.1l0.3-0.1l0.1-0.1l0-0.2l0.1-0.2
			l-0.1-0.1l-0.1,0.1l-0.4,0.2l-0.2,0.1l-0.1-0.2l-0.2-0.2L66.3,72l0-0.3l0.1-0.2l0.1-0.1l0.2-0.1l0.1-0.1l0.4-0.1l0.1,0l0.2,0.1
			l0.1,0.1l0.1,0.1l0.2,0v-0.1l-0.2-0.1L67.6,71l-0.1-0.2l0-0.2l0.1,0l0.8-0.4l-0.1-0.2l0.1-0.2l0.2-0.1l0.2,0.1l0,0.1l0,0.1
			l-0.1,0.5l0,0.1l0.1,0.2l0.1,0.1l0,0.1l0,0.2l0,0.2l-0.2,0.4l0.2-0.1l0.1-0.1l0,0L69.1,71.7z M61.7,72L61.7,72l0.1,0.1l-0.1,0
			l-0.5-0.1L61,72.1l-0.2,0L60.7,72l-0.1-0.2l0.1-0.2l0.1-0.2l0.1-0.2l0.1-0.1l0.2,0l0.1,0.1l-0.1,0.2l0,0.1l0,0.1l0.1,0l0.1-0.1
			l0.1-0.2l0.1,0l0,0.1l0.1,0.1l0.1,0l0,0.2L61.7,72L61.7,72z M70.1,69.7l0,0.3L70,70.1l-0.1,0l0-0.1l-0.1-0.2l-0.1-0.1l0-0.1l0-0.1
			l0-0.1l-0.1-0.1l0-0.1l0.1-0.1l0.1,0l0.1,0l0.1,0.2L70.1,69.7z M64.1,74.7L64.1,74.7L64.1,74.7L64.1,75l0,0l-0.1,0l-0.1,0l-0.1,0
			L63.6,75l-0.1,0.1l-0.1,0l0,0l0-0.1l0-0.1l0,0l0,0l0,0l0-0.1l0-0.1l0-0.1l0,0l0.1,0l0.3,0.2l0,0.1l0,0L64.1,74.7z M65.1,72.4
			l0.1,0l0.2,0l0.2,0l0.1,0.1l0,0.2l-0.1,0.1l0,0.1l0,0.1l-0.1,0l0,0l0,0l0.1,0l0.1,0.1l0,0.1l-0.1,0.1l-0.2,0L65.3,73l0-0.1l-0.1,0
			l0-0.1l0-0.1l-0.1,0l0,0l0.1-0.1l0-0.1L65,72.4l-0.2-0.1l-0.1,0l-0.1,0l0-0.1l0.1-0.1l0.1,0l0.2,0.1L65.1,72.4L65.1,72.4z
			 M63.6,72.1l0.2,0.2l0.1,0.1l0,0.1h-0.1l-0.1,0l0,0.1l0,0l-0.1,0l-0.1,0l-0.1-0.1l-0.1-0.1l0-0.1l0.1-0.1l0.1-0.1L63.6,72.1z"/>
		<path class="st8" d="M73.9,67.8l-0.1,0.1l-0.2,0l-0.1,0l-0.2,0l-0.1,0L73.2,68l-0.1,0l0,0.2l0.1,0.1l0,0.2l-0.1,0.2l-0.2,0.1
			l-0.2-0.2l-0.1-0.1l-0.1-0.1l-0.3,0.3L72,68.9l0,0.3l-0.1,0.1l-0.1-0.1L71.7,69l0,0.1l0,0.3l-0.1,0l0-0.1l0,0l-0.1,0.1l-0.1,0.1
			l-0.1-0.1L71.2,69l0-0.3l0.1-0.3l0-0.2l-0.5,0.7l-0.1,0l0-0.5l-0.2-0.5l0.4-0.4l0.6,0.1l0.2-0.2l0.3-0.6l0.2-0.2l0.2-0.1l0.3-0.1
			l0.3,0l0.2,0.1l0.4-0.2l0.3,0l0.2-0.3l0.2,0l0.2-0.3l0.3,0.1l0,0L74.6,66l0,0.2l-0.1,0.1l-0.1,0.1l0.1,0.2l0,0.1l-0.3,0.6L74,67.6
			L73.9,67.8L73.9,67.8z"/>
		<path class="st9" d="M76.7,61.9L76.7,61.9l0.1,0.1l0,0.3l0,0.3l-0.1,0.5l-0.1,0.2l-0.2,0.2l-0.2,0.1l-0.1-0.2l-0.1-0.3L76,63
			l-0.2,0l-0.1,0.3l0.1,0l0.1,0.1l0,0.2l0,0.2l0,0.2l-0.1,0l-0.1,0L75.6,64l0,0.1l0,0.2l0,0.3l-0.1,0.2l-0.1,0.2l0.1,0.1l0.1,0.1
			l0,0.2l-0.2,0.1l-0.2,0.1l-0.3,0.3l-0.3,0l0,0l0,0l-0.3-0.1l-0.2-0.2L74,65.1l-0.2-0.2l-0.6-0.3L72.7,64l-0.3-0.2l-0.7-0.1
			l-0.2-0.3l0.3-0.5l0-0.5l0.3-0.2l0.3-0.2l0.2,0l0.1-0.1l-0.1-0.2l-0.1-0.2l0.4-0.3l0.5-0.2l0.4-0.1L74,61l0.4,0.2l0.1,0.2l0,0.2
			l0,0.2l0.1,0.1l0.2,0l1-0.2L76.7,61.9L76.7,61.9z"/>
		<polygon class="st10" points="76.3,48.4 76.3,48.5 76.4,49 76.5,49.5 76.6,50.1 76.5,51.2 76.5,51.5 76.1,51.9 76,52.1 75.9,52.4 
			75.9,54 75.9,54.2 76,54.4 76.1,54.4 76.1,54.5 76.2,54.9 76.3,55.3 76.4,55.3 76.4,55.4 76.4,55.6 76.3,55.7 76.2,55.8 
			76.1,55.8 75.9,56 75.9,56.2 76.1,56.4 76.3,56.6 76.4,56.8 76.7,56.8 76.9,56.6 77.6,55.8 77.8,55.6 77.9,55.8 78,56 78.1,56.2 
			78.1,56.5 77.9,56.7 77.6,57.5 77.5,57.9 77.4,58.8 77.1,59.6 77.1,60.1 76.9,60.9 76.6,61.4 76.6,61.6 76.6,61.8 76.7,61.9 
			76.7,61.9 75.9,61.7 74.9,61.9 74.7,61.8 74.5,61.7 74.5,61.6 74.5,61.4 74.4,61.2 74,61 73.7,60.9 73.3,61 72.8,61.2 72.5,61.4 
			72.5,61.6 72.6,61.8 72.6,61.9 72.4,61.9 72.1,62.1 71.9,62.3 71.6,62.4 71.2,62.3 70.8,62.2 70.4,62.3 70.3,62.5 70.2,62.6 
			70,62.6 69.8,62.7 69.5,63 69.1,63 68.8,62.8 68.4,62.7 68,62.7 67.6,62.8 67.3,62.6 67,62.2 66.9,61.5 66.7,61.7 66.4,62.1 
			66.1,62 65.5,62.3 65.2,62.3 64.9,62 64.6,61.9 64.3,61.9 64,61.9 63.3,61.9 63.2,61.3 63.3,61 63.3,60.6 63.2,60.5 63,60.4 
			63,60.3 62.9,60.1 62.7,60 62.5,59.7 62.3,59.5 62,59.4 61.7,59.4 61.4,59.3 61.2,59.2 61.1,59.1 60.8,59.1 60.7,59.1 60.6,59 
			60.5,58.9 60.5,58.8 60.4,58.7 60.3,58.6 60.1,58.5 60,58.2 60.1,57.4 59.6,56.6 59.9,56.5 60.2,56.4 60.3,56.1 60.4,55.7 
			60.5,55.6 60.6,55.4 60.6,55.2 60.6,55 60.6,54.7 60.8,54.5 61.1,54.5 61.3,54.5 61.2,53.8 61,53.6 60.4,53.8 60.2,53.7 
			59.9,53.4 59.6,53.3 59.2,53.4 59.1,52.8 59.4,52.6 59.5,52.3 59.4,52.1 59.3,51.8 59.4,51.5 59.4,50.8 59.6,50.5 59.8,50.3 
			59.2,49.5 58.8,49.4 58.7,49.1 58.8,49.1 59,49 59.2,48.9 59.4,48.5 59.5,48.4 59.4,48.3 59.5,48.1 59.8,47.9 60.2,47.7 
			60.4,47.4 60.8,47.5 61.6,47.7 61.4,47.4 61.2,47.1 61.3,46.8 61.4,46.5 61.6,46.3 61.8,46.4 62,46.4 62.1,46.2 62.3,46 
			62.5,46.1 62.8,46.3 63.1,46.3 63.2,46.1 63.3,45.9 63.4,45.7 63.5,45.5 63.7,45.7 63.9,45.8 64.1,46 64.3,46.4 64.7,46.5 
			65.6,46.1 65.7,45.6 65.6,45.5 65.5,45.3 65.6,45.1 65.7,44.8 66,44.5 66.3,44.2 66.4,44.1 66.5,44 66.8,43.9 67,43.7 67.2,43.5 
			67.5,43.2 67.6,43.1 67.7,43.2 67.9,43.1 68,43 68.3,43.1 68.5,43.2 68.9,43.3 69.1,43.3 69.2,43 69.2,42.7 69.2,42.4 69.4,42.1 
			69.6,42 69.9,42 70.1,42.3 70.3,42.3 70.5,42.4 70.5,42.7 70.5,42.9 70.8,42.8 71.1,42.5 71.3,42.6 71.3,42.7 71.5,42.7 
			71.6,42.7 72,42.7 72.4,42.9 72.7,42.9 73,42.7 73.4,42.8 73.7,43 75.1,42.9 76.1,41.8 76.4,42.3 76.5,42.4 76.4,42.6 76.3,42.7 
			76.2,42.9 76.2,43 76.3,43.6 76.4,44.7 76.5,45.2 76.9,46.3 76.9,46.9 76.8,47.4 76.5,47.9 		"/>
		<path class="st11" d="M49.6,85.1l0.1,0.2l-0.1,0.1l-0.1,0l-0.1,0.1l0,0.1l0.1,0.1v0.1l0,0.1l-0.1,0.1l0,0l-0.2,0.2l-0.4,0.3
			l-0.1,0.2L48.5,87l0,0.1l-0.1,0.2l-0.3,0l-0.1,0.1l-0.3,0l-0.4,0.3l-1.1,0.2l-0.4,0.3l-0.4,0.1l-0.5,0l-0.5,0.1L44,88.2l-1,0
			l-0.3,0.2l-0.2,0.3l-0.2,0l-0.2-0.1l-0.2-0.4l-0.3-0.1l-0.3-0.3l-0.1-0.4l0.2-0.5l0.2-0.3l0.1-0.1l0.4-0.2l0.3-0.6l0.3-0.1
			l0.1-0.3l0.5-0.2l1.1-0.3l0.3-0.2l1.1-0.1l0.7-0.3l0.2,0l0.9-0.1l0.5,0l0.3,0.1l0.1,0.2l0.2,0.1l0.5,0.2l0.2,0.2l0.1,0.4l0.1,0.2
			l0.1-0.1L49.6,85.1L49.6,85.1z"/>
		<path class="st12" d="M51.4,35.8l0.3,0l0.3-0.1l0.2,0l0.1,0.2l0,0.2l-0.2,0.1l-0.2,0.1l0,0.2l0.1,0.1l-0.2,0.3l-0.1,0.2l-0.3,0.2
			l-0.3,0.1l-0.3,0.2l-0.1-0.3l-0.3,0.1l-0.3,0.1L50,37.4l-0.2,0l-0.5,0L49,37l-0.3-0.1l-0.2-0.1l-0.1-0.4l-0.6-0.3l0.1-0.3l0.2-0.3
			l0.3,0l0.3,0.2l0.3-0.1l0.2-0.1l0-0.2l0.1-0.2l0.5,0l0.2-0.3l0.2-0.3l0.2-0.2l0.3-0.1l0.4,0l0.2,0.3l0.1,0.4l0.1,0.3l0,0.3
			L51.4,35.8z"/>
		<path class="st13" d="M53,44.9l0.5-0.1l0.5-0.2l0.4-0.1l0.1-0.4l0.2-0.2l0.3-0.1l0.1-0.2l0.1-0.2l0.2-0.2l0.2,0l0.1,0.1l0.3-0.2
			l0.5-1l0.1-0.1l0.1-0.1l0.1-0.1l0.1-0.1l0.1-0.1l0.1-0.1l1.1-0.3L59,41l-0.1,0.7l0.3-0.1l0.3,0l0.1,0.1l0.1,0l0.1-0.1l0.1-0.1
			l0.2-0.2l-0.1-0.7l0.2-0.3l0.6-0.2l0.4,0.4V41l0.1,0.2l0.4-0.1l0.4-0.2l0.2-0.2l0.3,0.1l0.2-0.1l0.3-0.2l0.6,0.2l0.6,0.1l0.2,0.1
			l-0.1,0.3L64,41.4l-0.2,0.3l0.1,0.1l0.2,0.1l0.1,0l0.1,0l0.3-0.1l0.5-0.1l0.1,0.1l0,0.2l0.2,0.2l0.1,0.2l0.2,0l0.2,0l0.3-0.1
			l0.3,0l0.3,0.2l0.3,0.2l0.3,0.1l0.3,0l0.2,0.1L68,43l-0.1,0.2l-0.1,0.1l-0.1,0l-0.1,0.1l-0.2,0.3L67,43.7l-0.2,0.2L66.5,44
			l-0.1,0.1l-0.1,0.2L66,44.5l-0.2,0.3l-0.1,0.3l-0.1,0.3l0.1,0.1l0.1,0.1l-0.2,0.5l-0.9,0.4l-0.4-0.1L64.1,46l-0.3-0.2l-0.2-0.1
			l-0.1-0.2l-0.1,0.1l-0.1,0.2l-0.1,0.2l-0.1,0.2l-0.3,0l-0.3-0.1L62.3,46l-0.2,0.1L62,46.4l-0.2,0l-0.2-0.1l-0.1,0.2l-0.1,0.3
			l-0.1,0.3l0.2,0.3l0.2,0.3l-0.8-0.1l-0.4-0.2l-0.2,0.4l-0.4,0.2l-0.3,0.2l0,0.2l0,0.1l-0.1,0.1l-0.2,0.3L59,49l-0.2,0l-0.2,0.1
			l0.1,0.3l0.4,0.1l0.5,0.8l-0.2,0.2l-0.1,0.3l0,0.7l-0.1,0.3l0.1,0.2l0.1,0.2l-0.2,0.3l-0.2,0.2l0.1,0.6l0.4-0.1l0.3,0.1l0.3,0.3
			l0.2,0.1l0.6-0.1l0.2,0.2l0.1,0.7l-0.2,0l-0.3,0l-0.3,0.2l0.1,0.4l0,0.2l0,0.2l-0.1,0.1l-0.1,0.1l-0.1,0.3l-0.2,0.3l-0.3,0.1
			l-0.3,0.1l-0.1,0.1l-0.1,0.1l-0.2-0.1L59,56.6l-0.4,0.2L58.3,57l-0.2,0L58,56.9l-0.5-0.2l-0.2-0.2l-0.2-0.1l-0.1,0.1l-0.1,0
			l-0.1-0.1l-0.1-0.1l-0.2-0.4l-0.2-0.4l-0.1-0.5l0-0.5l-0.1-0.4L55.9,54l-0.3-0.1L55.2,54l0-0.4l0-0.4l0.1-0.5l0.2-0.4l0.1-0.2
			l0.1-0.2l0.2-0.1l0-0.2l-0.1,0l-0.1-0.1l-0.2,0.1l-0.1,0.2l-0.1-0.4l0-0.2L55.1,51l0-0.2l-0.2,0L54.8,51l-0.3,0.1L54.2,51l0-0.2
			l-0.1-0.2l-0.1,0L54,50.5l0-0.1l0-0.1L54,50l0-0.2l0.2-1.1l-0.3-0.4l0-0.4l-0.5-0.6l0.1-0.1l0.1,0l0.1,0l0.1-0.1l0-0.1l0-0.1
			l0.1-0.1l0-0.2l0-0.2l-0.1-0.1l-0.1-0.1l0-0.3l-0.1-0.1l-0.2-0.4l-0.1-0.1L53,45.1L53,44.9z"/>
		<path class="st14" d="M50,66.8l0.2,0.6L49.8,68l-0.7-0.1l-0.6,0.4l-0.4-0.1l0.1-0.2l-0.3-0.3l-0.1-0.7l0.4-0.6h0.3l0.3,0.4
			l0.3-0.1l0.3-0.1L50,66.8z"/>
		<path class="st15" d="M70,58.7L70,58.7l-0.2,0l0,0.1l0,0.1l-0.1,0.3l0,0.1l0,0.1l0.1,0.9l-0.7,0.4l-0.6-1.3l-0.2,0.1l0.1,0.3
			l0.1,0.6L68,61.5h-0.7l-0.5-0.4l0-0.5l0.7-0.2l-0.6-0.5l0.6-0.1l0.1-0.2l-0.2-0.5L67.2,59l-0.1-0.2l0.1-0.2l0.2,0l0.2,0l0-0.1
			l0-0.1l-0.1,0l-0.1,0l0.1-0.3l0.2-0.2l-0.1-0.6l0.5-0.4l0.7-0.1l0.6,0l0.4,0.3l0.1,0.2l0,0.1L70,57.3l0,0.3l0.1,0.1l0.1,0.1l0,0.2
			l0,0.2l-0.1,0.2L70,58.7z"/>
		<polygon class="st16" points="53.7,50.3 53.5,50.8 53.1,51.5 53.3,51.9 52.7,52.8 53.4,53.6 54.1,53.5 54.2,52.8 54.6,52.8 
			54.6,53.1 54.7,53.1 55.3,52.7 55.6,52.3 55.7,52.1 55.8,51.9 55.9,51.7 56,51.5 55.8,51.4 55.7,51.4 55.5,51.5 55.4,51.7 
			55.3,51.3 55.2,51.1 55.1,51 55.1,50.9 55,50.8 54.8,51 54.5,51.1 54.2,51 54.2,50.8 54.1,50.6 54.1,50.6 54,50.5 53.9,50.4 
			54,50.3 54,50.3 53.9,50.3 		"/>
		<polygon class="st17" points="54.1,48.7 53.8,48.3 53.8,47.8 53.3,47.2 52.6,46.7 52.2,46.9 52.4,47.6 52.8,48 52.6,48.5 
			52.6,48.7 52.5,49.2 52.8,49.4 53.1,49.5 53.2,50 53.7,50.3 54,50.3 54,49.9 54,49.8 		"/>
		<polygon class="st10" points="80,41.5 80.2,41.6 80.1,42 80,42.4 79.9,42.6 79.7,42.7 79.4,42.7 79.1,42.5 78.9,42.3 78.9,42 
			79,41.8 79.2,41.7 79.6,41.6 79.8,41.5 		"/>
		<polygon class="st10" points="82.7,44.8 82.8,44.8 82.8,45 82.8,45.2 82.7,45.3 82.6,45.3 82.5,45.3 82.4,45.2 82.3,45.1 82.3,45 
			82.3,44.9 82.4,44.9 82.6,44.8 82.7,44.8 		"/>
		<polygon class="st10" points="83.1,45.1 83.2,45.1 83.3,45.1 83.2,45.3 83.1,45.4 83.1,45.4 83,45.4 83,45.2 83,45.1 		"/>
	</g>
	<g>
		<path class="st18" d="M40,51.9v3.5h-6.4v15.7h-4.4V55.4h-6.4v-3.5H40z"/>
		<path class="st18" d="M55.9,58.8l-5.5,12.5h-1.9l-7.8-19.4h4.7l4.2,10.6l4.5-10.6h3.5l4.5,10.6l4.1-10.6H71l-7.7,19.4h-1.9
			L55.9,58.8z"/>
		<path class="st18" d="M81,51.7c3,0,5.4,1,7.3,3c1.9,2,2.8,4.3,2.8,6.9c0,2.7-0.9,5-2.8,6.9c-1.9,1.9-4.3,2.9-7.3,2.9
			c-3,0-5.4-1-7.3-2.9s-2.8-4.2-2.8-6.9c0-2.6,0.9-4.9,2.8-6.9C75.5,52.6,77.9,51.7,81,51.7z M81,67.3c1.7,0,3-0.5,4-1.6
			c1-1.1,1.5-2.5,1.5-4.2c0-1.8-0.5-3.2-1.5-4.2c-1-1.1-2.4-1.6-4-1.6c-1.7,0-3,0.5-4.1,1.6c-1,1.1-1.5,2.5-1.5,4.2
			c0,1.7,0.5,3.2,1.5,4.2C77.9,66.8,79.3,67.3,81,67.3z"/>
	</g>
	<g>
		<path class="st19" d="M39.4,42.1c0,1.3-0.4,2.5-1.1,3.6c-0.7,1.1-1.7,1.9-2.8,2.5c-0.7,0.3-1.4,0.6-2.2,0.7
			C32.5,49,31.6,49,30.5,49H26l2.9-11.3h4c1.2,0,2.1,0.1,2.9,0.3c0.7,0.2,1.3,0.4,1.8,0.7c0.6,0.4,1.1,0.9,1.4,1.4
			C39.3,40.6,39.4,41.3,39.4,42.1z M36.1,42.4c0-0.5-0.1-1-0.3-1.3c-0.2-0.4-0.5-0.7-1-0.9c-0.2-0.1-0.4-0.2-0.6-0.2
			c-0.2-0.1-0.4-0.1-0.7-0.1c-0.3,0-0.5,0-0.9,0s-0.6,0-0.9,0h-0.1l-1.8,7.2h0.3c0.3,0,0.7,0,1,0s0.7,0,0.9,0c0.3,0,0.6-0.1,0.8-0.1
			c0.2-0.1,0.5-0.1,0.8-0.3c0.8-0.4,1.4-0.9,1.8-1.7C35.9,44.1,36.1,43.3,36.1,42.4z"/>
		<path class="st19" d="M44.8,49.2c-1.1,0-2-0.1-2.8-0.3c-0.8-0.2-1.6-0.4-2.2-0.6l0.6-2.7h0.4c0.6,0.5,1.2,0.8,2,1.1
			c0.8,0.3,1.6,0.4,2.5,0.4c0.9,0,1.6-0.1,2-0.3s0.6-0.5,0.6-1c0-0.2,0-0.3-0.1-0.4c-0.1-0.1-0.2-0.2-0.4-0.3
			c-0.2-0.1-0.5-0.2-0.8-0.3c-0.3-0.1-0.8-0.2-1.3-0.4c-0.6-0.2-1.2-0.3-1.6-0.5c-0.5-0.2-0.9-0.4-1.2-0.6c-0.3-0.2-0.6-0.5-0.8-0.9
			c-0.2-0.3-0.3-0.7-0.3-1.2c0-1.1,0.5-2,1.6-2.7s2.6-1,4.5-1c0.9,0,1.8,0.1,2.6,0.2s1.5,0.3,2.1,0.6l-0.6,2.6h-0.3
			c-0.4-0.4-1-0.7-1.7-0.9c-0.7-0.2-1.5-0.4-2.3-0.4c-0.8,0-1.5,0.1-1.9,0.3s-0.7,0.5-0.7,0.9c0,0.2,0,0.3,0.1,0.4
			c0.1,0.1,0.2,0.2,0.4,0.3c0.2,0.1,0.5,0.2,0.8,0.3c0.4,0.1,0.8,0.2,1.4,0.4c1.4,0.3,2.4,0.7,3,1.2s0.9,1.1,0.9,1.9
			c0,0.7-0.2,1.2-0.5,1.7c-0.3,0.5-0.8,0.9-1.3,1.2c-0.6,0.3-1.3,0.6-2,0.7C46.6,49.1,45.8,49.2,44.8,49.2z"/>
		<path class="st19" d="M63.3,49h-10l0.6-2.4H57l1.8-7.2h-3.2l0.6-2.2c0.5,0,0.9,0,1.4-0.1c0.5-0.1,0.9-0.1,1.2-0.3
			c0.4-0.1,0.7-0.3,0.9-0.6c0.3-0.2,0.4-0.6,0.6-0.9h3.3l-2.9,11.3h3.1L63.3,49z"/>
	</g>
	<g>
		<path class="st20" d="M33.2,75.1v-0.7h1.9v0.9h-0.2L33.2,75.1z M35.1,82.4v0.9h-1.9v-0.7l1.7-0.2H35.1z M34.1,78.6
			c0-1.4,0-2.8,0-4.2h2c0,1.4,0,2.8,0,4.2V79c0,1.5,0,2.9,0,4.3h-2c0-1.4,0-2.8,0-4.3V78.6z M35.1,82.5h1.4c1.3,0,2.2-1.3,2.2-3.7
			c0-2.4-0.8-3.7-2.2-3.7h-1.4v-0.8h1.6c2.5,0,4,1.7,4,4.5c0,2.9-1.6,4.5-4.2,4.5h-1.4V82.5z"/>
		<path class="st20" d="M45.3,81.5c0-0.7-0.3-1-1-1.4l-0.5-0.3c-1.4-0.7-2.2-1.5-2.2-3.1c0-1.6,1.1-2.6,2.9-2.6
			c0.8,0,1.6,0.3,2.2,0.7l-0.1,1.9h-1.1l-0.3-2.1l0.9,0.4v0.7c-0.6-0.5-1.1-0.8-1.7-0.8c-0.7,0-1.2,0.5-1.2,1.2
			c0,0.7,0.4,1.1,1.1,1.5l0.6,0.3c1.5,0.8,2.1,1.5,2.1,2.9c0,1.6-1.1,2.8-3.1,2.8c-0.9,0-1.9-0.2-2.5-0.7l0.1-2h1.1l0.3,2.2
			l-0.9-0.3v-0.7c0.7,0.5,1.2,0.7,2,0.7C44.9,82.8,45.3,82.2,45.3,81.5z"/>
		<path class="st20" d="M55.6,78.8c0,3.1-1.8,4.7-3.7,4.7c-1.9,0-3.7-1.6-3.7-4.7c0-3.1,1.8-4.7,3.7-4.7
			C53.8,74.1,55.6,75.7,55.6,78.8z M49,83.8l-0.7-0.6l6.4-9.3l0.7,0.6L49,83.8z M51.9,82.8c1.2,0,1.6-1.7,1.6-3.9c0-2.3-0.5-4-1.6-4
			c-1.2,0-1.6,1.7-1.6,4C50.2,81.1,50.7,82.8,51.9,82.8z"/>
		<path class="st20" d="M56.3,75.1v-0.7H60v0.7l-1.7,0.2H58L56.3,75.1z M58.3,82.4l1.5,0.2v0.7h-3.6v-0.7l1.7-0.2H58.3z M57.2,78.6
			c0-1.4,0-2.8,0-4.2h2c0,1.4,0,2.8,0,4.2v0.6c0,1.3,0,2.7,0,4.1h-2c0-1.4,0-2.8,0-4.2V78.6z M58.1,80.3l4.1-6h0.9l-5,6.9V80.3z
			 M60.8,77.1l2.9,6.3h-2.1l-1.9-4.5L60.8,77.1z M60.6,82.6l1.6-0.2h0.3l1.5,0.2v0.7h-3.4V82.6z M60.9,75.1v-0.7h2.7v0.7l-1.4,0.2
			l-0.3,0L60.9,75.1z"/>
		<path class="st20" d="M64.5,75.1v-0.7h1.9v0.9h-0.2L64.5,75.1z M66.4,82.4v0.9h-1.9v-0.7l1.7-0.2H66.4z M65.4,78.6
			c0-1.4,0-2.8,0-4.2h2c0,1.4,0,2.8,0,4.2V79c0,1.5,0,2.9,0,4.3h-2c0-1.4,0-2.8,0-4.3V78.6z M66.4,82.5h1.4c1.3,0,2.2-1.3,2.2-3.7
			c0-2.4-0.8-3.7-2.2-3.7h-1.4v-0.8H68c2.5,0,4,1.7,4,4.5c0,2.9-1.6,4.5-4.2,4.5h-1.4V82.5z"/>
		<path class="st20" d="M72.6,82.6l1.2-0.2h0.3l1.5,0.2v0.7h-3.1V82.6z M73.2,74.8l0.7,0.4l-1.3-0.1v-0.7h2.6l4.2,6.7v2.3h-1
			L73.2,74.8z M73.6,74.4l0.8,0.7v8.2h-0.8V74.4z M77.3,74.4h3.1v0.7l-1.2,0.2h-0.3l-1.6-0.2V74.4z M78.7,74.4h0.8v9l-0.8-0.9V74.4z
			"/>
	</g>
	<g>
		<path d="M33.2,75.1v-0.7h1.9v0.9h-0.2L33.2,75.1z M35.1,82.4v0.9h-1.9v-0.7l1.7-0.2H35.1z M34.1,78.6c0-1.4,0-2.8,0-4.2h2
			c0,1.4,0,2.8,0,4.2V79c0,1.5,0,2.9,0,4.3h-2c0-1.4,0-2.8,0-4.3V78.6z M35.1,82.5h1.4c1.3,0,2.2-1.3,2.2-3.7c0-2.4-0.8-3.7-2.2-3.7
			h-1.4v-0.8h1.6c2.5,0,4,1.7,4,4.5c0,2.9-1.6,4.5-4.2,4.5h-1.4V82.5z"/>
		<path d="M45.3,81.5c0-0.7-0.3-1-1-1.4l-0.5-0.3c-1.4-0.7-2.2-1.5-2.2-3.1c0-1.6,1.1-2.6,2.9-2.6c0.8,0,1.6,0.3,2.2,0.7l-0.1,1.9
			h-1.1l-0.3-2.1l0.9,0.4v0.7c-0.6-0.5-1.1-0.8-1.7-0.8c-0.7,0-1.2,0.5-1.2,1.2c0,0.7,0.4,1.1,1.1,1.5l0.6,0.3
			c1.5,0.8,2.1,1.5,2.1,2.9c0,1.6-1.1,2.8-3.1,2.8c-0.9,0-1.9-0.2-2.5-0.7l0.1-2h1.1l0.3,2.2l-0.9-0.3v-0.7c0.7,0.5,1.2,0.7,2,0.7
			C44.9,82.8,45.3,82.2,45.3,81.5z"/>
		<path d="M55.6,78.8c0,3.1-1.8,4.7-3.7,4.7c-1.9,0-3.7-1.6-3.7-4.7c0-3.1,1.8-4.7,3.7-4.7C53.8,74.1,55.6,75.7,55.6,78.8z M49,83.8
			l-0.7-0.6l6.4-9.3l0.7,0.6L49,83.8z M51.9,82.8c1.2,0,1.6-1.7,1.6-3.9c0-2.3-0.5-4-1.6-4c-1.2,0-1.6,1.7-1.6,4
			C50.2,81.1,50.7,82.8,51.9,82.8z"/>
		<path d="M56.3,75.1v-0.7H60v0.7l-1.7,0.2H58L56.3,75.1z M58.3,82.4l1.5,0.2v0.7h-3.6v-0.7l1.7-0.2H58.3z M57.2,78.6
			c0-1.4,0-2.8,0-4.2h2c0,1.4,0,2.8,0,4.2v0.6c0,1.3,0,2.7,0,4.1h-2c0-1.4,0-2.8,0-4.2V78.6z M58.1,80.3l4.1-6h0.9l-5,6.9V80.3z
			 M60.8,77.1l2.9,6.3h-2.1l-1.9-4.5L60.8,77.1z M60.6,82.6l1.6-0.2h0.3l1.5,0.2v0.7h-3.4V82.6z M60.9,75.1v-0.7h2.7v0.7l-1.4,0.2
			l-0.3,0L60.9,75.1z"/>
		<path d="M64.5,75.1v-0.7h1.9v0.9h-0.2L64.5,75.1z M66.4,82.4v0.9h-1.9v-0.7l1.7-0.2H66.4z M65.4,78.6c0-1.4,0-2.8,0-4.2h2
			c0,1.4,0,2.8,0,4.2V79c0,1.5,0,2.9,0,4.3h-2c0-1.4,0-2.8,0-4.3V78.6z M66.4,82.5h1.4c1.3,0,2.2-1.3,2.2-3.7c0-2.4-0.8-3.7-2.2-3.7
			h-1.4v-0.8H68c2.5,0,4,1.7,4,4.5c0,2.9-1.6,4.5-4.2,4.5h-1.4V82.5z"/>
		<path d="M72.6,82.6l1.2-0.2h0.3l1.5,0.2v0.7h-3.1V82.6z M73.2,74.8l0.7,0.4l-1.3-0.1v-0.7h2.6l4.2,6.7v2.3h-1L73.2,74.8z
			 M73.6,74.4l0.8,0.7v8.2h-0.8V74.4z M77.3,74.4h3.1v0.7l-1.2,0.2h-0.3l-1.6-0.2V74.4z M78.7,74.4h0.8v9l-0.8-0.9V74.4z"/>
	</g>
</g>
</svg>
